<?xml version="1.0" encoding="utf-8" standalone="no"?>
<!DOCTYPE svg PUBLIC "-//W3C//DTD SVG 1.1//EN"
  "http://www.w3.org/Graphics/SVG/1.1/DTD/svg11.dtd">
<!-- Created with matplotlib (http://matplotlib.org/) -->
<svg height="288pt" version="1.1" viewBox="0 0 432 288" width="432pt" xmlns="http://www.w3.org/2000/svg" xmlns:xlink="http://www.w3.org/1999/xlink">
 <defs>
  <style type="text/css">
*{stroke-linecap:butt;stroke-linejoin:round;}
  </style>
 </defs>
 <g id="figure_1">
  <g id="patch_1">
   <path d="M 0 288 
L 432 288 
L 432 0 
L 0 0 
z
" style="fill:#ffffff;"/>
  </g>
  <g id="axes_1">
   <g id="patch_2">
    <path d="M 54 252 
L 388.8 252 
L 388.8 34.56 
L 54 34.56 
z
" style="fill:#ffffff;"/>
   </g>
   <g id="patch_3">
    <path clip-path="url(#p55e2733463)" d="M 69.218182 210.565758 
L 71.024494 210.565758 
L 71.024494 241.770999 
L 69.218182 241.770999 
z
" style="fill:#1f77b4;"/>
   </g>
   <g id="patch_4">
    <path clip-path="url(#p55e2733463)" d="M 71.476072 210.565758 
L 73.282385 210.565758 
L 73.282385 44.472545 
L 71.476072 44.472545 
z
" style="fill:#1f77b4;"/>
   </g>
   <g id="patch_5">
    <path clip-path="url(#p55e2733463)" d="M 73.733963 210.565758 
L 75.540275 210.565758 
L 75.540275 186.213604 
L 73.733963 186.213604 
z
" style="fill:#1f77b4;"/>
   </g>
   <g id="patch_6">
    <path clip-path="url(#p55e2733463)" d="M 75.991853 210.565758 
L 77.798166 210.565758 
L 77.798166 176.621129 
L 75.991853 176.621129 
z
" style="fill:#1f77b4;"/>
   </g>
   <g id="patch_7">
    <path clip-path="url(#p55e2733463)" d="M 78.249744 210.565758 
L 80.056056 210.565758 
L 80.056056 224.166562 
L 78.249744 224.166562 
z
" style="fill:#1f77b4;"/>
   </g>
   <g id="patch_8">
    <path clip-path="url(#p55e2733463)" d="M 80.507634 210.565758 
L 82.313947 210.565758 
L 82.313947 230.695349 
L 80.507634 230.695349 
z
" style="fill:#1f77b4;"/>
   </g>
   <g id="patch_9">
    <path clip-path="url(#p55e2733463)" d="z
" style="fill:#1f77b4;"/>
   </g>
   <g id="patch_10">
    <path clip-path="url(#p55e2733463)" d="M 85.023415 210.565758 
L 86.829728 210.565758 
L 86.829728 213.127157 
L 85.023415 213.127157 
z
" style="fill:#1f77b4;"/>
   </g>
   <g id="patch_11">
    <path clip-path="url(#p55e2733463)" d="M 87.281306 210.565758 
L 89.087618 210.565758 
L 89.087618 199.876212 
L 87.281306 199.876212 
z
" style="fill:#1f77b4;"/>
   </g>
   <g id="patch_12">
    <path clip-path="url(#p55e2733463)" d="M 89.539196 210.565758 
L 91.345508 210.565758 
L 91.345508 224.731517 
L 89.539196 224.731517 
z
" style="fill:#1f77b4;"/>
   </g>
   <g id="patch_13">
    <path clip-path="url(#p55e2733463)" d="M 91.797087 210.565758 
L 93.603399 210.565758 
L 93.603399 210.389163 
L 91.797087 210.389163 
z
" style="fill:#1f77b4;"/>
   </g>
   <g id="patch_14">
    <path clip-path="url(#p55e2733463)" d="M 94.054977 210.565758 
L 95.861289 210.565758 
L 95.861289 160.679168 
L 94.054977 160.679168 
z
" style="fill:#1f77b4;"/>
   </g>
   <g id="patch_15">
    <path clip-path="url(#p55e2733463)" d="M 96.312868 210.565758 
L 98.11918 210.565758 
L 98.11918 240.596649 
L 96.312868 240.596649 
z
" style="fill:#1f77b4;"/>
   </g>
   <g id="patch_16">
    <path clip-path="url(#p55e2733463)" d="M 98.570758 210.565758 
L 100.37707 210.565758 
L 100.37707 237.505732 
L 98.570758 237.505732 
z
" style="fill:#1f77b4;"/>
   </g>
   <g id="patch_17">
    <path clip-path="url(#p55e2733463)" d="M 100.828649 210.565758 
L 102.634961 210.565758 
L 102.634961 227.431732 
L 100.828649 227.431732 
z
" style="fill:#1f77b4;"/>
   </g>
   <g id="patch_18">
    <path clip-path="url(#p55e2733463)" d="M 103.086539 210.565758 
L 104.892851 210.565758 
L 104.892851 216.991053 
L 103.086539 216.991053 
z
" style="fill:#1f77b4;"/>
   </g>
   <g id="patch_19">
    <path clip-path="url(#p55e2733463)" d="M 105.344429 210.565758 
L 107.150742 210.565758 
L 107.150742 207.475708 
L 105.344429 207.475708 
z
" style="fill:#1f77b4;"/>
   </g>
   <g id="patch_20">
    <path clip-path="url(#p55e2733463)" d="M 107.60232 210.565758 
L 109.408632 210.565758 
L 109.408632 225.793226 
L 107.60232 225.793226 
z
" style="fill:#1f77b4;"/>
   </g>
   <g id="patch_21">
    <path clip-path="url(#p55e2733463)" d="M 109.86021 210.565758 
L 111.666523 210.565758 
L 111.666523 212.125257 
L 109.86021 212.125257 
z
" style="fill:#1f77b4;"/>
   </g>
   <g id="patch_22">
    <path clip-path="url(#p55e2733463)" d="M 112.118101 210.565758 
L 113.924413 210.565758 
L 113.924413 213.276696 
L 112.118101 213.276696 
z
" style="fill:#1f77b4;"/>
   </g>
   <g id="patch_23">
    <path clip-path="url(#p55e2733463)" d="M 114.375991 210.565758 
L 116.182304 210.565758 
L 116.182304 240.820531 
L 114.375991 240.820531 
z
" style="fill:#1f77b4;"/>
   </g>
   <g id="patch_24">
    <path clip-path="url(#p55e2733463)" d="M 116.633882 210.565758 
L 118.440194 210.565758 
L 118.440194 241.735506 
L 116.633882 241.735506 
z
" style="fill:#1f77b4;"/>
   </g>
   <g id="patch_25">
    <path clip-path="url(#p55e2733463)" d="M 118.891772 210.565758 
L 120.698085 210.565758 
L 120.698085 190.400275 
L 118.891772 190.400275 
z
" style="fill:#1f77b4;"/>
   </g>
   <g id="patch_26">
    <path clip-path="url(#p55e2733463)" d="M 121.149663 210.565758 
L 122.955975 210.565758 
L 122.955975 240.982065 
L 121.149663 240.982065 
z
" style="fill:#1f77b4;"/>
   </g>
   <g id="patch_27">
    <path clip-path="url(#p55e2733463)" d="M 123.407553 210.565758 
L 125.213866 210.565758 
L 125.213866 233.272112 
L 123.407553 233.272112 
z
" style="fill:#1f77b4;"/>
   </g>
   <g id="patch_28">
    <path clip-path="url(#p55e2733463)" d="z
" style="fill:#1f77b4;"/>
   </g>
   <g id="patch_29">
    <path clip-path="url(#p55e2733463)" d="M 127.923334 210.565758 
L 129.729647 210.565758 
L 129.729647 232.496299 
L 127.923334 232.496299 
z
" style="fill:#1f77b4;"/>
   </g>
   <g id="patch_30">
    <path clip-path="url(#p55e2733463)" d="M 130.181225 210.565758 
L 131.987537 210.565758 
L 131.987537 229.559402 
L 130.181225 229.559402 
z
" style="fill:#1f77b4;"/>
   </g>
   <g id="patch_31">
    <path clip-path="url(#p55e2733463)" d="M 132.439115 210.565758 
L 134.245428 210.565758 
L 134.245428 197.554248 
L 132.439115 197.554248 
z
" style="fill:#1f77b4;"/>
   </g>
   <g id="patch_32">
    <path clip-path="url(#p55e2733463)" d="M 134.697006 210.565758 
L 136.503318 210.565758 
L 136.503318 237.074444 
L 134.697006 237.074444 
z
" style="fill:#1f77b4;"/>
   </g>
   <g id="patch_33">
    <path clip-path="url(#p55e2733463)" d="M 136.954896 210.565758 
L 138.761209 210.565758 
L 138.761209 233.394626 
L 136.954896 233.394626 
z
" style="fill:#1f77b4;"/>
   </g>
   <g id="patch_34">
    <path clip-path="url(#p55e2733463)" d="M 139.212787 210.565758 
L 141.019099 210.565758 
L 141.019099 238.210388 
L 139.212787 238.210388 
z
" style="fill:#1f77b4;"/>
   </g>
   <g id="patch_35">
    <path clip-path="url(#p55e2733463)" d="M 141.470677 210.565758 
L 143.276989 210.565758 
L 143.276989 238.130486 
L 141.470677 238.130486 
z
" style="fill:#1f77b4;"/>
   </g>
   <g id="patch_36">
    <path clip-path="url(#p55e2733463)" d="M 143.728568 210.565758 
L 145.53488 210.565758 
L 145.53488 186.634118 
L 143.728568 186.634118 
z
" style="fill:#1f77b4;"/>
   </g>
   <g id="patch_37">
    <path clip-path="url(#p55e2733463)" d="M 145.986458 210.565758 
L 147.79277 210.565758 
L 147.79277 196.783053 
L 145.986458 196.783053 
z
" style="fill:#1f77b4;"/>
   </g>
   <g id="patch_38">
    <path clip-path="url(#p55e2733463)" d="M 148.244349 210.565758 
L 150.050661 210.565758 
L 150.050661 217.138806 
L 148.244349 217.138806 
z
" style="fill:#1f77b4;"/>
   </g>
   <g id="patch_39">
    <path clip-path="url(#p55e2733463)" d="M 150.502239 210.565758 
L 152.308551 210.565758 
L 152.308551 240.642309 
L 150.502239 240.642309 
z
" style="fill:#1f77b4;"/>
   </g>
   <g id="patch_40">
    <path clip-path="url(#p55e2733463)" d="M 152.760129 210.565758 
L 154.566442 210.565758 
L 154.566442 239.766245 
L 152.760129 239.766245 
z
" style="fill:#1f77b4;"/>
   </g>
   <g id="patch_41">
    <path clip-path="url(#p55e2733463)" d="M 155.01802 210.565758 
L 156.824332 210.565758 
L 156.824332 236.048462 
L 155.01802 236.048462 
z
" style="fill:#1f77b4;"/>
   </g>
   <g id="patch_42">
    <path clip-path="url(#p55e2733463)" d="M 157.27591 210.565758 
L 159.082223 210.565758 
L 159.082223 185.188682 
L 157.27591 185.188682 
z
" style="fill:#1f77b4;"/>
   </g>
   <g id="patch_43">
    <path clip-path="url(#p55e2733463)" d="M 159.533801 210.565758 
L 161.340113 210.565758 
L 161.340113 236.114865 
L 159.533801 236.114865 
z
" style="fill:#1f77b4;"/>
   </g>
   <g id="patch_44">
    <path clip-path="url(#p55e2733463)" d="M 161.791691 210.565758 
L 163.598004 210.565758 
L 163.598004 217.460346 
L 161.791691 217.460346 
z
" style="fill:#1f77b4;"/>
   </g>
   <g id="patch_45">
    <path clip-path="url(#p55e2733463)" d="M 164.049582 210.565758 
L 165.855894 210.565758 
L 165.855894 232.00507 
L 164.049582 232.00507 
z
" style="fill:#1f77b4;"/>
   </g>
   <g id="patch_46">
    <path clip-path="url(#p55e2733463)" d="M 166.307472 210.565758 
L 168.113785 210.565758 
L 168.113785 209.214332 
L 166.307472 209.214332 
z
" style="fill:#1f77b4;"/>
   </g>
   <g id="patch_47">
    <path clip-path="url(#p55e2733463)" d="M 168.565363 210.565758 
L 170.371675 210.565758 
L 170.371675 240.017761 
L 168.565363 240.017761 
z
" style="fill:#1f77b4;"/>
   </g>
   <g id="patch_48">
    <path clip-path="url(#p55e2733463)" d="M 170.823253 210.565758 
L 172.629566 210.565758 
L 172.629566 240.497747 
L 170.823253 240.497747 
z
" style="fill:#1f77b4;"/>
   </g>
   <g id="patch_49">
    <path clip-path="url(#p55e2733463)" d="M 173.081144 210.565758 
L 174.887456 210.565758 
L 174.887456 240.964393 
L 173.081144 240.964393 
z
" style="fill:#1f77b4;"/>
   </g>
   <g id="patch_50">
    <path clip-path="url(#p55e2733463)" d="M 175.339034 210.565758 
L 177.145347 210.565758 
L 177.145347 170.282873 
L 175.339034 170.282873 
z
" style="fill:#1f77b4;"/>
   </g>
   <g id="patch_51">
    <path clip-path="url(#p55e2733463)" d="M 177.596925 210.565758 
L 179.403237 210.565758 
L 179.403237 208.959956 
L 177.596925 208.959956 
z
" style="fill:#1f77b4;"/>
   </g>
   <g id="patch_52">
    <path clip-path="url(#p55e2733463)" d="M 179.854815 210.565758 
L 181.661128 210.565758 
L 181.661128 229.590241 
L 179.854815 229.590241 
z
" style="fill:#1f77b4;"/>
   </g>
   <g id="patch_53">
    <path clip-path="url(#p55e2733463)" d="M 182.112706 210.565758 
L 183.919018 210.565758 
L 183.919018 234.164315 
L 182.112706 234.164315 
z
" style="fill:#1f77b4;"/>
   </g>
   <g id="patch_54">
    <path clip-path="url(#p55e2733463)" d="M 184.370596 210.565758 
L 186.176909 210.565758 
L 186.176909 242.116364 
L 184.370596 242.116364 
z
" style="fill:#1f77b4;"/>
   </g>
   <g id="patch_55">
    <path clip-path="url(#p55e2733463)" d="z
" style="fill:#1f77b4;"/>
   </g>
   <g id="patch_56">
    <path clip-path="url(#p55e2733463)" d="M 188.886377 210.565758 
L 190.69269 210.565758 
L 190.69269 174.776117 
L 188.886377 174.776117 
z
" style="fill:#1f77b4;"/>
   </g>
   <g id="patch_57">
    <path clip-path="url(#p55e2733463)" d="M 191.144268 210.565758 
L 192.95058 210.565758 
L 192.95058 230.43531 
L 191.144268 230.43531 
z
" style="fill:#1f77b4;"/>
   </g>
   <g id="patch_58">
    <path clip-path="url(#p55e2733463)" d="M 193.402158 210.565758 
L 195.20847 210.565758 
L 195.20847 224.519169 
L 193.402158 224.519169 
z
" style="fill:#1f77b4;"/>
   </g>
   <g id="patch_59">
    <path clip-path="url(#p55e2733463)" d="M 195.660049 210.565758 
L 197.466361 210.565758 
L 197.466361 127.458109 
L 195.660049 127.458109 
z
" style="fill:#1f77b4;"/>
   </g>
   <g id="patch_60">
    <path clip-path="url(#p55e2733463)" d="M 197.917939 210.565758 
L 199.724251 210.565758 
L 199.724251 228.511197 
L 197.917939 228.511197 
z
" style="fill:#1f77b4;"/>
   </g>
   <g id="patch_61">
    <path clip-path="url(#p55e2733463)" d="M 200.17583 210.565758 
L 201.982142 210.565758 
L 201.982142 239.256138 
L 200.17583 239.256138 
z
" style="fill:#1f77b4;"/>
   </g>
   <g id="patch_62">
    <path clip-path="url(#p55e2733463)" d="M 202.43372 210.565758 
L 204.240032 210.565758 
L 204.240032 240.817384 
L 202.43372 240.817384 
z
" style="fill:#1f77b4;"/>
   </g>
   <g id="patch_63">
    <path clip-path="url(#p55e2733463)" d="M 204.69161 210.565758 
L 206.497923 210.565758 
L 206.497923 136.583773 
L 204.69161 136.583773 
z
" style="fill:#1f77b4;"/>
   </g>
   <g id="patch_64">
    <path clip-path="url(#p55e2733463)" d="M 206.949501 210.565758 
L 208.755813 210.565758 
L 208.755813 242.116364 
L 206.949501 242.116364 
z
" style="fill:#1f77b4;"/>
   </g>
   <g id="patch_65">
    <path clip-path="url(#p55e2733463)" d="M 209.207391 210.565758 
L 211.013704 210.565758 
L 211.013704 241.384445 
L 209.207391 241.384445 
z
" style="fill:#1f77b4;"/>
   </g>
   <g id="patch_66">
    <path clip-path="url(#p55e2733463)" d="z
" style="fill:#1f77b4;"/>
   </g>
   <g id="patch_67">
    <path clip-path="url(#p55e2733463)" d="z
" style="fill:#1f77b4;"/>
   </g>
   <g id="patch_68">
    <path clip-path="url(#p55e2733463)" d="M 215.981063 210.565758 
L 217.787375 210.565758 
L 217.787375 199.924628 
L 215.981063 199.924628 
z
" style="fill:#1f77b4;"/>
   </g>
   <g id="patch_69">
    <path clip-path="url(#p55e2733463)" d="M 218.238953 210.565758 
L 220.045266 210.565758 
L 220.045266 236.951159 
L 218.238953 236.951159 
z
" style="fill:#1f77b4;"/>
   </g>
   <g id="patch_70">
    <path clip-path="url(#p55e2733463)" d="M 220.496844 210.565758 
L 222.303156 210.565758 
L 222.303156 145.821647 
L 220.496844 145.821647 
z
" style="fill:#1f77b4;"/>
   </g>
   <g id="patch_71">
    <path clip-path="url(#p55e2733463)" d="M 222.754734 210.565758 
L 224.561047 210.565758 
L 224.561047 129.494084 
L 222.754734 129.494084 
z
" style="fill:#1f77b4;"/>
   </g>
   <g id="patch_72">
    <path clip-path="url(#p55e2733463)" d="M 225.012625 210.565758 
L 226.818937 210.565758 
L 226.818937 222.811506 
L 225.012625 222.811506 
z
" style="fill:#1f77b4;"/>
   </g>
   <g id="patch_73">
    <path clip-path="url(#p55e2733463)" d="M 227.270515 210.565758 
L 229.076828 210.565758 
L 229.076828 230.526491 
L 227.270515 230.526491 
z
" style="fill:#1f77b4;"/>
   </g>
   <g id="patch_74">
    <path clip-path="url(#p55e2733463)" d="M 229.528406 210.565758 
L 231.334718 210.565758 
L 231.334718 225.413706 
L 229.528406 225.413706 
z
" style="fill:#1f77b4;"/>
   </g>
   <g id="patch_75">
    <path clip-path="url(#p55e2733463)" d="z
" style="fill:#1f77b4;"/>
   </g>
   <g id="patch_76">
    <path clip-path="url(#p55e2733463)" d="M 234.044187 210.565758 
L 235.850499 210.565758 
L 235.850499 235.921539 
L 234.044187 235.921539 
z
" style="fill:#1f77b4;"/>
   </g>
   <g id="patch_77">
    <path clip-path="url(#p55e2733463)" d="M 236.302077 210.565758 
L 238.10839 210.565758 
L 238.10839 229.326454 
L 236.302077 229.326454 
z
" style="fill:#1f77b4;"/>
   </g>
   <g id="patch_78">
    <path clip-path="url(#p55e2733463)" d="M 238.559968 210.565758 
L 240.36628 210.565758 
L 240.36628 235.324756 
L 238.559968 235.324756 
z
" style="fill:#1f77b4;"/>
   </g>
   <g id="patch_79">
    <path clip-path="url(#p55e2733463)" d="M 240.817858 210.565758 
L 242.62417 210.565758 
L 242.62417 221.330298 
L 240.817858 221.330298 
z
" style="fill:#1f77b4;"/>
   </g>
   <g id="patch_80">
    <path clip-path="url(#p55e2733463)" d="M 243.075749 210.565758 
L 244.882061 210.565758 
L 244.882061 240.396131 
L 243.075749 240.396131 
z
" style="fill:#1f77b4;"/>
   </g>
   <g id="patch_81">
    <path clip-path="url(#p55e2733463)" d="M 245.333639 210.565758 
L 247.139951 210.565758 
L 247.139951 218.511531 
L 245.333639 218.511531 
z
" style="fill:#1f77b4;"/>
   </g>
   <g id="patch_82">
    <path clip-path="url(#p55e2733463)" d="M 247.59153 210.565758 
L 249.397842 210.565758 
L 249.397842 226.154493 
L 247.59153 226.154493 
z
" style="fill:#1f77b4;"/>
   </g>
   <g id="patch_83">
    <path clip-path="url(#p55e2733463)" d="z
" style="fill:#1f77b4;"/>
   </g>
   <g id="patch_84">
    <path clip-path="url(#p55e2733463)" d="M 252.10731 210.565758 
L 253.913623 210.565758 
L 253.913623 223.371475 
L 252.10731 223.371475 
z
" style="fill:#1f77b4;"/>
   </g>
   <g id="patch_85">
    <path clip-path="url(#p55e2733463)" d="M 254.365201 210.565758 
L 256.171513 210.565758 
L 256.171513 225.574479 
L 254.365201 225.574479 
z
" style="fill:#1f77b4;"/>
   </g>
   <g id="patch_86">
    <path clip-path="url(#p55e2733463)" d="M 256.623091 210.565758 
L 258.429404 210.565758 
L 258.429404 242.116364 
L 256.623091 242.116364 
z
" style="fill:#1f77b4;"/>
   </g>
   <g id="patch_87">
    <path clip-path="url(#p55e2733463)" d="M 258.880982 210.565758 
L 260.687294 210.565758 
L 260.687294 242.116364 
L 258.880982 242.116364 
z
" style="fill:#1f77b4;"/>
   </g>
   <g id="patch_88">
    <path clip-path="url(#p55e2733463)" d="z
" style="fill:#1f77b4;"/>
   </g>
   <g id="patch_89">
    <path clip-path="url(#p55e2733463)" d="z
" style="fill:#1f77b4;"/>
   </g>
   <g id="patch_90">
    <path clip-path="url(#p55e2733463)" d="M 265.654653 210.565758 
L 267.460966 210.565758 
L 267.460966 241.495211 
L 265.654653 241.495211 
z
" style="fill:#1f77b4;"/>
   </g>
   <g id="patch_91">
    <path clip-path="url(#p55e2733463)" d="M 267.912544 210.565758 
L 269.718856 210.565758 
L 269.718856 234.236589 
L 267.912544 234.236589 
z
" style="fill:#1f77b4;"/>
   </g>
   <g id="patch_92">
    <path clip-path="url(#p55e2733463)" d="M 270.170434 210.565758 
L 271.976747 210.565758 
L 271.976747 185.589503 
L 270.170434 185.589503 
z
" style="fill:#1f77b4;"/>
   </g>
   <g id="patch_93">
    <path clip-path="url(#p55e2733463)" d="M 272.428325 210.565758 
L 274.234637 210.565758 
L 274.234637 237.229929 
L 272.428325 237.229929 
z
" style="fill:#1f77b4;"/>
   </g>
   <g id="patch_94">
    <path clip-path="url(#p55e2733463)" d="M 274.686215 210.565758 
L 276.492528 210.565758 
L 276.492528 237.56505 
L 274.686215 237.56505 
z
" style="fill:#1f77b4;"/>
   </g>
   <g id="patch_95">
    <path clip-path="url(#p55e2733463)" d="M 276.944106 210.565758 
L 278.750418 210.565758 
L 278.750418 226.074772 
L 276.944106 226.074772 
z
" style="fill:#1f77b4;"/>
   </g>
   <g id="patch_96">
    <path clip-path="url(#p55e2733463)" d="M 279.201996 210.565758 
L 281.008309 210.565758 
L 281.008309 202.554698 
L 279.201996 202.554698 
z
" style="fill:#1f77b4;"/>
   </g>
   <g id="patch_97">
    <path clip-path="url(#p55e2733463)" d="M 281.459887 210.565758 
L 283.266199 210.565758 
L 283.266199 219.502823 
L 281.459887 219.502823 
z
" style="fill:#1f77b4;"/>
   </g>
   <g id="patch_98">
    <path clip-path="url(#p55e2733463)" d="M 283.717777 210.565758 
L 285.52409 210.565758 
L 285.52409 132.347032 
L 283.717777 132.347032 
z
" style="fill:#1f77b4;"/>
   </g>
   <g id="patch_99">
    <path clip-path="url(#p55e2733463)" d="M 285.975668 210.565758 
L 287.78198 210.565758 
L 287.78198 242.116364 
L 285.975668 242.116364 
z
" style="fill:#1f77b4;"/>
   </g>
   <g id="patch_100">
    <path clip-path="url(#p55e2733463)" d="M 288.233558 210.565758 
L 290.039871 210.565758 
L 290.039871 167.695044 
L 288.233558 167.695044 
z
" style="fill:#1f77b4;"/>
   </g>
   <g id="patch_101">
    <path clip-path="url(#p55e2733463)" d="z
" style="fill:#1f77b4;"/>
   </g>
   <g id="patch_102">
    <path clip-path="url(#p55e2733463)" d="M 292.749339 210.565758 
L 294.555651 210.565758 
L 294.555651 242.116364 
L 292.749339 242.116364 
z
" style="fill:#1f77b4;"/>
   </g>
   <g id="patch_103">
    <path clip-path="url(#p55e2733463)" d="M 295.00723 210.565758 
L 296.813542 210.565758 
L 296.813542 230.502366 
L 295.00723 230.502366 
z
" style="fill:#1f77b4;"/>
   </g>
   <g id="patch_104">
    <path clip-path="url(#p55e2733463)" d="z
" style="fill:#1f77b4;"/>
   </g>
   <g id="patch_105">
    <path clip-path="url(#p55e2733463)" d="M 299.523011 210.565758 
L 301.329323 210.565758 
L 301.329323 242.116364 
L 299.523011 242.116364 
z
" style="fill:#1f77b4;"/>
   </g>
   <g id="patch_106">
    <path clip-path="url(#p55e2733463)" d="M 301.780901 210.565758 
L 303.587213 210.565758 
L 303.587213 224.980597 
L 301.780901 224.980597 
z
" style="fill:#1f77b4;"/>
   </g>
   <g id="patch_107">
    <path clip-path="url(#p55e2733463)" d="z
" style="fill:#1f77b4;"/>
   </g>
   <g id="patch_108">
    <path clip-path="url(#p55e2733463)" d="M 306.296682 210.565758 
L 308.102994 210.565758 
L 308.102994 222.332221 
L 306.296682 222.332221 
z
" style="fill:#1f77b4;"/>
   </g>
   <g id="patch_109">
    <path clip-path="url(#p55e2733463)" d="M 308.554572 210.565758 
L 310.360885 210.565758 
L 310.360885 241.302597 
L 308.554572 241.302597 
z
" style="fill:#1f77b4;"/>
   </g>
   <g id="patch_110">
    <path clip-path="url(#p55e2733463)" d="M 310.812463 210.565758 
L 312.618775 210.565758 
L 312.618775 173.60911 
L 310.812463 173.60911 
z
" style="fill:#1f77b4;"/>
   </g>
   <g id="patch_111">
    <path clip-path="url(#p55e2733463)" d="M 313.070353 210.565758 
L 314.876666 210.565758 
L 314.876666 122.314725 
L 313.070353 122.314725 
z
" style="fill:#1f77b4;"/>
   </g>
   <g id="patch_112">
    <path clip-path="url(#p55e2733463)" d="M 315.328244 210.565758 
L 317.134556 210.565758 
L 317.134556 236.465117 
L 315.328244 236.465117 
z
" style="fill:#1f77b4;"/>
   </g>
   <g id="patch_113">
    <path clip-path="url(#p55e2733463)" d="M 317.586134 210.565758 
L 319.392447 210.565758 
L 319.392447 205.652046 
L 317.586134 205.652046 
z
" style="fill:#1f77b4;"/>
   </g>
   <g id="patch_114">
    <path clip-path="url(#p55e2733463)" d="M 319.844025 210.565758 
L 321.650337 210.565758 
L 321.650337 213.131372 
L 319.844025 213.131372 
z
" style="fill:#1f77b4;"/>
   </g>
   <g id="patch_115">
    <path clip-path="url(#p55e2733463)" d="M 322.101915 210.565758 
L 323.908228 210.565758 
L 323.908228 241.258698 
L 322.101915 241.258698 
z
" style="fill:#1f77b4;"/>
   </g>
   <g id="patch_116">
    <path clip-path="url(#p55e2733463)" d="M 324.359806 210.565758 
L 326.166118 210.565758 
L 326.166118 230.93722 
L 324.359806 230.93722 
z
" style="fill:#1f77b4;"/>
   </g>
   <g id="patch_117">
    <path clip-path="url(#p55e2733463)" d="M 326.617696 210.565758 
L 328.424009 210.565758 
L 328.424009 189.902458 
L 326.617696 189.902458 
z
" style="fill:#1f77b4;"/>
   </g>
   <g id="patch_118">
    <path clip-path="url(#p55e2733463)" d="M 328.875587 210.565758 
L 330.681899 210.565758 
L 330.681899 237.274762 
L 328.875587 237.274762 
z
" style="fill:#1f77b4;"/>
   </g>
   <g id="patch_119">
    <path clip-path="url(#p55e2733463)" d="M 331.133477 210.565758 
L 332.93979 210.565758 
L 332.93979 241.919253 
L 331.133477 241.919253 
z
" style="fill:#1f77b4;"/>
   </g>
   <g id="patch_120">
    <path clip-path="url(#p55e2733463)" d="M 333.391368 210.565758 
L 335.19768 210.565758 
L 335.19768 232.206068 
L 333.391368 232.206068 
z
" style="fill:#1f77b4;"/>
   </g>
   <g id="patch_121">
    <path clip-path="url(#p55e2733463)" d="z
" style="fill:#1f77b4;"/>
   </g>
   <g id="patch_122">
    <path clip-path="url(#p55e2733463)" d="M 337.907149 210.565758 
L 339.713461 210.565758 
L 339.713461 217.563538 
L 337.907149 217.563538 
z
" style="fill:#1f77b4;"/>
   </g>
   <g id="patch_123">
    <path clip-path="url(#p55e2733463)" d="M 340.165039 210.565758 
L 341.971351 210.565758 
L 341.971351 224.440972 
L 340.165039 224.440972 
z
" style="fill:#1f77b4;"/>
   </g>
   <g id="patch_124">
    <path clip-path="url(#p55e2733463)" d="M 342.42293 210.565758 
L 344.229242 210.565758 
L 344.229242 238.281226 
L 342.42293 238.281226 
z
" style="fill:#1f77b4;"/>
   </g>
   <g id="patch_125">
    <path clip-path="url(#p55e2733463)" d="M 344.68082 210.565758 
L 346.487132 210.565758 
L 346.487132 242.015868 
L 344.68082 242.015868 
z
" style="fill:#1f77b4;"/>
   </g>
   <g id="patch_126">
    <path clip-path="url(#p55e2733463)" d="M 346.938711 210.565758 
L 348.745023 210.565758 
L 348.745023 228.601258 
L 346.938711 228.601258 
z
" style="fill:#1f77b4;"/>
   </g>
   <g id="patch_127">
    <path clip-path="url(#p55e2733463)" d="M 349.196601 210.565758 
L 351.002913 210.565758 
L 351.002913 230.765751 
L 349.196601 230.765751 
z
" style="fill:#1f77b4;"/>
   </g>
   <g id="patch_128">
    <path clip-path="url(#p55e2733463)" d="M 351.454492 210.565758 
L 353.260804 210.565758 
L 353.260804 218.680983 
L 351.454492 218.680983 
z
" style="fill:#1f77b4;"/>
   </g>
   <g id="patch_129">
    <path clip-path="url(#p55e2733463)" d="M 353.712382 210.565758 
L 355.518694 210.565758 
L 355.518694 213.610833 
L 353.712382 213.610833 
z
" style="fill:#1f77b4;"/>
   </g>
   <g id="patch_130">
    <path clip-path="url(#p55e2733463)" d="M 355.970272 210.565758 
L 357.776585 210.565758 
L 357.776585 183.820879 
L 355.970272 183.820879 
z
" style="fill:#1f77b4;"/>
   </g>
   <g id="patch_131">
    <path clip-path="url(#p55e2733463)" d="z
" style="fill:#1f77b4;"/>
   </g>
   <g id="patch_132">
    <path clip-path="url(#p55e2733463)" d="M 360.486053 210.565758 
L 362.292366 210.565758 
L 362.292366 224.317666 
L 360.486053 224.317666 
z
" style="fill:#1f77b4;"/>
   </g>
   <g id="patch_133">
    <path clip-path="url(#p55e2733463)" d="M 362.743944 210.565758 
L 364.550256 210.565758 
L 364.550256 218.768047 
L 362.743944 218.768047 
z
" style="fill:#1f77b4;"/>
   </g>
   <g id="patch_134">
    <path clip-path="url(#p55e2733463)" d="M 365.001834 210.565758 
L 366.808147 210.565758 
L 366.808147 214.972927 
L 365.001834 214.972927 
z
" style="fill:#1f77b4;"/>
   </g>
   <g id="patch_135">
    <path clip-path="url(#p55e2733463)" d="M 367.259725 210.565758 
L 369.066037 210.565758 
L 369.066037 217.292919 
L 367.259725 217.292919 
z
" style="fill:#1f77b4;"/>
   </g>
   <g id="patch_136">
    <path clip-path="url(#p55e2733463)" d="M 369.517615 210.565758 
L 371.323928 210.565758 
L 371.323928 218.839752 
L 369.517615 218.839752 
z
" style="fill:#1f77b4;"/>
   </g>
   <g id="patch_137">
    <path clip-path="url(#p55e2733463)" d="M 371.775506 210.565758 
L 373.581818 210.565758 
L 373.581818 167.344594 
L 371.775506 167.344594 
z
" style="fill:#1f77b4;"/>
   </g>
   <g id="matplotlib.axis_1">
    <g id="xtick_1">
     <g id="line2d_1">
      <defs>
       <path d="M 0 0 
L 0 3.5 
" id="m00d4928c99" style="stroke:#000000;stroke-width:0.8;"/>
      </defs>
      <g>
       <use style="stroke:#000000;stroke-width:0.8;" x="70.121338" xlink:href="#m00d4928c99" y="252"/>
      </g>
     </g>
     <g id="text_1">
      <!-- 0 -->
      <defs>
       <path d="M 31.78125 66.40625 
Q 24.171875 66.40625 20.328125 58.90625 
Q 16.5 51.421875 16.5 36.375 
Q 16.5 21.390625 20.328125 13.890625 
Q 24.171875 6.390625 31.78125 6.390625 
Q 39.453125 6.390625 43.28125 13.890625 
Q 47.125 21.390625 47.125 36.375 
Q 47.125 51.421875 43.28125 58.90625 
Q 39.453125 66.40625 31.78125 66.40625 
z
M 31.78125 74.21875 
Q 44.046875 74.21875 50.515625 64.515625 
Q 56.984375 54.828125 56.984375 36.375 
Q 56.984375 17.96875 50.515625 8.265625 
Q 44.046875 -1.421875 31.78125 -1.421875 
Q 19.53125 -1.421875 13.0625 8.265625 
Q 6.59375 17.96875 6.59375 36.375 
Q 6.59375 54.828125 13.0625 64.515625 
Q 19.53125 74.21875 31.78125 74.21875 
z
" id="DejaVuSans-30"/>
      </defs>
      <g transform="translate(66.940088 266.598437)scale(0.1 -0.1)">
       <use xlink:href="#DejaVuSans-30"/>
      </g>
     </g>
    </g>
    <g id="xtick_2">
     <g id="line2d_2">
      <g>
       <use style="stroke:#000000;stroke-width:0.8;" x="115.279148" xlink:href="#m00d4928c99" y="252"/>
      </g>
     </g>
     <g id="text_2">
      <!-- 20 -->
      <defs>
       <path d="M 19.1875 8.296875 
L 53.609375 8.296875 
L 53.609375 0 
L 7.328125 0 
L 7.328125 8.296875 
Q 12.9375 14.109375 22.625 23.890625 
Q 32.328125 33.6875 34.8125 36.53125 
Q 39.546875 41.84375 41.421875 45.53125 
Q 43.3125 49.21875 43.3125 52.78125 
Q 43.3125 58.59375 39.234375 62.25 
Q 35.15625 65.921875 28.609375 65.921875 
Q 23.96875 65.921875 18.8125 64.3125 
Q 13.671875 62.703125 7.8125 59.421875 
L 7.8125 69.390625 
Q 13.765625 71.78125 18.9375 73 
Q 24.125 74.21875 28.421875 74.21875 
Q 39.75 74.21875 46.484375 68.546875 
Q 53.21875 62.890625 53.21875 53.421875 
Q 53.21875 48.921875 51.53125 44.890625 
Q 49.859375 40.875 45.40625 35.40625 
Q 44.1875 33.984375 37.640625 27.21875 
Q 31.109375 20.453125 19.1875 8.296875 
z
" id="DejaVuSans-32"/>
      </defs>
      <g transform="translate(108.916648 266.598437)scale(0.1 -0.1)">
       <use xlink:href="#DejaVuSans-32"/>
       <use x="63.623047" xlink:href="#DejaVuSans-30"/>
      </g>
     </g>
    </g>
    <g id="xtick_3">
     <g id="line2d_3">
      <g>
       <use style="stroke:#000000;stroke-width:0.8;" x="160.436957" xlink:href="#m00d4928c99" y="252"/>
      </g>
     </g>
     <g id="text_3">
      <!-- 40 -->
      <defs>
       <path d="M 37.796875 64.3125 
L 12.890625 25.390625 
L 37.796875 25.390625 
z
M 35.203125 72.90625 
L 47.609375 72.90625 
L 47.609375 25.390625 
L 58.015625 25.390625 
L 58.015625 17.1875 
L 47.609375 17.1875 
L 47.609375 0 
L 37.796875 0 
L 37.796875 17.1875 
L 4.890625 17.1875 
L 4.890625 26.703125 
z
" id="DejaVuSans-34"/>
      </defs>
      <g transform="translate(154.074457 266.598437)scale(0.1 -0.1)">
       <use xlink:href="#DejaVuSans-34"/>
       <use x="63.623047" xlink:href="#DejaVuSans-30"/>
      </g>
     </g>
    </g>
    <g id="xtick_4">
     <g id="line2d_4">
      <g>
       <use style="stroke:#000000;stroke-width:0.8;" x="205.594767" xlink:href="#m00d4928c99" y="252"/>
      </g>
     </g>
     <g id="text_4">
      <!-- 60 -->
      <defs>
       <path d="M 33.015625 40.375 
Q 26.375 40.375 22.484375 35.828125 
Q 18.609375 31.296875 18.609375 23.390625 
Q 18.609375 15.53125 22.484375 10.953125 
Q 26.375 6.390625 33.015625 6.390625 
Q 39.65625 6.390625 43.53125 10.953125 
Q 47.40625 15.53125 47.40625 23.390625 
Q 47.40625 31.296875 43.53125 35.828125 
Q 39.65625 40.375 33.015625 40.375 
z
M 52.59375 71.296875 
L 52.59375 62.3125 
Q 48.875 64.0625 45.09375 64.984375 
Q 41.3125 65.921875 37.59375 65.921875 
Q 27.828125 65.921875 22.671875 59.328125 
Q 17.53125 52.734375 16.796875 39.40625 
Q 19.671875 43.65625 24.015625 45.921875 
Q 28.375 48.1875 33.59375 48.1875 
Q 44.578125 48.1875 50.953125 41.515625 
Q 57.328125 34.859375 57.328125 23.390625 
Q 57.328125 12.15625 50.6875 5.359375 
Q 44.046875 -1.421875 33.015625 -1.421875 
Q 20.359375 -1.421875 13.671875 8.265625 
Q 6.984375 17.96875 6.984375 36.375 
Q 6.984375 53.65625 15.1875 63.9375 
Q 23.390625 74.21875 37.203125 74.21875 
Q 40.921875 74.21875 44.703125 73.484375 
Q 48.484375 72.75 52.59375 71.296875 
z
" id="DejaVuSans-36"/>
      </defs>
      <g transform="translate(199.232267 266.598437)scale(0.1 -0.1)">
       <use xlink:href="#DejaVuSans-36"/>
       <use x="63.623047" xlink:href="#DejaVuSans-30"/>
      </g>
     </g>
    </g>
    <g id="xtick_5">
     <g id="line2d_5">
      <g>
       <use style="stroke:#000000;stroke-width:0.8;" x="250.752576" xlink:href="#m00d4928c99" y="252"/>
      </g>
     </g>
     <g id="text_5">
      <!-- 80 -->
      <defs>
       <path d="M 31.78125 34.625 
Q 24.75 34.625 20.71875 30.859375 
Q 16.703125 27.09375 16.703125 20.515625 
Q 16.703125 13.921875 20.71875 10.15625 
Q 24.75 6.390625 31.78125 6.390625 
Q 38.8125 6.390625 42.859375 10.171875 
Q 46.921875 13.96875 46.921875 20.515625 
Q 46.921875 27.09375 42.890625 30.859375 
Q 38.875 34.625 31.78125 34.625 
z
M 21.921875 38.8125 
Q 15.578125 40.375 12.03125 44.71875 
Q 8.5 49.078125 8.5 55.328125 
Q 8.5 64.0625 14.71875 69.140625 
Q 20.953125 74.21875 31.78125 74.21875 
Q 42.671875 74.21875 48.875 69.140625 
Q 55.078125 64.0625 55.078125 55.328125 
Q 55.078125 49.078125 51.53125 44.71875 
Q 48 40.375 41.703125 38.8125 
Q 48.828125 37.15625 52.796875 32.3125 
Q 56.78125 27.484375 56.78125 20.515625 
Q 56.78125 9.90625 50.3125 4.234375 
Q 43.84375 -1.421875 31.78125 -1.421875 
Q 19.734375 -1.421875 13.25 4.234375 
Q 6.78125 9.90625 6.78125 20.515625 
Q 6.78125 27.484375 10.78125 32.3125 
Q 14.796875 37.15625 21.921875 38.8125 
z
M 18.3125 54.390625 
Q 18.3125 48.734375 21.84375 45.5625 
Q 25.390625 42.390625 31.78125 42.390625 
Q 38.140625 42.390625 41.71875 45.5625 
Q 45.3125 48.734375 45.3125 54.390625 
Q 45.3125 60.0625 41.71875 63.234375 
Q 38.140625 66.40625 31.78125 66.40625 
Q 25.390625 66.40625 21.84375 63.234375 
Q 18.3125 60.0625 18.3125 54.390625 
z
" id="DejaVuSans-38"/>
      </defs>
      <g transform="translate(244.390076 266.598437)scale(0.1 -0.1)">
       <use xlink:href="#DejaVuSans-38"/>
       <use x="63.623047" xlink:href="#DejaVuSans-30"/>
      </g>
     </g>
    </g>
    <g id="xtick_6">
     <g id="line2d_6">
      <g>
       <use style="stroke:#000000;stroke-width:0.8;" x="295.910386" xlink:href="#m00d4928c99" y="252"/>
      </g>
     </g>
     <g id="text_6">
      <!-- 100 -->
      <defs>
       <path d="M 12.40625 8.296875 
L 28.515625 8.296875 
L 28.515625 63.921875 
L 10.984375 60.40625 
L 10.984375 69.390625 
L 28.421875 72.90625 
L 38.28125 72.90625 
L 38.28125 8.296875 
L 54.390625 8.296875 
L 54.390625 0 
L 12.40625 0 
z
" id="DejaVuSans-31"/>
      </defs>
      <g transform="translate(286.366636 266.598437)scale(0.1 -0.1)">
       <use xlink:href="#DejaVuSans-31"/>
       <use x="63.623047" xlink:href="#DejaVuSans-30"/>
       <use x="127.246094" xlink:href="#DejaVuSans-30"/>
      </g>
     </g>
    </g>
    <g id="xtick_7">
     <g id="line2d_7">
      <g>
       <use style="stroke:#000000;stroke-width:0.8;" x="341.068195" xlink:href="#m00d4928c99" y="252"/>
      </g>
     </g>
     <g id="text_7">
      <!-- 120 -->
      <g transform="translate(331.524445 266.598437)scale(0.1 -0.1)">
       <use xlink:href="#DejaVuSans-31"/>
       <use x="63.623047" xlink:href="#DejaVuSans-32"/>
       <use x="127.246094" xlink:href="#DejaVuSans-30"/>
      </g>
     </g>
    </g>
    <g id="xtick_8">
     <g id="line2d_8">
      <g>
       <use style="stroke:#000000;stroke-width:0.8;" x="386.226005" xlink:href="#m00d4928c99" y="252"/>
      </g>
     </g>
     <g id="text_8">
      <!-- 140 -->
      <g transform="translate(376.682255 266.598437)scale(0.1 -0.1)">
       <use xlink:href="#DejaVuSans-31"/>
       <use x="63.623047" xlink:href="#DejaVuSans-34"/>
       <use x="127.246094" xlink:href="#DejaVuSans-30"/>
      </g>
     </g>
    </g>
    <g id="text_9">
     <!-- Residue number -->
     <defs>
      <path d="M 44.390625 34.1875 
Q 47.5625 33.109375 50.5625 29.59375 
Q 53.5625 26.078125 56.59375 19.921875 
L 66.609375 0 
L 56 0 
L 46.6875 18.703125 
Q 43.0625 26.03125 39.671875 28.421875 
Q 36.28125 30.8125 30.421875 30.8125 
L 19.671875 30.8125 
L 19.671875 0 
L 9.8125 0 
L 9.8125 72.90625 
L 32.078125 72.90625 
Q 44.578125 72.90625 50.734375 67.671875 
Q 56.890625 62.453125 56.890625 51.90625 
Q 56.890625 45.015625 53.6875 40.46875 
Q 50.484375 35.9375 44.390625 34.1875 
z
M 19.671875 64.796875 
L 19.671875 38.921875 
L 32.078125 38.921875 
Q 39.203125 38.921875 42.84375 42.21875 
Q 46.484375 45.515625 46.484375 51.90625 
Q 46.484375 58.296875 42.84375 61.546875 
Q 39.203125 64.796875 32.078125 64.796875 
z
" id="DejaVuSans-52"/>
      <path d="M 56.203125 29.59375 
L 56.203125 25.203125 
L 14.890625 25.203125 
Q 15.484375 15.921875 20.484375 11.0625 
Q 25.484375 6.203125 34.421875 6.203125 
Q 39.59375 6.203125 44.453125 7.46875 
Q 49.3125 8.734375 54.109375 11.28125 
L 54.109375 2.78125 
Q 49.265625 0.734375 44.1875 -0.34375 
Q 39.109375 -1.421875 33.890625 -1.421875 
Q 20.796875 -1.421875 13.15625 6.1875 
Q 5.515625 13.8125 5.515625 26.8125 
Q 5.515625 40.234375 12.765625 48.109375 
Q 20.015625 56 32.328125 56 
Q 43.359375 56 49.78125 48.890625 
Q 56.203125 41.796875 56.203125 29.59375 
z
M 47.21875 32.234375 
Q 47.125 39.59375 43.09375 43.984375 
Q 39.0625 48.390625 32.421875 48.390625 
Q 24.90625 48.390625 20.390625 44.140625 
Q 15.875 39.890625 15.1875 32.171875 
z
" id="DejaVuSans-65"/>
      <path d="M 44.28125 53.078125 
L 44.28125 44.578125 
Q 40.484375 46.53125 36.375 47.5 
Q 32.28125 48.484375 27.875 48.484375 
Q 21.1875 48.484375 17.84375 46.4375 
Q 14.5 44.390625 14.5 40.28125 
Q 14.5 37.15625 16.890625 35.375 
Q 19.28125 33.59375 26.515625 31.984375 
L 29.59375 31.296875 
Q 39.15625 29.25 43.1875 25.515625 
Q 47.21875 21.78125 47.21875 15.09375 
Q 47.21875 7.46875 41.1875 3.015625 
Q 35.15625 -1.421875 24.609375 -1.421875 
Q 20.21875 -1.421875 15.453125 -0.5625 
Q 10.6875 0.296875 5.421875 2 
L 5.421875 11.28125 
Q 10.40625 8.6875 15.234375 7.390625 
Q 20.0625 6.109375 24.8125 6.109375 
Q 31.15625 6.109375 34.5625 8.28125 
Q 37.984375 10.453125 37.984375 14.40625 
Q 37.984375 18.0625 35.515625 20.015625 
Q 33.0625 21.96875 24.703125 23.78125 
L 21.578125 24.515625 
Q 13.234375 26.265625 9.515625 29.90625 
Q 5.8125 33.546875 5.8125 39.890625 
Q 5.8125 47.609375 11.28125 51.796875 
Q 16.75 56 26.8125 56 
Q 31.78125 56 36.171875 55.265625 
Q 40.578125 54.546875 44.28125 53.078125 
z
" id="DejaVuSans-73"/>
      <path d="M 9.421875 54.6875 
L 18.40625 54.6875 
L 18.40625 0 
L 9.421875 0 
z
M 9.421875 75.984375 
L 18.40625 75.984375 
L 18.40625 64.59375 
L 9.421875 64.59375 
z
" id="DejaVuSans-69"/>
      <path d="M 45.40625 46.390625 
L 45.40625 75.984375 
L 54.390625 75.984375 
L 54.390625 0 
L 45.40625 0 
L 45.40625 8.203125 
Q 42.578125 3.328125 38.25 0.953125 
Q 33.9375 -1.421875 27.875 -1.421875 
Q 17.96875 -1.421875 11.734375 6.484375 
Q 5.515625 14.40625 5.515625 27.296875 
Q 5.515625 40.1875 11.734375 48.09375 
Q 17.96875 56 27.875 56 
Q 33.9375 56 38.25 53.625 
Q 42.578125 51.265625 45.40625 46.390625 
z
M 14.796875 27.296875 
Q 14.796875 17.390625 18.875 11.75 
Q 22.953125 6.109375 30.078125 6.109375 
Q 37.203125 6.109375 41.296875 11.75 
Q 45.40625 17.390625 45.40625 27.296875 
Q 45.40625 37.203125 41.296875 42.84375 
Q 37.203125 48.484375 30.078125 48.484375 
Q 22.953125 48.484375 18.875 42.84375 
Q 14.796875 37.203125 14.796875 27.296875 
z
" id="DejaVuSans-64"/>
      <path d="M 8.5 21.578125 
L 8.5 54.6875 
L 17.484375 54.6875 
L 17.484375 21.921875 
Q 17.484375 14.15625 20.5 10.265625 
Q 23.53125 6.390625 29.59375 6.390625 
Q 36.859375 6.390625 41.078125 11.03125 
Q 45.3125 15.671875 45.3125 23.6875 
L 45.3125 54.6875 
L 54.296875 54.6875 
L 54.296875 0 
L 45.3125 0 
L 45.3125 8.40625 
Q 42.046875 3.421875 37.71875 1 
Q 33.40625 -1.421875 27.6875 -1.421875 
Q 18.265625 -1.421875 13.375 4.4375 
Q 8.5 10.296875 8.5 21.578125 
z
M 31.109375 56 
z
" id="DejaVuSans-75"/>
      <path id="DejaVuSans-20"/>
      <path d="M 54.890625 33.015625 
L 54.890625 0 
L 45.90625 0 
L 45.90625 32.71875 
Q 45.90625 40.484375 42.875 44.328125 
Q 39.84375 48.1875 33.796875 48.1875 
Q 26.515625 48.1875 22.3125 43.546875 
Q 18.109375 38.921875 18.109375 30.90625 
L 18.109375 0 
L 9.078125 0 
L 9.078125 54.6875 
L 18.109375 54.6875 
L 18.109375 46.1875 
Q 21.34375 51.125 25.703125 53.5625 
Q 30.078125 56 35.796875 56 
Q 45.21875 56 50.046875 50.171875 
Q 54.890625 44.34375 54.890625 33.015625 
z
" id="DejaVuSans-6e"/>
      <path d="M 52 44.1875 
Q 55.375 50.25 60.0625 53.125 
Q 64.75 56 71.09375 56 
Q 79.640625 56 84.28125 50.015625 
Q 88.921875 44.046875 88.921875 33.015625 
L 88.921875 0 
L 79.890625 0 
L 79.890625 32.71875 
Q 79.890625 40.578125 77.09375 44.375 
Q 74.3125 48.1875 68.609375 48.1875 
Q 61.625 48.1875 57.5625 43.546875 
Q 53.515625 38.921875 53.515625 30.90625 
L 53.515625 0 
L 44.484375 0 
L 44.484375 32.71875 
Q 44.484375 40.625 41.703125 44.40625 
Q 38.921875 48.1875 33.109375 48.1875 
Q 26.21875 48.1875 22.15625 43.53125 
Q 18.109375 38.875 18.109375 30.90625 
L 18.109375 0 
L 9.078125 0 
L 9.078125 54.6875 
L 18.109375 54.6875 
L 18.109375 46.1875 
Q 21.1875 51.21875 25.484375 53.609375 
Q 29.78125 56 35.6875 56 
Q 41.65625 56 45.828125 52.96875 
Q 50 49.953125 52 44.1875 
z
" id="DejaVuSans-6d"/>
      <path d="M 48.6875 27.296875 
Q 48.6875 37.203125 44.609375 42.84375 
Q 40.53125 48.484375 33.40625 48.484375 
Q 26.265625 48.484375 22.1875 42.84375 
Q 18.109375 37.203125 18.109375 27.296875 
Q 18.109375 17.390625 22.1875 11.75 
Q 26.265625 6.109375 33.40625 6.109375 
Q 40.53125 6.109375 44.609375 11.75 
Q 48.6875 17.390625 48.6875 27.296875 
z
M 18.109375 46.390625 
Q 20.953125 51.265625 25.265625 53.625 
Q 29.59375 56 35.59375 56 
Q 45.5625 56 51.78125 48.09375 
Q 58.015625 40.1875 58.015625 27.296875 
Q 58.015625 14.40625 51.78125 6.484375 
Q 45.5625 -1.421875 35.59375 -1.421875 
Q 29.59375 -1.421875 25.265625 0.953125 
Q 20.953125 3.328125 18.109375 8.203125 
L 18.109375 0 
L 9.078125 0 
L 9.078125 75.984375 
L 18.109375 75.984375 
z
" id="DejaVuSans-62"/>
      <path d="M 41.109375 46.296875 
Q 39.59375 47.171875 37.8125 47.578125 
Q 36.03125 48 33.890625 48 
Q 26.265625 48 22.1875 43.046875 
Q 18.109375 38.09375 18.109375 28.8125 
L 18.109375 0 
L 9.078125 0 
L 9.078125 54.6875 
L 18.109375 54.6875 
L 18.109375 46.1875 
Q 20.953125 51.171875 25.484375 53.578125 
Q 30.03125 56 36.53125 56 
Q 37.453125 56 38.578125 55.875 
Q 39.703125 55.765625 41.0625 55.515625 
z
" id="DejaVuSans-72"/>
     </defs>
     <g transform="translate(180.335938 280.276563)scale(0.1 -0.1)">
      <use xlink:href="#DejaVuSans-52"/>
      <use x="69.419922" xlink:href="#DejaVuSans-65"/>
      <use x="130.943359" xlink:href="#DejaVuSans-73"/>
      <use x="183.042969" xlink:href="#DejaVuSans-69"/>
      <use x="210.826172" xlink:href="#DejaVuSans-64"/>
      <use x="274.302734" xlink:href="#DejaVuSans-75"/>
      <use x="337.681641" xlink:href="#DejaVuSans-65"/>
      <use x="399.205078" xlink:href="#DejaVuSans-20"/>
      <use x="430.992188" xlink:href="#DejaVuSans-6e"/>
      <use x="494.371094" xlink:href="#DejaVuSans-75"/>
      <use x="557.75" xlink:href="#DejaVuSans-6d"/>
      <use x="655.162109" xlink:href="#DejaVuSans-62"/>
      <use x="718.638672" xlink:href="#DejaVuSans-65"/>
      <use x="780.162109" xlink:href="#DejaVuSans-72"/>
     </g>
    </g>
   </g>
   <g id="matplotlib.axis_2">
    <g id="ytick_1">
     <g id="line2d_9">
      <defs>
       <path d="M 0 0 
L -3.5 0 
" id="m723cd09a13" style="stroke:#000000;stroke-width:0.8;"/>
      </defs>
      <g>
       <use style="stroke:#000000;stroke-width:0.8;" x="54" xlink:href="#m723cd09a13" y="242.116364"/>
      </g>
     </g>
     <g id="text_10">
      <!-- −1 -->
      <defs>
       <path d="M 10.59375 35.5 
L 73.1875 35.5 
L 73.1875 27.203125 
L 10.59375 27.203125 
z
" id="DejaVuSans-2212"/>
      </defs>
      <g transform="translate(32.257812 245.915582)scale(0.1 -0.1)">
       <use xlink:href="#DejaVuSans-2212"/>
       <use x="83.789062" xlink:href="#DejaVuSans-31"/>
      </g>
     </g>
    </g>
    <g id="ytick_2">
     <g id="line2d_10">
      <g>
       <use style="stroke:#000000;stroke-width:0.8;" x="54" xlink:href="#m723cd09a13" y="210.565758"/>
      </g>
     </g>
     <g id="text_11">
      <!-- 0 -->
      <g transform="translate(40.6375 214.364977)scale(0.1 -0.1)">
       <use xlink:href="#DejaVuSans-30"/>
      </g>
     </g>
    </g>
    <g id="ytick_3">
     <g id="line2d_11">
      <g>
       <use style="stroke:#000000;stroke-width:0.8;" x="54" xlink:href="#m723cd09a13" y="179.015152"/>
      </g>
     </g>
     <g id="text_12">
      <!-- 1 -->
      <g transform="translate(40.6375 182.814371)scale(0.1 -0.1)">
       <use xlink:href="#DejaVuSans-31"/>
      </g>
     </g>
    </g>
    <g id="ytick_4">
     <g id="line2d_12">
      <g>
       <use style="stroke:#000000;stroke-width:0.8;" x="54" xlink:href="#m723cd09a13" y="147.464546"/>
      </g>
     </g>
     <g id="text_13">
      <!-- 2 -->
      <g transform="translate(40.6375 151.263765)scale(0.1 -0.1)">
       <use xlink:href="#DejaVuSans-32"/>
      </g>
     </g>
    </g>
    <g id="ytick_5">
     <g id="line2d_13">
      <g>
       <use style="stroke:#000000;stroke-width:0.8;" x="54" xlink:href="#m723cd09a13" y="115.91394"/>
      </g>
     </g>
     <g id="text_14">
      <!-- 3 -->
      <defs>
       <path d="M 40.578125 39.3125 
Q 47.65625 37.796875 51.625 33 
Q 55.609375 28.21875 55.609375 21.1875 
Q 55.609375 10.40625 48.1875 4.484375 
Q 40.765625 -1.421875 27.09375 -1.421875 
Q 22.515625 -1.421875 17.65625 -0.515625 
Q 12.796875 0.390625 7.625 2.203125 
L 7.625 11.71875 
Q 11.71875 9.328125 16.59375 8.109375 
Q 21.484375 6.890625 26.8125 6.890625 
Q 36.078125 6.890625 40.9375 10.546875 
Q 45.796875 14.203125 45.796875 21.1875 
Q 45.796875 27.640625 41.28125 31.265625 
Q 36.765625 34.90625 28.71875 34.90625 
L 20.21875 34.90625 
L 20.21875 43.015625 
L 29.109375 43.015625 
Q 36.375 43.015625 40.234375 45.921875 
Q 44.09375 48.828125 44.09375 54.296875 
Q 44.09375 59.90625 40.109375 62.90625 
Q 36.140625 65.921875 28.71875 65.921875 
Q 24.65625 65.921875 20.015625 65.03125 
Q 15.375 64.15625 9.8125 62.3125 
L 9.8125 71.09375 
Q 15.4375 72.65625 20.34375 73.4375 
Q 25.25 74.21875 29.59375 74.21875 
Q 40.828125 74.21875 47.359375 69.109375 
Q 53.90625 64.015625 53.90625 55.328125 
Q 53.90625 49.265625 50.4375 45.09375 
Q 46.96875 40.921875 40.578125 39.3125 
z
" id="DejaVuSans-33"/>
      </defs>
      <g transform="translate(40.6375 119.713159)scale(0.1 -0.1)">
       <use xlink:href="#DejaVuSans-33"/>
      </g>
     </g>
    </g>
    <g id="ytick_6">
     <g id="line2d_14">
      <g>
       <use style="stroke:#000000;stroke-width:0.8;" x="54" xlink:href="#m723cd09a13" y="84.363334"/>
      </g>
     </g>
     <g id="text_15">
      <!-- 4 -->
      <g transform="translate(40.6375 88.162553)scale(0.1 -0.1)">
       <use xlink:href="#DejaVuSans-34"/>
      </g>
     </g>
    </g>
    <g id="ytick_7">
     <g id="line2d_15">
      <g>
       <use style="stroke:#000000;stroke-width:0.8;" x="54" xlink:href="#m723cd09a13" y="52.812729"/>
      </g>
     </g>
     <g id="text_16">
      <!-- 5 -->
      <defs>
       <path d="M 10.796875 72.90625 
L 49.515625 72.90625 
L 49.515625 64.59375 
L 19.828125 64.59375 
L 19.828125 46.734375 
Q 21.96875 47.46875 24.109375 47.828125 
Q 26.265625 48.1875 28.421875 48.1875 
Q 40.625 48.1875 47.75 41.5 
Q 54.890625 34.8125 54.890625 23.390625 
Q 54.890625 11.625 47.5625 5.09375 
Q 40.234375 -1.421875 26.90625 -1.421875 
Q 22.3125 -1.421875 17.546875 -0.640625 
Q 12.796875 0.140625 7.71875 1.703125 
L 7.71875 11.625 
Q 12.109375 9.234375 16.796875 8.0625 
Q 21.484375 6.890625 26.703125 6.890625 
Q 35.15625 6.890625 40.078125 11.328125 
Q 45.015625 15.765625 45.015625 23.390625 
Q 45.015625 31 40.078125 35.4375 
Q 35.15625 39.890625 26.703125 39.890625 
Q 22.75 39.890625 18.8125 39.015625 
Q 14.890625 38.140625 10.796875 36.28125 
z
" id="DejaVuSans-35"/>
      </defs>
      <g transform="translate(40.6375 56.611947)scale(0.1 -0.1)">
       <use xlink:href="#DejaVuSans-35"/>
      </g>
     </g>
    </g>
    <g id="text_17">
     <!-- Order parameter from diagonal intensities -->
     <defs>
      <path d="M 39.40625 66.21875 
Q 28.65625 66.21875 22.328125 58.203125 
Q 16.015625 50.203125 16.015625 36.375 
Q 16.015625 22.609375 22.328125 14.59375 
Q 28.65625 6.59375 39.40625 6.59375 
Q 50.140625 6.59375 56.421875 14.59375 
Q 62.703125 22.609375 62.703125 36.375 
Q 62.703125 50.203125 56.421875 58.203125 
Q 50.140625 66.21875 39.40625 66.21875 
z
M 39.40625 74.21875 
Q 54.734375 74.21875 63.90625 63.9375 
Q 73.09375 53.65625 73.09375 36.375 
Q 73.09375 19.140625 63.90625 8.859375 
Q 54.734375 -1.421875 39.40625 -1.421875 
Q 24.03125 -1.421875 14.8125 8.828125 
Q 5.609375 19.09375 5.609375 36.375 
Q 5.609375 53.65625 14.8125 63.9375 
Q 24.03125 74.21875 39.40625 74.21875 
z
" id="DejaVuSans-4f"/>
      <path d="M 18.109375 8.203125 
L 18.109375 -20.796875 
L 9.078125 -20.796875 
L 9.078125 54.6875 
L 18.109375 54.6875 
L 18.109375 46.390625 
Q 20.953125 51.265625 25.265625 53.625 
Q 29.59375 56 35.59375 56 
Q 45.5625 56 51.78125 48.09375 
Q 58.015625 40.1875 58.015625 27.296875 
Q 58.015625 14.40625 51.78125 6.484375 
Q 45.5625 -1.421875 35.59375 -1.421875 
Q 29.59375 -1.421875 25.265625 0.953125 
Q 20.953125 3.328125 18.109375 8.203125 
z
M 48.6875 27.296875 
Q 48.6875 37.203125 44.609375 42.84375 
Q 40.53125 48.484375 33.40625 48.484375 
Q 26.265625 48.484375 22.1875 42.84375 
Q 18.109375 37.203125 18.109375 27.296875 
Q 18.109375 17.390625 22.1875 11.75 
Q 26.265625 6.109375 33.40625 6.109375 
Q 40.53125 6.109375 44.609375 11.75 
Q 48.6875 17.390625 48.6875 27.296875 
z
" id="DejaVuSans-70"/>
      <path d="M 34.28125 27.484375 
Q 23.390625 27.484375 19.1875 25 
Q 14.984375 22.515625 14.984375 16.5 
Q 14.984375 11.71875 18.140625 8.90625 
Q 21.296875 6.109375 26.703125 6.109375 
Q 34.1875 6.109375 38.703125 11.40625 
Q 43.21875 16.703125 43.21875 25.484375 
L 43.21875 27.484375 
z
M 52.203125 31.203125 
L 52.203125 0 
L 43.21875 0 
L 43.21875 8.296875 
Q 40.140625 3.328125 35.546875 0.953125 
Q 30.953125 -1.421875 24.3125 -1.421875 
Q 15.921875 -1.421875 10.953125 3.296875 
Q 6 8.015625 6 15.921875 
Q 6 25.140625 12.171875 29.828125 
Q 18.359375 34.515625 30.609375 34.515625 
L 43.21875 34.515625 
L 43.21875 35.40625 
Q 43.21875 41.609375 39.140625 45 
Q 35.0625 48.390625 27.6875 48.390625 
Q 23 48.390625 18.546875 47.265625 
Q 14.109375 46.140625 10.015625 43.890625 
L 10.015625 52.203125 
Q 14.9375 54.109375 19.578125 55.046875 
Q 24.21875 56 28.609375 56 
Q 40.484375 56 46.34375 49.84375 
Q 52.203125 43.703125 52.203125 31.203125 
z
" id="DejaVuSans-61"/>
      <path d="M 18.3125 70.21875 
L 18.3125 54.6875 
L 36.8125 54.6875 
L 36.8125 47.703125 
L 18.3125 47.703125 
L 18.3125 18.015625 
Q 18.3125 11.328125 20.140625 9.421875 
Q 21.96875 7.515625 27.59375 7.515625 
L 36.8125 7.515625 
L 36.8125 0 
L 27.59375 0 
Q 17.1875 0 13.234375 3.875 
Q 9.28125 7.765625 9.28125 18.015625 
L 9.28125 47.703125 
L 2.6875 47.703125 
L 2.6875 54.6875 
L 9.28125 54.6875 
L 9.28125 70.21875 
z
" id="DejaVuSans-74"/>
      <path d="M 37.109375 75.984375 
L 37.109375 68.5 
L 28.515625 68.5 
Q 23.6875 68.5 21.796875 66.546875 
Q 19.921875 64.59375 19.921875 59.515625 
L 19.921875 54.6875 
L 34.71875 54.6875 
L 34.71875 47.703125 
L 19.921875 47.703125 
L 19.921875 0 
L 10.890625 0 
L 10.890625 47.703125 
L 2.296875 47.703125 
L 2.296875 54.6875 
L 10.890625 54.6875 
L 10.890625 58.5 
Q 10.890625 67.625 15.140625 71.796875 
Q 19.390625 75.984375 28.609375 75.984375 
z
" id="DejaVuSans-66"/>
      <path d="M 30.609375 48.390625 
Q 23.390625 48.390625 19.1875 42.75 
Q 14.984375 37.109375 14.984375 27.296875 
Q 14.984375 17.484375 19.15625 11.84375 
Q 23.34375 6.203125 30.609375 6.203125 
Q 37.796875 6.203125 41.984375 11.859375 
Q 46.1875 17.53125 46.1875 27.296875 
Q 46.1875 37.015625 41.984375 42.703125 
Q 37.796875 48.390625 30.609375 48.390625 
z
M 30.609375 56 
Q 42.328125 56 49.015625 48.375 
Q 55.71875 40.765625 55.71875 27.296875 
Q 55.71875 13.875 49.015625 6.21875 
Q 42.328125 -1.421875 30.609375 -1.421875 
Q 18.84375 -1.421875 12.171875 6.21875 
Q 5.515625 13.875 5.515625 27.296875 
Q 5.515625 40.765625 12.171875 48.375 
Q 18.84375 56 30.609375 56 
z
" id="DejaVuSans-6f"/>
      <path d="M 45.40625 27.984375 
Q 45.40625 37.75 41.375 43.109375 
Q 37.359375 48.484375 30.078125 48.484375 
Q 22.859375 48.484375 18.828125 43.109375 
Q 14.796875 37.75 14.796875 27.984375 
Q 14.796875 18.265625 18.828125 12.890625 
Q 22.859375 7.515625 30.078125 7.515625 
Q 37.359375 7.515625 41.375 12.890625 
Q 45.40625 18.265625 45.40625 27.984375 
z
M 54.390625 6.78125 
Q 54.390625 -7.171875 48.1875 -13.984375 
Q 42 -20.796875 29.203125 -20.796875 
Q 24.46875 -20.796875 20.265625 -20.09375 
Q 16.0625 -19.390625 12.109375 -17.921875 
L 12.109375 -9.1875 
Q 16.0625 -11.328125 19.921875 -12.34375 
Q 23.78125 -13.375 27.78125 -13.375 
Q 36.625 -13.375 41.015625 -8.765625 
Q 45.40625 -4.15625 45.40625 5.171875 
L 45.40625 9.625 
Q 42.625 4.78125 38.28125 2.390625 
Q 33.9375 0 27.875 0 
Q 17.828125 0 11.671875 7.65625 
Q 5.515625 15.328125 5.515625 27.984375 
Q 5.515625 40.671875 11.671875 48.328125 
Q 17.828125 56 27.875 56 
Q 33.9375 56 38.28125 53.609375 
Q 42.625 51.21875 45.40625 46.390625 
L 45.40625 54.6875 
L 54.390625 54.6875 
z
" id="DejaVuSans-67"/>
      <path d="M 9.421875 75.984375 
L 18.40625 75.984375 
L 18.40625 0 
L 9.421875 0 
z
" id="DejaVuSans-6c"/>
     </defs>
     <g transform="translate(26.178125 249.344063)rotate(-90)scale(0.1 -0.1)">
      <use xlink:href="#DejaVuSans-4f"/>
      <use x="78.710938" xlink:href="#DejaVuSans-72"/>
      <use x="119.808594" xlink:href="#DejaVuSans-64"/>
      <use x="183.285156" xlink:href="#DejaVuSans-65"/>
      <use x="244.808594" xlink:href="#DejaVuSans-72"/>
      <use x="285.921875" xlink:href="#DejaVuSans-20"/>
      <use x="317.708984" xlink:href="#DejaVuSans-70"/>
      <use x="381.185547" xlink:href="#DejaVuSans-61"/>
      <use x="442.464844" xlink:href="#DejaVuSans-72"/>
      <use x="483.578125" xlink:href="#DejaVuSans-61"/>
      <use x="544.857422" xlink:href="#DejaVuSans-6d"/>
      <use x="642.269531" xlink:href="#DejaVuSans-65"/>
      <use x="703.792969" xlink:href="#DejaVuSans-74"/>
      <use x="743.001953" xlink:href="#DejaVuSans-65"/>
      <use x="804.525391" xlink:href="#DejaVuSans-72"/>
      <use x="845.638672" xlink:href="#DejaVuSans-20"/>
      <use x="877.425781" xlink:href="#DejaVuSans-66"/>
      <use x="912.630859" xlink:href="#DejaVuSans-72"/>
      <use x="953.712891" xlink:href="#DejaVuSans-6f"/>
      <use x="1014.894531" xlink:href="#DejaVuSans-6d"/>
      <use x="1112.306641" xlink:href="#DejaVuSans-20"/>
      <use x="1144.09375" xlink:href="#DejaVuSans-64"/>
      <use x="1207.570312" xlink:href="#DejaVuSans-69"/>
      <use x="1235.353516" xlink:href="#DejaVuSans-61"/>
      <use x="1296.632812" xlink:href="#DejaVuSans-67"/>
      <use x="1360.109375" xlink:href="#DejaVuSans-6f"/>
      <use x="1421.291016" xlink:href="#DejaVuSans-6e"/>
      <use x="1484.669922" xlink:href="#DejaVuSans-61"/>
      <use x="1545.949219" xlink:href="#DejaVuSans-6c"/>
      <use x="1573.732422" xlink:href="#DejaVuSans-20"/>
      <use x="1605.519531" xlink:href="#DejaVuSans-69"/>
      <use x="1633.302734" xlink:href="#DejaVuSans-6e"/>
      <use x="1696.681641" xlink:href="#DejaVuSans-74"/>
      <use x="1735.890625" xlink:href="#DejaVuSans-65"/>
      <use x="1797.414062" xlink:href="#DejaVuSans-6e"/>
      <use x="1860.792969" xlink:href="#DejaVuSans-73"/>
      <use x="1912.892578" xlink:href="#DejaVuSans-69"/>
      <use x="1940.675781" xlink:href="#DejaVuSans-74"/>
      <use x="1979.884766" xlink:href="#DejaVuSans-69"/>
      <use x="2007.667969" xlink:href="#DejaVuSans-65"/>
      <use x="2069.191406" xlink:href="#DejaVuSans-73"/>
     </g>
    </g>
   </g>
   <g id="LineCollection_1">
    <path clip-path="url(#p55e2733463)" d="M 70.121338 241.771015 
L 70.121338 241.770983 
" style="fill:none;stroke:#000000;stroke-width:1.5;"/>
    <path clip-path="url(#p55e2733463)" d="M 72.379228 44.501454 
L 72.379228 44.443636 
" style="fill:none;stroke:#000000;stroke-width:1.5;"/>
    <path clip-path="url(#p55e2733463)" d="M 74.637119 186.546222 
L 74.637119 185.880987 
" style="fill:none;stroke:#000000;stroke-width:1.5;"/>
    <path clip-path="url(#p55e2733463)" d="M 76.895009 176.80575 
L 76.895009 176.436507 
" style="fill:none;stroke:#000000;stroke-width:1.5;"/>
    <path clip-path="url(#p55e2733463)" d="M 79.1529 224.430087 
L 79.1529 223.903036 
" style="fill:none;stroke:#000000;stroke-width:1.5;"/>
    <path clip-path="url(#p55e2733463)" d="M 81.41079 230.886996 
L 81.41079 230.503701 
" style="fill:none;stroke:#000000;stroke-width:1.5;"/>
    <path clip-path="url(#p55e2733463)" d="M 85.926571 213.853839 
L 85.926571 212.400475 
" style="fill:none;stroke:#000000;stroke-width:1.5;"/>
    <path clip-path="url(#p55e2733463)" d="M 88.184462 200.81896 
L 88.184462 198.933464 
" style="fill:none;stroke:#000000;stroke-width:1.5;"/>
    <path clip-path="url(#p55e2733463)" d="M 90.442352 225.024501 
L 90.442352 224.438533 
" style="fill:none;stroke:#000000;stroke-width:1.5;"/>
    <path clip-path="url(#p55e2733463)" d="M 92.700243 210.890559 
L 92.700243 209.887767 
" style="fill:none;stroke:#000000;stroke-width:1.5;"/>
    <path clip-path="url(#p55e2733463)" d="M 94.958133 160.74052 
L 94.958133 160.617816 
" style="fill:none;stroke:#000000;stroke-width:1.5;"/>
    <path clip-path="url(#p55e2733463)" d="M 97.216024 240.600583 
L 97.216024 240.592714 
" style="fill:none;stroke:#000000;stroke-width:1.5;"/>
    <path clip-path="url(#p55e2733463)" d="M 99.473914 237.589862 
L 99.473914 237.421601 
" style="fill:none;stroke:#000000;stroke-width:1.5;"/>
    <path clip-path="url(#p55e2733463)" d="M 101.731805 227.701088 
L 101.731805 227.162376 
" style="fill:none;stroke:#000000;stroke-width:1.5;"/>
    <path clip-path="url(#p55e2733463)" d="M 103.989695 217.494498 
L 103.989695 216.487607 
" style="fill:none;stroke:#000000;stroke-width:1.5;"/>
    <path clip-path="url(#p55e2733463)" d="M 106.247586 207.922181 
L 106.247586 207.029236 
" style="fill:none;stroke:#000000;stroke-width:1.5;"/>
    <path clip-path="url(#p55e2733463)" d="M 108.505476 226.037793 
L 108.505476 225.548658 
" style="fill:none;stroke:#000000;stroke-width:1.5;"/>
    <path clip-path="url(#p55e2733463)" d="M 110.763367 212.675681 
L 110.763367 211.574833 
" style="fill:none;stroke:#000000;stroke-width:1.5;"/>
    <path clip-path="url(#p55e2733463)" d="M 113.021257 213.833274 
L 113.021257 212.720118 
" style="fill:none;stroke:#000000;stroke-width:1.5;"/>
    <path clip-path="url(#p55e2733463)" d="M 115.279148 240.845206 
L 115.279148 240.795856 
" style="fill:none;stroke:#000000;stroke-width:1.5;"/>
    <path clip-path="url(#p55e2733463)" d="M 117.537038 241.735514 
L 117.537038 241.735499 
" style="fill:none;stroke:#000000;stroke-width:1.5;"/>
    <path clip-path="url(#p55e2733463)" d="M 119.794929 191.383407 
L 119.794929 189.417144 
" style="fill:none;stroke:#000000;stroke-width:1.5;"/>
    <path clip-path="url(#p55e2733463)" d="M 122.052819 241.006944 
L 122.052819 240.957186 
" style="fill:none;stroke:#000000;stroke-width:1.5;"/>
    <path clip-path="url(#p55e2733463)" d="M 124.310709 233.28658 
L 124.310709 233.257645 
" style="fill:none;stroke:#000000;stroke-width:1.5;"/>
    <path clip-path="url(#p55e2733463)" d="M 128.82649 232.604698 
L 128.82649 232.3879 
" style="fill:none;stroke:#000000;stroke-width:1.5;"/>
    <path clip-path="url(#p55e2733463)" d="M 131.084381 229.880144 
L 131.084381 229.238661 
" style="fill:none;stroke:#000000;stroke-width:1.5;"/>
    <path clip-path="url(#p55e2733463)" d="M 133.342271 198.76726 
L 133.342271 196.341237 
" style="fill:none;stroke:#000000;stroke-width:1.5;"/>
    <path clip-path="url(#p55e2733463)" d="M 135.600162 237.107222 
L 135.600162 237.041667 
" style="fill:none;stroke:#000000;stroke-width:1.5;"/>
    <path clip-path="url(#p55e2733463)" d="M 137.858052 233.461445 
L 137.858052 233.327807 
" style="fill:none;stroke:#000000;stroke-width:1.5;"/>
    <path clip-path="url(#p55e2733463)" d="M 140.115943 238.29811 
L 140.115943 238.122666 
" style="fill:none;stroke:#000000;stroke-width:1.5;"/>
    <path clip-path="url(#p55e2733463)" d="M 142.373833 238.222851 
L 142.373833 238.038122 
" style="fill:none;stroke:#000000;stroke-width:1.5;"/>
    <path clip-path="url(#p55e2733463)" d="M 144.631724 187.89593 
L 144.631724 185.372306 
" style="fill:none;stroke:#000000;stroke-width:1.5;"/>
    <path clip-path="url(#p55e2733463)" d="M 146.889614 196.783223 
L 146.889614 196.782882 
" style="fill:none;stroke:#000000;stroke-width:1.5;"/>
    <path clip-path="url(#p55e2733463)" d="M 149.147505 217.806423 
L 149.147505 216.471188 
" style="fill:none;stroke:#000000;stroke-width:1.5;"/>
    <path clip-path="url(#p55e2733463)" d="M 151.405395 240.665886 
L 151.405395 240.618733 
" style="fill:none;stroke:#000000;stroke-width:1.5;"/>
    <path clip-path="url(#p55e2733463)" d="M 153.663286 239.799448 
L 153.663286 239.733041 
" style="fill:none;stroke:#000000;stroke-width:1.5;"/>
    <path clip-path="url(#p55e2733463)" d="M 155.921176 236.174549 
L 155.921176 235.922375 
" style="fill:none;stroke:#000000;stroke-width:1.5;"/>
    <path clip-path="url(#p55e2733463)" d="M 158.179067 186.421787 
L 158.179067 183.955577 
" style="fill:none;stroke:#000000;stroke-width:1.5;"/>
    <path clip-path="url(#p55e2733463)" d="M 160.436957 236.222568 
L 160.436957 236.007162 
" style="fill:none;stroke:#000000;stroke-width:1.5;"/>
    <path clip-path="url(#p55e2733463)" d="M 162.694848 217.464675 
L 162.694848 217.456018 
" style="fill:none;stroke:#000000;stroke-width:1.5;"/>
    <path clip-path="url(#p55e2733463)" d="M 164.952738 232.226024 
L 164.952738 231.784116 
" style="fill:none;stroke:#000000;stroke-width:1.5;"/>
    <path clip-path="url(#p55e2733463)" d="M 167.210629 209.932376 
L 167.210629 208.496288 
" style="fill:none;stroke:#000000;stroke-width:1.5;"/>
    <path clip-path="url(#p55e2733463)" d="M 169.468519 240.02799 
L 169.468519 240.007532 
" style="fill:none;stroke:#000000;stroke-width:1.5;"/>
    <path clip-path="url(#p55e2733463)" d="M 171.726409 240.540846 
L 171.726409 240.454649 
" style="fill:none;stroke:#000000;stroke-width:1.5;"/>
    <path clip-path="url(#p55e2733463)" d="M 173.9843 240.994203 
L 173.9843 240.934584 
" style="fill:none;stroke:#000000;stroke-width:1.5;"/>
    <path clip-path="url(#p55e2733463)" d="M 176.24219 170.288235 
L 176.24219 170.27751 
" style="fill:none;stroke:#000000;stroke-width:1.5;"/>
    <path clip-path="url(#p55e2733463)" d="M 178.500081 209.647466 
L 178.500081 208.272446 
" style="fill:none;stroke:#000000;stroke-width:1.5;"/>
    <path clip-path="url(#p55e2733463)" d="M 180.757971 229.790466 
L 180.757971 229.390015 
" style="fill:none;stroke:#000000;stroke-width:1.5;"/>
    <path clip-path="url(#p55e2733463)" d="M 183.015862 234.30021 
L 183.015862 234.028419 
" style="fill:none;stroke:#000000;stroke-width:1.5;"/>
    <path clip-path="url(#p55e2733463)" d="M 185.273752 242.116364 
L 185.273752 242.116364 
" style="fill:none;stroke:#000000;stroke-width:1.5;"/>
    <path clip-path="url(#p55e2733463)" d="M 189.789533 174.943944 
L 189.789533 174.608289 
" style="fill:none;stroke:#000000;stroke-width:1.5;"/>
    <path clip-path="url(#p55e2733463)" d="M 192.047424 230.77231 
L 192.047424 230.09831 
" style="fill:none;stroke:#000000;stroke-width:1.5;"/>
    <path clip-path="url(#p55e2733463)" d="M 194.305314 224.52228 
L 194.305314 224.516058 
" style="fill:none;stroke:#000000;stroke-width:1.5;"/>
    <path clip-path="url(#p55e2733463)" d="M 196.563205 127.465798 
L 196.563205 127.450419 
" style="fill:none;stroke:#000000;stroke-width:1.5;"/>
    <path clip-path="url(#p55e2733463)" d="M 198.821095 228.52209 
L 198.821095 228.500304 
" style="fill:none;stroke:#000000;stroke-width:1.5;"/>
    <path clip-path="url(#p55e2733463)" d="M 201.078986 239.323019 
L 201.078986 239.189258 
" style="fill:none;stroke:#000000;stroke-width:1.5;"/>
    <path clip-path="url(#p55e2733463)" d="M 203.336876 240.847367 
L 203.336876 240.787402 
" style="fill:none;stroke:#000000;stroke-width:1.5;"/>
    <path clip-path="url(#p55e2733463)" d="M 205.594767 138.697614 
L 205.594767 134.469932 
" style="fill:none;stroke:#000000;stroke-width:1.5;"/>
    <path clip-path="url(#p55e2733463)" d="M 207.852657 242.116364 
L 207.852657 242.116364 
" style="fill:none;stroke:#000000;stroke-width:1.5;"/>
    <path clip-path="url(#p55e2733463)" d="M 210.110548 241.386944 
L 210.110548 241.381945 
" style="fill:none;stroke:#000000;stroke-width:1.5;"/>
    <path clip-path="url(#p55e2733463)" d="M 216.884219 199.951578 
L 216.884219 199.897678 
" style="fill:none;stroke:#000000;stroke-width:1.5;"/>
    <path clip-path="url(#p55e2733463)" d="M 219.14211 236.973622 
L 219.14211 236.928696 
" style="fill:none;stroke:#000000;stroke-width:1.5;"/>
    <path clip-path="url(#p55e2733463)" d="M 221.4 147.414154 
L 221.4 144.22914 
" style="fill:none;stroke:#000000;stroke-width:1.5;"/>
    <path clip-path="url(#p55e2733463)" d="M 223.65789 131.359402 
L 223.65789 127.628766 
" style="fill:none;stroke:#000000;stroke-width:1.5;"/>
    <path clip-path="url(#p55e2733463)" d="M 225.915781 223.175085 
L 225.915781 222.447926 
" style="fill:none;stroke:#000000;stroke-width:1.5;"/>
    <path clip-path="url(#p55e2733463)" d="M 228.173671 230.736242 
L 228.173671 230.31674 
" style="fill:none;stroke:#000000;stroke-width:1.5;"/>
    <path clip-path="url(#p55e2733463)" d="M 230.431562 225.414707 
L 230.431562 225.412704 
" style="fill:none;stroke:#000000;stroke-width:1.5;"/>
    <path clip-path="url(#p55e2733463)" d="M 234.947343 236.027214 
L 234.947343 235.815863 
" style="fill:none;stroke:#000000;stroke-width:1.5;"/>
    <path clip-path="url(#p55e2733463)" d="M 237.205233 229.374196 
L 237.205233 229.278712 
" style="fill:none;stroke:#000000;stroke-width:1.5;"/>
    <path clip-path="url(#p55e2733463)" d="M 239.463124 235.344732 
L 239.463124 235.304781 
" style="fill:none;stroke:#000000;stroke-width:1.5;"/>
    <path clip-path="url(#p55e2733463)" d="M 241.721014 221.421269 
L 241.721014 221.239326 
" style="fill:none;stroke:#000000;stroke-width:1.5;"/>
    <path clip-path="url(#p55e2733463)" d="M 243.978905 240.416967 
L 243.978905 240.375295 
" style="fill:none;stroke:#000000;stroke-width:1.5;"/>
    <path clip-path="url(#p55e2733463)" d="M 246.236795 219.076999 
L 246.236795 217.946063 
" style="fill:none;stroke:#000000;stroke-width:1.5;"/>
    <path clip-path="url(#p55e2733463)" d="M 248.494686 226.526113 
L 248.494686 225.782874 
" style="fill:none;stroke:#000000;stroke-width:1.5;"/>
    <path clip-path="url(#p55e2733463)" d="M 253.010467 223.543749 
L 253.010467 223.199201 
" style="fill:none;stroke:#000000;stroke-width:1.5;"/>
    <path clip-path="url(#p55e2733463)" d="M 255.268357 225.8225 
L 255.268357 225.326458 
" style="fill:none;stroke:#000000;stroke-width:1.5;"/>
    <path clip-path="url(#p55e2733463)" d="M 257.526248 242.116364 
L 257.526248 242.116364 
" style="fill:none;stroke:#000000;stroke-width:1.5;"/>
    <path clip-path="url(#p55e2733463)" d="M 259.784138 242.116364 
L 259.784138 242.116364 
" style="fill:none;stroke:#000000;stroke-width:1.5;"/>
    <path clip-path="url(#p55e2733463)" d="M 266.55781 241.508601 
L 266.55781 241.481821 
" style="fill:none;stroke:#000000;stroke-width:1.5;"/>
    <path clip-path="url(#p55e2733463)" d="M 268.8157 234.25034 
L 268.8157 234.222839 
" style="fill:none;stroke:#000000;stroke-width:1.5;"/>
    <path clip-path="url(#p55e2733463)" d="M 271.073591 187.049946 
L 271.073591 184.12906 
" style="fill:none;stroke:#000000;stroke-width:1.5;"/>
    <path clip-path="url(#p55e2733463)" d="M 273.331481 237.303002 
L 273.331481 237.156857 
" style="fill:none;stroke:#000000;stroke-width:1.5;"/>
    <path clip-path="url(#p55e2733463)" d="M 275.589371 237.587979 
L 275.589371 237.542121 
" style="fill:none;stroke:#000000;stroke-width:1.5;"/>
    <path clip-path="url(#p55e2733463)" d="M 277.847262 226.297213 
L 277.847262 225.852331 
" style="fill:none;stroke:#000000;stroke-width:1.5;"/>
    <path clip-path="url(#p55e2733463)" d="M 280.105152 203.278429 
L 280.105152 201.830967 
" style="fill:none;stroke:#000000;stroke-width:1.5;"/>
    <path clip-path="url(#p55e2733463)" d="M 282.363043 219.920212 
L 282.363043 219.085434 
" style="fill:none;stroke:#000000;stroke-width:1.5;"/>
    <path clip-path="url(#p55e2733463)" d="M 284.620933 132.349433 
L 284.620933 132.34463 
" style="fill:none;stroke:#000000;stroke-width:1.5;"/>
    <path clip-path="url(#p55e2733463)" d="M 286.878824 242.116364 
L 286.878824 242.116364 
" style="fill:none;stroke:#000000;stroke-width:1.5;"/>
    <path clip-path="url(#p55e2733463)" d="M 289.136714 169.402716 
L 289.136714 165.987372 
" style="fill:none;stroke:#000000;stroke-width:1.5;"/>
    <path clip-path="url(#p55e2733463)" d="M 293.652495 242.116364 
L 293.652495 242.116364 
" style="fill:none;stroke:#000000;stroke-width:1.5;"/>
    <path clip-path="url(#p55e2733463)" d="M 295.910386 230.512123 
L 295.910386 230.492609 
" style="fill:none;stroke:#000000;stroke-width:1.5;"/>
    <path clip-path="url(#p55e2733463)" d="M 300.426167 242.116364 
L 300.426167 242.116364 
" style="fill:none;stroke:#000000;stroke-width:1.5;"/>
    <path clip-path="url(#p55e2733463)" d="M 302.684057 225.243635 
L 302.684057 224.717559 
" style="fill:none;stroke:#000000;stroke-width:1.5;"/>
    <path clip-path="url(#p55e2733463)" d="M 307.199838 222.894082 
L 307.199838 221.77036 
" style="fill:none;stroke:#000000;stroke-width:1.5;"/>
    <path clip-path="url(#p55e2733463)" d="M 309.457729 241.325777 
L 309.457729 241.279416 
" style="fill:none;stroke:#000000;stroke-width:1.5;"/>
    <path clip-path="url(#p55e2733463)" d="M 311.715619 175.051384 
L 311.715619 172.166836 
" style="fill:none;stroke:#000000;stroke-width:1.5;"/>
    <path clip-path="url(#p55e2733463)" d="M 313.97351 124.75644 
L 313.97351 119.873011 
" style="fill:none;stroke:#000000;stroke-width:1.5;"/>
    <path clip-path="url(#p55e2733463)" d="M 316.2314 236.468637 
L 316.2314 236.461598 
" style="fill:none;stroke:#000000;stroke-width:1.5;"/>
    <path clip-path="url(#p55e2733463)" d="M 318.489291 205.653758 
L 318.489291 205.650334 
" style="fill:none;stroke:#000000;stroke-width:1.5;"/>
    <path clip-path="url(#p55e2733463)" d="M 320.747181 213.634772 
L 320.747181 212.627973 
" style="fill:none;stroke:#000000;stroke-width:1.5;"/>
    <path clip-path="url(#p55e2733463)" d="M 323.005071 241.272344 
L 323.005071 241.245053 
" style="fill:none;stroke:#000000;stroke-width:1.5;"/>
    <path clip-path="url(#p55e2733463)" d="M 325.262962 231.168377 
L 325.262962 230.706063 
" style="fill:none;stroke:#000000;stroke-width:1.5;"/>
    <path clip-path="url(#p55e2733463)" d="M 327.520852 190.906853 
L 327.520852 188.898063 
" style="fill:none;stroke:#000000;stroke-width:1.5;"/>
    <path clip-path="url(#p55e2733463)" d="M 329.778743 237.278355 
L 329.778743 237.271169 
" style="fill:none;stroke:#000000;stroke-width:1.5;"/>
    <path clip-path="url(#p55e2733463)" d="M 332.036633 241.926154 
L 332.036633 241.912353 
" style="fill:none;stroke:#000000;stroke-width:1.5;"/>
    <path clip-path="url(#p55e2733463)" d="M 334.294524 232.524804 
L 334.294524 231.887332 
" style="fill:none;stroke:#000000;stroke-width:1.5;"/>
    <path clip-path="url(#p55e2733463)" d="M 338.810305 218.241125 
L 338.810305 216.88595 
" style="fill:none;stroke:#000000;stroke-width:1.5;"/>
    <path clip-path="url(#p55e2733463)" d="M 341.068195 224.444242 
L 341.068195 224.437703 
" style="fill:none;stroke:#000000;stroke-width:1.5;"/>
    <path clip-path="url(#p55e2733463)" d="M 343.326086 238.348245 
L 343.326086 238.214206 
" style="fill:none;stroke:#000000;stroke-width:1.5;"/>
    <path clip-path="url(#p55e2733463)" d="M 345.583976 242.017602 
L 345.583976 242.014134 
" style="fill:none;stroke:#000000;stroke-width:1.5;"/>
    <path clip-path="url(#p55e2733463)" d="M 347.841867 228.613282 
L 347.841867 228.589235 
" style="fill:none;stroke:#000000;stroke-width:1.5;"/>
    <path clip-path="url(#p55e2733463)" d="M 350.099757 231.096442 
L 350.099757 230.43506 
" style="fill:none;stroke:#000000;stroke-width:1.5;"/>
    <path clip-path="url(#p55e2733463)" d="M 352.357648 218.688482 
L 352.357648 218.673485 
" style="fill:none;stroke:#000000;stroke-width:1.5;"/>
    <path clip-path="url(#p55e2733463)" d="M 354.615538 213.79009 
L 354.615538 213.431576 
" style="fill:none;stroke:#000000;stroke-width:1.5;"/>
    <path clip-path="url(#p55e2733463)" d="M 356.873429 184.121202 
L 356.873429 183.520555 
" style="fill:none;stroke:#000000;stroke-width:1.5;"/>
    <path clip-path="url(#p55e2733463)" d="M 361.38921 224.341957 
L 361.38921 224.293375 
" style="fill:none;stroke:#000000;stroke-width:1.5;"/>
    <path clip-path="url(#p55e2733463)" d="M 363.6471 218.772492 
L 363.6471 218.763602 
" style="fill:none;stroke:#000000;stroke-width:1.5;"/>
    <path clip-path="url(#p55e2733463)" d="M 365.904991 215.56068 
L 365.904991 214.385173 
" style="fill:none;stroke:#000000;stroke-width:1.5;"/>
    <path clip-path="url(#p55e2733463)" d="M 368.162881 217.962708 
L 368.162881 216.623131 
" style="fill:none;stroke:#000000;stroke-width:1.5;"/>
    <path clip-path="url(#p55e2733463)" d="M 370.420772 219.556585 
L 370.420772 218.12292 
" style="fill:none;stroke:#000000;stroke-width:1.5;"/>
    <path clip-path="url(#p55e2733463)" d="M 372.678662 167.477622 
L 372.678662 167.211566 
" style="fill:none;stroke:#000000;stroke-width:1.5;"/>
   </g>
   <g id="patch_138">
    <path d="M 54 252 
L 54 34.56 
" style="fill:none;stroke:#000000;stroke-linecap:square;stroke-linejoin:miter;stroke-width:0.8;"/>
   </g>
   <g id="patch_139">
    <path d="M 388.8 252 
L 388.8 34.56 
" style="fill:none;stroke:#000000;stroke-linecap:square;stroke-linejoin:miter;stroke-width:0.8;"/>
   </g>
   <g id="patch_140">
    <path d="M 54 252 
L 388.8 252 
" style="fill:none;stroke:#000000;stroke-linecap:square;stroke-linejoin:miter;stroke-width:0.8;"/>
   </g>
   <g id="patch_141">
    <path d="M 54 34.56 
L 388.8 34.56 
" style="fill:none;stroke:#000000;stroke-linecap:square;stroke-linejoin:miter;stroke-width:0.8;"/>
   </g>
   <g id="text_18">
    <!-- Order parameter from diagonal intensities -->
    <g transform="translate(94.123125 15.122625)scale(0.12 -0.12)">
     <use xlink:href="#DejaVuSans-4f"/>
     <use x="78.710938" xlink:href="#DejaVuSans-72"/>
     <use x="119.808594" xlink:href="#DejaVuSans-64"/>
     <use x="183.285156" xlink:href="#DejaVuSans-65"/>
     <use x="244.808594" xlink:href="#DejaVuSans-72"/>
     <use x="285.921875" xlink:href="#DejaVuSans-20"/>
     <use x="317.708984" xlink:href="#DejaVuSans-70"/>
     <use x="381.185547" xlink:href="#DejaVuSans-61"/>
     <use x="442.464844" xlink:href="#DejaVuSans-72"/>
     <use x="483.578125" xlink:href="#DejaVuSans-61"/>
     <use x="544.857422" xlink:href="#DejaVuSans-6d"/>
     <use x="642.269531" xlink:href="#DejaVuSans-65"/>
     <use x="703.792969" xlink:href="#DejaVuSans-74"/>
     <use x="743.001953" xlink:href="#DejaVuSans-65"/>
     <use x="804.525391" xlink:href="#DejaVuSans-72"/>
     <use x="845.638672" xlink:href="#DejaVuSans-20"/>
     <use x="877.425781" xlink:href="#DejaVuSans-66"/>
     <use x="912.630859" xlink:href="#DejaVuSans-72"/>
     <use x="953.712891" xlink:href="#DejaVuSans-6f"/>
     <use x="1014.894531" xlink:href="#DejaVuSans-6d"/>
     <use x="1112.306641" xlink:href="#DejaVuSans-20"/>
     <use x="1144.09375" xlink:href="#DejaVuSans-64"/>
     <use x="1207.570312" xlink:href="#DejaVuSans-69"/>
     <use x="1235.353516" xlink:href="#DejaVuSans-61"/>
     <use x="1296.632812" xlink:href="#DejaVuSans-67"/>
     <use x="1360.109375" xlink:href="#DejaVuSans-6f"/>
     <use x="1421.291016" xlink:href="#DejaVuSans-6e"/>
     <use x="1484.669922" xlink:href="#DejaVuSans-61"/>
     <use x="1545.949219" xlink:href="#DejaVuSans-6c"/>
     <use x="1573.732422" xlink:href="#DejaVuSans-20"/>
     <use x="1605.519531" xlink:href="#DejaVuSans-69"/>
     <use x="1633.302734" xlink:href="#DejaVuSans-6e"/>
     <use x="1696.681641" xlink:href="#DejaVuSans-74"/>
     <use x="1735.890625" xlink:href="#DejaVuSans-65"/>
     <use x="1797.414062" xlink:href="#DejaVuSans-6e"/>
     <use x="1860.792969" xlink:href="#DejaVuSans-73"/>
     <use x="1912.892578" xlink:href="#DejaVuSans-69"/>
     <use x="1940.675781" xlink:href="#DejaVuSans-74"/>
     <use x="1979.884766" xlink:href="#DejaVuSans-69"/>
     <use x="2007.667969" xlink:href="#DejaVuSans-65"/>
     <use x="2069.191406" xlink:href="#DejaVuSans-73"/>
    </g>
    <!-- Sampling rate = 2000 -->
    <defs>
     <path d="M 53.515625 70.515625 
L 53.515625 60.890625 
Q 47.90625 63.578125 42.921875 64.890625 
Q 37.9375 66.21875 33.296875 66.21875 
Q 25.25 66.21875 20.875 63.09375 
Q 16.5 59.96875 16.5 54.203125 
Q 16.5 49.359375 19.40625 46.890625 
Q 22.3125 44.4375 30.421875 42.921875 
L 36.375 41.703125 
Q 47.40625 39.59375 52.65625 34.296875 
Q 57.90625 29 57.90625 20.125 
Q 57.90625 9.515625 50.796875 4.046875 
Q 43.703125 -1.421875 29.984375 -1.421875 
Q 24.8125 -1.421875 18.96875 -0.25 
Q 13.140625 0.921875 6.890625 3.21875 
L 6.890625 13.375 
Q 12.890625 10.015625 18.65625 8.296875 
Q 24.421875 6.59375 29.984375 6.59375 
Q 38.421875 6.59375 43.015625 9.90625 
Q 47.609375 13.234375 47.609375 19.390625 
Q 47.609375 24.75 44.3125 27.78125 
Q 41.015625 30.8125 33.5 32.328125 
L 27.484375 33.5 
Q 16.453125 35.6875 11.515625 40.375 
Q 6.59375 45.0625 6.59375 53.421875 
Q 6.59375 63.09375 13.40625 68.65625 
Q 20.21875 74.21875 32.171875 74.21875 
Q 37.3125 74.21875 42.625 73.28125 
Q 47.953125 72.359375 53.515625 70.515625 
z
" id="DejaVuSans-53"/>
     <path d="M 10.59375 45.40625 
L 73.1875 45.40625 
L 73.1875 37.203125 
L 10.59375 37.203125 
z
M 10.59375 25.484375 
L 73.1875 25.484375 
L 73.1875 17.1875 
L 10.59375 17.1875 
z
" id="DejaVuSans-3d"/>
    </defs>
    <g transform="translate(155.109375 28.56)scale(0.12 -0.12)">
     <use xlink:href="#DejaVuSans-53"/>
     <use x="63.476562" xlink:href="#DejaVuSans-61"/>
     <use x="124.755859" xlink:href="#DejaVuSans-6d"/>
     <use x="222.167969" xlink:href="#DejaVuSans-70"/>
     <use x="285.644531" xlink:href="#DejaVuSans-6c"/>
     <use x="313.427734" xlink:href="#DejaVuSans-69"/>
     <use x="341.210938" xlink:href="#DejaVuSans-6e"/>
     <use x="404.589844" xlink:href="#DejaVuSans-67"/>
     <use x="468.066406" xlink:href="#DejaVuSans-20"/>
     <use x="499.853516" xlink:href="#DejaVuSans-72"/>
     <use x="540.966797" xlink:href="#DejaVuSans-61"/>
     <use x="602.246094" xlink:href="#DejaVuSans-74"/>
     <use x="641.455078" xlink:href="#DejaVuSans-65"/>
     <use x="702.978516" xlink:href="#DejaVuSans-20"/>
     <use x="734.765625" xlink:href="#DejaVuSans-3d"/>
     <use x="818.554688" xlink:href="#DejaVuSans-20"/>
     <use x="850.341797" xlink:href="#DejaVuSans-32"/>
     <use x="913.964844" xlink:href="#DejaVuSans-30"/>
     <use x="977.587891" xlink:href="#DejaVuSans-30"/>
     <use x="1041.210938" xlink:href="#DejaVuSans-30"/>
    </g>
   </g>
  </g>
 </g>
 <defs>
  <clipPath id="p55e2733463">
   <rect height="217.44" width="334.8" x="54" y="34.56"/>
  </clipPath>
 </defs>
</svg>
