<?xml version="1.0" encoding="utf-8" standalone="no"?>
<!DOCTYPE svg PUBLIC "-//W3C//DTD SVG 1.1//EN"
  "http://www.w3.org/Graphics/SVG/1.1/DTD/svg11.dtd">
<!-- Created with matplotlib (http://matplotlib.org/) -->
<svg height="288pt" version="1.1" viewBox="0 0 432 288" width="432pt" xmlns="http://www.w3.org/2000/svg" xmlns:xlink="http://www.w3.org/1999/xlink">
 <defs>
  <style type="text/css">
*{stroke-linecap:butt;stroke-linejoin:round;}
  </style>
 </defs>
 <g id="figure_1">
  <g id="patch_1">
   <path d="M 0 288 
L 432 288 
L 432 0 
L 0 0 
z
" style="fill:#ffffff;"/>
  </g>
  <g id="axes_1">
   <g id="patch_2">
    <path d="M 54 252 
L 388.8 252 
L 388.8 34.56 
L 54 34.56 
z
" style="fill:#ffffff;"/>
   </g>
   <g id="matplotlib.axis_1">
    <g id="xtick_1">
     <g id="line2d_1">
      <defs>
       <path d="M 0 0 
L 0 3.5 
" id="m739036f94f" style="stroke:#000000;stroke-width:0.8;"/>
      </defs>
      <g>
       <use style="stroke:#000000;stroke-width:0.8;" x="62.701887" xlink:href="#m739036f94f" y="252"/>
      </g>
     </g>
     <g id="text_1">
      <!-- 0.00 -->
      <defs>
       <path d="M 31.78125 66.40625 
Q 24.171875 66.40625 20.328125 58.90625 
Q 16.5 51.421875 16.5 36.375 
Q 16.5 21.390625 20.328125 13.890625 
Q 24.171875 6.390625 31.78125 6.390625 
Q 39.453125 6.390625 43.28125 13.890625 
Q 47.125 21.390625 47.125 36.375 
Q 47.125 51.421875 43.28125 58.90625 
Q 39.453125 66.40625 31.78125 66.40625 
z
M 31.78125 74.21875 
Q 44.046875 74.21875 50.515625 64.515625 
Q 56.984375 54.828125 56.984375 36.375 
Q 56.984375 17.96875 50.515625 8.265625 
Q 44.046875 -1.421875 31.78125 -1.421875 
Q 19.53125 -1.421875 13.0625 8.265625 
Q 6.59375 17.96875 6.59375 36.375 
Q 6.59375 54.828125 13.0625 64.515625 
Q 19.53125 74.21875 31.78125 74.21875 
z
" id="DejaVuSans-30"/>
       <path d="M 10.6875 12.40625 
L 21 12.40625 
L 21 0 
L 10.6875 0 
z
" id="DejaVuSans-2e"/>
      </defs>
      <g transform="translate(51.569075 266.598437)scale(0.1 -0.1)">
       <use xlink:href="#DejaVuSans-30"/>
       <use x="63.623047" xlink:href="#DejaVuSans-2e"/>
       <use x="95.410156" xlink:href="#DejaVuSans-30"/>
       <use x="159.033203" xlink:href="#DejaVuSans-30"/>
      </g>
     </g>
    </g>
    <g id="xtick_2">
     <g id="line2d_2">
      <g>
       <use style="stroke:#000000;stroke-width:0.8;" x="101.642837" xlink:href="#m739036f94f" y="252"/>
      </g>
     </g>
     <g id="text_2">
      <!-- 0.25 -->
      <defs>
       <path d="M 19.1875 8.296875 
L 53.609375 8.296875 
L 53.609375 0 
L 7.328125 0 
L 7.328125 8.296875 
Q 12.9375 14.109375 22.625 23.890625 
Q 32.328125 33.6875 34.8125 36.53125 
Q 39.546875 41.84375 41.421875 45.53125 
Q 43.3125 49.21875 43.3125 52.78125 
Q 43.3125 58.59375 39.234375 62.25 
Q 35.15625 65.921875 28.609375 65.921875 
Q 23.96875 65.921875 18.8125 64.3125 
Q 13.671875 62.703125 7.8125 59.421875 
L 7.8125 69.390625 
Q 13.765625 71.78125 18.9375 73 
Q 24.125 74.21875 28.421875 74.21875 
Q 39.75 74.21875 46.484375 68.546875 
Q 53.21875 62.890625 53.21875 53.421875 
Q 53.21875 48.921875 51.53125 44.890625 
Q 49.859375 40.875 45.40625 35.40625 
Q 44.1875 33.984375 37.640625 27.21875 
Q 31.109375 20.453125 19.1875 8.296875 
z
" id="DejaVuSans-32"/>
       <path d="M 10.796875 72.90625 
L 49.515625 72.90625 
L 49.515625 64.59375 
L 19.828125 64.59375 
L 19.828125 46.734375 
Q 21.96875 47.46875 24.109375 47.828125 
Q 26.265625 48.1875 28.421875 48.1875 
Q 40.625 48.1875 47.75 41.5 
Q 54.890625 34.8125 54.890625 23.390625 
Q 54.890625 11.625 47.5625 5.09375 
Q 40.234375 -1.421875 26.90625 -1.421875 
Q 22.3125 -1.421875 17.546875 -0.640625 
Q 12.796875 0.140625 7.71875 1.703125 
L 7.71875 11.625 
Q 12.109375 9.234375 16.796875 8.0625 
Q 21.484375 6.890625 26.703125 6.890625 
Q 35.15625 6.890625 40.078125 11.328125 
Q 45.015625 15.765625 45.015625 23.390625 
Q 45.015625 31 40.078125 35.4375 
Q 35.15625 39.890625 26.703125 39.890625 
Q 22.75 39.890625 18.8125 39.015625 
Q 14.890625 38.140625 10.796875 36.28125 
z
" id="DejaVuSans-35"/>
      </defs>
      <g transform="translate(90.510025 266.598437)scale(0.1 -0.1)">
       <use xlink:href="#DejaVuSans-30"/>
       <use x="63.623047" xlink:href="#DejaVuSans-2e"/>
       <use x="95.410156" xlink:href="#DejaVuSans-32"/>
       <use x="159.033203" xlink:href="#DejaVuSans-35"/>
      </g>
     </g>
    </g>
    <g id="xtick_3">
     <g id="line2d_3">
      <g>
       <use style="stroke:#000000;stroke-width:0.8;" x="140.583787" xlink:href="#m739036f94f" y="252"/>
      </g>
     </g>
     <g id="text_3">
      <!-- 0.50 -->
      <g transform="translate(129.450974 266.598437)scale(0.1 -0.1)">
       <use xlink:href="#DejaVuSans-30"/>
       <use x="63.623047" xlink:href="#DejaVuSans-2e"/>
       <use x="95.410156" xlink:href="#DejaVuSans-35"/>
       <use x="159.033203" xlink:href="#DejaVuSans-30"/>
      </g>
     </g>
    </g>
    <g id="xtick_4">
     <g id="line2d_4">
      <g>
       <use style="stroke:#000000;stroke-width:0.8;" x="179.524736" xlink:href="#m739036f94f" y="252"/>
      </g>
     </g>
     <g id="text_4">
      <!-- 0.75 -->
      <defs>
       <path d="M 8.203125 72.90625 
L 55.078125 72.90625 
L 55.078125 68.703125 
L 28.609375 0 
L 18.3125 0 
L 43.21875 64.59375 
L 8.203125 64.59375 
z
" id="DejaVuSans-37"/>
      </defs>
      <g transform="translate(168.391924 266.598437)scale(0.1 -0.1)">
       <use xlink:href="#DejaVuSans-30"/>
       <use x="63.623047" xlink:href="#DejaVuSans-2e"/>
       <use x="95.410156" xlink:href="#DejaVuSans-37"/>
       <use x="159.033203" xlink:href="#DejaVuSans-35"/>
      </g>
     </g>
    </g>
    <g id="xtick_5">
     <g id="line2d_5">
      <g>
       <use style="stroke:#000000;stroke-width:0.8;" x="218.465686" xlink:href="#m739036f94f" y="252"/>
      </g>
     </g>
     <g id="text_5">
      <!-- 1.00 -->
      <defs>
       <path d="M 12.40625 8.296875 
L 28.515625 8.296875 
L 28.515625 63.921875 
L 10.984375 60.40625 
L 10.984375 69.390625 
L 28.421875 72.90625 
L 38.28125 72.90625 
L 38.28125 8.296875 
L 54.390625 8.296875 
L 54.390625 0 
L 12.40625 0 
z
" id="DejaVuSans-31"/>
      </defs>
      <g transform="translate(207.332873 266.598437)scale(0.1 -0.1)">
       <use xlink:href="#DejaVuSans-31"/>
       <use x="63.623047" xlink:href="#DejaVuSans-2e"/>
       <use x="95.410156" xlink:href="#DejaVuSans-30"/>
       <use x="159.033203" xlink:href="#DejaVuSans-30"/>
      </g>
     </g>
    </g>
    <g id="xtick_6">
     <g id="line2d_6">
      <g>
       <use style="stroke:#000000;stroke-width:0.8;" x="257.406635" xlink:href="#m739036f94f" y="252"/>
      </g>
     </g>
     <g id="text_6">
      <!-- 1.25 -->
      <g transform="translate(246.273823 266.598437)scale(0.1 -0.1)">
       <use xlink:href="#DejaVuSans-31"/>
       <use x="63.623047" xlink:href="#DejaVuSans-2e"/>
       <use x="95.410156" xlink:href="#DejaVuSans-32"/>
       <use x="159.033203" xlink:href="#DejaVuSans-35"/>
      </g>
     </g>
    </g>
    <g id="xtick_7">
     <g id="line2d_7">
      <g>
       <use style="stroke:#000000;stroke-width:0.8;" x="296.347585" xlink:href="#m739036f94f" y="252"/>
      </g>
     </g>
     <g id="text_7">
      <!-- 1.50 -->
      <g transform="translate(285.214772 266.598437)scale(0.1 -0.1)">
       <use xlink:href="#DejaVuSans-31"/>
       <use x="63.623047" xlink:href="#DejaVuSans-2e"/>
       <use x="95.410156" xlink:href="#DejaVuSans-35"/>
       <use x="159.033203" xlink:href="#DejaVuSans-30"/>
      </g>
     </g>
    </g>
    <g id="xtick_8">
     <g id="line2d_8">
      <g>
       <use style="stroke:#000000;stroke-width:0.8;" x="335.288534" xlink:href="#m739036f94f" y="252"/>
      </g>
     </g>
     <g id="text_8">
      <!-- 1.75 -->
      <g transform="translate(324.155722 266.598437)scale(0.1 -0.1)">
       <use xlink:href="#DejaVuSans-31"/>
       <use x="63.623047" xlink:href="#DejaVuSans-2e"/>
       <use x="95.410156" xlink:href="#DejaVuSans-37"/>
       <use x="159.033203" xlink:href="#DejaVuSans-35"/>
      </g>
     </g>
    </g>
    <g id="xtick_9">
     <g id="line2d_9">
      <g>
       <use style="stroke:#000000;stroke-width:0.8;" x="374.229484" xlink:href="#m739036f94f" y="252"/>
      </g>
     </g>
     <g id="text_9">
      <!-- 2.00 -->
      <g transform="translate(363.096672 266.598437)scale(0.1 -0.1)">
       <use xlink:href="#DejaVuSans-32"/>
       <use x="63.623047" xlink:href="#DejaVuSans-2e"/>
       <use x="95.410156" xlink:href="#DejaVuSans-30"/>
       <use x="159.033203" xlink:href="#DejaVuSans-30"/>
      </g>
     </g>
    </g>
    <g id="text_10">
     <!-- Experimental cross-peak intensity -->
     <defs>
      <path d="M 9.8125 72.90625 
L 55.90625 72.90625 
L 55.90625 64.59375 
L 19.671875 64.59375 
L 19.671875 43.015625 
L 54.390625 43.015625 
L 54.390625 34.71875 
L 19.671875 34.71875 
L 19.671875 8.296875 
L 56.78125 8.296875 
L 56.78125 0 
L 9.8125 0 
z
" id="DejaVuSans-45"/>
      <path d="M 54.890625 54.6875 
L 35.109375 28.078125 
L 55.90625 0 
L 45.3125 0 
L 29.390625 21.484375 
L 13.484375 0 
L 2.875 0 
L 24.125 28.609375 
L 4.6875 54.6875 
L 15.28125 54.6875 
L 29.78125 35.203125 
L 44.28125 54.6875 
z
" id="DejaVuSans-78"/>
      <path d="M 18.109375 8.203125 
L 18.109375 -20.796875 
L 9.078125 -20.796875 
L 9.078125 54.6875 
L 18.109375 54.6875 
L 18.109375 46.390625 
Q 20.953125 51.265625 25.265625 53.625 
Q 29.59375 56 35.59375 56 
Q 45.5625 56 51.78125 48.09375 
Q 58.015625 40.1875 58.015625 27.296875 
Q 58.015625 14.40625 51.78125 6.484375 
Q 45.5625 -1.421875 35.59375 -1.421875 
Q 29.59375 -1.421875 25.265625 0.953125 
Q 20.953125 3.328125 18.109375 8.203125 
z
M 48.6875 27.296875 
Q 48.6875 37.203125 44.609375 42.84375 
Q 40.53125 48.484375 33.40625 48.484375 
Q 26.265625 48.484375 22.1875 42.84375 
Q 18.109375 37.203125 18.109375 27.296875 
Q 18.109375 17.390625 22.1875 11.75 
Q 26.265625 6.109375 33.40625 6.109375 
Q 40.53125 6.109375 44.609375 11.75 
Q 48.6875 17.390625 48.6875 27.296875 
z
" id="DejaVuSans-70"/>
      <path d="M 56.203125 29.59375 
L 56.203125 25.203125 
L 14.890625 25.203125 
Q 15.484375 15.921875 20.484375 11.0625 
Q 25.484375 6.203125 34.421875 6.203125 
Q 39.59375 6.203125 44.453125 7.46875 
Q 49.3125 8.734375 54.109375 11.28125 
L 54.109375 2.78125 
Q 49.265625 0.734375 44.1875 -0.34375 
Q 39.109375 -1.421875 33.890625 -1.421875 
Q 20.796875 -1.421875 13.15625 6.1875 
Q 5.515625 13.8125 5.515625 26.8125 
Q 5.515625 40.234375 12.765625 48.109375 
Q 20.015625 56 32.328125 56 
Q 43.359375 56 49.78125 48.890625 
Q 56.203125 41.796875 56.203125 29.59375 
z
M 47.21875 32.234375 
Q 47.125 39.59375 43.09375 43.984375 
Q 39.0625 48.390625 32.421875 48.390625 
Q 24.90625 48.390625 20.390625 44.140625 
Q 15.875 39.890625 15.1875 32.171875 
z
" id="DejaVuSans-65"/>
      <path d="M 41.109375 46.296875 
Q 39.59375 47.171875 37.8125 47.578125 
Q 36.03125 48 33.890625 48 
Q 26.265625 48 22.1875 43.046875 
Q 18.109375 38.09375 18.109375 28.8125 
L 18.109375 0 
L 9.078125 0 
L 9.078125 54.6875 
L 18.109375 54.6875 
L 18.109375 46.1875 
Q 20.953125 51.171875 25.484375 53.578125 
Q 30.03125 56 36.53125 56 
Q 37.453125 56 38.578125 55.875 
Q 39.703125 55.765625 41.0625 55.515625 
z
" id="DejaVuSans-72"/>
      <path d="M 9.421875 54.6875 
L 18.40625 54.6875 
L 18.40625 0 
L 9.421875 0 
z
M 9.421875 75.984375 
L 18.40625 75.984375 
L 18.40625 64.59375 
L 9.421875 64.59375 
z
" id="DejaVuSans-69"/>
      <path d="M 52 44.1875 
Q 55.375 50.25 60.0625 53.125 
Q 64.75 56 71.09375 56 
Q 79.640625 56 84.28125 50.015625 
Q 88.921875 44.046875 88.921875 33.015625 
L 88.921875 0 
L 79.890625 0 
L 79.890625 32.71875 
Q 79.890625 40.578125 77.09375 44.375 
Q 74.3125 48.1875 68.609375 48.1875 
Q 61.625 48.1875 57.5625 43.546875 
Q 53.515625 38.921875 53.515625 30.90625 
L 53.515625 0 
L 44.484375 0 
L 44.484375 32.71875 
Q 44.484375 40.625 41.703125 44.40625 
Q 38.921875 48.1875 33.109375 48.1875 
Q 26.21875 48.1875 22.15625 43.53125 
Q 18.109375 38.875 18.109375 30.90625 
L 18.109375 0 
L 9.078125 0 
L 9.078125 54.6875 
L 18.109375 54.6875 
L 18.109375 46.1875 
Q 21.1875 51.21875 25.484375 53.609375 
Q 29.78125 56 35.6875 56 
Q 41.65625 56 45.828125 52.96875 
Q 50 49.953125 52 44.1875 
z
" id="DejaVuSans-6d"/>
      <path d="M 54.890625 33.015625 
L 54.890625 0 
L 45.90625 0 
L 45.90625 32.71875 
Q 45.90625 40.484375 42.875 44.328125 
Q 39.84375 48.1875 33.796875 48.1875 
Q 26.515625 48.1875 22.3125 43.546875 
Q 18.109375 38.921875 18.109375 30.90625 
L 18.109375 0 
L 9.078125 0 
L 9.078125 54.6875 
L 18.109375 54.6875 
L 18.109375 46.1875 
Q 21.34375 51.125 25.703125 53.5625 
Q 30.078125 56 35.796875 56 
Q 45.21875 56 50.046875 50.171875 
Q 54.890625 44.34375 54.890625 33.015625 
z
" id="DejaVuSans-6e"/>
      <path d="M 18.3125 70.21875 
L 18.3125 54.6875 
L 36.8125 54.6875 
L 36.8125 47.703125 
L 18.3125 47.703125 
L 18.3125 18.015625 
Q 18.3125 11.328125 20.140625 9.421875 
Q 21.96875 7.515625 27.59375 7.515625 
L 36.8125 7.515625 
L 36.8125 0 
L 27.59375 0 
Q 17.1875 0 13.234375 3.875 
Q 9.28125 7.765625 9.28125 18.015625 
L 9.28125 47.703125 
L 2.6875 47.703125 
L 2.6875 54.6875 
L 9.28125 54.6875 
L 9.28125 70.21875 
z
" id="DejaVuSans-74"/>
      <path d="M 34.28125 27.484375 
Q 23.390625 27.484375 19.1875 25 
Q 14.984375 22.515625 14.984375 16.5 
Q 14.984375 11.71875 18.140625 8.90625 
Q 21.296875 6.109375 26.703125 6.109375 
Q 34.1875 6.109375 38.703125 11.40625 
Q 43.21875 16.703125 43.21875 25.484375 
L 43.21875 27.484375 
z
M 52.203125 31.203125 
L 52.203125 0 
L 43.21875 0 
L 43.21875 8.296875 
Q 40.140625 3.328125 35.546875 0.953125 
Q 30.953125 -1.421875 24.3125 -1.421875 
Q 15.921875 -1.421875 10.953125 3.296875 
Q 6 8.015625 6 15.921875 
Q 6 25.140625 12.171875 29.828125 
Q 18.359375 34.515625 30.609375 34.515625 
L 43.21875 34.515625 
L 43.21875 35.40625 
Q 43.21875 41.609375 39.140625 45 
Q 35.0625 48.390625 27.6875 48.390625 
Q 23 48.390625 18.546875 47.265625 
Q 14.109375 46.140625 10.015625 43.890625 
L 10.015625 52.203125 
Q 14.9375 54.109375 19.578125 55.046875 
Q 24.21875 56 28.609375 56 
Q 40.484375 56 46.34375 49.84375 
Q 52.203125 43.703125 52.203125 31.203125 
z
" id="DejaVuSans-61"/>
      <path d="M 9.421875 75.984375 
L 18.40625 75.984375 
L 18.40625 0 
L 9.421875 0 
z
" id="DejaVuSans-6c"/>
      <path id="DejaVuSans-20"/>
      <path d="M 48.78125 52.59375 
L 48.78125 44.1875 
Q 44.96875 46.296875 41.140625 47.34375 
Q 37.3125 48.390625 33.40625 48.390625 
Q 24.65625 48.390625 19.8125 42.84375 
Q 14.984375 37.3125 14.984375 27.296875 
Q 14.984375 17.28125 19.8125 11.734375 
Q 24.65625 6.203125 33.40625 6.203125 
Q 37.3125 6.203125 41.140625 7.25 
Q 44.96875 8.296875 48.78125 10.40625 
L 48.78125 2.09375 
Q 45.015625 0.34375 40.984375 -0.53125 
Q 36.96875 -1.421875 32.421875 -1.421875 
Q 20.0625 -1.421875 12.78125 6.34375 
Q 5.515625 14.109375 5.515625 27.296875 
Q 5.515625 40.671875 12.859375 48.328125 
Q 20.21875 56 33.015625 56 
Q 37.15625 56 41.109375 55.140625 
Q 45.0625 54.296875 48.78125 52.59375 
z
" id="DejaVuSans-63"/>
      <path d="M 30.609375 48.390625 
Q 23.390625 48.390625 19.1875 42.75 
Q 14.984375 37.109375 14.984375 27.296875 
Q 14.984375 17.484375 19.15625 11.84375 
Q 23.34375 6.203125 30.609375 6.203125 
Q 37.796875 6.203125 41.984375 11.859375 
Q 46.1875 17.53125 46.1875 27.296875 
Q 46.1875 37.015625 41.984375 42.703125 
Q 37.796875 48.390625 30.609375 48.390625 
z
M 30.609375 56 
Q 42.328125 56 49.015625 48.375 
Q 55.71875 40.765625 55.71875 27.296875 
Q 55.71875 13.875 49.015625 6.21875 
Q 42.328125 -1.421875 30.609375 -1.421875 
Q 18.84375 -1.421875 12.171875 6.21875 
Q 5.515625 13.875 5.515625 27.296875 
Q 5.515625 40.765625 12.171875 48.375 
Q 18.84375 56 30.609375 56 
z
" id="DejaVuSans-6f"/>
      <path d="M 44.28125 53.078125 
L 44.28125 44.578125 
Q 40.484375 46.53125 36.375 47.5 
Q 32.28125 48.484375 27.875 48.484375 
Q 21.1875 48.484375 17.84375 46.4375 
Q 14.5 44.390625 14.5 40.28125 
Q 14.5 37.15625 16.890625 35.375 
Q 19.28125 33.59375 26.515625 31.984375 
L 29.59375 31.296875 
Q 39.15625 29.25 43.1875 25.515625 
Q 47.21875 21.78125 47.21875 15.09375 
Q 47.21875 7.46875 41.1875 3.015625 
Q 35.15625 -1.421875 24.609375 -1.421875 
Q 20.21875 -1.421875 15.453125 -0.5625 
Q 10.6875 0.296875 5.421875 2 
L 5.421875 11.28125 
Q 10.40625 8.6875 15.234375 7.390625 
Q 20.0625 6.109375 24.8125 6.109375 
Q 31.15625 6.109375 34.5625 8.28125 
Q 37.984375 10.453125 37.984375 14.40625 
Q 37.984375 18.0625 35.515625 20.015625 
Q 33.0625 21.96875 24.703125 23.78125 
L 21.578125 24.515625 
Q 13.234375 26.265625 9.515625 29.90625 
Q 5.8125 33.546875 5.8125 39.890625 
Q 5.8125 47.609375 11.28125 51.796875 
Q 16.75 56 26.8125 56 
Q 31.78125 56 36.171875 55.265625 
Q 40.578125 54.546875 44.28125 53.078125 
z
" id="DejaVuSans-73"/>
      <path d="M 4.890625 31.390625 
L 31.203125 31.390625 
L 31.203125 23.390625 
L 4.890625 23.390625 
z
" id="DejaVuSans-2d"/>
      <path d="M 9.078125 75.984375 
L 18.109375 75.984375 
L 18.109375 31.109375 
L 44.921875 54.6875 
L 56.390625 54.6875 
L 27.390625 29.109375 
L 57.625 0 
L 45.90625 0 
L 18.109375 26.703125 
L 18.109375 0 
L 9.078125 0 
z
" id="DejaVuSans-6b"/>
      <path d="M 32.171875 -5.078125 
Q 28.375 -14.84375 24.75 -17.8125 
Q 21.140625 -20.796875 15.09375 -20.796875 
L 7.90625 -20.796875 
L 7.90625 -13.28125 
L 13.1875 -13.28125 
Q 16.890625 -13.28125 18.9375 -11.515625 
Q 21 -9.765625 23.484375 -3.21875 
L 25.09375 0.875 
L 2.984375 54.6875 
L 12.5 54.6875 
L 29.59375 11.921875 
L 46.6875 54.6875 
L 56.203125 54.6875 
z
" id="DejaVuSans-79"/>
     </defs>
     <g transform="translate(136.116406 280.276563)scale(0.1 -0.1)">
      <use xlink:href="#DejaVuSans-45"/>
      <use x="63.183594" xlink:href="#DejaVuSans-78"/>
      <use x="122.363281" xlink:href="#DejaVuSans-70"/>
      <use x="185.839844" xlink:href="#DejaVuSans-65"/>
      <use x="247.363281" xlink:href="#DejaVuSans-72"/>
      <use x="288.476562" xlink:href="#DejaVuSans-69"/>
      <use x="316.259766" xlink:href="#DejaVuSans-6d"/>
      <use x="413.671875" xlink:href="#DejaVuSans-65"/>
      <use x="475.195312" xlink:href="#DejaVuSans-6e"/>
      <use x="538.574219" xlink:href="#DejaVuSans-74"/>
      <use x="577.783203" xlink:href="#DejaVuSans-61"/>
      <use x="639.0625" xlink:href="#DejaVuSans-6c"/>
      <use x="666.845703" xlink:href="#DejaVuSans-20"/>
      <use x="698.632812" xlink:href="#DejaVuSans-63"/>
      <use x="753.613281" xlink:href="#DejaVuSans-72"/>
      <use x="794.695312" xlink:href="#DejaVuSans-6f"/>
      <use x="855.876953" xlink:href="#DejaVuSans-73"/>
      <use x="907.976562" xlink:href="#DejaVuSans-73"/>
      <use x="960.076172" xlink:href="#DejaVuSans-2d"/>
      <use x="996.160156" xlink:href="#DejaVuSans-70"/>
      <use x="1059.636719" xlink:href="#DejaVuSans-65"/>
      <use x="1121.160156" xlink:href="#DejaVuSans-61"/>
      <use x="1182.439453" xlink:href="#DejaVuSans-6b"/>
      <use x="1240.349609" xlink:href="#DejaVuSans-20"/>
      <use x="1272.136719" xlink:href="#DejaVuSans-69"/>
      <use x="1299.919922" xlink:href="#DejaVuSans-6e"/>
      <use x="1363.298828" xlink:href="#DejaVuSans-74"/>
      <use x="1402.507812" xlink:href="#DejaVuSans-65"/>
      <use x="1464.03125" xlink:href="#DejaVuSans-6e"/>
      <use x="1527.410156" xlink:href="#DejaVuSans-73"/>
      <use x="1579.509766" xlink:href="#DejaVuSans-69"/>
      <use x="1607.292969" xlink:href="#DejaVuSans-74"/>
      <use x="1646.501953" xlink:href="#DejaVuSans-79"/>
     </g>
    </g>
    <g id="text_11">
     <!-- 1e7 -->
     <g transform="translate(369.921875 279.276563)scale(0.1 -0.1)">
      <use xlink:href="#DejaVuSans-31"/>
      <use x="63.623047" xlink:href="#DejaVuSans-65"/>
      <use x="125.146484" xlink:href="#DejaVuSans-37"/>
     </g>
    </g>
   </g>
   <g id="matplotlib.axis_2">
    <g id="ytick_1">
     <g id="line2d_10">
      <defs>
       <path d="M 0 0 
L -3.5 0 
" id="m2cc4308c0c" style="stroke:#000000;stroke-width:0.8;"/>
      </defs>
      <g>
       <use style="stroke:#000000;stroke-width:0.8;" x="54" xlink:href="#m2cc4308c0c" y="242.901559"/>
      </g>
     </g>
     <g id="text_12">
      <!-- 0.0 -->
      <g transform="translate(31.096875 246.700778)scale(0.1 -0.1)">
       <use xlink:href="#DejaVuSans-30"/>
       <use x="63.623047" xlink:href="#DejaVuSans-2e"/>
       <use x="95.410156" xlink:href="#DejaVuSans-30"/>
      </g>
     </g>
    </g>
    <g id="ytick_2">
     <g id="line2d_11">
      <g>
       <use style="stroke:#000000;stroke-width:0.8;" x="54" xlink:href="#m2cc4308c0c" y="207.581202"/>
      </g>
     </g>
     <g id="text_13">
      <!-- 0.2 -->
      <g transform="translate(31.096875 211.380421)scale(0.1 -0.1)">
       <use xlink:href="#DejaVuSans-30"/>
       <use x="63.623047" xlink:href="#DejaVuSans-2e"/>
       <use x="95.410156" xlink:href="#DejaVuSans-32"/>
      </g>
     </g>
    </g>
    <g id="ytick_3">
     <g id="line2d_12">
      <g>
       <use style="stroke:#000000;stroke-width:0.8;" x="54" xlink:href="#m2cc4308c0c" y="172.260846"/>
      </g>
     </g>
     <g id="text_14">
      <!-- 0.4 -->
      <defs>
       <path d="M 37.796875 64.3125 
L 12.890625 25.390625 
L 37.796875 25.390625 
z
M 35.203125 72.90625 
L 47.609375 72.90625 
L 47.609375 25.390625 
L 58.015625 25.390625 
L 58.015625 17.1875 
L 47.609375 17.1875 
L 47.609375 0 
L 37.796875 0 
L 37.796875 17.1875 
L 4.890625 17.1875 
L 4.890625 26.703125 
z
" id="DejaVuSans-34"/>
      </defs>
      <g transform="translate(31.096875 176.060065)scale(0.1 -0.1)">
       <use xlink:href="#DejaVuSans-30"/>
       <use x="63.623047" xlink:href="#DejaVuSans-2e"/>
       <use x="95.410156" xlink:href="#DejaVuSans-34"/>
      </g>
     </g>
    </g>
    <g id="ytick_4">
     <g id="line2d_13">
      <g>
       <use style="stroke:#000000;stroke-width:0.8;" x="54" xlink:href="#m2cc4308c0c" y="136.94049"/>
      </g>
     </g>
     <g id="text_15">
      <!-- 0.6 -->
      <defs>
       <path d="M 33.015625 40.375 
Q 26.375 40.375 22.484375 35.828125 
Q 18.609375 31.296875 18.609375 23.390625 
Q 18.609375 15.53125 22.484375 10.953125 
Q 26.375 6.390625 33.015625 6.390625 
Q 39.65625 6.390625 43.53125 10.953125 
Q 47.40625 15.53125 47.40625 23.390625 
Q 47.40625 31.296875 43.53125 35.828125 
Q 39.65625 40.375 33.015625 40.375 
z
M 52.59375 71.296875 
L 52.59375 62.3125 
Q 48.875 64.0625 45.09375 64.984375 
Q 41.3125 65.921875 37.59375 65.921875 
Q 27.828125 65.921875 22.671875 59.328125 
Q 17.53125 52.734375 16.796875 39.40625 
Q 19.671875 43.65625 24.015625 45.921875 
Q 28.375 48.1875 33.59375 48.1875 
Q 44.578125 48.1875 50.953125 41.515625 
Q 57.328125 34.859375 57.328125 23.390625 
Q 57.328125 12.15625 50.6875 5.359375 
Q 44.046875 -1.421875 33.015625 -1.421875 
Q 20.359375 -1.421875 13.671875 8.265625 
Q 6.984375 17.96875 6.984375 36.375 
Q 6.984375 53.65625 15.1875 63.9375 
Q 23.390625 74.21875 37.203125 74.21875 
Q 40.921875 74.21875 44.703125 73.484375 
Q 48.484375 72.75 52.59375 71.296875 
z
" id="DejaVuSans-36"/>
      </defs>
      <g transform="translate(31.096875 140.739708)scale(0.1 -0.1)">
       <use xlink:href="#DejaVuSans-30"/>
       <use x="63.623047" xlink:href="#DejaVuSans-2e"/>
       <use x="95.410156" xlink:href="#DejaVuSans-36"/>
      </g>
     </g>
    </g>
    <g id="ytick_5">
     <g id="line2d_14">
      <g>
       <use style="stroke:#000000;stroke-width:0.8;" x="54" xlink:href="#m2cc4308c0c" y="101.620133"/>
      </g>
     </g>
     <g id="text_16">
      <!-- 0.8 -->
      <defs>
       <path d="M 31.78125 34.625 
Q 24.75 34.625 20.71875 30.859375 
Q 16.703125 27.09375 16.703125 20.515625 
Q 16.703125 13.921875 20.71875 10.15625 
Q 24.75 6.390625 31.78125 6.390625 
Q 38.8125 6.390625 42.859375 10.171875 
Q 46.921875 13.96875 46.921875 20.515625 
Q 46.921875 27.09375 42.890625 30.859375 
Q 38.875 34.625 31.78125 34.625 
z
M 21.921875 38.8125 
Q 15.578125 40.375 12.03125 44.71875 
Q 8.5 49.078125 8.5 55.328125 
Q 8.5 64.0625 14.71875 69.140625 
Q 20.953125 74.21875 31.78125 74.21875 
Q 42.671875 74.21875 48.875 69.140625 
Q 55.078125 64.0625 55.078125 55.328125 
Q 55.078125 49.078125 51.53125 44.71875 
Q 48 40.375 41.703125 38.8125 
Q 48.828125 37.15625 52.796875 32.3125 
Q 56.78125 27.484375 56.78125 20.515625 
Q 56.78125 9.90625 50.3125 4.234375 
Q 43.84375 -1.421875 31.78125 -1.421875 
Q 19.734375 -1.421875 13.25 4.234375 
Q 6.78125 9.90625 6.78125 20.515625 
Q 6.78125 27.484375 10.78125 32.3125 
Q 14.796875 37.15625 21.921875 38.8125 
z
M 18.3125 54.390625 
Q 18.3125 48.734375 21.84375 45.5625 
Q 25.390625 42.390625 31.78125 42.390625 
Q 38.140625 42.390625 41.71875 45.5625 
Q 45.3125 48.734375 45.3125 54.390625 
Q 45.3125 60.0625 41.71875 63.234375 
Q 38.140625 66.40625 31.78125 66.40625 
Q 25.390625 66.40625 21.84375 63.234375 
Q 18.3125 60.0625 18.3125 54.390625 
z
" id="DejaVuSans-38"/>
      </defs>
      <g transform="translate(31.096875 105.419352)scale(0.1 -0.1)">
       <use xlink:href="#DejaVuSans-30"/>
       <use x="63.623047" xlink:href="#DejaVuSans-2e"/>
       <use x="95.410156" xlink:href="#DejaVuSans-38"/>
      </g>
     </g>
    </g>
    <g id="ytick_6">
     <g id="line2d_15">
      <g>
       <use style="stroke:#000000;stroke-width:0.8;" x="54" xlink:href="#m2cc4308c0c" y="66.299777"/>
      </g>
     </g>
     <g id="text_17">
      <!-- 1.0 -->
      <g transform="translate(31.096875 70.098995)scale(0.1 -0.1)">
       <use xlink:href="#DejaVuSans-31"/>
       <use x="63.623047" xlink:href="#DejaVuSans-2e"/>
       <use x="95.410156" xlink:href="#DejaVuSans-30"/>
      </g>
     </g>
    </g>
    <g id="text_18">
     <!-- Simulated cross-peak intensity -->
     <defs>
      <path d="M 53.515625 70.515625 
L 53.515625 60.890625 
Q 47.90625 63.578125 42.921875 64.890625 
Q 37.9375 66.21875 33.296875 66.21875 
Q 25.25 66.21875 20.875 63.09375 
Q 16.5 59.96875 16.5 54.203125 
Q 16.5 49.359375 19.40625 46.890625 
Q 22.3125 44.4375 30.421875 42.921875 
L 36.375 41.703125 
Q 47.40625 39.59375 52.65625 34.296875 
Q 57.90625 29 57.90625 20.125 
Q 57.90625 9.515625 50.796875 4.046875 
Q 43.703125 -1.421875 29.984375 -1.421875 
Q 24.8125 -1.421875 18.96875 -0.25 
Q 13.140625 0.921875 6.890625 3.21875 
L 6.890625 13.375 
Q 12.890625 10.015625 18.65625 8.296875 
Q 24.421875 6.59375 29.984375 6.59375 
Q 38.421875 6.59375 43.015625 9.90625 
Q 47.609375 13.234375 47.609375 19.390625 
Q 47.609375 24.75 44.3125 27.78125 
Q 41.015625 30.8125 33.5 32.328125 
L 27.484375 33.5 
Q 16.453125 35.6875 11.515625 40.375 
Q 6.59375 45.0625 6.59375 53.421875 
Q 6.59375 63.09375 13.40625 68.65625 
Q 20.21875 74.21875 32.171875 74.21875 
Q 37.3125 74.21875 42.625 73.28125 
Q 47.953125 72.359375 53.515625 70.515625 
z
" id="DejaVuSans-53"/>
      <path d="M 8.5 21.578125 
L 8.5 54.6875 
L 17.484375 54.6875 
L 17.484375 21.921875 
Q 17.484375 14.15625 20.5 10.265625 
Q 23.53125 6.390625 29.59375 6.390625 
Q 36.859375 6.390625 41.078125 11.03125 
Q 45.3125 15.671875 45.3125 23.6875 
L 45.3125 54.6875 
L 54.296875 54.6875 
L 54.296875 0 
L 45.3125 0 
L 45.3125 8.40625 
Q 42.046875 3.421875 37.71875 1 
Q 33.40625 -1.421875 27.6875 -1.421875 
Q 18.265625 -1.421875 13.375 4.4375 
Q 8.5 10.296875 8.5 21.578125 
z
M 31.109375 56 
z
" id="DejaVuSans-75"/>
      <path d="M 45.40625 46.390625 
L 45.40625 75.984375 
L 54.390625 75.984375 
L 54.390625 0 
L 45.40625 0 
L 45.40625 8.203125 
Q 42.578125 3.328125 38.25 0.953125 
Q 33.9375 -1.421875 27.875 -1.421875 
Q 17.96875 -1.421875 11.734375 6.484375 
Q 5.515625 14.40625 5.515625 27.296875 
Q 5.515625 40.1875 11.734375 48.09375 
Q 17.96875 56 27.875 56 
Q 33.9375 56 38.25 53.625 
Q 42.578125 51.265625 45.40625 46.390625 
z
M 14.796875 27.296875 
Q 14.796875 17.390625 18.875 11.75 
Q 22.953125 6.109375 30.078125 6.109375 
Q 37.203125 6.109375 41.296875 11.75 
Q 45.40625 17.390625 45.40625 27.296875 
Q 45.40625 37.203125 41.296875 42.84375 
Q 37.203125 48.484375 30.078125 48.484375 
Q 22.953125 48.484375 18.875 42.84375 
Q 14.796875 37.203125 14.796875 27.296875 
z
" id="DejaVuSans-64"/>
     </defs>
     <g transform="translate(25.017187 220.487031)rotate(-90)scale(0.1 -0.1)">
      <use xlink:href="#DejaVuSans-53"/>
      <use x="63.476562" xlink:href="#DejaVuSans-69"/>
      <use x="91.259766" xlink:href="#DejaVuSans-6d"/>
      <use x="188.671875" xlink:href="#DejaVuSans-75"/>
      <use x="252.050781" xlink:href="#DejaVuSans-6c"/>
      <use x="279.833984" xlink:href="#DejaVuSans-61"/>
      <use x="341.113281" xlink:href="#DejaVuSans-74"/>
      <use x="380.322266" xlink:href="#DejaVuSans-65"/>
      <use x="441.845703" xlink:href="#DejaVuSans-64"/>
      <use x="505.322266" xlink:href="#DejaVuSans-20"/>
      <use x="537.109375" xlink:href="#DejaVuSans-63"/>
      <use x="592.089844" xlink:href="#DejaVuSans-72"/>
      <use x="633.171875" xlink:href="#DejaVuSans-6f"/>
      <use x="694.353516" xlink:href="#DejaVuSans-73"/>
      <use x="746.453125" xlink:href="#DejaVuSans-73"/>
      <use x="798.552734" xlink:href="#DejaVuSans-2d"/>
      <use x="834.636719" xlink:href="#DejaVuSans-70"/>
      <use x="898.113281" xlink:href="#DejaVuSans-65"/>
      <use x="959.636719" xlink:href="#DejaVuSans-61"/>
      <use x="1020.916016" xlink:href="#DejaVuSans-6b"/>
      <use x="1078.826172" xlink:href="#DejaVuSans-20"/>
      <use x="1110.613281" xlink:href="#DejaVuSans-69"/>
      <use x="1138.396484" xlink:href="#DejaVuSans-6e"/>
      <use x="1201.775391" xlink:href="#DejaVuSans-74"/>
      <use x="1240.984375" xlink:href="#DejaVuSans-65"/>
      <use x="1302.507812" xlink:href="#DejaVuSans-6e"/>
      <use x="1365.886719" xlink:href="#DejaVuSans-73"/>
      <use x="1417.986328" xlink:href="#DejaVuSans-69"/>
      <use x="1445.769531" xlink:href="#DejaVuSans-74"/>
      <use x="1484.978516" xlink:href="#DejaVuSans-79"/>
     </g>
    </g>
    <g id="text_19">
     <!-- 1e7 -->
     <g transform="translate(54 31.56)scale(0.1 -0.1)">
      <use xlink:href="#DejaVuSans-31"/>
      <use x="63.623047" xlink:href="#DejaVuSans-65"/>
      <use x="125.146484" xlink:href="#DejaVuSans-37"/>
     </g>
    </g>
   </g>
   <g id="LineCollection_1">
    <path clip-path="url(#pbbc9b697fe)" d="M 76.824019 226.763798 
L 76.824019 226.76274 
" style="fill:none;stroke:#1f77b4;stroke-width:1.5;"/>
    <path clip-path="url(#pbbc9b697fe)" d="M 72.451488 229.85937 
L 72.451488 229.233436 
" style="fill:none;stroke:#1f77b4;stroke-width:1.5;"/>
    <path clip-path="url(#pbbc9b697fe)" d="M 199.549979 68.013649 
L 199.549979 67.96351 
" style="fill:none;stroke:#1f77b4;stroke-width:1.5;"/>
    <path clip-path="url(#pbbc9b697fe)" d="M 72.205122 207.216926 
L 72.205122 205.110104 
" style="fill:none;stroke:#1f77b4;stroke-width:1.5;"/>
    <path clip-path="url(#pbbc9b697fe)" d="M 113.545683 213.84504 
L 113.545683 212.143 
" style="fill:none;stroke:#1f77b4;stroke-width:1.5;"/>
    <path clip-path="url(#pbbc9b697fe)" d="M 70.111388 235.364513 
L 70.111388 235.084595 
" style="fill:none;stroke:#1f77b4;stroke-width:1.5;"/>
    <path clip-path="url(#pbbc9b697fe)" d="M 173.144573 181.127255 
L 173.144573 178.819701 
" style="fill:none;stroke:#1f77b4;stroke-width:1.5;"/>
    <path clip-path="url(#pbbc9b697fe)" d="M 179.517213 214.740092 
L 179.517213 213.816987 
" style="fill:none;stroke:#1f77b4;stroke-width:1.5;"/>
    <path clip-path="url(#pbbc9b697fe)" d="M 79.051401 226.833877 
L 79.051401 225.896953 
" style="fill:none;stroke:#1f77b4;stroke-width:1.5;"/>
    <path clip-path="url(#pbbc9b697fe)" d="M 76.493649 227.142932 
L 76.493649 227.141899 
" style="fill:none;stroke:#1f77b4;stroke-width:1.5;"/>
    <path clip-path="url(#pbbc9b697fe)" d="M 112.188046 212.032027 
L 112.188046 210.737007 
" style="fill:none;stroke:#1f77b4;stroke-width:1.5;"/>
    <path clip-path="url(#pbbc9b697fe)" d="M 97.391202 231.984837 
L 97.391202 231.312055 
" style="fill:none;stroke:#1f77b4;stroke-width:1.5;"/>
    <path clip-path="url(#pbbc9b697fe)" d="M 77.789868 236.762544 
L 77.789868 236.483301 
" style="fill:none;stroke:#1f77b4;stroke-width:1.5;"/>
    <path clip-path="url(#pbbc9b697fe)" d="M 77.930687 240.303706 
L 77.930687 240.14073 
" style="fill:none;stroke:#1f77b4;stroke-width:1.5;"/>
    <path clip-path="url(#pbbc9b697fe)" d="M 212.929949 63.619608 
L 212.929949 63.332382 
" style="fill:none;stroke:#1f77b4;stroke-width:1.5;"/>
    <path clip-path="url(#pbbc9b697fe)" d="M 179.721513 163.198629 
L 179.721513 161.292169 
" style="fill:none;stroke:#1f77b4;stroke-width:1.5;"/>
    <path clip-path="url(#pbbc9b697fe)" d="M 123.016558 203.550383 
L 123.016558 202.677511 
" style="fill:none;stroke:#1f77b4;stroke-width:1.5;"/>
    <path clip-path="url(#pbbc9b697fe)" d="M 133.955211 208.442133 
L 133.955211 206.078677 
" style="fill:none;stroke:#1f77b4;stroke-width:1.5;"/>
    <path clip-path="url(#pbbc9b697fe)" d="M 71.524361 219.37703 
L 71.524361 218.790081 
" style="fill:none;stroke:#1f77b4;stroke-width:1.5;"/>
    <path clip-path="url(#pbbc9b697fe)" d="M 173.662597 150.527367 
L 173.662597 148.317815 
" style="fill:none;stroke:#1f77b4;stroke-width:1.5;"/>
    <path clip-path="url(#pbbc9b697fe)" d="M 71.913134 231.164127 
L 71.913134 230.833353 
" style="fill:none;stroke:#1f77b4;stroke-width:1.5;"/>
    <path clip-path="url(#pbbc9b697fe)" d="M 76.077252 232.307279 
L 76.077252 232.018841 
" style="fill:none;stroke:#1f77b4;stroke-width:1.5;"/>
    <path clip-path="url(#pbbc9b697fe)" d="M 84.185454 221.220087 
L 84.185454 221.015305 
" style="fill:none;stroke:#1f77b4;stroke-width:1.5;"/>
    <path clip-path="url(#pbbc9b697fe)" d="M 242.345366 69.285314 
L 242.345366 65.302273 
" style="fill:none;stroke:#1f77b4;stroke-width:1.5;"/>
    <path clip-path="url(#pbbc9b697fe)" d="M 80.153227 206.599859 
L 80.153227 206.236727 
" style="fill:none;stroke:#1f77b4;stroke-width:1.5;"/>
    <path clip-path="url(#pbbc9b697fe)" d="M 89.250955 198.545828 
L 89.250955 198.208379 
" style="fill:none;stroke:#1f77b4;stroke-width:1.5;"/>
    <path clip-path="url(#pbbc9b697fe)" d="M 149.29374 207.117989 
L 149.29374 204.51014 
" style="fill:none;stroke:#1f77b4;stroke-width:1.5;"/>
    <path clip-path="url(#pbbc9b697fe)" d="M 106.786158 221.064691 
L 106.786158 220.03855 
" style="fill:none;stroke:#1f77b4;stroke-width:1.5;"/>
    <path clip-path="url(#pbbc9b697fe)" d="M 71.800785 226.381589 
L 71.800785 225.520936 
" style="fill:none;stroke:#1f77b4;stroke-width:1.5;"/>
    <path clip-path="url(#pbbc9b697fe)" d="M 299.976881 104.592108 
L 299.976881 98.028846 
" style="fill:none;stroke:#1f77b4;stroke-width:1.5;"/>
    <path clip-path="url(#pbbc9b697fe)" d="M 96.304921 223.922693 
L 96.304921 223.021829 
" style="fill:none;stroke:#1f77b4;stroke-width:1.5;"/>
    <path clip-path="url(#pbbc9b697fe)" d="M 74.733884 202.45408 
L 74.733884 201.314222 
" style="fill:none;stroke:#1f77b4;stroke-width:1.5;"/>
    <path clip-path="url(#pbbc9b697fe)" d="M 72.106349 238.813724 
L 72.106349 238.465326 
" style="fill:none;stroke:#1f77b4;stroke-width:1.5;"/>
    <path clip-path="url(#pbbc9b697fe)" d="M 77.672815 218.246074 
L 77.672815 217.574809 
" style="fill:none;stroke:#1f77b4;stroke-width:1.5;"/>
    <path clip-path="url(#pbbc9b697fe)" d="M 82.850885 234.513807 
L 82.850885 234.280176 
" style="fill:none;stroke:#1f77b4;stroke-width:1.5;"/>
    <path clip-path="url(#pbbc9b697fe)" d="M 165.761447 210.790683 
L 165.761447 208.450495 
" style="fill:none;stroke:#1f77b4;stroke-width:1.5;"/>
    <path clip-path="url(#pbbc9b697fe)" d="M 206.588525 171.599583 
L 206.588525 169.087868 
" style="fill:none;stroke:#1f77b4;stroke-width:1.5;"/>
    <path clip-path="url(#pbbc9b697fe)" d="M 284.699568 189.692981 
L 284.699568 189.515359 
" style="fill:none;stroke:#1f77b4;stroke-width:1.5;"/>
    <path clip-path="url(#pbbc9b697fe)" d="M 94.960819 210.864146 
L 94.960819 209.750599 
" style="fill:none;stroke:#1f77b4;stroke-width:1.5;"/>
    <path clip-path="url(#pbbc9b697fe)" d="M 80.483415 231.205185 
L 80.483415 230.794391 
" style="fill:none;stroke:#1f77b4;stroke-width:1.5;"/>
    <path clip-path="url(#pbbc9b697fe)" d="M 72.655878 231.739855 
L 72.655878 231.232148 
" style="fill:none;stroke:#1f77b4;stroke-width:1.5;"/>
    <path clip-path="url(#pbbc9b697fe)" d="M 78.941712 231.862293 
L 78.941712 231.333185 
" style="fill:none;stroke:#1f77b4;stroke-width:1.5;"/>
    <path clip-path="url(#pbbc9b697fe)" d="M 178.052986 163.239905 
L 178.052986 159.166574 
" style="fill:none;stroke:#1f77b4;stroke-width:1.5;"/>
    <path clip-path="url(#pbbc9b697fe)" d="M 75.301863 225.909557 
L 75.301863 224.843566 
" style="fill:none;stroke:#1f77b4;stroke-width:1.5;"/>
    <path clip-path="url(#pbbc9b697fe)" d="M 84.924911 224.640669 
L 84.924911 223.733435 
" style="fill:none;stroke:#1f77b4;stroke-width:1.5;"/>
    <path clip-path="url(#pbbc9b697fe)" d="M 80.611843 228.507375 
L 80.611843 227.764774 
" style="fill:none;stroke:#1f77b4;stroke-width:1.5;"/>
    <path clip-path="url(#pbbc9b697fe)" d="M 72.827358 236.932283 
L 72.827358 236.71059 
" style="fill:none;stroke:#1f77b4;stroke-width:1.5;"/>
    <path clip-path="url(#pbbc9b697fe)" d="M 224.080971 152.122406 
L 224.080971 148.731387 
" style="fill:none;stroke:#1f77b4;stroke-width:1.5;"/>
    <path clip-path="url(#pbbc9b697fe)" d="M 73.339341 238.248303 
L 73.339341 238.024979 
" style="fill:none;stroke:#1f77b4;stroke-width:1.5;"/>
    <path clip-path="url(#pbbc9b697fe)" d="M 125.540166 227.195096 
L 125.540166 226.442855 
" style="fill:none;stroke:#1f77b4;stroke-width:1.5;"/>
    <path clip-path="url(#pbbc9b697fe)" d="M 76.310238 229.148617 
L 76.310238 228.498773 
" style="fill:none;stroke:#1f77b4;stroke-width:1.5;"/>
    <path clip-path="url(#pbbc9b697fe)" d="M 82.064169 195.808443 
L 82.064169 193.551286 
" style="fill:none;stroke:#1f77b4;stroke-width:1.5;"/>
    <path clip-path="url(#pbbc9b697fe)" d="M 84.94164 221.247416 
L 84.94164 220.171598 
" style="fill:none;stroke:#1f77b4;stroke-width:1.5;"/>
    <path clip-path="url(#pbbc9b697fe)" d="M 237.822453 112.805207 
L 237.822453 112.659573 
" style="fill:none;stroke:#1f77b4;stroke-width:1.5;"/>
    <path clip-path="url(#pbbc9b697fe)" d="M 159.161143 179.664461 
L 159.161143 177.02123 
" style="fill:none;stroke:#1f77b4;stroke-width:1.5;"/>
    <path clip-path="url(#pbbc9b697fe)" d="M 119.817559 192.708372 
L 119.817559 190.720243 
" style="fill:none;stroke:#1f77b4;stroke-width:1.5;"/>
    <path clip-path="url(#pbbc9b697fe)" d="M 187.708504 45.364426 
L 187.708504 44.443636 
" style="fill:none;stroke:#1f77b4;stroke-width:1.5;"/>
    <path clip-path="url(#pbbc9b697fe)" d="M 76.023328 227.340116 
L 76.023328 227.201008 
" style="fill:none;stroke:#1f77b4;stroke-width:1.5;"/>
    <path clip-path="url(#pbbc9b697fe)" d="M 91.056039 195.531023 
L 91.056039 195.170638 
" style="fill:none;stroke:#1f77b4;stroke-width:1.5;"/>
    <path clip-path="url(#pbbc9b697fe)" d="M 181.195537 208.234629 
L 181.195537 207.098281 
" style="fill:none;stroke:#1f77b4;stroke-width:1.5;"/>
    <path clip-path="url(#pbbc9b697fe)" d="M 76.254065 238.95442 
L 76.254065 238.724258 
" style="fill:none;stroke:#1f77b4;stroke-width:1.5;"/>
    <path clip-path="url(#pbbc9b697fe)" d="M 82.45688 228.137849 
L 82.45688 227.629052 
" style="fill:none;stroke:#1f77b4;stroke-width:1.5;"/>
    <path clip-path="url(#pbbc9b697fe)" d="M 208.783579 107.555528 
L 208.783579 107.404016 
" style="fill:none;stroke:#1f77b4;stroke-width:1.5;"/>
    <path clip-path="url(#pbbc9b697fe)" d="M 73.818273 223.282865 
L 73.818273 222.46602 
" style="fill:none;stroke:#1f77b4;stroke-width:1.5;"/>
    <path clip-path="url(#pbbc9b697fe)" d="M 153.85427 180.915333 
L 153.85427 178.457788 
" style="fill:none;stroke:#1f77b4;stroke-width:1.5;"/>
    <path clip-path="url(#pbbc9b697fe)" d="M 76.451052 181.098684 
L 76.451052 180.985363 
" style="fill:none;stroke:#1f77b4;stroke-width:1.5;"/>
    <path clip-path="url(#pbbc9b697fe)" d="M 169.737287 182.270918 
L 169.737287 182.149564 
" style="fill:none;stroke:#1f77b4;stroke-width:1.5;"/>
    <path clip-path="url(#pbbc9b697fe)" d="M 178.449904 207.711239 
L 178.449904 206.930662 
" style="fill:none;stroke:#1f77b4;stroke-width:1.5;"/>
    <path clip-path="url(#pbbc9b697fe)" d="M 89.642218 226.172254 
L 89.642218 226.014246 
" style="fill:none;stroke:#1f77b4;stroke-width:1.5;"/>
    <path clip-path="url(#pbbc9b697fe)" d="M 88.693398 240.120612 
L 88.693398 240.043152 
" style="fill:none;stroke:#1f77b4;stroke-width:1.5;"/>
    <path clip-path="url(#pbbc9b697fe)" d="M 107.169742 235.953965 
L 107.169742 235.681968 
" style="fill:none;stroke:#1f77b4;stroke-width:1.5;"/>
    <path clip-path="url(#pbbc9b697fe)" d="M 210.724552 149.590356 
L 210.724552 144.805115 
" style="fill:none;stroke:#1f77b4;stroke-width:1.5;"/>
    <path clip-path="url(#pbbc9b697fe)" d="M 159.246455 164.455841 
L 159.246455 160.446075 
" style="fill:none;stroke:#1f77b4;stroke-width:1.5;"/>
    <path clip-path="url(#pbbc9b697fe)" d="M 99.655618 84.917411 
L 99.655618 84.244583 
" style="fill:none;stroke:#1f77b4;stroke-width:1.5;"/>
    <path clip-path="url(#pbbc9b697fe)" d="M 241.702685 152.992102 
L 241.702685 147.476842 
" style="fill:none;stroke:#1f77b4;stroke-width:1.5;"/>
    <path clip-path="url(#pbbc9b697fe)" d="M 96.004234 242.116364 
L 96.004234 242.069708 
" style="fill:none;stroke:#1f77b4;stroke-width:1.5;"/>
    <path clip-path="url(#pbbc9b697fe)" d="M 127.351823 209.940111 
L 127.351823 207.679395 
" style="fill:none;stroke:#1f77b4;stroke-width:1.5;"/>
    <path clip-path="url(#pbbc9b697fe)" d="M 212.02275 99.612758 
L 212.02275 96.325479 
" style="fill:none;stroke:#1f77b4;stroke-width:1.5;"/>
    <path clip-path="url(#pbbc9b697fe)" d="M 75.893538 235.470218 
L 75.893538 235.179282 
" style="fill:none;stroke:#1f77b4;stroke-width:1.5;"/>
    <path clip-path="url(#pbbc9b697fe)" d="M 198.349835 173.008778 
L 198.349835 169.424494 
" style="fill:none;stroke:#1f77b4;stroke-width:1.5;"/>
    <path clip-path="url(#pbbc9b697fe)" d="M 163.632685 195.543732 
L 163.632685 193.123029 
" style="fill:none;stroke:#1f77b4;stroke-width:1.5;"/>
    <path clip-path="url(#pbbc9b697fe)" d="M 89.978995 232.85482 
L 89.978995 231.998557 
" style="fill:none;stroke:#1f77b4;stroke-width:1.5;"/>
    <path clip-path="url(#pbbc9b697fe)" d="M 104.866758 230.680753 
L 104.866758 230.168073 
" style="fill:none;stroke:#1f77b4;stroke-width:1.5;"/>
    <path clip-path="url(#pbbc9b697fe)" d="M 77.647105 240.040493 
L 77.647105 239.87016 
" style="fill:none;stroke:#1f77b4;stroke-width:1.5;"/>
    <path clip-path="url(#pbbc9b697fe)" d="M 145.110267 220.417702 
L 145.110267 219.361157 
" style="fill:none;stroke:#1f77b4;stroke-width:1.5;"/>
    <path clip-path="url(#pbbc9b697fe)" d="M 373.581818 64.879532 
L 373.581818 56.431771 
" style="fill:none;stroke:#1f77b4;stroke-width:1.5;"/>
    <path clip-path="url(#pbbc9b697fe)" d="M 75.282909 235.73476 
L 75.282909 235.361386 
" style="fill:none;stroke:#1f77b4;stroke-width:1.5;"/>
    <path clip-path="url(#pbbc9b697fe)" d="M 216.658623 208.430942 
L 216.658623 207.216664 
" style="fill:none;stroke:#1f77b4;stroke-width:1.5;"/>
    <path clip-path="url(#pbbc9b697fe)" d="M 88.409098 233.916877 
L 88.409098 233.607241 
" style="fill:none;stroke:#1f77b4;stroke-width:1.5;"/>
    <path clip-path="url(#pbbc9b697fe)" d="M 205.105015 110.416398 
L 205.105015 110.308405 
" style="fill:none;stroke:#1f77b4;stroke-width:1.5;"/>
    <path clip-path="url(#pbbc9b697fe)" d="M 70.185978 240.680621 
L 70.185978 240.549497 
" style="fill:none;stroke:#1f77b4;stroke-width:1.5;"/>
    <path clip-path="url(#pbbc9b697fe)" d="M 223.562121 153.251492 
L 223.562121 147.752143 
" style="fill:none;stroke:#1f77b4;stroke-width:1.5;"/>
    <path clip-path="url(#pbbc9b697fe)" d="M 112.094931 214.956965 
L 112.094931 213.320057 
" style="fill:none;stroke:#1f77b4;stroke-width:1.5;"/>
    <path clip-path="url(#pbbc9b697fe)" d="M 94.715881 230.803325 
L 94.715881 230.084452 
" style="fill:none;stroke:#1f77b4;stroke-width:1.5;"/>
    <path clip-path="url(#pbbc9b697fe)" d="M 76.391024 219.617402 
L 76.391024 219.036451 
" style="fill:none;stroke:#1f77b4;stroke-width:1.5;"/>
    <path clip-path="url(#pbbc9b697fe)" d="M 82.264481 211.899526 
L 82.264481 211.589408 
" style="fill:none;stroke:#1f77b4;stroke-width:1.5;"/>
    <path clip-path="url(#pbbc9b697fe)" d="M 321.631165 236.758073 
L 321.631165 236.737564 
" style="fill:none;stroke:#1f77b4;stroke-width:1.5;"/>
    <path clip-path="url(#pbbc9b697fe)" d="M 104.5121 68.042722 
L 104.5121 67.298028 
" style="fill:none;stroke:#1f77b4;stroke-width:1.5;"/>
    <path clip-path="url(#pbbc9b697fe)" d="M 105.865967 240.867049 
L 105.865967 240.794281 
" style="fill:none;stroke:#1f77b4;stroke-width:1.5;"/>
    <path clip-path="url(#pbbc9b697fe)" d="M 70.912305 242.009576 
L 70.912305 241.977992 
" style="fill:none;stroke:#1f77b4;stroke-width:1.5;"/>
    <path clip-path="url(#pbbc9b697fe)" d="M 150.672857 215.519671 
L 150.672857 214.375142 
" style="fill:none;stroke:#1f77b4;stroke-width:1.5;"/>
    <path clip-path="url(#pbbc9b697fe)" d="M 75.581036 234.736089 
L 75.581036 234.396112 
" style="fill:none;stroke:#1f77b4;stroke-width:1.5;"/>
    <path clip-path="url(#pbbc9b697fe)" d="M 72.933317 238.021981 
L 72.933317 237.819051 
" style="fill:none;stroke:#1f77b4;stroke-width:1.5;"/>
    <path clip-path="url(#pbbc9b697fe)" d="M 97.402619 162.168484 
L 97.402619 158.970684 
" style="fill:none;stroke:#1f77b4;stroke-width:1.5;"/>
    <path clip-path="url(#pbbc9b697fe)" d="M 139.589936 147.067142 
L 139.589936 143.267629 
" style="fill:none;stroke:#1f77b4;stroke-width:1.5;"/>
    <path clip-path="url(#pbbc9b697fe)" d="M 123.348258 213.557011 
L 123.348258 212.379389 
" style="fill:none;stroke:#1f77b4;stroke-width:1.5;"/>
    <path clip-path="url(#pbbc9b697fe)" d="M 100.664235 211.757779 
L 100.664235 210.279487 
" style="fill:none;stroke:#1f77b4;stroke-width:1.5;"/>
    <path clip-path="url(#pbbc9b697fe)" d="M 111.686642 226.518802 
L 111.686642 225.509156 
" style="fill:none;stroke:#1f77b4;stroke-width:1.5;"/>
    <path clip-path="url(#pbbc9b697fe)" d="M 83.307351 232.055978 
L 83.307351 231.410289 
" style="fill:none;stroke:#1f77b4;stroke-width:1.5;"/>
    <path clip-path="url(#pbbc9b697fe)" d="M 81.799931 204.228578 
L 81.799931 201.534177 
" style="fill:none;stroke:#1f77b4;stroke-width:1.5;"/>
    <path clip-path="url(#pbbc9b697fe)" d="M 100.121009 200.55725 
L 100.121009 197.705634 
" style="fill:none;stroke:#1f77b4;stroke-width:1.5;"/>
    <path clip-path="url(#pbbc9b697fe)" d="M 198.470084 85.641822 
L 198.470084 84.908779 
" style="fill:none;stroke:#1f77b4;stroke-width:1.5;"/>
    <path clip-path="url(#pbbc9b697fe)" d="M 81.626722 195.608537 
L 81.626722 195.521821 
" style="fill:none;stroke:#1f77b4;stroke-width:1.5;"/>
    <path clip-path="url(#pbbc9b697fe)" d="M 190.646723 70.354719 
L 190.646723 70.21407 
" style="fill:none;stroke:#1f77b4;stroke-width:1.5;"/>
    <path clip-path="url(#pbbc9b697fe)" d="M 95.882131 236.998514 
L 95.882131 236.793338 
" style="fill:none;stroke:#1f77b4;stroke-width:1.5;"/>
    <path clip-path="url(#pbbc9b697fe)" d="M 100.836245 239.654835 
L 100.836245 239.53871 
" style="fill:none;stroke:#1f77b4;stroke-width:1.5;"/>
    <path clip-path="url(#pbbc9b697fe)" d="M 83.023549 212.39201 
L 83.023549 211.32047 
" style="fill:none;stroke:#1f77b4;stroke-width:1.5;"/>
    <path clip-path="url(#pbbc9b697fe)" d="M 69.218182 222.750046 
L 69.218182 222.036495 
" style="fill:none;stroke:#1f77b4;stroke-width:1.5;"/>
    <path clip-path="url(#pbbc9b697fe)" d="M 72.319445 228.355058 
L 72.319445 228.225022 
" style="fill:none;stroke:#1f77b4;stroke-width:1.5;"/>
    <path clip-path="url(#pbbc9b697fe)" d="M 175.970019 188.423649 
L 175.970019 188.31461 
" style="fill:none;stroke:#1f77b4;stroke-width:1.5;"/>
    <path clip-path="url(#pbbc9b697fe)" d="M 70.542369 232.36741 
L 70.542369 231.929319 
" style="fill:none;stroke:#1f77b4;stroke-width:1.5;"/>
    <path clip-path="url(#pbbc9b697fe)" d="M 133.90708 225.847436 
L 133.90708 225.16304 
" style="fill:none;stroke:#1f77b4;stroke-width:1.5;"/>
    <path clip-path="url(#pbbc9b697fe)" d="M 79.073519 238.695493 
L 79.073519 238.402451 
" style="fill:none;stroke:#1f77b4;stroke-width:1.5;"/>
    <path clip-path="url(#pbbc9b697fe)" d="M 101.586855 217.239543 
L 101.586855 215.511372 
" style="fill:none;stroke:#1f77b4;stroke-width:1.5;"/>
    <path clip-path="url(#pbbc9b697fe)" d="M 178.487162 113.838505 
L 178.487162 113.631735 
" style="fill:none;stroke:#1f77b4;stroke-width:1.5;"/>
    <path clip-path="url(#pbbc9b697fe)" d="M 183.651184 211.360019 
L 183.651184 209.747209 
" style="fill:none;stroke:#1f77b4;stroke-width:1.5;"/>
    <path clip-path="url(#pbbc9b697fe)" d="M 79.837229 241.317313 
L 79.837229 241.235582 
" style="fill:none;stroke:#1f77b4;stroke-width:1.5;"/>
    <path clip-path="url(#pbbc9b697fe)" d="M 119.145112 172.982869 
L 119.145112 172.962823 
" style="fill:none;stroke:#1f77b4;stroke-width:1.5;"/>
    <path clip-path="url(#pbbc9b697fe)" d="M 102.354709 225.301853 
L 102.354709 224.458937 
" style="fill:none;stroke:#1f77b4;stroke-width:1.5;"/>
    <path clip-path="url(#pbbc9b697fe)" d="M 73.192824 236.661592 
L 73.192824 236.366745 
" style="fill:none;stroke:#1f77b4;stroke-width:1.5;"/>
   </g>
   <g id="line2d_16">
    <defs>
     <path d="M 0 3 
C 0.795609 3 1.55874 2.683901 2.12132 2.12132 
C 2.683901 1.55874 3 0.795609 3 0 
C 3 -0.795609 2.683901 -1.55874 2.12132 -2.12132 
C 1.55874 -2.683901 0.795609 -3 0 -3 
C -0.795609 -3 -1.55874 -2.683901 -2.12132 -2.12132 
C -2.683901 -1.55874 -3 -0.795609 -3 0 
C -3 0.795609 -2.683901 1.55874 -2.12132 2.12132 
C -1.55874 2.683901 -0.795609 3 0 3 
z
" id="m0d5101e801" style="stroke:#1f77b4;"/>
    </defs>
    <g clip-path="url(#pbbc9b697fe)">
     <use style="fill:#1f77b4;stroke:#1f77b4;" x="76.824019" xlink:href="#m0d5101e801" y="226.763269"/>
     <use style="fill:#1f77b4;stroke:#1f77b4;" x="72.451488" xlink:href="#m0d5101e801" y="229.546403"/>
     <use style="fill:#1f77b4;stroke:#1f77b4;" x="199.549979" xlink:href="#m0d5101e801" y="67.988579"/>
     <use style="fill:#1f77b4;stroke:#1f77b4;" x="72.205122" xlink:href="#m0d5101e801" y="206.163515"/>
     <use style="fill:#1f77b4;stroke:#1f77b4;" x="113.545683" xlink:href="#m0d5101e801" y="212.99402"/>
     <use style="fill:#1f77b4;stroke:#1f77b4;" x="70.111388" xlink:href="#m0d5101e801" y="235.224554"/>
     <use style="fill:#1f77b4;stroke:#1f77b4;" x="173.144573" xlink:href="#m0d5101e801" y="179.973478"/>
     <use style="fill:#1f77b4;stroke:#1f77b4;" x="179.517213" xlink:href="#m0d5101e801" y="214.27854"/>
     <use style="fill:#1f77b4;stroke:#1f77b4;" x="79.051401" xlink:href="#m0d5101e801" y="226.365415"/>
     <use style="fill:#1f77b4;stroke:#1f77b4;" x="76.493649" xlink:href="#m0d5101e801" y="227.142416"/>
     <use style="fill:#1f77b4;stroke:#1f77b4;" x="112.188046" xlink:href="#m0d5101e801" y="211.384517"/>
     <use style="fill:#1f77b4;stroke:#1f77b4;" x="97.391202" xlink:href="#m0d5101e801" y="231.648446"/>
     <use style="fill:#1f77b4;stroke:#1f77b4;" x="77.789868" xlink:href="#m0d5101e801" y="236.622922"/>
     <use style="fill:#1f77b4;stroke:#1f77b4;" x="77.930687" xlink:href="#m0d5101e801" y="240.222218"/>
     <use style="fill:#1f77b4;stroke:#1f77b4;" x="212.929949" xlink:href="#m0d5101e801" y="63.475995"/>
     <use style="fill:#1f77b4;stroke:#1f77b4;" x="179.721513" xlink:href="#m0d5101e801" y="162.245399"/>
     <use style="fill:#1f77b4;stroke:#1f77b4;" x="123.016558" xlink:href="#m0d5101e801" y="203.113947"/>
     <use style="fill:#1f77b4;stroke:#1f77b4;" x="133.955211" xlink:href="#m0d5101e801" y="207.260405"/>
     <use style="fill:#1f77b4;stroke:#1f77b4;" x="71.524361" xlink:href="#m0d5101e801" y="219.083555"/>
     <use style="fill:#1f77b4;stroke:#1f77b4;" x="173.662597" xlink:href="#m0d5101e801" y="149.422591"/>
     <use style="fill:#1f77b4;stroke:#1f77b4;" x="71.913134" xlink:href="#m0d5101e801" y="230.99874"/>
     <use style="fill:#1f77b4;stroke:#1f77b4;" x="76.077252" xlink:href="#m0d5101e801" y="232.16306"/>
     <use style="fill:#1f77b4;stroke:#1f77b4;" x="84.185454" xlink:href="#m0d5101e801" y="221.117696"/>
     <use style="fill:#1f77b4;stroke:#1f77b4;" x="242.345366" xlink:href="#m0d5101e801" y="67.293794"/>
     <use style="fill:#1f77b4;stroke:#1f77b4;" x="80.153227" xlink:href="#m0d5101e801" y="206.418293"/>
     <use style="fill:#1f77b4;stroke:#1f77b4;" x="89.250955" xlink:href="#m0d5101e801" y="198.377104"/>
     <use style="fill:#1f77b4;stroke:#1f77b4;" x="149.29374" xlink:href="#m0d5101e801" y="205.814065"/>
     <use style="fill:#1f77b4;stroke:#1f77b4;" x="106.786158" xlink:href="#m0d5101e801" y="220.55162"/>
     <use style="fill:#1f77b4;stroke:#1f77b4;" x="71.800785" xlink:href="#m0d5101e801" y="225.951263"/>
     <use style="fill:#1f77b4;stroke:#1f77b4;" x="299.976881" xlink:href="#m0d5101e801" y="101.310477"/>
     <use style="fill:#1f77b4;stroke:#1f77b4;" x="96.304921" xlink:href="#m0d5101e801" y="223.472261"/>
     <use style="fill:#1f77b4;stroke:#1f77b4;" x="74.733884" xlink:href="#m0d5101e801" y="201.884151"/>
     <use style="fill:#1f77b4;stroke:#1f77b4;" x="72.106349" xlink:href="#m0d5101e801" y="238.639525"/>
     <use style="fill:#1f77b4;stroke:#1f77b4;" x="77.672815" xlink:href="#m0d5101e801" y="217.910441"/>
     <use style="fill:#1f77b4;stroke:#1f77b4;" x="82.850885" xlink:href="#m0d5101e801" y="234.396991"/>
     <use style="fill:#1f77b4;stroke:#1f77b4;" x="165.761447" xlink:href="#m0d5101e801" y="209.620589"/>
     <use style="fill:#1f77b4;stroke:#1f77b4;" x="206.588525" xlink:href="#m0d5101e801" y="170.343726"/>
     <use style="fill:#1f77b4;stroke:#1f77b4;" x="284.699568" xlink:href="#m0d5101e801" y="189.60417"/>
     <use style="fill:#1f77b4;stroke:#1f77b4;" x="94.960819" xlink:href="#m0d5101e801" y="210.307372"/>
     <use style="fill:#1f77b4;stroke:#1f77b4;" x="80.483415" xlink:href="#m0d5101e801" y="230.999788"/>
     <use style="fill:#1f77b4;stroke:#1f77b4;" x="72.655878" xlink:href="#m0d5101e801" y="231.486001"/>
     <use style="fill:#1f77b4;stroke:#1f77b4;" x="78.941712" xlink:href="#m0d5101e801" y="231.597739"/>
     <use style="fill:#1f77b4;stroke:#1f77b4;" x="178.052986" xlink:href="#m0d5101e801" y="161.203239"/>
     <use style="fill:#1f77b4;stroke:#1f77b4;" x="75.301863" xlink:href="#m0d5101e801" y="225.376562"/>
     <use style="fill:#1f77b4;stroke:#1f77b4;" x="84.924911" xlink:href="#m0d5101e801" y="224.187052"/>
     <use style="fill:#1f77b4;stroke:#1f77b4;" x="80.611843" xlink:href="#m0d5101e801" y="228.136074"/>
     <use style="fill:#1f77b4;stroke:#1f77b4;" x="72.827358" xlink:href="#m0d5101e801" y="236.821437"/>
     <use style="fill:#1f77b4;stroke:#1f77b4;" x="224.080971" xlink:href="#m0d5101e801" y="150.426897"/>
     <use style="fill:#1f77b4;stroke:#1f77b4;" x="73.339341" xlink:href="#m0d5101e801" y="238.136641"/>
     <use style="fill:#1f77b4;stroke:#1f77b4;" x="125.540166" xlink:href="#m0d5101e801" y="226.818975"/>
     <use style="fill:#1f77b4;stroke:#1f77b4;" x="76.310238" xlink:href="#m0d5101e801" y="228.823695"/>
     <use style="fill:#1f77b4;stroke:#1f77b4;" x="82.064169" xlink:href="#m0d5101e801" y="194.679865"/>
     <use style="fill:#1f77b4;stroke:#1f77b4;" x="84.94164" xlink:href="#m0d5101e801" y="220.709507"/>
     <use style="fill:#1f77b4;stroke:#1f77b4;" x="237.822453" xlink:href="#m0d5101e801" y="112.73239"/>
     <use style="fill:#1f77b4;stroke:#1f77b4;" x="159.161143" xlink:href="#m0d5101e801" y="178.342846"/>
     <use style="fill:#1f77b4;stroke:#1f77b4;" x="119.817559" xlink:href="#m0d5101e801" y="191.714307"/>
     <use style="fill:#1f77b4;stroke:#1f77b4;" x="187.708504" xlink:href="#m0d5101e801" y="44.904031"/>
     <use style="fill:#1f77b4;stroke:#1f77b4;" x="76.023328" xlink:href="#m0d5101e801" y="227.270562"/>
     <use style="fill:#1f77b4;stroke:#1f77b4;" x="91.056039" xlink:href="#m0d5101e801" y="195.35083"/>
     <use style="fill:#1f77b4;stroke:#1f77b4;" x="181.195537" xlink:href="#m0d5101e801" y="207.666455"/>
     <use style="fill:#1f77b4;stroke:#1f77b4;" x="76.254065" xlink:href="#m0d5101e801" y="238.839339"/>
     <use style="fill:#1f77b4;stroke:#1f77b4;" x="82.45688" xlink:href="#m0d5101e801" y="227.883451"/>
     <use style="fill:#1f77b4;stroke:#1f77b4;" x="208.783579" xlink:href="#m0d5101e801" y="107.479772"/>
     <use style="fill:#1f77b4;stroke:#1f77b4;" x="73.818273" xlink:href="#m0d5101e801" y="222.874442"/>
     <use style="fill:#1f77b4;stroke:#1f77b4;" x="153.85427" xlink:href="#m0d5101e801" y="179.68656"/>
     <use style="fill:#1f77b4;stroke:#1f77b4;" x="76.451052" xlink:href="#m0d5101e801" y="181.042024"/>
     <use style="fill:#1f77b4;stroke:#1f77b4;" x="169.737287" xlink:href="#m0d5101e801" y="182.210241"/>
     <use style="fill:#1f77b4;stroke:#1f77b4;" x="178.449904" xlink:href="#m0d5101e801" y="207.320951"/>
     <use style="fill:#1f77b4;stroke:#1f77b4;" x="89.642218" xlink:href="#m0d5101e801" y="226.09325"/>
     <use style="fill:#1f77b4;stroke:#1f77b4;" x="88.693398" xlink:href="#m0d5101e801" y="240.081882"/>
     <use style="fill:#1f77b4;stroke:#1f77b4;" x="107.169742" xlink:href="#m0d5101e801" y="235.817966"/>
     <use style="fill:#1f77b4;stroke:#1f77b4;" x="210.724552" xlink:href="#m0d5101e801" y="147.197736"/>
     <use style="fill:#1f77b4;stroke:#1f77b4;" x="159.246455" xlink:href="#m0d5101e801" y="162.450958"/>
     <use style="fill:#1f77b4;stroke:#1f77b4;" x="99.655618" xlink:href="#m0d5101e801" y="84.580997"/>
     <use style="fill:#1f77b4;stroke:#1f77b4;" x="241.702685" xlink:href="#m0d5101e801" y="150.234472"/>
     <use style="fill:#1f77b4;stroke:#1f77b4;" x="96.004234" xlink:href="#m0d5101e801" y="242.093036"/>
     <use style="fill:#1f77b4;stroke:#1f77b4;" x="127.351823" xlink:href="#m0d5101e801" y="208.809753"/>
     <use style="fill:#1f77b4;stroke:#1f77b4;" x="212.02275" xlink:href="#m0d5101e801" y="97.969119"/>
     <use style="fill:#1f77b4;stroke:#1f77b4;" x="75.893538" xlink:href="#m0d5101e801" y="235.32475"/>
     <use style="fill:#1f77b4;stroke:#1f77b4;" x="198.349835" xlink:href="#m0d5101e801" y="171.216636"/>
     <use style="fill:#1f77b4;stroke:#1f77b4;" x="163.632685" xlink:href="#m0d5101e801" y="194.333381"/>
     <use style="fill:#1f77b4;stroke:#1f77b4;" x="89.978995" xlink:href="#m0d5101e801" y="232.426689"/>
     <use style="fill:#1f77b4;stroke:#1f77b4;" x="104.866758" xlink:href="#m0d5101e801" y="230.424413"/>
     <use style="fill:#1f77b4;stroke:#1f77b4;" x="77.647105" xlink:href="#m0d5101e801" y="239.955326"/>
     <use style="fill:#1f77b4;stroke:#1f77b4;" x="145.110267" xlink:href="#m0d5101e801" y="219.889429"/>
     <use style="fill:#1f77b4;stroke:#1f77b4;" x="373.581818" xlink:href="#m0d5101e801" y="60.655652"/>
     <use style="fill:#1f77b4;stroke:#1f77b4;" x="75.282909" xlink:href="#m0d5101e801" y="235.548073"/>
     <use style="fill:#1f77b4;stroke:#1f77b4;" x="216.658623" xlink:href="#m0d5101e801" y="207.823803"/>
     <use style="fill:#1f77b4;stroke:#1f77b4;" x="88.409098" xlink:href="#m0d5101e801" y="233.762059"/>
     <use style="fill:#1f77b4;stroke:#1f77b4;" x="205.105015" xlink:href="#m0d5101e801" y="110.362402"/>
     <use style="fill:#1f77b4;stroke:#1f77b4;" x="70.185978" xlink:href="#m0d5101e801" y="240.615059"/>
     <use style="fill:#1f77b4;stroke:#1f77b4;" x="223.562121" xlink:href="#m0d5101e801" y="150.501818"/>
     <use style="fill:#1f77b4;stroke:#1f77b4;" x="112.094931" xlink:href="#m0d5101e801" y="214.138511"/>
     <use style="fill:#1f77b4;stroke:#1f77b4;" x="94.715881" xlink:href="#m0d5101e801" y="230.443889"/>
     <use style="fill:#1f77b4;stroke:#1f77b4;" x="76.391024" xlink:href="#m0d5101e801" y="219.326927"/>
     <use style="fill:#1f77b4;stroke:#1f77b4;" x="82.264481" xlink:href="#m0d5101e801" y="211.744467"/>
     <use style="fill:#1f77b4;stroke:#1f77b4;" x="321.631165" xlink:href="#m0d5101e801" y="236.747819"/>
     <use style="fill:#1f77b4;stroke:#1f77b4;" x="104.5121" xlink:href="#m0d5101e801" y="67.670375"/>
     <use style="fill:#1f77b4;stroke:#1f77b4;" x="105.865967" xlink:href="#m0d5101e801" y="240.830665"/>
     <use style="fill:#1f77b4;stroke:#1f77b4;" x="70.912305" xlink:href="#m0d5101e801" y="241.993784"/>
     <use style="fill:#1f77b4;stroke:#1f77b4;" x="150.672857" xlink:href="#m0d5101e801" y="214.947406"/>
     <use style="fill:#1f77b4;stroke:#1f77b4;" x="75.581036" xlink:href="#m0d5101e801" y="234.566101"/>
     <use style="fill:#1f77b4;stroke:#1f77b4;" x="72.933317" xlink:href="#m0d5101e801" y="237.920516"/>
     <use style="fill:#1f77b4;stroke:#1f77b4;" x="97.402619" xlink:href="#m0d5101e801" y="160.569584"/>
     <use style="fill:#1f77b4;stroke:#1f77b4;" x="139.589936" xlink:href="#m0d5101e801" y="145.167385"/>
     <use style="fill:#1f77b4;stroke:#1f77b4;" x="123.348258" xlink:href="#m0d5101e801" y="212.9682"/>
     <use style="fill:#1f77b4;stroke:#1f77b4;" x="100.664235" xlink:href="#m0d5101e801" y="211.018633"/>
     <use style="fill:#1f77b4;stroke:#1f77b4;" x="111.686642" xlink:href="#m0d5101e801" y="226.013979"/>
     <use style="fill:#1f77b4;stroke:#1f77b4;" x="83.307351" xlink:href="#m0d5101e801" y="231.733133"/>
     <use style="fill:#1f77b4;stroke:#1f77b4;" x="81.799931" xlink:href="#m0d5101e801" y="202.881377"/>
     <use style="fill:#1f77b4;stroke:#1f77b4;" x="100.121009" xlink:href="#m0d5101e801" y="199.131442"/>
     <use style="fill:#1f77b4;stroke:#1f77b4;" x="198.470084" xlink:href="#m0d5101e801" y="85.2753"/>
     <use style="fill:#1f77b4;stroke:#1f77b4;" x="81.626722" xlink:href="#m0d5101e801" y="195.565179"/>
     <use style="fill:#1f77b4;stroke:#1f77b4;" x="190.646723" xlink:href="#m0d5101e801" y="70.284395"/>
     <use style="fill:#1f77b4;stroke:#1f77b4;" x="95.882131" xlink:href="#m0d5101e801" y="236.895926"/>
     <use style="fill:#1f77b4;stroke:#1f77b4;" x="100.836245" xlink:href="#m0d5101e801" y="239.596773"/>
     <use style="fill:#1f77b4;stroke:#1f77b4;" x="83.023549" xlink:href="#m0d5101e801" y="211.85624"/>
     <use style="fill:#1f77b4;stroke:#1f77b4;" x="69.218182" xlink:href="#m0d5101e801" y="222.393271"/>
     <use style="fill:#1f77b4;stroke:#1f77b4;" x="72.319445" xlink:href="#m0d5101e801" y="228.29004"/>
     <use style="fill:#1f77b4;stroke:#1f77b4;" x="175.970019" xlink:href="#m0d5101e801" y="188.36913"/>
     <use style="fill:#1f77b4;stroke:#1f77b4;" x="70.542369" xlink:href="#m0d5101e801" y="232.148365"/>
     <use style="fill:#1f77b4;stroke:#1f77b4;" x="133.90708" xlink:href="#m0d5101e801" y="225.505238"/>
     <use style="fill:#1f77b4;stroke:#1f77b4;" x="79.073519" xlink:href="#m0d5101e801" y="238.548972"/>
     <use style="fill:#1f77b4;stroke:#1f77b4;" x="101.586855" xlink:href="#m0d5101e801" y="216.375457"/>
     <use style="fill:#1f77b4;stroke:#1f77b4;" x="178.487162" xlink:href="#m0d5101e801" y="113.73512"/>
     <use style="fill:#1f77b4;stroke:#1f77b4;" x="183.651184" xlink:href="#m0d5101e801" y="210.553614"/>
     <use style="fill:#1f77b4;stroke:#1f77b4;" x="79.837229" xlink:href="#m0d5101e801" y="241.276448"/>
     <use style="fill:#1f77b4;stroke:#1f77b4;" x="119.145112" xlink:href="#m0d5101e801" y="172.972846"/>
     <use style="fill:#1f77b4;stroke:#1f77b4;" x="102.354709" xlink:href="#m0d5101e801" y="224.880395"/>
     <use style="fill:#1f77b4;stroke:#1f77b4;" x="73.192824" xlink:href="#m0d5101e801" y="236.514169"/>
    </g>
   </g>
   <g id="patch_3">
    <path d="M 54 252 
L 54 34.56 
" style="fill:none;stroke:#000000;stroke-linecap:square;stroke-linejoin:miter;stroke-width:0.8;"/>
   </g>
   <g id="patch_4">
    <path d="M 388.8 252 
L 388.8 34.56 
" style="fill:none;stroke:#000000;stroke-linecap:square;stroke-linejoin:miter;stroke-width:0.8;"/>
   </g>
   <g id="patch_5">
    <path d="M 54 252 
L 388.8 252 
" style="fill:none;stroke:#000000;stroke-linecap:square;stroke-linejoin:miter;stroke-width:0.8;"/>
   </g>
   <g id="patch_6">
    <path d="M 54 34.56 
L 388.8 34.56 
" style="fill:none;stroke:#000000;stroke-linecap:square;stroke-linejoin:miter;stroke-width:0.8;"/>
   </g>
   <g id="text_20">
    <!-- (0.6783932725507932, 7.4847447823421235e-19) -->
    <defs>
     <path d="M 31 75.875 
Q 24.46875 64.65625 21.28125 53.65625 
Q 18.109375 42.671875 18.109375 31.390625 
Q 18.109375 20.125 21.3125 9.0625 
Q 24.515625 -2 31 -13.1875 
L 23.1875 -13.1875 
Q 15.875 -1.703125 12.234375 9.375 
Q 8.59375 20.453125 8.59375 31.390625 
Q 8.59375 42.28125 12.203125 53.3125 
Q 15.828125 64.359375 23.1875 75.875 
z
" id="DejaVuSans-28"/>
     <path d="M 40.578125 39.3125 
Q 47.65625 37.796875 51.625 33 
Q 55.609375 28.21875 55.609375 21.1875 
Q 55.609375 10.40625 48.1875 4.484375 
Q 40.765625 -1.421875 27.09375 -1.421875 
Q 22.515625 -1.421875 17.65625 -0.515625 
Q 12.796875 0.390625 7.625 2.203125 
L 7.625 11.71875 
Q 11.71875 9.328125 16.59375 8.109375 
Q 21.484375 6.890625 26.8125 6.890625 
Q 36.078125 6.890625 40.9375 10.546875 
Q 45.796875 14.203125 45.796875 21.1875 
Q 45.796875 27.640625 41.28125 31.265625 
Q 36.765625 34.90625 28.71875 34.90625 
L 20.21875 34.90625 
L 20.21875 43.015625 
L 29.109375 43.015625 
Q 36.375 43.015625 40.234375 45.921875 
Q 44.09375 48.828125 44.09375 54.296875 
Q 44.09375 59.90625 40.109375 62.90625 
Q 36.140625 65.921875 28.71875 65.921875 
Q 24.65625 65.921875 20.015625 65.03125 
Q 15.375 64.15625 9.8125 62.3125 
L 9.8125 71.09375 
Q 15.4375 72.65625 20.34375 73.4375 
Q 25.25 74.21875 29.59375 74.21875 
Q 40.828125 74.21875 47.359375 69.109375 
Q 53.90625 64.015625 53.90625 55.328125 
Q 53.90625 49.265625 50.4375 45.09375 
Q 46.96875 40.921875 40.578125 39.3125 
z
" id="DejaVuSans-33"/>
     <path d="M 10.984375 1.515625 
L 10.984375 10.5 
Q 14.703125 8.734375 18.5 7.8125 
Q 22.3125 6.890625 25.984375 6.890625 
Q 35.75 6.890625 40.890625 13.453125 
Q 46.046875 20.015625 46.78125 33.40625 
Q 43.953125 29.203125 39.59375 26.953125 
Q 35.25 24.703125 29.984375 24.703125 
Q 19.046875 24.703125 12.671875 31.3125 
Q 6.296875 37.9375 6.296875 49.421875 
Q 6.296875 60.640625 12.9375 67.421875 
Q 19.578125 74.21875 30.609375 74.21875 
Q 43.265625 74.21875 49.921875 64.515625 
Q 56.59375 54.828125 56.59375 36.375 
Q 56.59375 19.140625 48.40625 8.859375 
Q 40.234375 -1.421875 26.421875 -1.421875 
Q 22.703125 -1.421875 18.890625 -0.6875 
Q 15.09375 0.046875 10.984375 1.515625 
z
M 30.609375 32.421875 
Q 37.25 32.421875 41.125 36.953125 
Q 45.015625 41.5 45.015625 49.421875 
Q 45.015625 57.28125 41.125 61.84375 
Q 37.25 66.40625 30.609375 66.40625 
Q 23.96875 66.40625 20.09375 61.84375 
Q 16.21875 57.28125 16.21875 49.421875 
Q 16.21875 41.5 20.09375 36.953125 
Q 23.96875 32.421875 30.609375 32.421875 
z
" id="DejaVuSans-39"/>
     <path d="M 11.71875 12.40625 
L 22.015625 12.40625 
L 22.015625 4 
L 14.015625 -11.625 
L 7.71875 -11.625 
L 11.71875 4 
z
" id="DejaVuSans-2c"/>
     <path d="M 8.015625 75.875 
L 15.828125 75.875 
Q 23.140625 64.359375 26.78125 53.3125 
Q 30.421875 42.28125 30.421875 31.390625 
Q 30.421875 20.453125 26.78125 9.375 
Q 23.140625 -1.703125 15.828125 -13.1875 
L 8.015625 -13.1875 
Q 14.5 -2 17.703125 9.0625 
Q 20.90625 20.125 20.90625 31.390625 
Q 20.90625 42.671875 17.703125 53.65625 
Q 14.5 64.65625 8.015625 75.875 
z
" id="DejaVuSans-29"/>
    </defs>
    <g transform="translate(62.701887 242.901541)scale(0.1 -0.1)">
     <use xlink:href="#DejaVuSans-28"/>
     <use x="39.013672" xlink:href="#DejaVuSans-30"/>
     <use x="102.636719" xlink:href="#DejaVuSans-2e"/>
     <use x="134.423828" xlink:href="#DejaVuSans-36"/>
     <use x="198.046875" xlink:href="#DejaVuSans-37"/>
     <use x="261.669922" xlink:href="#DejaVuSans-38"/>
     <use x="325.292969" xlink:href="#DejaVuSans-33"/>
     <use x="388.916016" xlink:href="#DejaVuSans-39"/>
     <use x="452.539062" xlink:href="#DejaVuSans-33"/>
     <use x="516.162109" xlink:href="#DejaVuSans-32"/>
     <use x="579.785156" xlink:href="#DejaVuSans-37"/>
     <use x="643.408203" xlink:href="#DejaVuSans-32"/>
     <use x="707.03125" xlink:href="#DejaVuSans-35"/>
     <use x="770.654297" xlink:href="#DejaVuSans-35"/>
     <use x="834.277344" xlink:href="#DejaVuSans-30"/>
     <use x="897.900391" xlink:href="#DejaVuSans-37"/>
     <use x="961.523438" xlink:href="#DejaVuSans-39"/>
     <use x="1025.146484" xlink:href="#DejaVuSans-33"/>
     <use x="1088.769531" xlink:href="#DejaVuSans-32"/>
     <use x="1152.392578" xlink:href="#DejaVuSans-2c"/>
     <use x="1184.179688" xlink:href="#DejaVuSans-20"/>
     <use x="1215.966797" xlink:href="#DejaVuSans-37"/>
     <use x="1279.589844" xlink:href="#DejaVuSans-2e"/>
     <use x="1311.376953" xlink:href="#DejaVuSans-34"/>
     <use x="1375" xlink:href="#DejaVuSans-38"/>
     <use x="1438.623047" xlink:href="#DejaVuSans-34"/>
     <use x="1502.246094" xlink:href="#DejaVuSans-37"/>
     <use x="1565.869141" xlink:href="#DejaVuSans-34"/>
     <use x="1629.492188" xlink:href="#DejaVuSans-34"/>
     <use x="1693.115234" xlink:href="#DejaVuSans-37"/>
     <use x="1756.738281" xlink:href="#DejaVuSans-38"/>
     <use x="1820.361328" xlink:href="#DejaVuSans-32"/>
     <use x="1883.984375" xlink:href="#DejaVuSans-33"/>
     <use x="1947.607422" xlink:href="#DejaVuSans-34"/>
     <use x="2011.230469" xlink:href="#DejaVuSans-32"/>
     <use x="2074.853516" xlink:href="#DejaVuSans-31"/>
     <use x="2138.476562" xlink:href="#DejaVuSans-32"/>
     <use x="2202.099609" xlink:href="#DejaVuSans-33"/>
     <use x="2265.722656" xlink:href="#DejaVuSans-35"/>
     <use x="2329.345703" xlink:href="#DejaVuSans-65"/>
     <use x="2390.869141" xlink:href="#DejaVuSans-2d"/>
     <use x="2426.953125" xlink:href="#DejaVuSans-31"/>
     <use x="2490.576172" xlink:href="#DejaVuSans-39"/>
     <use x="2554.199219" xlink:href="#DejaVuSans-29"/>
    </g>
   </g>
   <g id="text_21">
    <!-- Correlation of simulated and experimental cross-peak intensities -->
    <defs>
     <path d="M 64.40625 67.28125 
L 64.40625 56.890625 
Q 59.421875 61.53125 53.78125 63.8125 
Q 48.140625 66.109375 41.796875 66.109375 
Q 29.296875 66.109375 22.65625 58.46875 
Q 16.015625 50.828125 16.015625 36.375 
Q 16.015625 21.96875 22.65625 14.328125 
Q 29.296875 6.6875 41.796875 6.6875 
Q 48.140625 6.6875 53.78125 8.984375 
Q 59.421875 11.28125 64.40625 15.921875 
L 64.40625 5.609375 
Q 59.234375 2.09375 53.4375 0.328125 
Q 47.65625 -1.421875 41.21875 -1.421875 
Q 24.65625 -1.421875 15.125 8.703125 
Q 5.609375 18.84375 5.609375 36.375 
Q 5.609375 53.953125 15.125 64.078125 
Q 24.65625 74.21875 41.21875 74.21875 
Q 47.75 74.21875 53.53125 72.484375 
Q 59.328125 70.75 64.40625 67.28125 
z
" id="DejaVuSans-43"/>
     <path d="M 37.109375 75.984375 
L 37.109375 68.5 
L 28.515625 68.5 
Q 23.6875 68.5 21.796875 66.546875 
Q 19.921875 64.59375 19.921875 59.515625 
L 19.921875 54.6875 
L 34.71875 54.6875 
L 34.71875 47.703125 
L 19.921875 47.703125 
L 19.921875 0 
L 10.890625 0 
L 10.890625 47.703125 
L 2.296875 47.703125 
L 2.296875 54.6875 
L 10.890625 54.6875 
L 10.890625 58.5 
Q 10.890625 67.625 15.140625 71.796875 
Q 19.390625 75.984375 28.609375 75.984375 
z
" id="DejaVuSans-66"/>
    </defs>
    <g transform="translate(26.571562 15.122625)scale(0.12 -0.12)">
     <use xlink:href="#DejaVuSans-43"/>
     <use x="69.824219" xlink:href="#DejaVuSans-6f"/>
     <use x="131.005859" xlink:href="#DejaVuSans-72"/>
     <use x="172.103516" xlink:href="#DejaVuSans-72"/>
     <use x="213.185547" xlink:href="#DejaVuSans-65"/>
     <use x="274.708984" xlink:href="#DejaVuSans-6c"/>
     <use x="302.492188" xlink:href="#DejaVuSans-61"/>
     <use x="363.771484" xlink:href="#DejaVuSans-74"/>
     <use x="402.980469" xlink:href="#DejaVuSans-69"/>
     <use x="430.763672" xlink:href="#DejaVuSans-6f"/>
     <use x="491.945312" xlink:href="#DejaVuSans-6e"/>
     <use x="555.324219" xlink:href="#DejaVuSans-20"/>
     <use x="587.111328" xlink:href="#DejaVuSans-6f"/>
     <use x="648.292969" xlink:href="#DejaVuSans-66"/>
     <use x="683.498047" xlink:href="#DejaVuSans-20"/>
     <use x="715.285156" xlink:href="#DejaVuSans-73"/>
     <use x="767.384766" xlink:href="#DejaVuSans-69"/>
     <use x="795.167969" xlink:href="#DejaVuSans-6d"/>
     <use x="892.580078" xlink:href="#DejaVuSans-75"/>
     <use x="955.958984" xlink:href="#DejaVuSans-6c"/>
     <use x="983.742188" xlink:href="#DejaVuSans-61"/>
     <use x="1045.021484" xlink:href="#DejaVuSans-74"/>
     <use x="1084.230469" xlink:href="#DejaVuSans-65"/>
     <use x="1145.753906" xlink:href="#DejaVuSans-64"/>
     <use x="1209.230469" xlink:href="#DejaVuSans-20"/>
     <use x="1241.017578" xlink:href="#DejaVuSans-61"/>
     <use x="1302.296875" xlink:href="#DejaVuSans-6e"/>
     <use x="1365.675781" xlink:href="#DejaVuSans-64"/>
     <use x="1429.152344" xlink:href="#DejaVuSans-20"/>
     <use x="1460.939453" xlink:href="#DejaVuSans-65"/>
     <use x="1522.447266" xlink:href="#DejaVuSans-78"/>
     <use x="1581.626953" xlink:href="#DejaVuSans-70"/>
     <use x="1645.103516" xlink:href="#DejaVuSans-65"/>
     <use x="1706.626953" xlink:href="#DejaVuSans-72"/>
     <use x="1747.740234" xlink:href="#DejaVuSans-69"/>
     <use x="1775.523438" xlink:href="#DejaVuSans-6d"/>
     <use x="1872.935547" xlink:href="#DejaVuSans-65"/>
     <use x="1934.458984" xlink:href="#DejaVuSans-6e"/>
     <use x="1997.837891" xlink:href="#DejaVuSans-74"/>
     <use x="2037.046875" xlink:href="#DejaVuSans-61"/>
     <use x="2098.326172" xlink:href="#DejaVuSans-6c"/>
     <use x="2126.109375" xlink:href="#DejaVuSans-20"/>
     <use x="2157.896484" xlink:href="#DejaVuSans-63"/>
     <use x="2212.876953" xlink:href="#DejaVuSans-72"/>
     <use x="2253.958984" xlink:href="#DejaVuSans-6f"/>
     <use x="2315.140625" xlink:href="#DejaVuSans-73"/>
     <use x="2367.240234" xlink:href="#DejaVuSans-73"/>
     <use x="2419.339844" xlink:href="#DejaVuSans-2d"/>
     <use x="2455.423828" xlink:href="#DejaVuSans-70"/>
     <use x="2518.900391" xlink:href="#DejaVuSans-65"/>
     <use x="2580.423828" xlink:href="#DejaVuSans-61"/>
     <use x="2641.703125" xlink:href="#DejaVuSans-6b"/>
     <use x="2699.613281" xlink:href="#DejaVuSans-20"/>
     <use x="2731.400391" xlink:href="#DejaVuSans-69"/>
     <use x="2759.183594" xlink:href="#DejaVuSans-6e"/>
     <use x="2822.5625" xlink:href="#DejaVuSans-74"/>
     <use x="2861.771484" xlink:href="#DejaVuSans-65"/>
     <use x="2923.294922" xlink:href="#DejaVuSans-6e"/>
     <use x="2986.673828" xlink:href="#DejaVuSans-73"/>
     <use x="3038.773438" xlink:href="#DejaVuSans-69"/>
     <use x="3066.556641" xlink:href="#DejaVuSans-74"/>
     <use x="3105.765625" xlink:href="#DejaVuSans-69"/>
     <use x="3133.548828" xlink:href="#DejaVuSans-65"/>
     <use x="3195.072266" xlink:href="#DejaVuSans-73"/>
    </g>
    <!-- Sampling rate = 2000 -->
    <defs>
     <path d="M 45.40625 27.984375 
Q 45.40625 37.75 41.375 43.109375 
Q 37.359375 48.484375 30.078125 48.484375 
Q 22.859375 48.484375 18.828125 43.109375 
Q 14.796875 37.75 14.796875 27.984375 
Q 14.796875 18.265625 18.828125 12.890625 
Q 22.859375 7.515625 30.078125 7.515625 
Q 37.359375 7.515625 41.375 12.890625 
Q 45.40625 18.265625 45.40625 27.984375 
z
M 54.390625 6.78125 
Q 54.390625 -7.171875 48.1875 -13.984375 
Q 42 -20.796875 29.203125 -20.796875 
Q 24.46875 -20.796875 20.265625 -20.09375 
Q 16.0625 -19.390625 12.109375 -17.921875 
L 12.109375 -9.1875 
Q 16.0625 -11.328125 19.921875 -12.34375 
Q 23.78125 -13.375 27.78125 -13.375 
Q 36.625 -13.375 41.015625 -8.765625 
Q 45.40625 -4.15625 45.40625 5.171875 
L 45.40625 9.625 
Q 42.625 4.78125 38.28125 2.390625 
Q 33.9375 0 27.875 0 
Q 17.828125 0 11.671875 7.65625 
Q 5.515625 15.328125 5.515625 27.984375 
Q 5.515625 40.671875 11.671875 48.328125 
Q 17.828125 56 27.875 56 
Q 33.9375 56 38.28125 53.609375 
Q 42.625 51.21875 45.40625 46.390625 
L 45.40625 54.6875 
L 54.390625 54.6875 
z
" id="DejaVuSans-67"/>
     <path d="M 10.59375 45.40625 
L 73.1875 45.40625 
L 73.1875 37.203125 
L 10.59375 37.203125 
z
M 10.59375 25.484375 
L 73.1875 25.484375 
L 73.1875 17.1875 
L 10.59375 17.1875 
z
" id="DejaVuSans-3d"/>
    </defs>
    <g transform="translate(155.109375 28.56)scale(0.12 -0.12)">
     <use xlink:href="#DejaVuSans-53"/>
     <use x="63.476562" xlink:href="#DejaVuSans-61"/>
     <use x="124.755859" xlink:href="#DejaVuSans-6d"/>
     <use x="222.167969" xlink:href="#DejaVuSans-70"/>
     <use x="285.644531" xlink:href="#DejaVuSans-6c"/>
     <use x="313.427734" xlink:href="#DejaVuSans-69"/>
     <use x="341.210938" xlink:href="#DejaVuSans-6e"/>
     <use x="404.589844" xlink:href="#DejaVuSans-67"/>
     <use x="468.066406" xlink:href="#DejaVuSans-20"/>
     <use x="499.853516" xlink:href="#DejaVuSans-72"/>
     <use x="540.966797" xlink:href="#DejaVuSans-61"/>
     <use x="602.246094" xlink:href="#DejaVuSans-74"/>
     <use x="641.455078" xlink:href="#DejaVuSans-65"/>
     <use x="702.978516" xlink:href="#DejaVuSans-20"/>
     <use x="734.765625" xlink:href="#DejaVuSans-3d"/>
     <use x="818.554688" xlink:href="#DejaVuSans-20"/>
     <use x="850.341797" xlink:href="#DejaVuSans-32"/>
     <use x="913.964844" xlink:href="#DejaVuSans-30"/>
     <use x="977.587891" xlink:href="#DejaVuSans-30"/>
     <use x="1041.210938" xlink:href="#DejaVuSans-30"/>
    </g>
   </g>
  </g>
 </g>
 <defs>
  <clipPath id="pbbc9b697fe">
   <rect height="217.44" width="334.8" x="54" y="34.56"/>
  </clipPath>
 </defs>
</svg>
