<?xml version="1.0" encoding="utf-8" standalone="no"?>
<!DOCTYPE svg PUBLIC "-//W3C//DTD SVG 1.1//EN"
  "http://www.w3.org/Graphics/SVG/1.1/DTD/svg11.dtd">
<!-- Created with matplotlib (http://matplotlib.org/) -->
<svg height="288pt" version="1.1" viewBox="0 0 432 288" width="432pt" xmlns="http://www.w3.org/2000/svg" xmlns:xlink="http://www.w3.org/1999/xlink">
 <defs>
  <style type="text/css">
*{stroke-linecap:butt;stroke-linejoin:round;}
  </style>
 </defs>
 <g id="figure_1">
  <g id="patch_1">
   <path d="M 0 288 
L 432 288 
L 432 0 
L 0 0 
z
" style="fill:#ffffff;"/>
  </g>
  <g id="axes_1">
   <g id="patch_2">
    <path d="M 54 252 
L 388.8 252 
L 388.8 34.56 
L 54 34.56 
z
" style="fill:#ffffff;"/>
   </g>
   <g id="matplotlib.axis_1">
    <g id="xtick_1">
     <g id="line2d_1">
      <defs>
       <path d="M 0 0 
L 0 3.5 
" id="m5a043825aa" style="stroke:#000000;stroke-width:0.8;"/>
      </defs>
      <g>
       <use style="stroke:#000000;stroke-width:0.8;" x="93.00027" xlink:href="#m5a043825aa" y="252"/>
      </g>
     </g>
     <g id="text_1">
      <!-- 4 -->
      <defs>
       <path d="M 37.796875 64.3125 
L 12.890625 25.390625 
L 37.796875 25.390625 
z
M 35.203125 72.90625 
L 47.609375 72.90625 
L 47.609375 25.390625 
L 58.015625 25.390625 
L 58.015625 17.1875 
L 47.609375 17.1875 
L 47.609375 0 
L 37.796875 0 
L 37.796875 17.1875 
L 4.890625 17.1875 
L 4.890625 26.703125 
z
" id="DejaVuSans-34"/>
      </defs>
      <g transform="translate(89.81902 266.598437)scale(0.1 -0.1)">
       <use xlink:href="#DejaVuSans-34"/>
      </g>
     </g>
    </g>
    <g id="xtick_2">
     <g id="line2d_2">
      <g>
       <use style="stroke:#000000;stroke-width:0.8;" x="148.23897" xlink:href="#m5a043825aa" y="252"/>
      </g>
     </g>
     <g id="text_2">
      <!-- 5 -->
      <defs>
       <path d="M 10.796875 72.90625 
L 49.515625 72.90625 
L 49.515625 64.59375 
L 19.828125 64.59375 
L 19.828125 46.734375 
Q 21.96875 47.46875 24.109375 47.828125 
Q 26.265625 48.1875 28.421875 48.1875 
Q 40.625 48.1875 47.75 41.5 
Q 54.890625 34.8125 54.890625 23.390625 
Q 54.890625 11.625 47.5625 5.09375 
Q 40.234375 -1.421875 26.90625 -1.421875 
Q 22.3125 -1.421875 17.546875 -0.640625 
Q 12.796875 0.140625 7.71875 1.703125 
L 7.71875 11.625 
Q 12.109375 9.234375 16.796875 8.0625 
Q 21.484375 6.890625 26.703125 6.890625 
Q 35.15625 6.890625 40.078125 11.328125 
Q 45.015625 15.765625 45.015625 23.390625 
Q 45.015625 31 40.078125 35.4375 
Q 35.15625 39.890625 26.703125 39.890625 
Q 22.75 39.890625 18.8125 39.015625 
Q 14.890625 38.140625 10.796875 36.28125 
z
" id="DejaVuSans-35"/>
      </defs>
      <g transform="translate(145.05772 266.598437)scale(0.1 -0.1)">
       <use xlink:href="#DejaVuSans-35"/>
      </g>
     </g>
    </g>
    <g id="xtick_3">
     <g id="line2d_3">
      <g>
       <use style="stroke:#000000;stroke-width:0.8;" x="203.47767" xlink:href="#m5a043825aa" y="252"/>
      </g>
     </g>
     <g id="text_3">
      <!-- 6 -->
      <defs>
       <path d="M 33.015625 40.375 
Q 26.375 40.375 22.484375 35.828125 
Q 18.609375 31.296875 18.609375 23.390625 
Q 18.609375 15.53125 22.484375 10.953125 
Q 26.375 6.390625 33.015625 6.390625 
Q 39.65625 6.390625 43.53125 10.953125 
Q 47.40625 15.53125 47.40625 23.390625 
Q 47.40625 31.296875 43.53125 35.828125 
Q 39.65625 40.375 33.015625 40.375 
z
M 52.59375 71.296875 
L 52.59375 62.3125 
Q 48.875 64.0625 45.09375 64.984375 
Q 41.3125 65.921875 37.59375 65.921875 
Q 27.828125 65.921875 22.671875 59.328125 
Q 17.53125 52.734375 16.796875 39.40625 
Q 19.671875 43.65625 24.015625 45.921875 
Q 28.375 48.1875 33.59375 48.1875 
Q 44.578125 48.1875 50.953125 41.515625 
Q 57.328125 34.859375 57.328125 23.390625 
Q 57.328125 12.15625 50.6875 5.359375 
Q 44.046875 -1.421875 33.015625 -1.421875 
Q 20.359375 -1.421875 13.671875 8.265625 
Q 6.984375 17.96875 6.984375 36.375 
Q 6.984375 53.65625 15.1875 63.9375 
Q 23.390625 74.21875 37.203125 74.21875 
Q 40.921875 74.21875 44.703125 73.484375 
Q 48.484375 72.75 52.59375 71.296875 
z
" id="DejaVuSans-36"/>
      </defs>
      <g transform="translate(200.29642 266.598437)scale(0.1 -0.1)">
       <use xlink:href="#DejaVuSans-36"/>
      </g>
     </g>
    </g>
    <g id="xtick_4">
     <g id="line2d_4">
      <g>
       <use style="stroke:#000000;stroke-width:0.8;" x="258.71637" xlink:href="#m5a043825aa" y="252"/>
      </g>
     </g>
     <g id="text_4">
      <!-- 7 -->
      <defs>
       <path d="M 8.203125 72.90625 
L 55.078125 72.90625 
L 55.078125 68.703125 
L 28.609375 0 
L 18.3125 0 
L 43.21875 64.59375 
L 8.203125 64.59375 
z
" id="DejaVuSans-37"/>
      </defs>
      <g transform="translate(255.53512 266.598437)scale(0.1 -0.1)">
       <use xlink:href="#DejaVuSans-37"/>
      </g>
     </g>
    </g>
    <g id="xtick_5">
     <g id="line2d_5">
      <g>
       <use style="stroke:#000000;stroke-width:0.8;" x="313.955071" xlink:href="#m5a043825aa" y="252"/>
      </g>
     </g>
     <g id="text_5">
      <!-- 8 -->
      <defs>
       <path d="M 31.78125 34.625 
Q 24.75 34.625 20.71875 30.859375 
Q 16.703125 27.09375 16.703125 20.515625 
Q 16.703125 13.921875 20.71875 10.15625 
Q 24.75 6.390625 31.78125 6.390625 
Q 38.8125 6.390625 42.859375 10.171875 
Q 46.921875 13.96875 46.921875 20.515625 
Q 46.921875 27.09375 42.890625 30.859375 
Q 38.875 34.625 31.78125 34.625 
z
M 21.921875 38.8125 
Q 15.578125 40.375 12.03125 44.71875 
Q 8.5 49.078125 8.5 55.328125 
Q 8.5 64.0625 14.71875 69.140625 
Q 20.953125 74.21875 31.78125 74.21875 
Q 42.671875 74.21875 48.875 69.140625 
Q 55.078125 64.0625 55.078125 55.328125 
Q 55.078125 49.078125 51.53125 44.71875 
Q 48 40.375 41.703125 38.8125 
Q 48.828125 37.15625 52.796875 32.3125 
Q 56.78125 27.484375 56.78125 20.515625 
Q 56.78125 9.90625 50.3125 4.234375 
Q 43.84375 -1.421875 31.78125 -1.421875 
Q 19.734375 -1.421875 13.25 4.234375 
Q 6.78125 9.90625 6.78125 20.515625 
Q 6.78125 27.484375 10.78125 32.3125 
Q 14.796875 37.15625 21.921875 38.8125 
z
M 18.3125 54.390625 
Q 18.3125 48.734375 21.84375 45.5625 
Q 25.390625 42.390625 31.78125 42.390625 
Q 38.140625 42.390625 41.71875 45.5625 
Q 45.3125 48.734375 45.3125 54.390625 
Q 45.3125 60.0625 41.71875 63.234375 
Q 38.140625 66.40625 31.78125 66.40625 
Q 25.390625 66.40625 21.84375 63.234375 
Q 18.3125 60.0625 18.3125 54.390625 
z
" id="DejaVuSans-38"/>
      </defs>
      <g transform="translate(310.773821 266.598437)scale(0.1 -0.1)">
       <use xlink:href="#DejaVuSans-38"/>
      </g>
     </g>
    </g>
    <g id="xtick_6">
     <g id="line2d_6">
      <g>
       <use style="stroke:#000000;stroke-width:0.8;" x="369.193771" xlink:href="#m5a043825aa" y="252"/>
      </g>
     </g>
     <g id="text_6">
      <!-- 9 -->
      <defs>
       <path d="M 10.984375 1.515625 
L 10.984375 10.5 
Q 14.703125 8.734375 18.5 7.8125 
Q 22.3125 6.890625 25.984375 6.890625 
Q 35.75 6.890625 40.890625 13.453125 
Q 46.046875 20.015625 46.78125 33.40625 
Q 43.953125 29.203125 39.59375 26.953125 
Q 35.25 24.703125 29.984375 24.703125 
Q 19.046875 24.703125 12.671875 31.3125 
Q 6.296875 37.9375 6.296875 49.421875 
Q 6.296875 60.640625 12.9375 67.421875 
Q 19.578125 74.21875 30.609375 74.21875 
Q 43.265625 74.21875 49.921875 64.515625 
Q 56.59375 54.828125 56.59375 36.375 
Q 56.59375 19.140625 48.40625 8.859375 
Q 40.234375 -1.421875 26.421875 -1.421875 
Q 22.703125 -1.421875 18.890625 -0.6875 
Q 15.09375 0.046875 10.984375 1.515625 
z
M 30.609375 32.421875 
Q 37.25 32.421875 41.125 36.953125 
Q 45.015625 41.5 45.015625 49.421875 
Q 45.015625 57.28125 41.125 61.84375 
Q 37.25 66.40625 30.609375 66.40625 
Q 23.96875 66.40625 20.09375 61.84375 
Q 16.21875 57.28125 16.21875 49.421875 
Q 16.21875 41.5 20.09375 36.953125 
Q 23.96875 32.421875 30.609375 32.421875 
z
" id="DejaVuSans-39"/>
      </defs>
      <g transform="translate(366.012521 266.598437)scale(0.1 -0.1)">
       <use xlink:href="#DejaVuSans-39"/>
      </g>
     </g>
    </g>
    <g id="text_7">
     <!-- Distance/Angstroms -->
     <defs>
      <path d="M 19.671875 64.796875 
L 19.671875 8.109375 
L 31.59375 8.109375 
Q 46.6875 8.109375 53.6875 14.9375 
Q 60.6875 21.78125 60.6875 36.53125 
Q 60.6875 51.171875 53.6875 57.984375 
Q 46.6875 64.796875 31.59375 64.796875 
z
M 9.8125 72.90625 
L 30.078125 72.90625 
Q 51.265625 72.90625 61.171875 64.09375 
Q 71.09375 55.28125 71.09375 36.53125 
Q 71.09375 17.671875 61.125 8.828125 
Q 51.171875 0 30.078125 0 
L 9.8125 0 
z
" id="DejaVuSans-44"/>
      <path d="M 9.421875 54.6875 
L 18.40625 54.6875 
L 18.40625 0 
L 9.421875 0 
z
M 9.421875 75.984375 
L 18.40625 75.984375 
L 18.40625 64.59375 
L 9.421875 64.59375 
z
" id="DejaVuSans-69"/>
      <path d="M 44.28125 53.078125 
L 44.28125 44.578125 
Q 40.484375 46.53125 36.375 47.5 
Q 32.28125 48.484375 27.875 48.484375 
Q 21.1875 48.484375 17.84375 46.4375 
Q 14.5 44.390625 14.5 40.28125 
Q 14.5 37.15625 16.890625 35.375 
Q 19.28125 33.59375 26.515625 31.984375 
L 29.59375 31.296875 
Q 39.15625 29.25 43.1875 25.515625 
Q 47.21875 21.78125 47.21875 15.09375 
Q 47.21875 7.46875 41.1875 3.015625 
Q 35.15625 -1.421875 24.609375 -1.421875 
Q 20.21875 -1.421875 15.453125 -0.5625 
Q 10.6875 0.296875 5.421875 2 
L 5.421875 11.28125 
Q 10.40625 8.6875 15.234375 7.390625 
Q 20.0625 6.109375 24.8125 6.109375 
Q 31.15625 6.109375 34.5625 8.28125 
Q 37.984375 10.453125 37.984375 14.40625 
Q 37.984375 18.0625 35.515625 20.015625 
Q 33.0625 21.96875 24.703125 23.78125 
L 21.578125 24.515625 
Q 13.234375 26.265625 9.515625 29.90625 
Q 5.8125 33.546875 5.8125 39.890625 
Q 5.8125 47.609375 11.28125 51.796875 
Q 16.75 56 26.8125 56 
Q 31.78125 56 36.171875 55.265625 
Q 40.578125 54.546875 44.28125 53.078125 
z
" id="DejaVuSans-73"/>
      <path d="M 18.3125 70.21875 
L 18.3125 54.6875 
L 36.8125 54.6875 
L 36.8125 47.703125 
L 18.3125 47.703125 
L 18.3125 18.015625 
Q 18.3125 11.328125 20.140625 9.421875 
Q 21.96875 7.515625 27.59375 7.515625 
L 36.8125 7.515625 
L 36.8125 0 
L 27.59375 0 
Q 17.1875 0 13.234375 3.875 
Q 9.28125 7.765625 9.28125 18.015625 
L 9.28125 47.703125 
L 2.6875 47.703125 
L 2.6875 54.6875 
L 9.28125 54.6875 
L 9.28125 70.21875 
z
" id="DejaVuSans-74"/>
      <path d="M 34.28125 27.484375 
Q 23.390625 27.484375 19.1875 25 
Q 14.984375 22.515625 14.984375 16.5 
Q 14.984375 11.71875 18.140625 8.90625 
Q 21.296875 6.109375 26.703125 6.109375 
Q 34.1875 6.109375 38.703125 11.40625 
Q 43.21875 16.703125 43.21875 25.484375 
L 43.21875 27.484375 
z
M 52.203125 31.203125 
L 52.203125 0 
L 43.21875 0 
L 43.21875 8.296875 
Q 40.140625 3.328125 35.546875 0.953125 
Q 30.953125 -1.421875 24.3125 -1.421875 
Q 15.921875 -1.421875 10.953125 3.296875 
Q 6 8.015625 6 15.921875 
Q 6 25.140625 12.171875 29.828125 
Q 18.359375 34.515625 30.609375 34.515625 
L 43.21875 34.515625 
L 43.21875 35.40625 
Q 43.21875 41.609375 39.140625 45 
Q 35.0625 48.390625 27.6875 48.390625 
Q 23 48.390625 18.546875 47.265625 
Q 14.109375 46.140625 10.015625 43.890625 
L 10.015625 52.203125 
Q 14.9375 54.109375 19.578125 55.046875 
Q 24.21875 56 28.609375 56 
Q 40.484375 56 46.34375 49.84375 
Q 52.203125 43.703125 52.203125 31.203125 
z
" id="DejaVuSans-61"/>
      <path d="M 54.890625 33.015625 
L 54.890625 0 
L 45.90625 0 
L 45.90625 32.71875 
Q 45.90625 40.484375 42.875 44.328125 
Q 39.84375 48.1875 33.796875 48.1875 
Q 26.515625 48.1875 22.3125 43.546875 
Q 18.109375 38.921875 18.109375 30.90625 
L 18.109375 0 
L 9.078125 0 
L 9.078125 54.6875 
L 18.109375 54.6875 
L 18.109375 46.1875 
Q 21.34375 51.125 25.703125 53.5625 
Q 30.078125 56 35.796875 56 
Q 45.21875 56 50.046875 50.171875 
Q 54.890625 44.34375 54.890625 33.015625 
z
" id="DejaVuSans-6e"/>
      <path d="M 48.78125 52.59375 
L 48.78125 44.1875 
Q 44.96875 46.296875 41.140625 47.34375 
Q 37.3125 48.390625 33.40625 48.390625 
Q 24.65625 48.390625 19.8125 42.84375 
Q 14.984375 37.3125 14.984375 27.296875 
Q 14.984375 17.28125 19.8125 11.734375 
Q 24.65625 6.203125 33.40625 6.203125 
Q 37.3125 6.203125 41.140625 7.25 
Q 44.96875 8.296875 48.78125 10.40625 
L 48.78125 2.09375 
Q 45.015625 0.34375 40.984375 -0.53125 
Q 36.96875 -1.421875 32.421875 -1.421875 
Q 20.0625 -1.421875 12.78125 6.34375 
Q 5.515625 14.109375 5.515625 27.296875 
Q 5.515625 40.671875 12.859375 48.328125 
Q 20.21875 56 33.015625 56 
Q 37.15625 56 41.109375 55.140625 
Q 45.0625 54.296875 48.78125 52.59375 
z
" id="DejaVuSans-63"/>
      <path d="M 56.203125 29.59375 
L 56.203125 25.203125 
L 14.890625 25.203125 
Q 15.484375 15.921875 20.484375 11.0625 
Q 25.484375 6.203125 34.421875 6.203125 
Q 39.59375 6.203125 44.453125 7.46875 
Q 49.3125 8.734375 54.109375 11.28125 
L 54.109375 2.78125 
Q 49.265625 0.734375 44.1875 -0.34375 
Q 39.109375 -1.421875 33.890625 -1.421875 
Q 20.796875 -1.421875 13.15625 6.1875 
Q 5.515625 13.8125 5.515625 26.8125 
Q 5.515625 40.234375 12.765625 48.109375 
Q 20.015625 56 32.328125 56 
Q 43.359375 56 49.78125 48.890625 
Q 56.203125 41.796875 56.203125 29.59375 
z
M 47.21875 32.234375 
Q 47.125 39.59375 43.09375 43.984375 
Q 39.0625 48.390625 32.421875 48.390625 
Q 24.90625 48.390625 20.390625 44.140625 
Q 15.875 39.890625 15.1875 32.171875 
z
" id="DejaVuSans-65"/>
      <path d="M 25.390625 72.90625 
L 33.6875 72.90625 
L 8.296875 -9.28125 
L 0 -9.28125 
z
" id="DejaVuSans-2f"/>
      <path d="M 34.1875 63.1875 
L 20.796875 26.90625 
L 47.609375 26.90625 
z
M 28.609375 72.90625 
L 39.796875 72.90625 
L 67.578125 0 
L 57.328125 0 
L 50.6875 18.703125 
L 17.828125 18.703125 
L 11.1875 0 
L 0.78125 0 
z
" id="DejaVuSans-41"/>
      <path d="M 45.40625 27.984375 
Q 45.40625 37.75 41.375 43.109375 
Q 37.359375 48.484375 30.078125 48.484375 
Q 22.859375 48.484375 18.828125 43.109375 
Q 14.796875 37.75 14.796875 27.984375 
Q 14.796875 18.265625 18.828125 12.890625 
Q 22.859375 7.515625 30.078125 7.515625 
Q 37.359375 7.515625 41.375 12.890625 
Q 45.40625 18.265625 45.40625 27.984375 
z
M 54.390625 6.78125 
Q 54.390625 -7.171875 48.1875 -13.984375 
Q 42 -20.796875 29.203125 -20.796875 
Q 24.46875 -20.796875 20.265625 -20.09375 
Q 16.0625 -19.390625 12.109375 -17.921875 
L 12.109375 -9.1875 
Q 16.0625 -11.328125 19.921875 -12.34375 
Q 23.78125 -13.375 27.78125 -13.375 
Q 36.625 -13.375 41.015625 -8.765625 
Q 45.40625 -4.15625 45.40625 5.171875 
L 45.40625 9.625 
Q 42.625 4.78125 38.28125 2.390625 
Q 33.9375 0 27.875 0 
Q 17.828125 0 11.671875 7.65625 
Q 5.515625 15.328125 5.515625 27.984375 
Q 5.515625 40.671875 11.671875 48.328125 
Q 17.828125 56 27.875 56 
Q 33.9375 56 38.28125 53.609375 
Q 42.625 51.21875 45.40625 46.390625 
L 45.40625 54.6875 
L 54.390625 54.6875 
z
" id="DejaVuSans-67"/>
      <path d="M 41.109375 46.296875 
Q 39.59375 47.171875 37.8125 47.578125 
Q 36.03125 48 33.890625 48 
Q 26.265625 48 22.1875 43.046875 
Q 18.109375 38.09375 18.109375 28.8125 
L 18.109375 0 
L 9.078125 0 
L 9.078125 54.6875 
L 18.109375 54.6875 
L 18.109375 46.1875 
Q 20.953125 51.171875 25.484375 53.578125 
Q 30.03125 56 36.53125 56 
Q 37.453125 56 38.578125 55.875 
Q 39.703125 55.765625 41.0625 55.515625 
z
" id="DejaVuSans-72"/>
      <path d="M 30.609375 48.390625 
Q 23.390625 48.390625 19.1875 42.75 
Q 14.984375 37.109375 14.984375 27.296875 
Q 14.984375 17.484375 19.15625 11.84375 
Q 23.34375 6.203125 30.609375 6.203125 
Q 37.796875 6.203125 41.984375 11.859375 
Q 46.1875 17.53125 46.1875 27.296875 
Q 46.1875 37.015625 41.984375 42.703125 
Q 37.796875 48.390625 30.609375 48.390625 
z
M 30.609375 56 
Q 42.328125 56 49.015625 48.375 
Q 55.71875 40.765625 55.71875 27.296875 
Q 55.71875 13.875 49.015625 6.21875 
Q 42.328125 -1.421875 30.609375 -1.421875 
Q 18.84375 -1.421875 12.171875 6.21875 
Q 5.515625 13.875 5.515625 27.296875 
Q 5.515625 40.765625 12.171875 48.375 
Q 18.84375 56 30.609375 56 
z
" id="DejaVuSans-6f"/>
      <path d="M 52 44.1875 
Q 55.375 50.25 60.0625 53.125 
Q 64.75 56 71.09375 56 
Q 79.640625 56 84.28125 50.015625 
Q 88.921875 44.046875 88.921875 33.015625 
L 88.921875 0 
L 79.890625 0 
L 79.890625 32.71875 
Q 79.890625 40.578125 77.09375 44.375 
Q 74.3125 48.1875 68.609375 48.1875 
Q 61.625 48.1875 57.5625 43.546875 
Q 53.515625 38.921875 53.515625 30.90625 
L 53.515625 0 
L 44.484375 0 
L 44.484375 32.71875 
Q 44.484375 40.625 41.703125 44.40625 
Q 38.921875 48.1875 33.109375 48.1875 
Q 26.21875 48.1875 22.15625 43.53125 
Q 18.109375 38.875 18.109375 30.90625 
L 18.109375 0 
L 9.078125 0 
L 9.078125 54.6875 
L 18.109375 54.6875 
L 18.109375 46.1875 
Q 21.1875 51.21875 25.484375 53.609375 
Q 29.78125 56 35.6875 56 
Q 41.65625 56 45.828125 52.96875 
Q 50 49.953125 52 44.1875 
z
" id="DejaVuSans-6d"/>
     </defs>
     <g transform="translate(170.936719 280.276563)scale(0.1 -0.1)">
      <use xlink:href="#DejaVuSans-44"/>
      <use x="77.001953" xlink:href="#DejaVuSans-69"/>
      <use x="104.785156" xlink:href="#DejaVuSans-73"/>
      <use x="156.884766" xlink:href="#DejaVuSans-74"/>
      <use x="196.09375" xlink:href="#DejaVuSans-61"/>
      <use x="257.373047" xlink:href="#DejaVuSans-6e"/>
      <use x="320.751953" xlink:href="#DejaVuSans-63"/>
      <use x="375.732422" xlink:href="#DejaVuSans-65"/>
      <use x="437.255859" xlink:href="#DejaVuSans-2f"/>
      <use x="470.947266" xlink:href="#DejaVuSans-41"/>
      <use x="539.355469" xlink:href="#DejaVuSans-6e"/>
      <use x="602.734375" xlink:href="#DejaVuSans-67"/>
      <use x="666.210938" xlink:href="#DejaVuSans-73"/>
      <use x="718.310547" xlink:href="#DejaVuSans-74"/>
      <use x="757.519531" xlink:href="#DejaVuSans-72"/>
      <use x="798.601562" xlink:href="#DejaVuSans-6f"/>
      <use x="859.783203" xlink:href="#DejaVuSans-6d"/>
      <use x="957.195312" xlink:href="#DejaVuSans-73"/>
     </g>
    </g>
   </g>
   <g id="matplotlib.axis_2">
    <g id="ytick_1">
     <g id="line2d_7">
      <defs>
       <path d="M 0 0 
L -3.5 0 
" id="m9e806dbede" style="stroke:#000000;stroke-width:0.8;"/>
      </defs>
      <g>
       <use style="stroke:#000000;stroke-width:0.8;" x="54" xlink:href="#m9e806dbede" y="242.910624"/>
      </g>
     </g>
     <g id="text_8">
      <!-- 0.0 -->
      <defs>
       <path d="M 31.78125 66.40625 
Q 24.171875 66.40625 20.328125 58.90625 
Q 16.5 51.421875 16.5 36.375 
Q 16.5 21.390625 20.328125 13.890625 
Q 24.171875 6.390625 31.78125 6.390625 
Q 39.453125 6.390625 43.28125 13.890625 
Q 47.125 21.390625 47.125 36.375 
Q 47.125 51.421875 43.28125 58.90625 
Q 39.453125 66.40625 31.78125 66.40625 
z
M 31.78125 74.21875 
Q 44.046875 74.21875 50.515625 64.515625 
Q 56.984375 54.828125 56.984375 36.375 
Q 56.984375 17.96875 50.515625 8.265625 
Q 44.046875 -1.421875 31.78125 -1.421875 
Q 19.53125 -1.421875 13.0625 8.265625 
Q 6.59375 17.96875 6.59375 36.375 
Q 6.59375 54.828125 13.0625 64.515625 
Q 19.53125 74.21875 31.78125 74.21875 
z
" id="DejaVuSans-30"/>
       <path d="M 10.6875 12.40625 
L 21 12.40625 
L 21 0 
L 10.6875 0 
z
" id="DejaVuSans-2e"/>
      </defs>
      <g transform="translate(31.096875 246.709843)scale(0.1 -0.1)">
       <use xlink:href="#DejaVuSans-30"/>
       <use x="63.623047" xlink:href="#DejaVuSans-2e"/>
       <use x="95.410156" xlink:href="#DejaVuSans-30"/>
      </g>
     </g>
    </g>
    <g id="ytick_2">
     <g id="line2d_8">
      <g>
       <use style="stroke:#000000;stroke-width:0.8;" x="54" xlink:href="#m9e806dbede" y="207.516624"/>
      </g>
     </g>
     <g id="text_9">
      <!-- 0.2 -->
      <defs>
       <path d="M 19.1875 8.296875 
L 53.609375 8.296875 
L 53.609375 0 
L 7.328125 0 
L 7.328125 8.296875 
Q 12.9375 14.109375 22.625 23.890625 
Q 32.328125 33.6875 34.8125 36.53125 
Q 39.546875 41.84375 41.421875 45.53125 
Q 43.3125 49.21875 43.3125 52.78125 
Q 43.3125 58.59375 39.234375 62.25 
Q 35.15625 65.921875 28.609375 65.921875 
Q 23.96875 65.921875 18.8125 64.3125 
Q 13.671875 62.703125 7.8125 59.421875 
L 7.8125 69.390625 
Q 13.765625 71.78125 18.9375 73 
Q 24.125 74.21875 28.421875 74.21875 
Q 39.75 74.21875 46.484375 68.546875 
Q 53.21875 62.890625 53.21875 53.421875 
Q 53.21875 48.921875 51.53125 44.890625 
Q 49.859375 40.875 45.40625 35.40625 
Q 44.1875 33.984375 37.640625 27.21875 
Q 31.109375 20.453125 19.1875 8.296875 
z
" id="DejaVuSans-32"/>
      </defs>
      <g transform="translate(31.096875 211.315843)scale(0.1 -0.1)">
       <use xlink:href="#DejaVuSans-30"/>
       <use x="63.623047" xlink:href="#DejaVuSans-2e"/>
       <use x="95.410156" xlink:href="#DejaVuSans-32"/>
      </g>
     </g>
    </g>
    <g id="ytick_3">
     <g id="line2d_9">
      <g>
       <use style="stroke:#000000;stroke-width:0.8;" x="54" xlink:href="#m9e806dbede" y="172.122624"/>
      </g>
     </g>
     <g id="text_10">
      <!-- 0.4 -->
      <g transform="translate(31.096875 175.921843)scale(0.1 -0.1)">
       <use xlink:href="#DejaVuSans-30"/>
       <use x="63.623047" xlink:href="#DejaVuSans-2e"/>
       <use x="95.410156" xlink:href="#DejaVuSans-34"/>
      </g>
     </g>
    </g>
    <g id="ytick_4">
     <g id="line2d_10">
      <g>
       <use style="stroke:#000000;stroke-width:0.8;" x="54" xlink:href="#m9e806dbede" y="136.728624"/>
      </g>
     </g>
     <g id="text_11">
      <!-- 0.6 -->
      <g transform="translate(31.096875 140.527843)scale(0.1 -0.1)">
       <use xlink:href="#DejaVuSans-30"/>
       <use x="63.623047" xlink:href="#DejaVuSans-2e"/>
       <use x="95.410156" xlink:href="#DejaVuSans-36"/>
      </g>
     </g>
    </g>
    <g id="ytick_5">
     <g id="line2d_11">
      <g>
       <use style="stroke:#000000;stroke-width:0.8;" x="54" xlink:href="#m9e806dbede" y="101.334624"/>
      </g>
     </g>
     <g id="text_12">
      <!-- 0.8 -->
      <g transform="translate(31.096875 105.133842)scale(0.1 -0.1)">
       <use xlink:href="#DejaVuSans-30"/>
       <use x="63.623047" xlink:href="#DejaVuSans-2e"/>
       <use x="95.410156" xlink:href="#DejaVuSans-38"/>
      </g>
     </g>
    </g>
    <g id="ytick_6">
     <g id="line2d_12">
      <g>
       <use style="stroke:#000000;stroke-width:0.8;" x="54" xlink:href="#m9e806dbede" y="65.940623"/>
      </g>
     </g>
     <g id="text_13">
      <!-- 1.0 -->
      <defs>
       <path d="M 12.40625 8.296875 
L 28.515625 8.296875 
L 28.515625 63.921875 
L 10.984375 60.40625 
L 10.984375 69.390625 
L 28.421875 72.90625 
L 38.28125 72.90625 
L 38.28125 8.296875 
L 54.390625 8.296875 
L 54.390625 0 
L 12.40625 0 
z
" id="DejaVuSans-31"/>
      </defs>
      <g transform="translate(31.096875 69.739842)scale(0.1 -0.1)">
       <use xlink:href="#DejaVuSans-31"/>
       <use x="63.623047" xlink:href="#DejaVuSans-2e"/>
       <use x="95.410156" xlink:href="#DejaVuSans-30"/>
      </g>
     </g>
    </g>
    <g id="text_14">
     <!-- Simulated cross-peak intensity -->
     <defs>
      <path d="M 53.515625 70.515625 
L 53.515625 60.890625 
Q 47.90625 63.578125 42.921875 64.890625 
Q 37.9375 66.21875 33.296875 66.21875 
Q 25.25 66.21875 20.875 63.09375 
Q 16.5 59.96875 16.5 54.203125 
Q 16.5 49.359375 19.40625 46.890625 
Q 22.3125 44.4375 30.421875 42.921875 
L 36.375 41.703125 
Q 47.40625 39.59375 52.65625 34.296875 
Q 57.90625 29 57.90625 20.125 
Q 57.90625 9.515625 50.796875 4.046875 
Q 43.703125 -1.421875 29.984375 -1.421875 
Q 24.8125 -1.421875 18.96875 -0.25 
Q 13.140625 0.921875 6.890625 3.21875 
L 6.890625 13.375 
Q 12.890625 10.015625 18.65625 8.296875 
Q 24.421875 6.59375 29.984375 6.59375 
Q 38.421875 6.59375 43.015625 9.90625 
Q 47.609375 13.234375 47.609375 19.390625 
Q 47.609375 24.75 44.3125 27.78125 
Q 41.015625 30.8125 33.5 32.328125 
L 27.484375 33.5 
Q 16.453125 35.6875 11.515625 40.375 
Q 6.59375 45.0625 6.59375 53.421875 
Q 6.59375 63.09375 13.40625 68.65625 
Q 20.21875 74.21875 32.171875 74.21875 
Q 37.3125 74.21875 42.625 73.28125 
Q 47.953125 72.359375 53.515625 70.515625 
z
" id="DejaVuSans-53"/>
      <path d="M 8.5 21.578125 
L 8.5 54.6875 
L 17.484375 54.6875 
L 17.484375 21.921875 
Q 17.484375 14.15625 20.5 10.265625 
Q 23.53125 6.390625 29.59375 6.390625 
Q 36.859375 6.390625 41.078125 11.03125 
Q 45.3125 15.671875 45.3125 23.6875 
L 45.3125 54.6875 
L 54.296875 54.6875 
L 54.296875 0 
L 45.3125 0 
L 45.3125 8.40625 
Q 42.046875 3.421875 37.71875 1 
Q 33.40625 -1.421875 27.6875 -1.421875 
Q 18.265625 -1.421875 13.375 4.4375 
Q 8.5 10.296875 8.5 21.578125 
z
M 31.109375 56 
z
" id="DejaVuSans-75"/>
      <path d="M 9.421875 75.984375 
L 18.40625 75.984375 
L 18.40625 0 
L 9.421875 0 
z
" id="DejaVuSans-6c"/>
      <path d="M 45.40625 46.390625 
L 45.40625 75.984375 
L 54.390625 75.984375 
L 54.390625 0 
L 45.40625 0 
L 45.40625 8.203125 
Q 42.578125 3.328125 38.25 0.953125 
Q 33.9375 -1.421875 27.875 -1.421875 
Q 17.96875 -1.421875 11.734375 6.484375 
Q 5.515625 14.40625 5.515625 27.296875 
Q 5.515625 40.1875 11.734375 48.09375 
Q 17.96875 56 27.875 56 
Q 33.9375 56 38.25 53.625 
Q 42.578125 51.265625 45.40625 46.390625 
z
M 14.796875 27.296875 
Q 14.796875 17.390625 18.875 11.75 
Q 22.953125 6.109375 30.078125 6.109375 
Q 37.203125 6.109375 41.296875 11.75 
Q 45.40625 17.390625 45.40625 27.296875 
Q 45.40625 37.203125 41.296875 42.84375 
Q 37.203125 48.484375 30.078125 48.484375 
Q 22.953125 48.484375 18.875 42.84375 
Q 14.796875 37.203125 14.796875 27.296875 
z
" id="DejaVuSans-64"/>
      <path id="DejaVuSans-20"/>
      <path d="M 4.890625 31.390625 
L 31.203125 31.390625 
L 31.203125 23.390625 
L 4.890625 23.390625 
z
" id="DejaVuSans-2d"/>
      <path d="M 18.109375 8.203125 
L 18.109375 -20.796875 
L 9.078125 -20.796875 
L 9.078125 54.6875 
L 18.109375 54.6875 
L 18.109375 46.390625 
Q 20.953125 51.265625 25.265625 53.625 
Q 29.59375 56 35.59375 56 
Q 45.5625 56 51.78125 48.09375 
Q 58.015625 40.1875 58.015625 27.296875 
Q 58.015625 14.40625 51.78125 6.484375 
Q 45.5625 -1.421875 35.59375 -1.421875 
Q 29.59375 -1.421875 25.265625 0.953125 
Q 20.953125 3.328125 18.109375 8.203125 
z
M 48.6875 27.296875 
Q 48.6875 37.203125 44.609375 42.84375 
Q 40.53125 48.484375 33.40625 48.484375 
Q 26.265625 48.484375 22.1875 42.84375 
Q 18.109375 37.203125 18.109375 27.296875 
Q 18.109375 17.390625 22.1875 11.75 
Q 26.265625 6.109375 33.40625 6.109375 
Q 40.53125 6.109375 44.609375 11.75 
Q 48.6875 17.390625 48.6875 27.296875 
z
" id="DejaVuSans-70"/>
      <path d="M 9.078125 75.984375 
L 18.109375 75.984375 
L 18.109375 31.109375 
L 44.921875 54.6875 
L 56.390625 54.6875 
L 27.390625 29.109375 
L 57.625 0 
L 45.90625 0 
L 18.109375 26.703125 
L 18.109375 0 
L 9.078125 0 
z
" id="DejaVuSans-6b"/>
      <path d="M 32.171875 -5.078125 
Q 28.375 -14.84375 24.75 -17.8125 
Q 21.140625 -20.796875 15.09375 -20.796875 
L 7.90625 -20.796875 
L 7.90625 -13.28125 
L 13.1875 -13.28125 
Q 16.890625 -13.28125 18.9375 -11.515625 
Q 21 -9.765625 23.484375 -3.21875 
L 25.09375 0.875 
L 2.984375 54.6875 
L 12.5 54.6875 
L 29.59375 11.921875 
L 46.6875 54.6875 
L 56.203125 54.6875 
z
" id="DejaVuSans-79"/>
     </defs>
     <g transform="translate(25.017187 220.487031)rotate(-90)scale(0.1 -0.1)">
      <use xlink:href="#DejaVuSans-53"/>
      <use x="63.476562" xlink:href="#DejaVuSans-69"/>
      <use x="91.259766" xlink:href="#DejaVuSans-6d"/>
      <use x="188.671875" xlink:href="#DejaVuSans-75"/>
      <use x="252.050781" xlink:href="#DejaVuSans-6c"/>
      <use x="279.833984" xlink:href="#DejaVuSans-61"/>
      <use x="341.113281" xlink:href="#DejaVuSans-74"/>
      <use x="380.322266" xlink:href="#DejaVuSans-65"/>
      <use x="441.845703" xlink:href="#DejaVuSans-64"/>
      <use x="505.322266" xlink:href="#DejaVuSans-20"/>
      <use x="537.109375" xlink:href="#DejaVuSans-63"/>
      <use x="592.089844" xlink:href="#DejaVuSans-72"/>
      <use x="633.171875" xlink:href="#DejaVuSans-6f"/>
      <use x="694.353516" xlink:href="#DejaVuSans-73"/>
      <use x="746.453125" xlink:href="#DejaVuSans-73"/>
      <use x="798.552734" xlink:href="#DejaVuSans-2d"/>
      <use x="834.636719" xlink:href="#DejaVuSans-70"/>
      <use x="898.113281" xlink:href="#DejaVuSans-65"/>
      <use x="959.636719" xlink:href="#DejaVuSans-61"/>
      <use x="1020.916016" xlink:href="#DejaVuSans-6b"/>
      <use x="1078.826172" xlink:href="#DejaVuSans-20"/>
      <use x="1110.613281" xlink:href="#DejaVuSans-69"/>
      <use x="1138.396484" xlink:href="#DejaVuSans-6e"/>
      <use x="1201.775391" xlink:href="#DejaVuSans-74"/>
      <use x="1240.984375" xlink:href="#DejaVuSans-65"/>
      <use x="1302.507812" xlink:href="#DejaVuSans-6e"/>
      <use x="1365.886719" xlink:href="#DejaVuSans-73"/>
      <use x="1417.986328" xlink:href="#DejaVuSans-69"/>
      <use x="1445.769531" xlink:href="#DejaVuSans-74"/>
      <use x="1484.978516" xlink:href="#DejaVuSans-79"/>
     </g>
    </g>
    <g id="text_15">
     <!-- 1e7 -->
     <g transform="translate(54 31.56)scale(0.1 -0.1)">
      <use xlink:href="#DejaVuSans-31"/>
      <use x="63.623047" xlink:href="#DejaVuSans-65"/>
      <use x="125.146484" xlink:href="#DejaVuSans-37"/>
     </g>
    </g>
   </g>
   <g id="LineCollection_1">
    <path clip-path="url(#pd88be17404)" d="M 93.383612 226.73897 
L 93.383612 226.738402 
" style="fill:none;stroke:#1f77b4;stroke-width:1.5;"/>
    <path clip-path="url(#pd88be17404)" d="M 269.453843 229.548701 
L 269.453843 229.167656 
" style="fill:none;stroke:#1f77b4;stroke-width:1.5;"/>
    <path clip-path="url(#pd88be17404)" d="M 73.622847 67.656542 
L 73.622847 67.602305 
" style="fill:none;stroke:#1f77b4;stroke-width:1.5;"/>
    <path clip-path="url(#pd88be17404)" d="M 233.667083 206.712327 
L 233.667083 205.344702 
" style="fill:none;stroke:#1f77b4;stroke-width:1.5;"/>
    <path clip-path="url(#pd88be17404)" d="M 140.131641 213.546603 
L 140.131641 212.464145 
" style="fill:none;stroke:#1f77b4;stroke-width:1.5;"/>
    <path clip-path="url(#pd88be17404)" d="M 274.539797 235.445791 
L 274.539797 235.234381 
" style="fill:none;stroke:#1f77b4;stroke-width:1.5;"/>
    <path clip-path="url(#pd88be17404)" d="M 173.910901 179.715923 
L 173.910901 177.974776 
" style="fill:none;stroke:#1f77b4;stroke-width:1.5;"/>
    <path clip-path="url(#pd88be17404)" d="M 167.495532 215.568496 
L 167.495532 213.438306 
" style="fill:none;stroke:#1f77b4;stroke-width:1.5;"/>
    <path clip-path="url(#pd88be17404)" d="M 187.983103 226.563204 
L 187.983103 225.791597 
" style="fill:none;stroke:#1f77b4;stroke-width:1.5;"/>
    <path clip-path="url(#pd88be17404)" d="M 93.383612 227.118901 
L 93.383612 227.118346 
" style="fill:none;stroke:#1f77b4;stroke-width:1.5;"/>
    <path clip-path="url(#pd88be17404)" d="M 127.931133 211.718208 
L 127.931133 210.621707 
" style="fill:none;stroke:#1f77b4;stroke-width:1.5;"/>
    <path clip-path="url(#pd88be17404)" d="M 80.454944 232.209017 
L 80.454944 231.228774 
" style="fill:none;stroke:#1f77b4;stroke-width:1.5;"/>
    <path clip-path="url(#pd88be17404)" d="M 250.086679 236.650709 
L 250.086679 236.511206 
" style="fill:none;stroke:#1f77b4;stroke-width:1.5;"/>
    <path clip-path="url(#pd88be17404)" d="M 223.977124 240.295439 
L 223.977124 240.212673 
" style="fill:none;stroke:#1f77b4;stroke-width:1.5;"/>
    <path clip-path="url(#pd88be17404)" d="M 150.671674 63.191594 
L 150.671674 63.022114 
" style="fill:none;stroke:#1f77b4;stroke-width:1.5;"/>
    <path clip-path="url(#pd88be17404)" d="M 123.840316 164.433795 
L 123.840316 162.200556 
" style="fill:none;stroke:#1f77b4;stroke-width:1.5;"/>
    <path clip-path="url(#pd88be17404)" d="M 162.516445 204.138063 
L 162.516445 203.11141 
" style="fill:none;stroke:#1f77b4;stroke-width:1.5;"/>
    <path clip-path="url(#pd88be17404)" d="M 168.97326 208.323342 
L 168.97326 206.661955 
" style="fill:none;stroke:#1f77b4;stroke-width:1.5;"/>
    <path clip-path="url(#pd88be17404)" d="M 214.10417 219.68158 
L 214.10417 219.043805 
" style="fill:none;stroke:#1f77b4;stroke-width:1.5;"/>
    <path clip-path="url(#pd88be17404)" d="M 123.840316 151.957459 
L 123.840316 149.369178 
" style="fill:none;stroke:#1f77b4;stroke-width:1.5;"/>
    <path clip-path="url(#pd88be17404)" d="M 174.387974 231.332489 
L 174.387974 230.775714 
" style="fill:none;stroke:#1f77b4;stroke-width:1.5;"/>
    <path clip-path="url(#pd88be17404)" d="M 203.030206 232.125476 
L 203.030206 231.872568 
" style="fill:none;stroke:#1f77b4;stroke-width:1.5;"/>
    <path clip-path="url(#pd88be17404)" d="M 316.057948 221.219519 
L 316.057948 220.973384 
" style="fill:none;stroke:#1f77b4;stroke-width:1.5;"/>
    <path clip-path="url(#pd88be17404)" d="M 73.654837 70.362327 
L 73.654837 63.019595 
" style="fill:none;stroke:#1f77b4;stroke-width:1.5;"/>
    <path clip-path="url(#pd88be17404)" d="M 222.468851 206.470847 
L 222.468851 206.08773 
" style="fill:none;stroke:#1f77b4;stroke-width:1.5;"/>
    <path clip-path="url(#pd88be17404)" d="M 175.289276 198.315237 
L 175.289276 198.047487 
" style="fill:none;stroke:#1f77b4;stroke-width:1.5;"/>
    <path clip-path="url(#pd88be17404)" d="M 139.605454 206.927872 
L 139.605454 204.362753 
" style="fill:none;stroke:#1f77b4;stroke-width:1.5;"/>
    <path clip-path="url(#pd88be17404)" d="M 173.845291 220.603379 
L 173.845291 220.093837 
" style="fill:none;stroke:#1f77b4;stroke-width:1.5;"/>
    <path clip-path="url(#pd88be17404)" d="M 257.358385 226.089301 
L 257.358385 225.546491 
" style="fill:none;stroke:#1f77b4;stroke-width:1.5;"/>
    <path clip-path="url(#pd88be17404)" d="M 86.816306 103.752525 
L 86.816306 100.321958 
" style="fill:none;stroke:#1f77b4;stroke-width:1.5;"/>
    <path clip-path="url(#pd88be17404)" d="M 143.397177 223.814791 
L 143.397177 223.34455 
" style="fill:none;stroke:#1f77b4;stroke-width:1.5;"/>
    <path clip-path="url(#pd88be17404)" d="M 174.387974 203.012084 
L 174.387974 201.093425 
" style="fill:none;stroke:#1f77b4;stroke-width:1.5;"/>
    <path clip-path="url(#pd88be17404)" d="M 140.878405 238.933027 
L 140.878405 238.63682 
" style="fill:none;stroke:#1f77b4;stroke-width:1.5;"/>
    <path clip-path="url(#pd88be17404)" d="M 203.030206 217.810942 
L 203.030206 217.222364 
" style="fill:none;stroke:#1f77b4;stroke-width:1.5;"/>
    <path clip-path="url(#pd88be17404)" d="M 232.598731 234.38523 
L 232.598731 234.165771 
" style="fill:none;stroke:#1f77b4;stroke-width:1.5;"/>
    <path clip-path="url(#pd88be17404)" d="M 139.605454 210.62101 
L 139.605454 208.319165 
" style="fill:none;stroke:#1f77b4;stroke-width:1.5;"/>
    <path clip-path="url(#pd88be17404)" d="M 169.118839 171.616826 
L 169.118839 168.806648 
" style="fill:none;stroke:#1f77b4;stroke-width:1.5;"/>
    <path clip-path="url(#pd88be17404)" d="M 191.426486 189.538745 
L 191.426486 189.434927 
" style="fill:none;stroke:#1f77b4;stroke-width:1.5;"/>
    <path clip-path="url(#pd88be17404)" d="M 147.202388 210.346743 
L 147.202388 209.459742 
" style="fill:none;stroke:#1f77b4;stroke-width:1.5;"/>
    <path clip-path="url(#pd88be17404)" d="M 69.218182 231.247832 
L 69.218182 230.948004 
" style="fill:none;stroke:#1f77b4;stroke-width:1.5;"/>
    <path clip-path="url(#pd88be17404)" d="M 250.086679 231.529104 
L 250.086679 231.275466 
" style="fill:none;stroke:#1f77b4;stroke-width:1.5;"/>
    <path clip-path="url(#pd88be17404)" d="M 145.895753 231.701138 
L 145.895753 231.304091 
" style="fill:none;stroke:#1f77b4;stroke-width:1.5;"/>
    <path clip-path="url(#pd88be17404)" d="M 148.970412 161.588867 
L 148.970412 159.248163 
" style="fill:none;stroke:#1f77b4;stroke-width:1.5;"/>
    <path clip-path="url(#pd88be17404)" d="M 223.977124 225.805255 
L 223.977124 225.263898 
" style="fill:none;stroke:#1f77b4;stroke-width:1.5;"/>
    <path clip-path="url(#pd88be17404)" d="M 119.023041 224.593922 
L 119.023041 223.948792 
" style="fill:none;stroke:#1f77b4;stroke-width:1.5;"/>
    <path clip-path="url(#pd88be17404)" d="M 230.991095 228.464246 
L 230.991095 228.013188 
" style="fill:none;stroke:#1f77b4;stroke-width:1.5;"/>
    <path clip-path="url(#pd88be17404)" d="M 274.539797 236.99854 
L 274.539797 236.831106 
" style="fill:none;stroke:#1f77b4;stroke-width:1.5;"/>
    <path clip-path="url(#pd88be17404)" d="M 173.910901 150.044156 
L 173.910901 147.48549 
" style="fill:none;stroke:#1f77b4;stroke-width:1.5;"/>
    <path clip-path="url(#pd88be17404)" d="M 269.453843 238.143292 
L 269.453843 238.007341 
" style="fill:none;stroke:#1f77b4;stroke-width:1.5;"/>
    <path clip-path="url(#pd88be17404)" d="M 204.114279 226.820552 
L 204.114279 226.361155 
" style="fill:none;stroke:#1f77b4;stroke-width:1.5;"/>
    <path clip-path="url(#pd88be17404)" d="M 255.936031 229.176483 
L 255.936031 228.77999 
" style="fill:none;stroke:#1f77b4;stroke-width:1.5;"/>
    <path clip-path="url(#pd88be17404)" d="M 145.895753 195.091353 
L 145.895753 193.397563 
" style="fill:none;stroke:#1f77b4;stroke-width:1.5;"/>
    <path clip-path="url(#pd88be17404)" d="M 119.023041 221.190297 
L 119.023041 220.425289 
" style="fill:none;stroke:#1f77b4;stroke-width:1.5;"/>
    <path clip-path="url(#pd88be17404)" d="M 141.007023 112.553788 
L 141.007023 112.467238 
" style="fill:none;stroke:#1f77b4;stroke-width:1.5;"/>
    <path clip-path="url(#pd88be17404)" d="M 137.783487 178.349781 
L 137.783487 176.328704 
" style="fill:none;stroke:#1f77b4;stroke-width:1.5;"/>
    <path clip-path="url(#pd88be17404)" d="M 108.788982 193.252231 
L 108.788982 191.641179 
" style="fill:none;stroke:#1f77b4;stroke-width:1.5;"/>
    <path clip-path="url(#pd88be17404)" d="M 127.32426 44.934248 
L 127.32426 44.443636 
" style="fill:none;stroke:#1f77b4;stroke-width:1.5;"/>
    <path clip-path="url(#pd88be17404)" d="M 344.718982 227.3668 
L 344.718982 227.254074 
" style="fill:none;stroke:#1f77b4;stroke-width:1.5;"/>
    <path clip-path="url(#pd88be17404)" d="M 175.289276 195.284142 
L 175.289276 194.998194 
" style="fill:none;stroke:#1f77b4;stroke-width:1.5;"/>
    <path clip-path="url(#pd88be17404)" d="M 167.495532 209.252305 
L 167.495532 206.630028 
" style="fill:none;stroke:#1f77b4;stroke-width:1.5;"/>
    <path clip-path="url(#pd88be17404)" d="M 187.983103 238.894766 
L 187.983103 238.705215 
" style="fill:none;stroke:#1f77b4;stroke-width:1.5;"/>
    <path clip-path="url(#pd88be17404)" d="M 245.103809 228.154974 
L 245.103809 227.563631 
" style="fill:none;stroke:#1f77b4;stroke-width:1.5;"/>
    <path clip-path="url(#pd88be17404)" d="M 141.007023 107.293597 
L 141.007023 107.203554 
" style="fill:none;stroke:#1f77b4;stroke-width:1.5;"/>
    <path clip-path="url(#pd88be17404)" d="M 248.239734 222.860648 
L 248.239734 222.222917 
" style="fill:none;stroke:#1f77b4;stroke-width:1.5;"/>
    <path clip-path="url(#pd88be17404)" d="M 119.306615 181.533165 
L 119.306615 179.552803 
" style="fill:none;stroke:#1f77b4;stroke-width:1.5;"/>
    <path clip-path="url(#pd88be17404)" d="M 200.822264 180.950576 
L 200.822264 180.874689 
" style="fill:none;stroke:#1f77b4;stroke-width:1.5;"/>
    <path clip-path="url(#pd88be17404)" d="M 167.126961 182.159683 
L 167.126961 182.096984 
" style="fill:none;stroke:#1f77b4;stroke-width:1.5;"/>
    <path clip-path="url(#pd88be17404)" d="M 162.516445 208.237739 
L 162.516445 207.319641 
" style="fill:none;stroke:#1f77b4;stroke-width:1.5;"/>
    <path clip-path="url(#pd88be17404)" d="M 316.057948 226.173887 
L 316.057948 225.98397 
" style="fill:none;stroke:#1f77b4;stroke-width:1.5;"/>
    <path clip-path="url(#pd88be17404)" d="M 232.598731 240.084043 
L 232.598731 240.011282 
" style="fill:none;stroke:#1f77b4;stroke-width:1.5;"/>
    <path clip-path="url(#pd88be17404)" d="M 373.581818 235.942318 
L 373.581818 235.565754 
" style="fill:none;stroke:#1f77b4;stroke-width:1.5;"/>
    <path clip-path="url(#pd88be17404)" d="M 157.293742 149.961154 
L 157.293742 147.639408 
" style="fill:none;stroke:#1f77b4;stroke-width:1.5;"/>
    <path clip-path="url(#pd88be17404)" d="M 159.605797 161.735982 
L 159.605797 159.333291 
" style="fill:none;stroke:#1f77b4;stroke-width:1.5;"/>
    <path clip-path="url(#pd88be17404)" d="M 133.178694 84.444895 
L 133.178694 84.195232 
" style="fill:none;stroke:#1f77b4;stroke-width:1.5;"/>
    <path clip-path="url(#pd88be17404)" d="M 227.687965 151.49023 
L 227.687965 148.093048 
" style="fill:none;stroke:#1f77b4;stroke-width:1.5;"/>
    <path clip-path="url(#pd88be17404)" d="M 326.075213 242.116364 
L 326.075213 242.08702 
" style="fill:none;stroke:#1f77b4;stroke-width:1.5;"/>
    <path clip-path="url(#pd88be17404)" d="M 168.97326 209.826877 
L 168.97326 208.237712 
" style="fill:none;stroke:#1f77b4;stroke-width:1.5;"/>
    <path clip-path="url(#pd88be17404)" d="M 73.654837 100.503221 
L 73.654837 94.443124 
" style="fill:none;stroke:#1f77b4;stroke-width:1.5;"/>
    <path clip-path="url(#pd88be17404)" d="M 373.581818 235.457128 
L 373.581818 235.054345 
" style="fill:none;stroke:#1f77b4;stroke-width:1.5;"/>
    <path clip-path="url(#pd88be17404)" d="M 157.293742 173.288791 
L 157.293742 171.549736 
" style="fill:none;stroke:#1f77b4;stroke-width:1.5;"/>
    <path clip-path="url(#pd88be17404)" d="M 159.605797 193.905341 
L 159.605797 192.454832 
" style="fill:none;stroke:#1f77b4;stroke-width:1.5;"/>
    <path clip-path="url(#pd88be17404)" d="M 140.878405 233.13482 
L 140.878405 232.406825 
" style="fill:none;stroke:#1f77b4;stroke-width:1.5;"/>
    <path clip-path="url(#pd88be17404)" d="M 127.931133 230.561993 
L 127.931133 230.127904 
" style="fill:none;stroke:#1f77b4;stroke-width:1.5;"/>
    <path clip-path="url(#pd88be17404)" d="M 221.834963 240.074798 
L 221.834963 239.915389 
" style="fill:none;stroke:#1f77b4;stroke-width:1.5;"/>
    <path clip-path="url(#pd88be17404)" d="M 173.845291 219.942453 
L 173.845291 219.417815 
" style="fill:none;stroke:#1f77b4;stroke-width:1.5;"/>
    <path clip-path="url(#pd88be17404)" d="M 86.816306 63.796278 
L 86.816306 59.380698 
" style="fill:none;stroke:#1f77b4;stroke-width:1.5;"/>
    <path clip-path="url(#pd88be17404)" d="M 257.358385 235.61309 
L 257.358385 235.377605 
" style="fill:none;stroke:#1f77b4;stroke-width:1.5;"/>
    <path clip-path="url(#pd88be17404)" d="M 169.118839 208.44396 
L 169.118839 207.085392 
" style="fill:none;stroke:#1f77b4;stroke-width:1.5;"/>
    <path clip-path="url(#pd88be17404)" d="M 245.103809 233.930847 
L 245.103809 233.570976 
" style="fill:none;stroke:#1f77b4;stroke-width:1.5;"/>
    <path clip-path="url(#pd88be17404)" d="M 134.23547 110.169332 
L 134.23547 110.032167 
" style="fill:none;stroke:#1f77b4;stroke-width:1.5;"/>
    <path clip-path="url(#pd88be17404)" d="M 233.667083 240.657717 
L 233.667083 240.572599 
" style="fill:none;stroke:#1f77b4;stroke-width:1.5;"/>
    <path clip-path="url(#pd88be17404)" d="M 227.687965 151.753979 
L 227.687965 148.366598 
" style="fill:none;stroke:#1f77b4;stroke-width:1.5;"/>
    <path clip-path="url(#pd88be17404)" d="M 140.131641 214.670295 
L 140.131641 213.62926 
" style="fill:none;stroke:#1f77b4;stroke-width:1.5;"/>
    <path clip-path="url(#pd88be17404)" d="M 326.075213 230.672709 
L 326.075213 230.22059 
" style="fill:none;stroke:#1f77b4;stroke-width:1.5;"/>
    <path clip-path="url(#pd88be17404)" d="M 214.10417 219.918934 
L 214.10417 219.287676 
" style="fill:none;stroke:#1f77b4;stroke-width:1.5;"/>
    <path clip-path="url(#pd88be17404)" d="M 222.468851 211.790673 
L 222.468851 211.463486 
" style="fill:none;stroke:#1f77b4;stroke-width:1.5;"/>
    <path clip-path="url(#pd88be17404)" d="M 191.426486 236.748284 
L 191.426486 236.736297 
" style="fill:none;stroke:#1f77b4;stroke-width:1.5;"/>
    <path clip-path="url(#pd88be17404)" d="M 133.178694 67.518767 
L 133.178694 67.242437 
" style="fill:none;stroke:#1f77b4;stroke-width:1.5;"/>
    <path clip-path="url(#pd88be17404)" d="M 335.795521 240.844418 
L 335.795521 240.790052 
" style="fill:none;stroke:#1f77b4;stroke-width:1.5;"/>
    <path clip-path="url(#pd88be17404)" d="M 224.179159 242.021354 
L 224.179159 241.997543 
" style="fill:none;stroke:#1f77b4;stroke-width:1.5;"/>
    <path clip-path="url(#pd88be17404)" d="M 137.783487 214.955549 
L 137.783487 214.080416 
" style="fill:none;stroke:#1f77b4;stroke-width:1.5;"/>
    <path clip-path="url(#pd88be17404)" d="M 248.239734 234.565652 
L 248.239734 234.300223 
" style="fill:none;stroke:#1f77b4;stroke-width:1.5;"/>
    <path clip-path="url(#pd88be17404)" d="M 302.36792 237.920303 
L 302.36792 237.759661 
" style="fill:none;stroke:#1f77b4;stroke-width:1.5;"/>
    <path clip-path="url(#pd88be17404)" d="M 108.788982 163.037737 
L 108.788982 160.446446 
" style="fill:none;stroke:#1f77b4;stroke-width:1.5;"/>
    <path clip-path="url(#pd88be17404)" d="M 119.306615 148.017396 
L 119.306615 144.955638 
" style="fill:none;stroke:#1f77b4;stroke-width:1.5;"/>
    <path clip-path="url(#pd88be17404)" d="M 194.17899 213.832 
L 194.17899 212.896816 
" style="fill:none;stroke:#1f77b4;stroke-width:1.5;"/>
    <path clip-path="url(#pd88be17404)" d="M 143.397177 211.574904 
L 143.397177 210.803252 
" style="fill:none;stroke:#1f77b4;stroke-width:1.5;"/>
    <path clip-path="url(#pd88be17404)" d="M 80.454944 226.850691 
L 80.454944 225.379637 
" style="fill:none;stroke:#1f77b4;stroke-width:1.5;"/>
    <path clip-path="url(#pd88be17404)" d="M 221.834963 232.160722 
L 221.834963 231.556444 
" style="fill:none;stroke:#1f77b4;stroke-width:1.5;"/>
    <path clip-path="url(#pd88be17404)" d="M 142.739303 204.165237 
L 142.739303 202.802263 
" style="fill:none;stroke:#1f77b4;stroke-width:1.5;"/>
    <path clip-path="url(#pd88be17404)" d="M 156.874281 199.164906 
L 156.874281 197.531041 
" style="fill:none;stroke:#1f77b4;stroke-width:1.5;"/>
    <path clip-path="url(#pd88be17404)" d="M 127.32426 85.301205 
L 127.32426 84.910627 
" style="fill:none;stroke:#1f77b4;stroke-width:1.5;"/>
    <path clip-path="url(#pd88be17404)" d="M 200.822264 195.497329 
L 200.822264 195.439259 
" style="fill:none;stroke:#1f77b4;stroke-width:1.5;"/>
    <path clip-path="url(#pd88be17404)" d="M 134.23547 70.030202 
L 134.23547 69.85156 
" style="fill:none;stroke:#1f77b4;stroke-width:1.5;"/>
    <path clip-path="url(#pd88be17404)" d="M 147.202388 236.910575 
L 147.202388 236.747141 
" style="fill:none;stroke:#1f77b4;stroke-width:1.5;"/>
    <path clip-path="url(#pd88be17404)" d="M 335.795521 239.613319 
L 335.795521 239.526561 
" style="fill:none;stroke:#1f77b4;stroke-width:1.5;"/>
    <path clip-path="url(#pd88be17404)" d="M 69.218182 212.488671 
L 69.218182 211.706582 
" style="fill:none;stroke:#1f77b4;stroke-width:1.5;"/>
    <path clip-path="url(#pd88be17404)" d="M 224.179159 222.820375 
L 224.179159 222.282453 
" style="fill:none;stroke:#1f77b4;stroke-width:1.5;"/>
    <path clip-path="url(#pd88be17404)" d="M 344.718982 228.380593 
L 344.718982 228.275218 
" style="fill:none;stroke:#1f77b4;stroke-width:1.5;"/>
    <path clip-path="url(#pd88be17404)" d="M 167.126961 188.324622 
L 167.126961 188.268286 
" style="fill:none;stroke:#1f77b4;stroke-width:1.5;"/>
    <path clip-path="url(#pd88be17404)" d="M 302.36792 232.137398 
L 302.36792 231.790602 
" style="fill:none;stroke:#1f77b4;stroke-width:1.5;"/>
    <path clip-path="url(#pd88be17404)" d="M 194.17899 226.011048 
L 194.17899 225.467549 
" style="fill:none;stroke:#1f77b4;stroke-width:1.5;"/>
    <path clip-path="url(#pd88be17404)" d="M 142.739303 238.696684 
L 142.739303 238.548447 
" style="fill:none;stroke:#1f77b4;stroke-width:1.5;"/>
    <path clip-path="url(#pd88be17404)" d="M 156.874281 216.399309 
L 156.874281 215.409134 
" style="fill:none;stroke:#1f77b4;stroke-width:1.5;"/>
    <path clip-path="url(#pd88be17404)" d="M 150.671674 113.532922 
L 150.671674 113.410915 
" style="fill:none;stroke:#1f77b4;stroke-width:1.5;"/>
    <path clip-path="url(#pd88be17404)" d="M 148.970412 210.711777 
L 148.970412 209.78499 
" style="fill:none;stroke:#1f77b4;stroke-width:1.5;"/>
    <path clip-path="url(#pd88be17404)" d="M 230.991095 241.320634 
L 230.991095 241.27099 
" style="fill:none;stroke:#1f77b4;stroke-width:1.5;"/>
    <path clip-path="url(#pd88be17404)" d="M 73.622847 172.845542 
L 73.622847 172.823858 
" style="fill:none;stroke:#1f77b4;stroke-width:1.5;"/>
    <path clip-path="url(#pd88be17404)" d="M 204.114279 224.881069 
L 204.114279 224.366297 
" style="fill:none;stroke:#1f77b4;stroke-width:1.5;"/>
    <path clip-path="url(#pd88be17404)" d="M 255.936031 236.679187 
L 255.936031 236.499291 
" style="fill:none;stroke:#1f77b4;stroke-width:1.5;"/>
   </g>
   <g id="line2d_13">
    <defs>
     <path d="M 0 3 
C 0.795609 3 1.55874 2.683901 2.12132 2.12132 
C 2.683901 1.55874 3 0.795609 3 0 
C 3 -0.795609 2.683901 -1.55874 2.12132 -2.12132 
C 1.55874 -2.683901 0.795609 -3 0 -3 
C -0.795609 -3 -1.55874 -2.683901 -2.12132 -2.12132 
C -2.683901 -1.55874 -3 -0.795609 -3 0 
C -3 0.795609 -2.683901 1.55874 -2.12132 2.12132 
C -1.55874 2.683901 -0.795609 3 0 3 
z
" id="m16e0bca5ba" style="stroke:#1f77b4;"/>
    </defs>
    <g clip-path="url(#pd88be17404)">
     <use style="fill:#1f77b4;stroke:#1f77b4;" x="93.383612" xlink:href="#m16e0bca5ba" y="226.738686"/>
     <use style="fill:#1f77b4;stroke:#1f77b4;" x="269.453843" xlink:href="#m16e0bca5ba" y="229.358178"/>
     <use style="fill:#1f77b4;stroke:#1f77b4;" x="73.622847" xlink:href="#m16e0bca5ba" y="67.629423"/>
     <use style="fill:#1f77b4;stroke:#1f77b4;" x="233.667083" xlink:href="#m16e0bca5ba" y="206.028515"/>
     <use style="fill:#1f77b4;stroke:#1f77b4;" x="140.131641" xlink:href="#m16e0bca5ba" y="213.005374"/>
     <use style="fill:#1f77b4;stroke:#1f77b4;" x="274.539797" xlink:href="#m16e0bca5ba" y="235.340086"/>
     <use style="fill:#1f77b4;stroke:#1f77b4;" x="173.910901" xlink:href="#m16e0bca5ba" y="178.84535"/>
     <use style="fill:#1f77b4;stroke:#1f77b4;" x="167.495532" xlink:href="#m16e0bca5ba" y="214.503401"/>
     <use style="fill:#1f77b4;stroke:#1f77b4;" x="187.983103" xlink:href="#m16e0bca5ba" y="226.1774"/>
     <use style="fill:#1f77b4;stroke:#1f77b4;" x="93.383612" xlink:href="#m16e0bca5ba" y="227.118623"/>
     <use style="fill:#1f77b4;stroke:#1f77b4;" x="127.931133" xlink:href="#m16e0bca5ba" y="211.169958"/>
     <use style="fill:#1f77b4;stroke:#1f77b4;" x="80.454944" xlink:href="#m16e0bca5ba" y="231.718896"/>
     <use style="fill:#1f77b4;stroke:#1f77b4;" x="250.086679" xlink:href="#m16e0bca5ba" y="236.580957"/>
     <use style="fill:#1f77b4;stroke:#1f77b4;" x="223.977124" xlink:href="#m16e0bca5ba" y="240.254056"/>
     <use style="fill:#1f77b4;stroke:#1f77b4;" x="150.671674" xlink:href="#m16e0bca5ba" y="63.106854"/>
     <use style="fill:#1f77b4;stroke:#1f77b4;" x="123.840316" xlink:href="#m16e0bca5ba" y="163.317175"/>
     <use style="fill:#1f77b4;stroke:#1f77b4;" x="162.516445" xlink:href="#m16e0bca5ba" y="203.624737"/>
     <use style="fill:#1f77b4;stroke:#1f77b4;" x="168.97326" xlink:href="#m16e0bca5ba" y="207.492649"/>
     <use style="fill:#1f77b4;stroke:#1f77b4;" x="214.10417" xlink:href="#m16e0bca5ba" y="219.362693"/>
     <use style="fill:#1f77b4;stroke:#1f77b4;" x="123.840316" xlink:href="#m16e0bca5ba" y="150.663319"/>
     <use style="fill:#1f77b4;stroke:#1f77b4;" x="174.387974" xlink:href="#m16e0bca5ba" y="231.054102"/>
     <use style="fill:#1f77b4;stroke:#1f77b4;" x="203.030206" xlink:href="#m16e0bca5ba" y="231.999022"/>
     <use style="fill:#1f77b4;stroke:#1f77b4;" x="316.057948" xlink:href="#m16e0bca5ba" y="221.096451"/>
     <use style="fill:#1f77b4;stroke:#1f77b4;" x="73.654837" xlink:href="#m16e0bca5ba" y="66.690961"/>
     <use style="fill:#1f77b4;stroke:#1f77b4;" x="222.468851" xlink:href="#m16e0bca5ba" y="206.279288"/>
     <use style="fill:#1f77b4;stroke:#1f77b4;" x="175.289276" xlink:href="#m16e0bca5ba" y="198.181362"/>
     <use style="fill:#1f77b4;stroke:#1f77b4;" x="139.605454" xlink:href="#m16e0bca5ba" y="205.645312"/>
     <use style="fill:#1f77b4;stroke:#1f77b4;" x="173.845291" xlink:href="#m16e0bca5ba" y="220.348608"/>
     <use style="fill:#1f77b4;stroke:#1f77b4;" x="257.358385" xlink:href="#m16e0bca5ba" y="225.817896"/>
     <use style="fill:#1f77b4;stroke:#1f77b4;" x="86.816306" xlink:href="#m16e0bca5ba" y="102.037242"/>
     <use style="fill:#1f77b4;stroke:#1f77b4;" x="143.397177" xlink:href="#m16e0bca5ba" y="223.579671"/>
     <use style="fill:#1f77b4;stroke:#1f77b4;" x="174.387974" xlink:href="#m16e0bca5ba" y="202.052755"/>
     <use style="fill:#1f77b4;stroke:#1f77b4;" x="140.878405" xlink:href="#m16e0bca5ba" y="238.784923"/>
     <use style="fill:#1f77b4;stroke:#1f77b4;" x="203.030206" xlink:href="#m16e0bca5ba" y="217.516653"/>
     <use style="fill:#1f77b4;stroke:#1f77b4;" x="232.598731" xlink:href="#m16e0bca5ba" y="234.275501"/>
     <use style="fill:#1f77b4;stroke:#1f77b4;" x="139.605454" xlink:href="#m16e0bca5ba" y="209.470088"/>
     <use style="fill:#1f77b4;stroke:#1f77b4;" x="169.118839" xlink:href="#m16e0bca5ba" y="170.211737"/>
     <use style="fill:#1f77b4;stroke:#1f77b4;" x="191.426486" xlink:href="#m16e0bca5ba" y="189.486836"/>
     <use style="fill:#1f77b4;stroke:#1f77b4;" x="147.202388" xlink:href="#m16e0bca5ba" y="209.903242"/>
     <use style="fill:#1f77b4;stroke:#1f77b4;" x="69.218182" xlink:href="#m16e0bca5ba" y="231.097918"/>
     <use style="fill:#1f77b4;stroke:#1f77b4;" x="250.086679" xlink:href="#m16e0bca5ba" y="231.402285"/>
     <use style="fill:#1f77b4;stroke:#1f77b4;" x="145.895753" xlink:href="#m16e0bca5ba" y="231.502615"/>
     <use style="fill:#1f77b4;stroke:#1f77b4;" x="148.970412" xlink:href="#m16e0bca5ba" y="160.418515"/>
     <use style="fill:#1f77b4;stroke:#1f77b4;" x="223.977124" xlink:href="#m16e0bca5ba" y="225.534577"/>
     <use style="fill:#1f77b4;stroke:#1f77b4;" x="119.023041" xlink:href="#m16e0bca5ba" y="224.271357"/>
     <use style="fill:#1f77b4;stroke:#1f77b4;" x="230.991095" xlink:href="#m16e0bca5ba" y="228.238717"/>
     <use style="fill:#1f77b4;stroke:#1f77b4;" x="274.539797" xlink:href="#m16e0bca5ba" y="236.914823"/>
     <use style="fill:#1f77b4;stroke:#1f77b4;" x="173.910901" xlink:href="#m16e0bca5ba" y="148.764823"/>
     <use style="fill:#1f77b4;stroke:#1f77b4;" x="269.453843" xlink:href="#m16e0bca5ba" y="238.075316"/>
     <use style="fill:#1f77b4;stroke:#1f77b4;" x="204.114279" xlink:href="#m16e0bca5ba" y="226.590854"/>
     <use style="fill:#1f77b4;stroke:#1f77b4;" x="255.936031" xlink:href="#m16e0bca5ba" y="228.978237"/>
     <use style="fill:#1f77b4;stroke:#1f77b4;" x="145.895753" xlink:href="#m16e0bca5ba" y="194.244458"/>
     <use style="fill:#1f77b4;stroke:#1f77b4;" x="119.023041" xlink:href="#m16e0bca5ba" y="220.807793"/>
     <use style="fill:#1f77b4;stroke:#1f77b4;" x="141.007023" xlink:href="#m16e0bca5ba" y="112.510513"/>
     <use style="fill:#1f77b4;stroke:#1f77b4;" x="137.783487" xlink:href="#m16e0bca5ba" y="177.339243"/>
     <use style="fill:#1f77b4;stroke:#1f77b4;" x="108.788982" xlink:href="#m16e0bca5ba" y="192.446705"/>
     <use style="fill:#1f77b4;stroke:#1f77b4;" x="127.32426" xlink:href="#m16e0bca5ba" y="44.688942"/>
     <use style="fill:#1f77b4;stroke:#1f77b4;" x="344.718982" xlink:href="#m16e0bca5ba" y="227.310437"/>
     <use style="fill:#1f77b4;stroke:#1f77b4;" x="175.289276" xlink:href="#m16e0bca5ba" y="195.141168"/>
     <use style="fill:#1f77b4;stroke:#1f77b4;" x="167.495532" xlink:href="#m16e0bca5ba" y="207.941166"/>
     <use style="fill:#1f77b4;stroke:#1f77b4;" x="187.983103" xlink:href="#m16e0bca5ba" y="238.79999"/>
     <use style="fill:#1f77b4;stroke:#1f77b4;" x="245.103809" xlink:href="#m16e0bca5ba" y="227.859303"/>
     <use style="fill:#1f77b4;stroke:#1f77b4;" x="141.007023" xlink:href="#m16e0bca5ba" y="107.248576"/>
     <use style="fill:#1f77b4;stroke:#1f77b4;" x="248.239734" xlink:href="#m16e0bca5ba" y="222.541783"/>
     <use style="fill:#1f77b4;stroke:#1f77b4;" x="119.306615" xlink:href="#m16e0bca5ba" y="180.542984"/>
     <use style="fill:#1f77b4;stroke:#1f77b4;" x="200.822264" xlink:href="#m16e0bca5ba" y="180.912633"/>
     <use style="fill:#1f77b4;stroke:#1f77b4;" x="167.126961" xlink:href="#m16e0bca5ba" y="182.128334"/>
     <use style="fill:#1f77b4;stroke:#1f77b4;" x="162.516445" xlink:href="#m16e0bca5ba" y="207.77869"/>
     <use style="fill:#1f77b4;stroke:#1f77b4;" x="316.057948" xlink:href="#m16e0bca5ba" y="226.078928"/>
     <use style="fill:#1f77b4;stroke:#1f77b4;" x="232.598731" xlink:href="#m16e0bca5ba" y="240.047662"/>
     <use style="fill:#1f77b4;stroke:#1f77b4;" x="373.581818" xlink:href="#m16e0bca5ba" y="235.754036"/>
     <use style="fill:#1f77b4;stroke:#1f77b4;" x="157.293742" xlink:href="#m16e0bca5ba" y="148.800281"/>
     <use style="fill:#1f77b4;stroke:#1f77b4;" x="159.605797" xlink:href="#m16e0bca5ba" y="160.534637"/>
     <use style="fill:#1f77b4;stroke:#1f77b4;" x="133.178694" xlink:href="#m16e0bca5ba" y="84.320064"/>
     <use style="fill:#1f77b4;stroke:#1f77b4;" x="227.687965" xlink:href="#m16e0bca5ba" y="149.791639"/>
     <use style="fill:#1f77b4;stroke:#1f77b4;" x="326.075213" xlink:href="#m16e0bca5ba" y="242.101692"/>
     <use style="fill:#1f77b4;stroke:#1f77b4;" x="168.97326" xlink:href="#m16e0bca5ba" y="209.032295"/>
     <use style="fill:#1f77b4;stroke:#1f77b4;" x="73.654837" xlink:href="#m16e0bca5ba" y="97.473173"/>
     <use style="fill:#1f77b4;stroke:#1f77b4;" x="373.581818" xlink:href="#m16e0bca5ba" y="235.255737"/>
     <use style="fill:#1f77b4;stroke:#1f77b4;" x="157.293742" xlink:href="#m16e0bca5ba" y="172.419264"/>
     <use style="fill:#1f77b4;stroke:#1f77b4;" x="159.605797" xlink:href="#m16e0bca5ba" y="193.180087"/>
     <use style="fill:#1f77b4;stroke:#1f77b4;" x="140.878405" xlink:href="#m16e0bca5ba" y="232.770822"/>
     <use style="fill:#1f77b4;stroke:#1f77b4;" x="127.931133" xlink:href="#m16e0bca5ba" y="230.344948"/>
     <use style="fill:#1f77b4;stroke:#1f77b4;" x="221.834963" xlink:href="#m16e0bca5ba" y="239.995094"/>
     <use style="fill:#1f77b4;stroke:#1f77b4;" x="173.845291" xlink:href="#m16e0bca5ba" y="219.680134"/>
     <use style="fill:#1f77b4;stroke:#1f77b4;" x="86.816306" xlink:href="#m16e0bca5ba" y="61.588488"/>
     <use style="fill:#1f77b4;stroke:#1f77b4;" x="257.358385" xlink:href="#m16e0bca5ba" y="235.495347"/>
     <use style="fill:#1f77b4;stroke:#1f77b4;" x="169.118839" xlink:href="#m16e0bca5ba" y="207.764676"/>
     <use style="fill:#1f77b4;stroke:#1f77b4;" x="245.103809" xlink:href="#m16e0bca5ba" y="233.750912"/>
     <use style="fill:#1f77b4;stroke:#1f77b4;" x="134.23547" xlink:href="#m16e0bca5ba" y="110.10075"/>
     <use style="fill:#1f77b4;stroke:#1f77b4;" x="233.667083" xlink:href="#m16e0bca5ba" y="240.615158"/>
     <use style="fill:#1f77b4;stroke:#1f77b4;" x="227.687965" xlink:href="#m16e0bca5ba" y="150.060289"/>
     <use style="fill:#1f77b4;stroke:#1f77b4;" x="140.131641" xlink:href="#m16e0bca5ba" y="214.149777"/>
     <use style="fill:#1f77b4;stroke:#1f77b4;" x="326.075213" xlink:href="#m16e0bca5ba" y="230.44665"/>
     <use style="fill:#1f77b4;stroke:#1f77b4;" x="214.10417" xlink:href="#m16e0bca5ba" y="219.603305"/>
     <use style="fill:#1f77b4;stroke:#1f77b4;" x="222.468851" xlink:href="#m16e0bca5ba" y="211.62708"/>
     <use style="fill:#1f77b4;stroke:#1f77b4;" x="191.426486" xlink:href="#m16e0bca5ba" y="236.74229"/>
     <use style="fill:#1f77b4;stroke:#1f77b4;" x="133.178694" xlink:href="#m16e0bca5ba" y="67.380602"/>
     <use style="fill:#1f77b4;stroke:#1f77b4;" x="335.795521" xlink:href="#m16e0bca5ba" y="240.817235"/>
     <use style="fill:#1f77b4;stroke:#1f77b4;" x="224.179159" xlink:href="#m16e0bca5ba" y="242.009448"/>
     <use style="fill:#1f77b4;stroke:#1f77b4;" x="137.783487" xlink:href="#m16e0bca5ba" y="214.517983"/>
     <use style="fill:#1f77b4;stroke:#1f77b4;" x="248.239734" xlink:href="#m16e0bca5ba" y="234.432937"/>
     <use style="fill:#1f77b4;stroke:#1f77b4;" x="302.36792" xlink:href="#m16e0bca5ba" y="237.839982"/>
     <use style="fill:#1f77b4;stroke:#1f77b4;" x="108.788982" xlink:href="#m16e0bca5ba" y="161.742091"/>
     <use style="fill:#1f77b4;stroke:#1f77b4;" x="119.306615" xlink:href="#m16e0bca5ba" y="146.486517"/>
     <use style="fill:#1f77b4;stroke:#1f77b4;" x="194.17899" xlink:href="#m16e0bca5ba" y="213.364408"/>
     <use style="fill:#1f77b4;stroke:#1f77b4;" x="143.397177" xlink:href="#m16e0bca5ba" y="211.189078"/>
     <use style="fill:#1f77b4;stroke:#1f77b4;" x="80.454944" xlink:href="#m16e0bca5ba" y="226.115164"/>
     <use style="fill:#1f77b4;stroke:#1f77b4;" x="221.834963" xlink:href="#m16e0bca5ba" y="231.858583"/>
     <use style="fill:#1f77b4;stroke:#1f77b4;" x="142.739303" xlink:href="#m16e0bca5ba" y="203.48375"/>
     <use style="fill:#1f77b4;stroke:#1f77b4;" x="156.874281" xlink:href="#m16e0bca5ba" y="198.347974"/>
     <use style="fill:#1f77b4;stroke:#1f77b4;" x="127.32426" xlink:href="#m16e0bca5ba" y="85.105916"/>
     <use style="fill:#1f77b4;stroke:#1f77b4;" x="200.822264" xlink:href="#m16e0bca5ba" y="195.468294"/>
     <use style="fill:#1f77b4;stroke:#1f77b4;" x="134.23547" xlink:href="#m16e0bca5ba" y="69.940881"/>
     <use style="fill:#1f77b4;stroke:#1f77b4;" x="147.202388" xlink:href="#m16e0bca5ba" y="236.828858"/>
     <use style="fill:#1f77b4;stroke:#1f77b4;" x="335.795521" xlink:href="#m16e0bca5ba" y="239.56994"/>
     <use style="fill:#1f77b4;stroke:#1f77b4;" x="69.218182" xlink:href="#m16e0bca5ba" y="212.097626"/>
     <use style="fill:#1f77b4;stroke:#1f77b4;" x="224.179159" xlink:href="#m16e0bca5ba" y="222.551414"/>
     <use style="fill:#1f77b4;stroke:#1f77b4;" x="344.718982" xlink:href="#m16e0bca5ba" y="228.327906"/>
     <use style="fill:#1f77b4;stroke:#1f77b4;" x="167.126961" xlink:href="#m16e0bca5ba" y="188.296454"/>
     <use style="fill:#1f77b4;stroke:#1f77b4;" x="302.36792" xlink:href="#m16e0bca5ba" y="231.964"/>
     <use style="fill:#1f77b4;stroke:#1f77b4;" x="194.17899" xlink:href="#m16e0bca5ba" y="225.739298"/>
     <use style="fill:#1f77b4;stroke:#1f77b4;" x="142.739303" xlink:href="#m16e0bca5ba" y="238.622565"/>
     <use style="fill:#1f77b4;stroke:#1f77b4;" x="156.874281" xlink:href="#m16e0bca5ba" y="215.904222"/>
     <use style="fill:#1f77b4;stroke:#1f77b4;" x="150.671674" xlink:href="#m16e0bca5ba" y="113.471919"/>
     <use style="fill:#1f77b4;stroke:#1f77b4;" x="148.970412" xlink:href="#m16e0bca5ba" y="210.248383"/>
     <use style="fill:#1f77b4;stroke:#1f77b4;" x="230.991095" xlink:href="#m16e0bca5ba" y="241.295812"/>
     <use style="fill:#1f77b4;stroke:#1f77b4;" x="73.622847" xlink:href="#m16e0bca5ba" y="172.8347"/>
     <use style="fill:#1f77b4;stroke:#1f77b4;" x="204.114279" xlink:href="#m16e0bca5ba" y="224.623683"/>
     <use style="fill:#1f77b4;stroke:#1f77b4;" x="255.936031" xlink:href="#m16e0bca5ba" y="236.589239"/>
    </g>
   </g>
   <g id="patch_3">
    <path d="M 54 252 
L 54 34.56 
" style="fill:none;stroke:#000000;stroke-linecap:square;stroke-linejoin:miter;stroke-width:0.8;"/>
   </g>
   <g id="patch_4">
    <path d="M 388.8 252 
L 388.8 34.56 
" style="fill:none;stroke:#000000;stroke-linecap:square;stroke-linejoin:miter;stroke-width:0.8;"/>
   </g>
   <g id="patch_5">
    <path d="M 54 252 
L 388.8 252 
" style="fill:none;stroke:#000000;stroke-linecap:square;stroke-linejoin:miter;stroke-width:0.8;"/>
   </g>
   <g id="patch_6">
    <path d="M 54 34.56 
L 388.8 34.56 
" style="fill:none;stroke:#000000;stroke-linecap:square;stroke-linejoin:miter;stroke-width:0.8;"/>
   </g>
   <g id="text_16">
    <!-- Simulated cross-peak intensities as a function of C-C separation -->
    <defs>
     <path d="M 37.109375 75.984375 
L 37.109375 68.5 
L 28.515625 68.5 
Q 23.6875 68.5 21.796875 66.546875 
Q 19.921875 64.59375 19.921875 59.515625 
L 19.921875 54.6875 
L 34.71875 54.6875 
L 34.71875 47.703125 
L 19.921875 47.703125 
L 19.921875 0 
L 10.890625 0 
L 10.890625 47.703125 
L 2.296875 47.703125 
L 2.296875 54.6875 
L 10.890625 54.6875 
L 10.890625 58.5 
Q 10.890625 67.625 15.140625 71.796875 
Q 19.390625 75.984375 28.609375 75.984375 
z
" id="DejaVuSans-66"/>
     <path d="M 64.40625 67.28125 
L 64.40625 56.890625 
Q 59.421875 61.53125 53.78125 63.8125 
Q 48.140625 66.109375 41.796875 66.109375 
Q 29.296875 66.109375 22.65625 58.46875 
Q 16.015625 50.828125 16.015625 36.375 
Q 16.015625 21.96875 22.65625 14.328125 
Q 29.296875 6.6875 41.796875 6.6875 
Q 48.140625 6.6875 53.78125 8.984375 
Q 59.421875 11.28125 64.40625 15.921875 
L 64.40625 5.609375 
Q 59.234375 2.09375 53.4375 0.328125 
Q 47.65625 -1.421875 41.21875 -1.421875 
Q 24.65625 -1.421875 15.125 8.703125 
Q 5.609375 18.84375 5.609375 36.375 
Q 5.609375 53.953125 15.125 64.078125 
Q 24.65625 74.21875 41.21875 74.21875 
Q 47.75 74.21875 53.53125 72.484375 
Q 59.328125 70.75 64.40625 67.28125 
z
" id="DejaVuSans-43"/>
    </defs>
    <g transform="translate(29.121563 15.122625)scale(0.12 -0.12)">
     <use xlink:href="#DejaVuSans-53"/>
     <use x="63.476562" xlink:href="#DejaVuSans-69"/>
     <use x="91.259766" xlink:href="#DejaVuSans-6d"/>
     <use x="188.671875" xlink:href="#DejaVuSans-75"/>
     <use x="252.050781" xlink:href="#DejaVuSans-6c"/>
     <use x="279.833984" xlink:href="#DejaVuSans-61"/>
     <use x="341.113281" xlink:href="#DejaVuSans-74"/>
     <use x="380.322266" xlink:href="#DejaVuSans-65"/>
     <use x="441.845703" xlink:href="#DejaVuSans-64"/>
     <use x="505.322266" xlink:href="#DejaVuSans-20"/>
     <use x="537.109375" xlink:href="#DejaVuSans-63"/>
     <use x="592.089844" xlink:href="#DejaVuSans-72"/>
     <use x="633.171875" xlink:href="#DejaVuSans-6f"/>
     <use x="694.353516" xlink:href="#DejaVuSans-73"/>
     <use x="746.453125" xlink:href="#DejaVuSans-73"/>
     <use x="798.552734" xlink:href="#DejaVuSans-2d"/>
     <use x="834.636719" xlink:href="#DejaVuSans-70"/>
     <use x="898.113281" xlink:href="#DejaVuSans-65"/>
     <use x="959.636719" xlink:href="#DejaVuSans-61"/>
     <use x="1020.916016" xlink:href="#DejaVuSans-6b"/>
     <use x="1078.826172" xlink:href="#DejaVuSans-20"/>
     <use x="1110.613281" xlink:href="#DejaVuSans-69"/>
     <use x="1138.396484" xlink:href="#DejaVuSans-6e"/>
     <use x="1201.775391" xlink:href="#DejaVuSans-74"/>
     <use x="1240.984375" xlink:href="#DejaVuSans-65"/>
     <use x="1302.507812" xlink:href="#DejaVuSans-6e"/>
     <use x="1365.886719" xlink:href="#DejaVuSans-73"/>
     <use x="1417.986328" xlink:href="#DejaVuSans-69"/>
     <use x="1445.769531" xlink:href="#DejaVuSans-74"/>
     <use x="1484.978516" xlink:href="#DejaVuSans-69"/>
     <use x="1512.761719" xlink:href="#DejaVuSans-65"/>
     <use x="1574.285156" xlink:href="#DejaVuSans-73"/>
     <use x="1626.384766" xlink:href="#DejaVuSans-20"/>
     <use x="1658.171875" xlink:href="#DejaVuSans-61"/>
     <use x="1719.451172" xlink:href="#DejaVuSans-73"/>
     <use x="1771.550781" xlink:href="#DejaVuSans-20"/>
     <use x="1803.337891" xlink:href="#DejaVuSans-61"/>
     <use x="1864.617188" xlink:href="#DejaVuSans-20"/>
     <use x="1896.404297" xlink:href="#DejaVuSans-66"/>
     <use x="1931.609375" xlink:href="#DejaVuSans-75"/>
     <use x="1994.988281" xlink:href="#DejaVuSans-6e"/>
     <use x="2058.367188" xlink:href="#DejaVuSans-63"/>
     <use x="2113.347656" xlink:href="#DejaVuSans-74"/>
     <use x="2152.556641" xlink:href="#DejaVuSans-69"/>
     <use x="2180.339844" xlink:href="#DejaVuSans-6f"/>
     <use x="2241.521484" xlink:href="#DejaVuSans-6e"/>
     <use x="2304.900391" xlink:href="#DejaVuSans-20"/>
     <use x="2336.6875" xlink:href="#DejaVuSans-6f"/>
     <use x="2397.869141" xlink:href="#DejaVuSans-66"/>
     <use x="2433.074219" xlink:href="#DejaVuSans-20"/>
     <use x="2464.861328" xlink:href="#DejaVuSans-43"/>
     <use x="2534.685547" xlink:href="#DejaVuSans-2d"/>
     <use x="2570.769531" xlink:href="#DejaVuSans-43"/>
     <use x="2640.59375" xlink:href="#DejaVuSans-20"/>
     <use x="2672.380859" xlink:href="#DejaVuSans-73"/>
     <use x="2724.480469" xlink:href="#DejaVuSans-65"/>
     <use x="2786.003906" xlink:href="#DejaVuSans-70"/>
     <use x="2849.480469" xlink:href="#DejaVuSans-61"/>
     <use x="2910.759766" xlink:href="#DejaVuSans-72"/>
     <use x="2951.873047" xlink:href="#DejaVuSans-61"/>
     <use x="3013.152344" xlink:href="#DejaVuSans-74"/>
     <use x="3052.361328" xlink:href="#DejaVuSans-69"/>
     <use x="3080.144531" xlink:href="#DejaVuSans-6f"/>
     <use x="3141.326172" xlink:href="#DejaVuSans-6e"/>
    </g>
    <!-- Sampling rate = 4000 -->
    <defs>
     <path d="M 10.59375 45.40625 
L 73.1875 45.40625 
L 73.1875 37.203125 
L 10.59375 37.203125 
z
M 10.59375 25.484375 
L 73.1875 25.484375 
L 73.1875 17.1875 
L 10.59375 17.1875 
z
" id="DejaVuSans-3d"/>
    </defs>
    <g transform="translate(155.109375 28.56)scale(0.12 -0.12)">
     <use xlink:href="#DejaVuSans-53"/>
     <use x="63.476562" xlink:href="#DejaVuSans-61"/>
     <use x="124.755859" xlink:href="#DejaVuSans-6d"/>
     <use x="222.167969" xlink:href="#DejaVuSans-70"/>
     <use x="285.644531" xlink:href="#DejaVuSans-6c"/>
     <use x="313.427734" xlink:href="#DejaVuSans-69"/>
     <use x="341.210938" xlink:href="#DejaVuSans-6e"/>
     <use x="404.589844" xlink:href="#DejaVuSans-67"/>
     <use x="468.066406" xlink:href="#DejaVuSans-20"/>
     <use x="499.853516" xlink:href="#DejaVuSans-72"/>
     <use x="540.966797" xlink:href="#DejaVuSans-61"/>
     <use x="602.246094" xlink:href="#DejaVuSans-74"/>
     <use x="641.455078" xlink:href="#DejaVuSans-65"/>
     <use x="702.978516" xlink:href="#DejaVuSans-20"/>
     <use x="734.765625" xlink:href="#DejaVuSans-3d"/>
     <use x="818.554688" xlink:href="#DejaVuSans-20"/>
     <use x="850.341797" xlink:href="#DejaVuSans-34"/>
     <use x="913.964844" xlink:href="#DejaVuSans-30"/>
     <use x="977.587891" xlink:href="#DejaVuSans-30"/>
     <use x="1041.210938" xlink:href="#DejaVuSans-30"/>
    </g>
   </g>
  </g>
 </g>
 <defs>
  <clipPath id="pd88be17404">
   <rect height="217.44" width="334.8" x="54" y="34.56"/>
  </clipPath>
 </defs>
</svg>
