<?xml version="1.0" encoding="utf-8" standalone="no"?>
<!DOCTYPE svg PUBLIC "-//W3C//DTD SVG 1.1//EN"
  "http://www.w3.org/Graphics/SVG/1.1/DTD/svg11.dtd">
<!-- Created with matplotlib (http://matplotlib.org/) -->
<svg height="288pt" version="1.1" viewBox="0 0 432 288" width="432pt" xmlns="http://www.w3.org/2000/svg" xmlns:xlink="http://www.w3.org/1999/xlink">
 <defs>
  <style type="text/css">
*{stroke-linecap:butt;stroke-linejoin:round;}
  </style>
 </defs>
 <g id="figure_1">
  <g id="patch_1">
   <path d="M 0 288 
L 432 288 
L 432 0 
L 0 0 
z
" style="fill:#ffffff;"/>
  </g>
  <g id="axes_1">
   <g id="patch_2">
    <path d="M 54 252 
L 388.8 252 
L 388.8 34.56 
L 54 34.56 
z
" style="fill:#ffffff;"/>
   </g>
   <g id="matplotlib.axis_1">
    <g id="xtick_1">
     <g id="line2d_1">
      <defs>
       <path d="M 0 0 
L 0 3.5 
" id="m42e421b7dc" style="stroke:#000000;stroke-width:0.8;"/>
      </defs>
      <g>
       <use style="stroke:#000000;stroke-width:0.8;" x="93.00027" xlink:href="#m42e421b7dc" y="252"/>
      </g>
     </g>
     <g id="text_1">
      <!-- 4 -->
      <defs>
       <path d="M 37.796875 64.3125 
L 12.890625 25.390625 
L 37.796875 25.390625 
z
M 35.203125 72.90625 
L 47.609375 72.90625 
L 47.609375 25.390625 
L 58.015625 25.390625 
L 58.015625 17.1875 
L 47.609375 17.1875 
L 47.609375 0 
L 37.796875 0 
L 37.796875 17.1875 
L 4.890625 17.1875 
L 4.890625 26.703125 
z
" id="DejaVuSans-34"/>
      </defs>
      <g transform="translate(89.81902 266.598437)scale(0.1 -0.1)">
       <use xlink:href="#DejaVuSans-34"/>
      </g>
     </g>
    </g>
    <g id="xtick_2">
     <g id="line2d_2">
      <g>
       <use style="stroke:#000000;stroke-width:0.8;" x="148.23897" xlink:href="#m42e421b7dc" y="252"/>
      </g>
     </g>
     <g id="text_2">
      <!-- 5 -->
      <defs>
       <path d="M 10.796875 72.90625 
L 49.515625 72.90625 
L 49.515625 64.59375 
L 19.828125 64.59375 
L 19.828125 46.734375 
Q 21.96875 47.46875 24.109375 47.828125 
Q 26.265625 48.1875 28.421875 48.1875 
Q 40.625 48.1875 47.75 41.5 
Q 54.890625 34.8125 54.890625 23.390625 
Q 54.890625 11.625 47.5625 5.09375 
Q 40.234375 -1.421875 26.90625 -1.421875 
Q 22.3125 -1.421875 17.546875 -0.640625 
Q 12.796875 0.140625 7.71875 1.703125 
L 7.71875 11.625 
Q 12.109375 9.234375 16.796875 8.0625 
Q 21.484375 6.890625 26.703125 6.890625 
Q 35.15625 6.890625 40.078125 11.328125 
Q 45.015625 15.765625 45.015625 23.390625 
Q 45.015625 31 40.078125 35.4375 
Q 35.15625 39.890625 26.703125 39.890625 
Q 22.75 39.890625 18.8125 39.015625 
Q 14.890625 38.140625 10.796875 36.28125 
z
" id="DejaVuSans-35"/>
      </defs>
      <g transform="translate(145.05772 266.598437)scale(0.1 -0.1)">
       <use xlink:href="#DejaVuSans-35"/>
      </g>
     </g>
    </g>
    <g id="xtick_3">
     <g id="line2d_3">
      <g>
       <use style="stroke:#000000;stroke-width:0.8;" x="203.47767" xlink:href="#m42e421b7dc" y="252"/>
      </g>
     </g>
     <g id="text_3">
      <!-- 6 -->
      <defs>
       <path d="M 33.015625 40.375 
Q 26.375 40.375 22.484375 35.828125 
Q 18.609375 31.296875 18.609375 23.390625 
Q 18.609375 15.53125 22.484375 10.953125 
Q 26.375 6.390625 33.015625 6.390625 
Q 39.65625 6.390625 43.53125 10.953125 
Q 47.40625 15.53125 47.40625 23.390625 
Q 47.40625 31.296875 43.53125 35.828125 
Q 39.65625 40.375 33.015625 40.375 
z
M 52.59375 71.296875 
L 52.59375 62.3125 
Q 48.875 64.0625 45.09375 64.984375 
Q 41.3125 65.921875 37.59375 65.921875 
Q 27.828125 65.921875 22.671875 59.328125 
Q 17.53125 52.734375 16.796875 39.40625 
Q 19.671875 43.65625 24.015625 45.921875 
Q 28.375 48.1875 33.59375 48.1875 
Q 44.578125 48.1875 50.953125 41.515625 
Q 57.328125 34.859375 57.328125 23.390625 
Q 57.328125 12.15625 50.6875 5.359375 
Q 44.046875 -1.421875 33.015625 -1.421875 
Q 20.359375 -1.421875 13.671875 8.265625 
Q 6.984375 17.96875 6.984375 36.375 
Q 6.984375 53.65625 15.1875 63.9375 
Q 23.390625 74.21875 37.203125 74.21875 
Q 40.921875 74.21875 44.703125 73.484375 
Q 48.484375 72.75 52.59375 71.296875 
z
" id="DejaVuSans-36"/>
      </defs>
      <g transform="translate(200.29642 266.598437)scale(0.1 -0.1)">
       <use xlink:href="#DejaVuSans-36"/>
      </g>
     </g>
    </g>
    <g id="xtick_4">
     <g id="line2d_4">
      <g>
       <use style="stroke:#000000;stroke-width:0.8;" x="258.71637" xlink:href="#m42e421b7dc" y="252"/>
      </g>
     </g>
     <g id="text_4">
      <!-- 7 -->
      <defs>
       <path d="M 8.203125 72.90625 
L 55.078125 72.90625 
L 55.078125 68.703125 
L 28.609375 0 
L 18.3125 0 
L 43.21875 64.59375 
L 8.203125 64.59375 
z
" id="DejaVuSans-37"/>
      </defs>
      <g transform="translate(255.53512 266.598437)scale(0.1 -0.1)">
       <use xlink:href="#DejaVuSans-37"/>
      </g>
     </g>
    </g>
    <g id="xtick_5">
     <g id="line2d_5">
      <g>
       <use style="stroke:#000000;stroke-width:0.8;" x="313.955071" xlink:href="#m42e421b7dc" y="252"/>
      </g>
     </g>
     <g id="text_5">
      <!-- 8 -->
      <defs>
       <path d="M 31.78125 34.625 
Q 24.75 34.625 20.71875 30.859375 
Q 16.703125 27.09375 16.703125 20.515625 
Q 16.703125 13.921875 20.71875 10.15625 
Q 24.75 6.390625 31.78125 6.390625 
Q 38.8125 6.390625 42.859375 10.171875 
Q 46.921875 13.96875 46.921875 20.515625 
Q 46.921875 27.09375 42.890625 30.859375 
Q 38.875 34.625 31.78125 34.625 
z
M 21.921875 38.8125 
Q 15.578125 40.375 12.03125 44.71875 
Q 8.5 49.078125 8.5 55.328125 
Q 8.5 64.0625 14.71875 69.140625 
Q 20.953125 74.21875 31.78125 74.21875 
Q 42.671875 74.21875 48.875 69.140625 
Q 55.078125 64.0625 55.078125 55.328125 
Q 55.078125 49.078125 51.53125 44.71875 
Q 48 40.375 41.703125 38.8125 
Q 48.828125 37.15625 52.796875 32.3125 
Q 56.78125 27.484375 56.78125 20.515625 
Q 56.78125 9.90625 50.3125 4.234375 
Q 43.84375 -1.421875 31.78125 -1.421875 
Q 19.734375 -1.421875 13.25 4.234375 
Q 6.78125 9.90625 6.78125 20.515625 
Q 6.78125 27.484375 10.78125 32.3125 
Q 14.796875 37.15625 21.921875 38.8125 
z
M 18.3125 54.390625 
Q 18.3125 48.734375 21.84375 45.5625 
Q 25.390625 42.390625 31.78125 42.390625 
Q 38.140625 42.390625 41.71875 45.5625 
Q 45.3125 48.734375 45.3125 54.390625 
Q 45.3125 60.0625 41.71875 63.234375 
Q 38.140625 66.40625 31.78125 66.40625 
Q 25.390625 66.40625 21.84375 63.234375 
Q 18.3125 60.0625 18.3125 54.390625 
z
" id="DejaVuSans-38"/>
      </defs>
      <g transform="translate(310.773821 266.598437)scale(0.1 -0.1)">
       <use xlink:href="#DejaVuSans-38"/>
      </g>
     </g>
    </g>
    <g id="xtick_6">
     <g id="line2d_6">
      <g>
       <use style="stroke:#000000;stroke-width:0.8;" x="369.193771" xlink:href="#m42e421b7dc" y="252"/>
      </g>
     </g>
     <g id="text_6">
      <!-- 9 -->
      <defs>
       <path d="M 10.984375 1.515625 
L 10.984375 10.5 
Q 14.703125 8.734375 18.5 7.8125 
Q 22.3125 6.890625 25.984375 6.890625 
Q 35.75 6.890625 40.890625 13.453125 
Q 46.046875 20.015625 46.78125 33.40625 
Q 43.953125 29.203125 39.59375 26.953125 
Q 35.25 24.703125 29.984375 24.703125 
Q 19.046875 24.703125 12.671875 31.3125 
Q 6.296875 37.9375 6.296875 49.421875 
Q 6.296875 60.640625 12.9375 67.421875 
Q 19.578125 74.21875 30.609375 74.21875 
Q 43.265625 74.21875 49.921875 64.515625 
Q 56.59375 54.828125 56.59375 36.375 
Q 56.59375 19.140625 48.40625 8.859375 
Q 40.234375 -1.421875 26.421875 -1.421875 
Q 22.703125 -1.421875 18.890625 -0.6875 
Q 15.09375 0.046875 10.984375 1.515625 
z
M 30.609375 32.421875 
Q 37.25 32.421875 41.125 36.953125 
Q 45.015625 41.5 45.015625 49.421875 
Q 45.015625 57.28125 41.125 61.84375 
Q 37.25 66.40625 30.609375 66.40625 
Q 23.96875 66.40625 20.09375 61.84375 
Q 16.21875 57.28125 16.21875 49.421875 
Q 16.21875 41.5 20.09375 36.953125 
Q 23.96875 32.421875 30.609375 32.421875 
z
" id="DejaVuSans-39"/>
      </defs>
      <g transform="translate(366.012521 266.598437)scale(0.1 -0.1)">
       <use xlink:href="#DejaVuSans-39"/>
      </g>
     </g>
    </g>
    <g id="text_7">
     <!-- Distance/Angstroms -->
     <defs>
      <path d="M 19.671875 64.796875 
L 19.671875 8.109375 
L 31.59375 8.109375 
Q 46.6875 8.109375 53.6875 14.9375 
Q 60.6875 21.78125 60.6875 36.53125 
Q 60.6875 51.171875 53.6875 57.984375 
Q 46.6875 64.796875 31.59375 64.796875 
z
M 9.8125 72.90625 
L 30.078125 72.90625 
Q 51.265625 72.90625 61.171875 64.09375 
Q 71.09375 55.28125 71.09375 36.53125 
Q 71.09375 17.671875 61.125 8.828125 
Q 51.171875 0 30.078125 0 
L 9.8125 0 
z
" id="DejaVuSans-44"/>
      <path d="M 9.421875 54.6875 
L 18.40625 54.6875 
L 18.40625 0 
L 9.421875 0 
z
M 9.421875 75.984375 
L 18.40625 75.984375 
L 18.40625 64.59375 
L 9.421875 64.59375 
z
" id="DejaVuSans-69"/>
      <path d="M 44.28125 53.078125 
L 44.28125 44.578125 
Q 40.484375 46.53125 36.375 47.5 
Q 32.28125 48.484375 27.875 48.484375 
Q 21.1875 48.484375 17.84375 46.4375 
Q 14.5 44.390625 14.5 40.28125 
Q 14.5 37.15625 16.890625 35.375 
Q 19.28125 33.59375 26.515625 31.984375 
L 29.59375 31.296875 
Q 39.15625 29.25 43.1875 25.515625 
Q 47.21875 21.78125 47.21875 15.09375 
Q 47.21875 7.46875 41.1875 3.015625 
Q 35.15625 -1.421875 24.609375 -1.421875 
Q 20.21875 -1.421875 15.453125 -0.5625 
Q 10.6875 0.296875 5.421875 2 
L 5.421875 11.28125 
Q 10.40625 8.6875 15.234375 7.390625 
Q 20.0625 6.109375 24.8125 6.109375 
Q 31.15625 6.109375 34.5625 8.28125 
Q 37.984375 10.453125 37.984375 14.40625 
Q 37.984375 18.0625 35.515625 20.015625 
Q 33.0625 21.96875 24.703125 23.78125 
L 21.578125 24.515625 
Q 13.234375 26.265625 9.515625 29.90625 
Q 5.8125 33.546875 5.8125 39.890625 
Q 5.8125 47.609375 11.28125 51.796875 
Q 16.75 56 26.8125 56 
Q 31.78125 56 36.171875 55.265625 
Q 40.578125 54.546875 44.28125 53.078125 
z
" id="DejaVuSans-73"/>
      <path d="M 18.3125 70.21875 
L 18.3125 54.6875 
L 36.8125 54.6875 
L 36.8125 47.703125 
L 18.3125 47.703125 
L 18.3125 18.015625 
Q 18.3125 11.328125 20.140625 9.421875 
Q 21.96875 7.515625 27.59375 7.515625 
L 36.8125 7.515625 
L 36.8125 0 
L 27.59375 0 
Q 17.1875 0 13.234375 3.875 
Q 9.28125 7.765625 9.28125 18.015625 
L 9.28125 47.703125 
L 2.6875 47.703125 
L 2.6875 54.6875 
L 9.28125 54.6875 
L 9.28125 70.21875 
z
" id="DejaVuSans-74"/>
      <path d="M 34.28125 27.484375 
Q 23.390625 27.484375 19.1875 25 
Q 14.984375 22.515625 14.984375 16.5 
Q 14.984375 11.71875 18.140625 8.90625 
Q 21.296875 6.109375 26.703125 6.109375 
Q 34.1875 6.109375 38.703125 11.40625 
Q 43.21875 16.703125 43.21875 25.484375 
L 43.21875 27.484375 
z
M 52.203125 31.203125 
L 52.203125 0 
L 43.21875 0 
L 43.21875 8.296875 
Q 40.140625 3.328125 35.546875 0.953125 
Q 30.953125 -1.421875 24.3125 -1.421875 
Q 15.921875 -1.421875 10.953125 3.296875 
Q 6 8.015625 6 15.921875 
Q 6 25.140625 12.171875 29.828125 
Q 18.359375 34.515625 30.609375 34.515625 
L 43.21875 34.515625 
L 43.21875 35.40625 
Q 43.21875 41.609375 39.140625 45 
Q 35.0625 48.390625 27.6875 48.390625 
Q 23 48.390625 18.546875 47.265625 
Q 14.109375 46.140625 10.015625 43.890625 
L 10.015625 52.203125 
Q 14.9375 54.109375 19.578125 55.046875 
Q 24.21875 56 28.609375 56 
Q 40.484375 56 46.34375 49.84375 
Q 52.203125 43.703125 52.203125 31.203125 
z
" id="DejaVuSans-61"/>
      <path d="M 54.890625 33.015625 
L 54.890625 0 
L 45.90625 0 
L 45.90625 32.71875 
Q 45.90625 40.484375 42.875 44.328125 
Q 39.84375 48.1875 33.796875 48.1875 
Q 26.515625 48.1875 22.3125 43.546875 
Q 18.109375 38.921875 18.109375 30.90625 
L 18.109375 0 
L 9.078125 0 
L 9.078125 54.6875 
L 18.109375 54.6875 
L 18.109375 46.1875 
Q 21.34375 51.125 25.703125 53.5625 
Q 30.078125 56 35.796875 56 
Q 45.21875 56 50.046875 50.171875 
Q 54.890625 44.34375 54.890625 33.015625 
z
" id="DejaVuSans-6e"/>
      <path d="M 48.78125 52.59375 
L 48.78125 44.1875 
Q 44.96875 46.296875 41.140625 47.34375 
Q 37.3125 48.390625 33.40625 48.390625 
Q 24.65625 48.390625 19.8125 42.84375 
Q 14.984375 37.3125 14.984375 27.296875 
Q 14.984375 17.28125 19.8125 11.734375 
Q 24.65625 6.203125 33.40625 6.203125 
Q 37.3125 6.203125 41.140625 7.25 
Q 44.96875 8.296875 48.78125 10.40625 
L 48.78125 2.09375 
Q 45.015625 0.34375 40.984375 -0.53125 
Q 36.96875 -1.421875 32.421875 -1.421875 
Q 20.0625 -1.421875 12.78125 6.34375 
Q 5.515625 14.109375 5.515625 27.296875 
Q 5.515625 40.671875 12.859375 48.328125 
Q 20.21875 56 33.015625 56 
Q 37.15625 56 41.109375 55.140625 
Q 45.0625 54.296875 48.78125 52.59375 
z
" id="DejaVuSans-63"/>
      <path d="M 56.203125 29.59375 
L 56.203125 25.203125 
L 14.890625 25.203125 
Q 15.484375 15.921875 20.484375 11.0625 
Q 25.484375 6.203125 34.421875 6.203125 
Q 39.59375 6.203125 44.453125 7.46875 
Q 49.3125 8.734375 54.109375 11.28125 
L 54.109375 2.78125 
Q 49.265625 0.734375 44.1875 -0.34375 
Q 39.109375 -1.421875 33.890625 -1.421875 
Q 20.796875 -1.421875 13.15625 6.1875 
Q 5.515625 13.8125 5.515625 26.8125 
Q 5.515625 40.234375 12.765625 48.109375 
Q 20.015625 56 32.328125 56 
Q 43.359375 56 49.78125 48.890625 
Q 56.203125 41.796875 56.203125 29.59375 
z
M 47.21875 32.234375 
Q 47.125 39.59375 43.09375 43.984375 
Q 39.0625 48.390625 32.421875 48.390625 
Q 24.90625 48.390625 20.390625 44.140625 
Q 15.875 39.890625 15.1875 32.171875 
z
" id="DejaVuSans-65"/>
      <path d="M 25.390625 72.90625 
L 33.6875 72.90625 
L 8.296875 -9.28125 
L 0 -9.28125 
z
" id="DejaVuSans-2f"/>
      <path d="M 34.1875 63.1875 
L 20.796875 26.90625 
L 47.609375 26.90625 
z
M 28.609375 72.90625 
L 39.796875 72.90625 
L 67.578125 0 
L 57.328125 0 
L 50.6875 18.703125 
L 17.828125 18.703125 
L 11.1875 0 
L 0.78125 0 
z
" id="DejaVuSans-41"/>
      <path d="M 45.40625 27.984375 
Q 45.40625 37.75 41.375 43.109375 
Q 37.359375 48.484375 30.078125 48.484375 
Q 22.859375 48.484375 18.828125 43.109375 
Q 14.796875 37.75 14.796875 27.984375 
Q 14.796875 18.265625 18.828125 12.890625 
Q 22.859375 7.515625 30.078125 7.515625 
Q 37.359375 7.515625 41.375 12.890625 
Q 45.40625 18.265625 45.40625 27.984375 
z
M 54.390625 6.78125 
Q 54.390625 -7.171875 48.1875 -13.984375 
Q 42 -20.796875 29.203125 -20.796875 
Q 24.46875 -20.796875 20.265625 -20.09375 
Q 16.0625 -19.390625 12.109375 -17.921875 
L 12.109375 -9.1875 
Q 16.0625 -11.328125 19.921875 -12.34375 
Q 23.78125 -13.375 27.78125 -13.375 
Q 36.625 -13.375 41.015625 -8.765625 
Q 45.40625 -4.15625 45.40625 5.171875 
L 45.40625 9.625 
Q 42.625 4.78125 38.28125 2.390625 
Q 33.9375 0 27.875 0 
Q 17.828125 0 11.671875 7.65625 
Q 5.515625 15.328125 5.515625 27.984375 
Q 5.515625 40.671875 11.671875 48.328125 
Q 17.828125 56 27.875 56 
Q 33.9375 56 38.28125 53.609375 
Q 42.625 51.21875 45.40625 46.390625 
L 45.40625 54.6875 
L 54.390625 54.6875 
z
" id="DejaVuSans-67"/>
      <path d="M 41.109375 46.296875 
Q 39.59375 47.171875 37.8125 47.578125 
Q 36.03125 48 33.890625 48 
Q 26.265625 48 22.1875 43.046875 
Q 18.109375 38.09375 18.109375 28.8125 
L 18.109375 0 
L 9.078125 0 
L 9.078125 54.6875 
L 18.109375 54.6875 
L 18.109375 46.1875 
Q 20.953125 51.171875 25.484375 53.578125 
Q 30.03125 56 36.53125 56 
Q 37.453125 56 38.578125 55.875 
Q 39.703125 55.765625 41.0625 55.515625 
z
" id="DejaVuSans-72"/>
      <path d="M 30.609375 48.390625 
Q 23.390625 48.390625 19.1875 42.75 
Q 14.984375 37.109375 14.984375 27.296875 
Q 14.984375 17.484375 19.15625 11.84375 
Q 23.34375 6.203125 30.609375 6.203125 
Q 37.796875 6.203125 41.984375 11.859375 
Q 46.1875 17.53125 46.1875 27.296875 
Q 46.1875 37.015625 41.984375 42.703125 
Q 37.796875 48.390625 30.609375 48.390625 
z
M 30.609375 56 
Q 42.328125 56 49.015625 48.375 
Q 55.71875 40.765625 55.71875 27.296875 
Q 55.71875 13.875 49.015625 6.21875 
Q 42.328125 -1.421875 30.609375 -1.421875 
Q 18.84375 -1.421875 12.171875 6.21875 
Q 5.515625 13.875 5.515625 27.296875 
Q 5.515625 40.765625 12.171875 48.375 
Q 18.84375 56 30.609375 56 
z
" id="DejaVuSans-6f"/>
      <path d="M 52 44.1875 
Q 55.375 50.25 60.0625 53.125 
Q 64.75 56 71.09375 56 
Q 79.640625 56 84.28125 50.015625 
Q 88.921875 44.046875 88.921875 33.015625 
L 88.921875 0 
L 79.890625 0 
L 79.890625 32.71875 
Q 79.890625 40.578125 77.09375 44.375 
Q 74.3125 48.1875 68.609375 48.1875 
Q 61.625 48.1875 57.5625 43.546875 
Q 53.515625 38.921875 53.515625 30.90625 
L 53.515625 0 
L 44.484375 0 
L 44.484375 32.71875 
Q 44.484375 40.625 41.703125 44.40625 
Q 38.921875 48.1875 33.109375 48.1875 
Q 26.21875 48.1875 22.15625 43.53125 
Q 18.109375 38.875 18.109375 30.90625 
L 18.109375 0 
L 9.078125 0 
L 9.078125 54.6875 
L 18.109375 54.6875 
L 18.109375 46.1875 
Q 21.1875 51.21875 25.484375 53.609375 
Q 29.78125 56 35.6875 56 
Q 41.65625 56 45.828125 52.96875 
Q 50 49.953125 52 44.1875 
z
" id="DejaVuSans-6d"/>
     </defs>
     <g transform="translate(170.936719 280.276563)scale(0.1 -0.1)">
      <use xlink:href="#DejaVuSans-44"/>
      <use x="77.001953" xlink:href="#DejaVuSans-69"/>
      <use x="104.785156" xlink:href="#DejaVuSans-73"/>
      <use x="156.884766" xlink:href="#DejaVuSans-74"/>
      <use x="196.09375" xlink:href="#DejaVuSans-61"/>
      <use x="257.373047" xlink:href="#DejaVuSans-6e"/>
      <use x="320.751953" xlink:href="#DejaVuSans-63"/>
      <use x="375.732422" xlink:href="#DejaVuSans-65"/>
      <use x="437.255859" xlink:href="#DejaVuSans-2f"/>
      <use x="470.947266" xlink:href="#DejaVuSans-41"/>
      <use x="539.355469" xlink:href="#DejaVuSans-6e"/>
      <use x="602.734375" xlink:href="#DejaVuSans-67"/>
      <use x="666.210938" xlink:href="#DejaVuSans-73"/>
      <use x="718.310547" xlink:href="#DejaVuSans-74"/>
      <use x="757.519531" xlink:href="#DejaVuSans-72"/>
      <use x="798.601562" xlink:href="#DejaVuSans-6f"/>
      <use x="859.783203" xlink:href="#DejaVuSans-6d"/>
      <use x="957.195312" xlink:href="#DejaVuSans-73"/>
     </g>
    </g>
   </g>
   <g id="matplotlib.axis_2">
    <g id="ytick_1">
     <g id="line2d_7">
      <defs>
       <path d="M 0 0 
L -3.5 0 
" id="m05fc9891a9" style="stroke:#000000;stroke-width:0.8;"/>
      </defs>
      <g>
       <use style="stroke:#000000;stroke-width:0.8;" x="54" xlink:href="#m05fc9891a9" y="242.9069"/>
      </g>
     </g>
     <g id="text_8">
      <!-- 0.0 -->
      <defs>
       <path d="M 31.78125 66.40625 
Q 24.171875 66.40625 20.328125 58.90625 
Q 16.5 51.421875 16.5 36.375 
Q 16.5 21.390625 20.328125 13.890625 
Q 24.171875 6.390625 31.78125 6.390625 
Q 39.453125 6.390625 43.28125 13.890625 
Q 47.125 21.390625 47.125 36.375 
Q 47.125 51.421875 43.28125 58.90625 
Q 39.453125 66.40625 31.78125 66.40625 
z
M 31.78125 74.21875 
Q 44.046875 74.21875 50.515625 64.515625 
Q 56.984375 54.828125 56.984375 36.375 
Q 56.984375 17.96875 50.515625 8.265625 
Q 44.046875 -1.421875 31.78125 -1.421875 
Q 19.53125 -1.421875 13.0625 8.265625 
Q 6.59375 17.96875 6.59375 36.375 
Q 6.59375 54.828125 13.0625 64.515625 
Q 19.53125 74.21875 31.78125 74.21875 
z
" id="DejaVuSans-30"/>
       <path d="M 10.6875 12.40625 
L 21 12.40625 
L 21 0 
L 10.6875 0 
z
" id="DejaVuSans-2e"/>
      </defs>
      <g transform="translate(31.096875 246.706119)scale(0.1 -0.1)">
       <use xlink:href="#DejaVuSans-30"/>
       <use x="63.623047" xlink:href="#DejaVuSans-2e"/>
       <use x="95.410156" xlink:href="#DejaVuSans-30"/>
      </g>
     </g>
    </g>
    <g id="ytick_2">
     <g id="line2d_8">
      <g>
       <use style="stroke:#000000;stroke-width:0.8;" x="54" xlink:href="#m05fc9891a9" y="207.616007"/>
      </g>
     </g>
     <g id="text_9">
      <!-- 0.2 -->
      <defs>
       <path d="M 19.1875 8.296875 
L 53.609375 8.296875 
L 53.609375 0 
L 7.328125 0 
L 7.328125 8.296875 
Q 12.9375 14.109375 22.625 23.890625 
Q 32.328125 33.6875 34.8125 36.53125 
Q 39.546875 41.84375 41.421875 45.53125 
Q 43.3125 49.21875 43.3125 52.78125 
Q 43.3125 58.59375 39.234375 62.25 
Q 35.15625 65.921875 28.609375 65.921875 
Q 23.96875 65.921875 18.8125 64.3125 
Q 13.671875 62.703125 7.8125 59.421875 
L 7.8125 69.390625 
Q 13.765625 71.78125 18.9375 73 
Q 24.125 74.21875 28.421875 74.21875 
Q 39.75 74.21875 46.484375 68.546875 
Q 53.21875 62.890625 53.21875 53.421875 
Q 53.21875 48.921875 51.53125 44.890625 
Q 49.859375 40.875 45.40625 35.40625 
Q 44.1875 33.984375 37.640625 27.21875 
Q 31.109375 20.453125 19.1875 8.296875 
z
" id="DejaVuSans-32"/>
      </defs>
      <g transform="translate(31.096875 211.415226)scale(0.1 -0.1)">
       <use xlink:href="#DejaVuSans-30"/>
       <use x="63.623047" xlink:href="#DejaVuSans-2e"/>
       <use x="95.410156" xlink:href="#DejaVuSans-32"/>
      </g>
     </g>
    </g>
    <g id="ytick_3">
     <g id="line2d_9">
      <g>
       <use style="stroke:#000000;stroke-width:0.8;" x="54" xlink:href="#m05fc9891a9" y="172.325114"/>
      </g>
     </g>
     <g id="text_10">
      <!-- 0.4 -->
      <g transform="translate(31.096875 176.124332)scale(0.1 -0.1)">
       <use xlink:href="#DejaVuSans-30"/>
       <use x="63.623047" xlink:href="#DejaVuSans-2e"/>
       <use x="95.410156" xlink:href="#DejaVuSans-34"/>
      </g>
     </g>
    </g>
    <g id="ytick_4">
     <g id="line2d_10">
      <g>
       <use style="stroke:#000000;stroke-width:0.8;" x="54" xlink:href="#m05fc9891a9" y="137.034221"/>
      </g>
     </g>
     <g id="text_11">
      <!-- 0.6 -->
      <g transform="translate(31.096875 140.833439)scale(0.1 -0.1)">
       <use xlink:href="#DejaVuSans-30"/>
       <use x="63.623047" xlink:href="#DejaVuSans-2e"/>
       <use x="95.410156" xlink:href="#DejaVuSans-36"/>
      </g>
     </g>
    </g>
    <g id="ytick_5">
     <g id="line2d_11">
      <g>
       <use style="stroke:#000000;stroke-width:0.8;" x="54" xlink:href="#m05fc9891a9" y="101.743327"/>
      </g>
     </g>
     <g id="text_12">
      <!-- 0.8 -->
      <g transform="translate(31.096875 105.542546)scale(0.1 -0.1)">
       <use xlink:href="#DejaVuSans-30"/>
       <use x="63.623047" xlink:href="#DejaVuSans-2e"/>
       <use x="95.410156" xlink:href="#DejaVuSans-38"/>
      </g>
     </g>
    </g>
    <g id="ytick_6">
     <g id="line2d_12">
      <g>
       <use style="stroke:#000000;stroke-width:0.8;" x="54" xlink:href="#m05fc9891a9" y="66.452434"/>
      </g>
     </g>
     <g id="text_13">
      <!-- 1.0 -->
      <defs>
       <path d="M 12.40625 8.296875 
L 28.515625 8.296875 
L 28.515625 63.921875 
L 10.984375 60.40625 
L 10.984375 69.390625 
L 28.421875 72.90625 
L 38.28125 72.90625 
L 38.28125 8.296875 
L 54.390625 8.296875 
L 54.390625 0 
L 12.40625 0 
z
" id="DejaVuSans-31"/>
      </defs>
      <g transform="translate(31.096875 70.251653)scale(0.1 -0.1)">
       <use xlink:href="#DejaVuSans-31"/>
       <use x="63.623047" xlink:href="#DejaVuSans-2e"/>
       <use x="95.410156" xlink:href="#DejaVuSans-30"/>
      </g>
     </g>
    </g>
    <g id="text_14">
     <!-- Simulated cross-peak intensity -->
     <defs>
      <path d="M 53.515625 70.515625 
L 53.515625 60.890625 
Q 47.90625 63.578125 42.921875 64.890625 
Q 37.9375 66.21875 33.296875 66.21875 
Q 25.25 66.21875 20.875 63.09375 
Q 16.5 59.96875 16.5 54.203125 
Q 16.5 49.359375 19.40625 46.890625 
Q 22.3125 44.4375 30.421875 42.921875 
L 36.375 41.703125 
Q 47.40625 39.59375 52.65625 34.296875 
Q 57.90625 29 57.90625 20.125 
Q 57.90625 9.515625 50.796875 4.046875 
Q 43.703125 -1.421875 29.984375 -1.421875 
Q 24.8125 -1.421875 18.96875 -0.25 
Q 13.140625 0.921875 6.890625 3.21875 
L 6.890625 13.375 
Q 12.890625 10.015625 18.65625 8.296875 
Q 24.421875 6.59375 29.984375 6.59375 
Q 38.421875 6.59375 43.015625 9.90625 
Q 47.609375 13.234375 47.609375 19.390625 
Q 47.609375 24.75 44.3125 27.78125 
Q 41.015625 30.8125 33.5 32.328125 
L 27.484375 33.5 
Q 16.453125 35.6875 11.515625 40.375 
Q 6.59375 45.0625 6.59375 53.421875 
Q 6.59375 63.09375 13.40625 68.65625 
Q 20.21875 74.21875 32.171875 74.21875 
Q 37.3125 74.21875 42.625 73.28125 
Q 47.953125 72.359375 53.515625 70.515625 
z
" id="DejaVuSans-53"/>
      <path d="M 8.5 21.578125 
L 8.5 54.6875 
L 17.484375 54.6875 
L 17.484375 21.921875 
Q 17.484375 14.15625 20.5 10.265625 
Q 23.53125 6.390625 29.59375 6.390625 
Q 36.859375 6.390625 41.078125 11.03125 
Q 45.3125 15.671875 45.3125 23.6875 
L 45.3125 54.6875 
L 54.296875 54.6875 
L 54.296875 0 
L 45.3125 0 
L 45.3125 8.40625 
Q 42.046875 3.421875 37.71875 1 
Q 33.40625 -1.421875 27.6875 -1.421875 
Q 18.265625 -1.421875 13.375 4.4375 
Q 8.5 10.296875 8.5 21.578125 
z
M 31.109375 56 
z
" id="DejaVuSans-75"/>
      <path d="M 9.421875 75.984375 
L 18.40625 75.984375 
L 18.40625 0 
L 9.421875 0 
z
" id="DejaVuSans-6c"/>
      <path d="M 45.40625 46.390625 
L 45.40625 75.984375 
L 54.390625 75.984375 
L 54.390625 0 
L 45.40625 0 
L 45.40625 8.203125 
Q 42.578125 3.328125 38.25 0.953125 
Q 33.9375 -1.421875 27.875 -1.421875 
Q 17.96875 -1.421875 11.734375 6.484375 
Q 5.515625 14.40625 5.515625 27.296875 
Q 5.515625 40.1875 11.734375 48.09375 
Q 17.96875 56 27.875 56 
Q 33.9375 56 38.25 53.625 
Q 42.578125 51.265625 45.40625 46.390625 
z
M 14.796875 27.296875 
Q 14.796875 17.390625 18.875 11.75 
Q 22.953125 6.109375 30.078125 6.109375 
Q 37.203125 6.109375 41.296875 11.75 
Q 45.40625 17.390625 45.40625 27.296875 
Q 45.40625 37.203125 41.296875 42.84375 
Q 37.203125 48.484375 30.078125 48.484375 
Q 22.953125 48.484375 18.875 42.84375 
Q 14.796875 37.203125 14.796875 27.296875 
z
" id="DejaVuSans-64"/>
      <path id="DejaVuSans-20"/>
      <path d="M 4.890625 31.390625 
L 31.203125 31.390625 
L 31.203125 23.390625 
L 4.890625 23.390625 
z
" id="DejaVuSans-2d"/>
      <path d="M 18.109375 8.203125 
L 18.109375 -20.796875 
L 9.078125 -20.796875 
L 9.078125 54.6875 
L 18.109375 54.6875 
L 18.109375 46.390625 
Q 20.953125 51.265625 25.265625 53.625 
Q 29.59375 56 35.59375 56 
Q 45.5625 56 51.78125 48.09375 
Q 58.015625 40.1875 58.015625 27.296875 
Q 58.015625 14.40625 51.78125 6.484375 
Q 45.5625 -1.421875 35.59375 -1.421875 
Q 29.59375 -1.421875 25.265625 0.953125 
Q 20.953125 3.328125 18.109375 8.203125 
z
M 48.6875 27.296875 
Q 48.6875 37.203125 44.609375 42.84375 
Q 40.53125 48.484375 33.40625 48.484375 
Q 26.265625 48.484375 22.1875 42.84375 
Q 18.109375 37.203125 18.109375 27.296875 
Q 18.109375 17.390625 22.1875 11.75 
Q 26.265625 6.109375 33.40625 6.109375 
Q 40.53125 6.109375 44.609375 11.75 
Q 48.6875 17.390625 48.6875 27.296875 
z
" id="DejaVuSans-70"/>
      <path d="M 9.078125 75.984375 
L 18.109375 75.984375 
L 18.109375 31.109375 
L 44.921875 54.6875 
L 56.390625 54.6875 
L 27.390625 29.109375 
L 57.625 0 
L 45.90625 0 
L 18.109375 26.703125 
L 18.109375 0 
L 9.078125 0 
z
" id="DejaVuSans-6b"/>
      <path d="M 32.171875 -5.078125 
Q 28.375 -14.84375 24.75 -17.8125 
Q 21.140625 -20.796875 15.09375 -20.796875 
L 7.90625 -20.796875 
L 7.90625 -13.28125 
L 13.1875 -13.28125 
Q 16.890625 -13.28125 18.9375 -11.515625 
Q 21 -9.765625 23.484375 -3.21875 
L 25.09375 0.875 
L 2.984375 54.6875 
L 12.5 54.6875 
L 29.59375 11.921875 
L 46.6875 54.6875 
L 56.203125 54.6875 
z
" id="DejaVuSans-79"/>
     </defs>
     <g transform="translate(25.017187 220.487031)rotate(-90)scale(0.1 -0.1)">
      <use xlink:href="#DejaVuSans-53"/>
      <use x="63.476562" xlink:href="#DejaVuSans-69"/>
      <use x="91.259766" xlink:href="#DejaVuSans-6d"/>
      <use x="188.671875" xlink:href="#DejaVuSans-75"/>
      <use x="252.050781" xlink:href="#DejaVuSans-6c"/>
      <use x="279.833984" xlink:href="#DejaVuSans-61"/>
      <use x="341.113281" xlink:href="#DejaVuSans-74"/>
      <use x="380.322266" xlink:href="#DejaVuSans-65"/>
      <use x="441.845703" xlink:href="#DejaVuSans-64"/>
      <use x="505.322266" xlink:href="#DejaVuSans-20"/>
      <use x="537.109375" xlink:href="#DejaVuSans-63"/>
      <use x="592.089844" xlink:href="#DejaVuSans-72"/>
      <use x="633.171875" xlink:href="#DejaVuSans-6f"/>
      <use x="694.353516" xlink:href="#DejaVuSans-73"/>
      <use x="746.453125" xlink:href="#DejaVuSans-73"/>
      <use x="798.552734" xlink:href="#DejaVuSans-2d"/>
      <use x="834.636719" xlink:href="#DejaVuSans-70"/>
      <use x="898.113281" xlink:href="#DejaVuSans-65"/>
      <use x="959.636719" xlink:href="#DejaVuSans-61"/>
      <use x="1020.916016" xlink:href="#DejaVuSans-6b"/>
      <use x="1078.826172" xlink:href="#DejaVuSans-20"/>
      <use x="1110.613281" xlink:href="#DejaVuSans-69"/>
      <use x="1138.396484" xlink:href="#DejaVuSans-6e"/>
      <use x="1201.775391" xlink:href="#DejaVuSans-74"/>
      <use x="1240.984375" xlink:href="#DejaVuSans-65"/>
      <use x="1302.507812" xlink:href="#DejaVuSans-6e"/>
      <use x="1365.886719" xlink:href="#DejaVuSans-73"/>
      <use x="1417.986328" xlink:href="#DejaVuSans-69"/>
      <use x="1445.769531" xlink:href="#DejaVuSans-74"/>
      <use x="1484.978516" xlink:href="#DejaVuSans-79"/>
     </g>
    </g>
    <g id="text_15">
     <!-- 1e7 -->
     <g transform="translate(54 31.56)scale(0.1 -0.1)">
      <use xlink:href="#DejaVuSans-31"/>
      <use x="63.623047" xlink:href="#DejaVuSans-65"/>
      <use x="125.146484" xlink:href="#DejaVuSans-37"/>
     </g>
    </g>
   </g>
   <g id="LineCollection_1">
    <path clip-path="url(#pb934a86084)" d="M 93.383612 226.782628 
L 93.383612 226.781773 
" style="fill:none;stroke:#1f77b4;stroke-width:1.5;"/>
    <path clip-path="url(#pb934a86084)" d="M 269.453843 229.907187 
L 269.453843 229.110251 
" style="fill:none;stroke:#1f77b4;stroke-width:1.5;"/>
    <path clip-path="url(#pb934a86084)" d="M 73.622847 68.221507 
L 73.622847 68.095495 
" style="fill:none;stroke:#1f77b4;stroke-width:1.5;"/>
    <path clip-path="url(#pb934a86084)" d="M 233.667083 206.790484 
L 233.667083 205.379134 
" style="fill:none;stroke:#1f77b4;stroke-width:1.5;"/>
    <path clip-path="url(#pb934a86084)" d="M 140.131641 213.686339 
L 140.131641 212.598646 
" style="fill:none;stroke:#1f77b4;stroke-width:1.5;"/>
    <path clip-path="url(#pb934a86084)" d="M 274.539797 235.451204 
L 274.539797 235.137809 
" style="fill:none;stroke:#1f77b4;stroke-width:1.5;"/>
    <path clip-path="url(#pb934a86084)" d="M 173.910901 180.847434 
L 173.910901 178.259789 
" style="fill:none;stroke:#1f77b4;stroke-width:1.5;"/>
    <path clip-path="url(#pb934a86084)" d="M 167.495532 215.133357 
L 167.495532 212.985028 
" style="fill:none;stroke:#1f77b4;stroke-width:1.5;"/>
    <path clip-path="url(#pb934a86084)" d="M 187.983103 227.24786 
L 187.983103 225.614213 
" style="fill:none;stroke:#1f77b4;stroke-width:1.5;"/>
    <path clip-path="url(#pb934a86084)" d="M 93.383612 227.161445 
L 93.383612 227.160611 
" style="fill:none;stroke:#1f77b4;stroke-width:1.5;"/>
    <path clip-path="url(#pb934a86084)" d="M 127.931133 212.35978 
L 127.931133 209.799962 
" style="fill:none;stroke:#1f77b4;stroke-width:1.5;"/>
    <path clip-path="url(#pb934a86084)" d="M 80.454944 232.240419 
L 80.454944 231.288511 
" style="fill:none;stroke:#1f77b4;stroke-width:1.5;"/>
    <path clip-path="url(#pb934a86084)" d="M 250.086679 236.812554 
L 250.086679 236.437824 
" style="fill:none;stroke:#1f77b4;stroke-width:1.5;"/>
    <path clip-path="url(#pb934a86084)" d="M 223.977124 240.286449 
L 223.977124 240.183423 
" style="fill:none;stroke:#1f77b4;stroke-width:1.5;"/>
    <path clip-path="url(#pb934a86084)" d="M 150.671674 63.878709 
L 150.671674 63.405097 
" style="fill:none;stroke:#1f77b4;stroke-width:1.5;"/>
    <path clip-path="url(#pb934a86084)" d="M 123.840316 165.224368 
L 123.840316 160.454498 
" style="fill:none;stroke:#1f77b4;stroke-width:1.5;"/>
    <path clip-path="url(#pb934a86084)" d="M 162.516445 204.497213 
L 162.516445 202.304673 
" style="fill:none;stroke:#1f77b4;stroke-width:1.5;"/>
    <path clip-path="url(#pb934a86084)" d="M 168.97326 209.43858 
L 168.97326 205.830091 
" style="fill:none;stroke:#1f77b4;stroke-width:1.5;"/>
    <path clip-path="url(#pb934a86084)" d="M 214.10417 219.949937 
L 214.10417 218.556274 
" style="fill:none;stroke:#1f77b4;stroke-width:1.5;"/>
    <path clip-path="url(#pb934a86084)" d="M 123.840316 152.874311 
L 123.840316 147.346121 
" style="fill:none;stroke:#1f77b4;stroke-width:1.5;"/>
    <path clip-path="url(#pb934a86084)" d="M 174.387974 231.63374 
L 174.387974 230.32894 
" style="fill:none;stroke:#1f77b4;stroke-width:1.5;"/>
    <path clip-path="url(#pb934a86084)" d="M 203.030206 232.433198 
L 203.030206 231.755304 
" style="fill:none;stroke:#1f77b4;stroke-width:1.5;"/>
    <path clip-path="url(#pb934a86084)" d="M 316.057948 221.239693 
L 316.057948 220.77385 
" style="fill:none;stroke:#1f77b4;stroke-width:1.5;"/>
    <path clip-path="url(#pb934a86084)" d="M 73.654837 75.207017 
L 73.654837 60.438581 
" style="fill:none;stroke:#1f77b4;stroke-width:1.5;"/>
    <path clip-path="url(#pb934a86084)" d="M 222.468851 206.502805 
L 222.468851 205.909179 
" style="fill:none;stroke:#1f77b4;stroke-width:1.5;"/>
    <path clip-path="url(#pb934a86084)" d="M 175.289276 198.611954 
L 175.289276 198.16027 
" style="fill:none;stroke:#1f77b4;stroke-width:1.5;"/>
    <path clip-path="url(#pb934a86084)" d="M 139.605454 206.922003 
L 139.605454 203.842501 
" style="fill:none;stroke:#1f77b4;stroke-width:1.5;"/>
    <path clip-path="url(#pb934a86084)" d="M 173.845291 221.086115 
L 173.845291 219.730172 
" style="fill:none;stroke:#1f77b4;stroke-width:1.5;"/>
    <path clip-path="url(#pb934a86084)" d="M 257.358385 226.346998 
L 257.358385 225.299985 
" style="fill:none;stroke:#1f77b4;stroke-width:1.5;"/>
    <path clip-path="url(#pb934a86084)" d="M 86.816306 106.767932 
L 86.816306 98.252426 
" style="fill:none;stroke:#1f77b4;stroke-width:1.5;"/>
    <path clip-path="url(#pb934a86084)" d="M 143.397177 224.226174 
L 143.397177 223.057724 
" style="fill:none;stroke:#1f77b4;stroke-width:1.5;"/>
    <path clip-path="url(#pb934a86084)" d="M 174.387974 204.059313 
L 174.387974 199.56294 
" style="fill:none;stroke:#1f77b4;stroke-width:1.5;"/>
    <path clip-path="url(#pb934a86084)" d="M 140.878405 238.890619 
L 140.878405 238.486033 
" style="fill:none;stroke:#1f77b4;stroke-width:1.5;"/>
    <path clip-path="url(#pb934a86084)" d="M 203.030206 218.532029 
L 203.030206 216.954403 
" style="fill:none;stroke:#1f77b4;stroke-width:1.5;"/>
    <path clip-path="url(#pb934a86084)" d="M 232.598731 234.606589 
L 232.598731 234.089001 
" style="fill:none;stroke:#1f77b4;stroke-width:1.5;"/>
    <path clip-path="url(#pb934a86084)" d="M 139.605454 210.615361 
L 139.605454 207.851928 
" style="fill:none;stroke:#1f77b4;stroke-width:1.5;"/>
    <path clip-path="url(#pb934a86084)" d="M 169.118839 171.692996 
L 169.118839 169.666774 
" style="fill:none;stroke:#1f77b4;stroke-width:1.5;"/>
    <path clip-path="url(#pb934a86084)" d="M 191.426486 189.767268 
L 191.426486 189.454033 
" style="fill:none;stroke:#1f77b4;stroke-width:1.5;"/>
    <path clip-path="url(#pb934a86084)" d="M 147.202388 211.097559 
L 147.202388 208.533154 
" style="fill:none;stroke:#1f77b4;stroke-width:1.5;"/>
    <path clip-path="url(#pb934a86084)" d="M 69.218182 231.689253 
L 69.218182 230.742755 
" style="fill:none;stroke:#1f77b4;stroke-width:1.5;"/>
    <path clip-path="url(#pb934a86084)" d="M 250.086679 231.826412 
L 250.086679 231.145094 
" style="fill:none;stroke:#1f77b4;stroke-width:1.5;"/>
    <path clip-path="url(#pb934a86084)" d="M 145.895753 231.931634 
L 145.895753 231.313064 
" style="fill:none;stroke:#1f77b4;stroke-width:1.5;"/>
    <path clip-path="url(#pb934a86084)" d="M 148.970412 163.542058 
L 148.970412 159.121596 
" style="fill:none;stroke:#1f77b4;stroke-width:1.5;"/>
    <path clip-path="url(#pb934a86084)" d="M 223.977124 225.76709 
L 223.977124 225.093218 
" style="fill:none;stroke:#1f77b4;stroke-width:1.5;"/>
    <path clip-path="url(#pb934a86084)" d="M 119.023041 224.828346 
L 119.023041 223.614191 
" style="fill:none;stroke:#1f77b4;stroke-width:1.5;"/>
    <path clip-path="url(#pb934a86084)" d="M 230.991095 228.512389 
L 230.991095 227.828313 
" style="fill:none;stroke:#1f77b4;stroke-width:1.5;"/>
    <path clip-path="url(#pb934a86084)" d="M 274.539797 237.002052 
L 274.539797 236.753846 
" style="fill:none;stroke:#1f77b4;stroke-width:1.5;"/>
    <path clip-path="url(#pb934a86084)" d="M 173.910901 151.708693 
L 173.910901 147.906072 
" style="fill:none;stroke:#1f77b4;stroke-width:1.5;"/>
    <path clip-path="url(#pb934a86084)" d="M 269.453843 238.268799 
L 269.453843 237.984464 
" style="fill:none;stroke:#1f77b4;stroke-width:1.5;"/>
    <path clip-path="url(#pb934a86084)" d="M 204.114279 227.252948 
L 204.114279 226.291283 
" style="fill:none;stroke:#1f77b4;stroke-width:1.5;"/>
    <path clip-path="url(#pb934a86084)" d="M 255.936031 229.314075 
L 255.936031 228.482763 
" style="fill:none;stroke:#1f77b4;stroke-width:1.5;"/>
    <path clip-path="url(#pb934a86084)" d="M 145.895753 196.086805 
L 145.895753 193.448006 
" style="fill:none;stroke:#1f77b4;stroke-width:1.5;"/>
    <path clip-path="url(#pb934a86084)" d="M 119.023041 221.468975 
L 119.023041 220.029204 
" style="fill:none;stroke:#1f77b4;stroke-width:1.5;"/>
    <path clip-path="url(#pb934a86084)" d="M 141.007023 113.077692 
L 141.007023 112.780298 
" style="fill:none;stroke:#1f77b4;stroke-width:1.5;"/>
    <path clip-path="url(#pb934a86084)" d="M 137.783487 180.150157 
L 137.783487 175.8149 
" style="fill:none;stroke:#1f77b4;stroke-width:1.5;"/>
    <path clip-path="url(#pb934a86084)" d="M 108.788982 193.871371 
L 108.788982 190.931687 
" style="fill:none;stroke:#1f77b4;stroke-width:1.5;"/>
    <path clip-path="url(#pb934a86084)" d="M 127.32426 46.515583 
L 127.32426 44.443636 
" style="fill:none;stroke:#1f77b4;stroke-width:1.5;"/>
    <path clip-path="url(#pb934a86084)" d="M 344.718982 227.433 
L 344.718982 227.25063 
" style="fill:none;stroke:#1f77b4;stroke-width:1.5;"/>
    <path clip-path="url(#pb934a86084)" d="M 175.289276 195.60128 
L 175.289276 195.118896 
" style="fill:none;stroke:#1f77b4;stroke-width:1.5;"/>
    <path clip-path="url(#pb934a86084)" d="M 167.495532 208.717506 
L 167.495532 206.072901 
" style="fill:none;stroke:#1f77b4;stroke-width:1.5;"/>
    <path clip-path="url(#pb934a86084)" d="M 187.983103 239.060147 
L 187.983103 238.65883 
" style="fill:none;stroke:#1f77b4;stroke-width:1.5;"/>
    <path clip-path="url(#pb934a86084)" d="M 245.103809 228.070484 
L 245.103809 227.646125 
" style="fill:none;stroke:#1f77b4;stroke-width:1.5;"/>
    <path clip-path="url(#pb934a86084)" d="M 141.007023 107.838792 
L 141.007023 107.529398 
" style="fill:none;stroke:#1f77b4;stroke-width:1.5;"/>
    <path clip-path="url(#pb934a86084)" d="M 248.239734 223.314297 
L 248.239734 222.089707 
" style="fill:none;stroke:#1f77b4;stroke-width:1.5;"/>
    <path clip-path="url(#pb934a86084)" d="M 119.306615 182.358625 
L 119.306615 178.652141 
" style="fill:none;stroke:#1f77b4;stroke-width:1.5;"/>
    <path clip-path="url(#pb934a86084)" d="M 200.822264 181.241862 
L 200.822264 180.99692 
" style="fill:none;stroke:#1f77b4;stroke-width:1.5;"/>
    <path clip-path="url(#pb934a86084)" d="M 167.126961 182.462786 
L 167.126961 182.220883 
" style="fill:none;stroke:#1f77b4;stroke-width:1.5;"/>
    <path clip-path="url(#pb934a86084)" d="M 162.516445 208.55852 
L 162.516445 206.597812 
" style="fill:none;stroke:#1f77b4;stroke-width:1.5;"/>
    <path clip-path="url(#pb934a86084)" d="M 316.057948 226.188602 
L 316.057948 225.82916 
" style="fill:none;stroke:#1f77b4;stroke-width:1.5;"/>
    <path clip-path="url(#pb934a86084)" d="M 232.598731 240.154945 
L 232.598731 239.983339 
" style="fill:none;stroke:#1f77b4;stroke-width:1.5;"/>
    <path clip-path="url(#pb934a86084)" d="M 373.581818 236.106722 
L 373.581818 235.411414 
" style="fill:none;stroke:#1f77b4;stroke-width:1.5;"/>
    <path clip-path="url(#pb934a86084)" d="M 157.293742 153.418599 
L 157.293742 148.534799 
" style="fill:none;stroke:#1f77b4;stroke-width:1.5;"/>
    <path clip-path="url(#pb934a86084)" d="M 159.605797 161.575643 
L 159.605797 158.236456 
" style="fill:none;stroke:#1f77b4;stroke-width:1.5;"/>
    <path clip-path="url(#pb934a86084)" d="M 133.178694 85.016008 
L 133.178694 84.374048 
" style="fill:none;stroke:#1f77b4;stroke-width:1.5;"/>
    <path clip-path="url(#pb934a86084)" d="M 227.687965 151.12679 
L 227.687965 148.240986 
" style="fill:none;stroke:#1f77b4;stroke-width:1.5;"/>
    <path clip-path="url(#pb934a86084)" d="M 326.075213 242.116364 
L 326.075213 242.086739 
" style="fill:none;stroke:#1f77b4;stroke-width:1.5;"/>
    <path clip-path="url(#pb934a86084)" d="M 168.97326 210.893473 
L 168.97326 207.441848 
" style="fill:none;stroke:#1f77b4;stroke-width:1.5;"/>
    <path clip-path="url(#pb934a86084)" d="M 73.654837 104.500986 
L 73.654837 92.312313 
" style="fill:none;stroke:#1f77b4;stroke-width:1.5;"/>
    <path clip-path="url(#pb934a86084)" d="M 373.581818 235.63324 
L 373.581818 234.889518 
" style="fill:none;stroke:#1f77b4;stroke-width:1.5;"/>
    <path clip-path="url(#pb934a86084)" d="M 157.293742 175.877582 
L 157.293742 172.219476 
" style="fill:none;stroke:#1f77b4;stroke-width:1.5;"/>
    <path clip-path="url(#pb934a86084)" d="M 159.605797 193.807068 
L 159.605797 191.791195 
" style="fill:none;stroke:#1f77b4;stroke-width:1.5;"/>
    <path clip-path="url(#pb934a86084)" d="M 140.878405 233.03602 
L 140.878405 232.041662 
" style="fill:none;stroke:#1f77b4;stroke-width:1.5;"/>
    <path clip-path="url(#pb934a86084)" d="M 127.931133 230.813732 
L 127.931133 229.800337 
" style="fill:none;stroke:#1f77b4;stroke-width:1.5;"/>
    <path clip-path="url(#pb934a86084)" d="M 221.834963 240.095836 
L 221.834963 239.892044 
" style="fill:none;stroke:#1f77b4;stroke-width:1.5;"/>
    <path clip-path="url(#pb934a86084)" d="M 173.845291 220.439602 
L 173.845291 219.043485 
" style="fill:none;stroke:#1f77b4;stroke-width:1.5;"/>
    <path clip-path="url(#pb934a86084)" d="M 86.816306 67.678563 
L 86.816306 56.718013 
" style="fill:none;stroke:#1f77b4;stroke-width:1.5;"/>
    <path clip-path="url(#pb934a86084)" d="M 257.358385 235.722777 
L 257.358385 235.268556 
" style="fill:none;stroke:#1f77b4;stroke-width:1.5;"/>
    <path clip-path="url(#pb934a86084)" d="M 169.118839 208.478861 
L 169.118839 207.499293 
" style="fill:none;stroke:#1f77b4;stroke-width:1.5;"/>
    <path clip-path="url(#pb934a86084)" d="M 245.103809 233.877971 
L 245.103809 233.619721 
" style="fill:none;stroke:#1f77b4;stroke-width:1.5;"/>
    <path clip-path="url(#pb934a86084)" d="M 134.23547 110.551045 
L 134.23547 110.420336 
" style="fill:none;stroke:#1f77b4;stroke-width:1.5;"/>
    <path clip-path="url(#pb934a86084)" d="M 233.667083 240.659089 
L 233.667083 240.57125 
" style="fill:none;stroke:#1f77b4;stroke-width:1.5;"/>
    <path clip-path="url(#pb934a86084)" d="M 227.687965 151.391576 
L 227.687965 148.514098 
" style="fill:none;stroke:#1f77b4;stroke-width:1.5;"/>
    <path clip-path="url(#pb934a86084)" d="M 140.131641 214.804541 
L 140.131641 213.758472 
" style="fill:none;stroke:#1f77b4;stroke-width:1.5;"/>
    <path clip-path="url(#pb934a86084)" d="M 326.075213 230.726368 
L 326.075213 230.269919 
" style="fill:none;stroke:#1f77b4;stroke-width:1.5;"/>
    <path clip-path="url(#pb934a86084)" d="M 214.10417 220.18451 
L 214.10417 218.805088 
" style="fill:none;stroke:#1f77b4;stroke-width:1.5;"/>
    <path clip-path="url(#pb934a86084)" d="M 222.468851 211.817422 
L 222.468851 211.310459 
" style="fill:none;stroke:#1f77b4;stroke-width:1.5;"/>
    <path clip-path="url(#pb934a86084)" d="M 191.426486 236.771375 
L 191.426486 236.735208 
" style="fill:none;stroke:#1f77b4;stroke-width:1.5;"/>
    <path clip-path="url(#pb934a86084)" d="M 133.178694 68.15128 
L 133.178694 67.440751 
" style="fill:none;stroke:#1f77b4;stroke-width:1.5;"/>
    <path clip-path="url(#pb934a86084)" d="M 335.795521 240.886763 
L 335.795521 240.7242 
" style="fill:none;stroke:#1f77b4;stroke-width:1.5;"/>
    <path clip-path="url(#pb934a86084)" d="M 224.179159 242.05037 
L 224.179159 241.979054 
" style="fill:none;stroke:#1f77b4;stroke-width:1.5;"/>
    <path clip-path="url(#pb934a86084)" d="M 137.783487 215.733007 
L 137.783487 213.855825 
" style="fill:none;stroke:#1f77b4;stroke-width:1.5;"/>
    <path clip-path="url(#pb934a86084)" d="M 248.239734 234.75229 
L 248.239734 234.242605 
" style="fill:none;stroke:#1f77b4;stroke-width:1.5;"/>
    <path clip-path="url(#pb934a86084)" d="M 302.36792 238.006586 
L 302.36792 237.726596 
" style="fill:none;stroke:#1f77b4;stroke-width:1.5;"/>
    <path clip-path="url(#pb934a86084)" d="M 108.788982 164.035857 
L 108.788982 159.307531 
" style="fill:none;stroke:#1f77b4;stroke-width:1.5;"/>
    <path clip-path="url(#pb934a86084)" d="M 119.306615 149.295641 
L 119.306615 143.565194 
" style="fill:none;stroke:#1f77b4;stroke-width:1.5;"/>
    <path clip-path="url(#pb934a86084)" d="M 194.17899 214.209691 
L 194.17899 212.454525 
" style="fill:none;stroke:#1f77b4;stroke-width:1.5;"/>
    <path clip-path="url(#pb934a86084)" d="M 143.397177 212.252359 
L 143.397177 210.334965 
" style="fill:none;stroke:#1f77b4;stroke-width:1.5;"/>
    <path clip-path="url(#pb934a86084)" d="M 80.454944 226.899681 
L 80.454944 225.471149 
" style="fill:none;stroke:#1f77b4;stroke-width:1.5;"/>
    <path clip-path="url(#pb934a86084)" d="M 221.834963 232.250865 
L 221.834963 231.478338 
" style="fill:none;stroke:#1f77b4;stroke-width:1.5;"/>
    <path clip-path="url(#pb934a86084)" d="M 142.739303 204.836893 
L 142.739303 201.938685 
" style="fill:none;stroke:#1f77b4;stroke-width:1.5;"/>
    <path clip-path="url(#pb934a86084)" d="M 156.874281 200.242152 
L 156.874281 197.078969 
" style="fill:none;stroke:#1f77b4;stroke-width:1.5;"/>
    <path clip-path="url(#pb934a86084)" d="M 127.32426 86.559349 
L 127.32426 84.909868 
" style="fill:none;stroke:#1f77b4;stroke-width:1.5;"/>
    <path clip-path="url(#pb934a86084)" d="M 200.822264 195.719354 
L 200.822264 195.531919 
" style="fill:none;stroke:#1f77b4;stroke-width:1.5;"/>
    <path clip-path="url(#pb934a86084)" d="M 134.23547 70.528465 
L 134.23547 70.358232 
" style="fill:none;stroke:#1f77b4;stroke-width:1.5;"/>
    <path clip-path="url(#pb934a86084)" d="M 147.202388 237.045879 
L 147.202388 236.573375 
" style="fill:none;stroke:#1f77b4;stroke-width:1.5;"/>
    <path clip-path="url(#pb934a86084)" d="M 335.795521 239.683113 
L 335.795521 239.423691 
" style="fill:none;stroke:#1f77b4;stroke-width:1.5;"/>
    <path clip-path="url(#pb934a86084)" d="M 69.218182 213.646093 
L 69.218182 211.177187 
" style="fill:none;stroke:#1f77b4;stroke-width:1.5;"/>
    <path clip-path="url(#pb934a86084)" d="M 224.179159 223.556318 
L 224.179159 221.945168 
" style="fill:none;stroke:#1f77b4;stroke-width:1.5;"/>
    <path clip-path="url(#pb934a86084)" d="M 344.718982 228.442232 
L 344.718982 228.271756 
" style="fill:none;stroke:#1f77b4;stroke-width:1.5;"/>
    <path clip-path="url(#pb934a86084)" d="M 167.126961 188.596588 
L 167.126961 188.379234 
" style="fill:none;stroke:#1f77b4;stroke-width:1.5;"/>
    <path clip-path="url(#pb934a86084)" d="M 302.36792 232.327985 
L 302.36792 231.723537 
" style="fill:none;stroke:#1f77b4;stroke-width:1.5;"/>
    <path clip-path="url(#pb934a86084)" d="M 194.17899 226.22899 
L 194.17899 225.208944 
" style="fill:none;stroke:#1f77b4;stroke-width:1.5;"/>
    <path clip-path="url(#pb934a86084)" d="M 142.739303 238.766414 
L 142.739303 238.451205 
" style="fill:none;stroke:#1f77b4;stroke-width:1.5;"/>
    <path clip-path="url(#pb934a86084)" d="M 156.874281 217.050687 
L 156.874281 215.133697 
" style="fill:none;stroke:#1f77b4;stroke-width:1.5;"/>
    <path clip-path="url(#pb934a86084)" d="M 150.671674 114.026525 
L 150.671674 113.685577 
" style="fill:none;stroke:#1f77b4;stroke-width:1.5;"/>
    <path clip-path="url(#pb934a86084)" d="M 148.970412 211.482881 
L 148.970412 209.732626 
" style="fill:none;stroke:#1f77b4;stroke-width:1.5;"/>
    <path clip-path="url(#pb934a86084)" d="M 230.991095 241.322619 
L 230.991095 241.247328 
" style="fill:none;stroke:#1f77b4;stroke-width:1.5;"/>
    <path clip-path="url(#pb934a86084)" d="M 73.622847 173.069175 
L 73.622847 173.018796 
" style="fill:none;stroke:#1f77b4;stroke-width:1.5;"/>
    <path clip-path="url(#pb934a86084)" d="M 204.114279 225.366034 
L 204.114279 224.288451 
" style="fill:none;stroke:#1f77b4;stroke-width:1.5;"/>
    <path clip-path="url(#pb934a86084)" d="M 255.936031 236.739581 
L 255.936031 236.362399 
" style="fill:none;stroke:#1f77b4;stroke-width:1.5;"/>
   </g>
   <g id="line2d_13">
    <defs>
     <path d="M 0 3 
C 0.795609 3 1.55874 2.683901 2.12132 2.12132 
C 2.683901 1.55874 3 0.795609 3 0 
C 3 -0.795609 2.683901 -1.55874 2.12132 -2.12132 
C 1.55874 -2.683901 0.795609 -3 0 -3 
C -0.795609 -3 -1.55874 -2.683901 -2.12132 -2.12132 
C -2.683901 -1.55874 -3 -0.795609 -3 0 
C -3 0.795609 -2.683901 1.55874 -2.12132 2.12132 
C -1.55874 2.683901 -0.795609 3 0 3 
z
" id="m296a0bdf70" style="stroke:#1f77b4;"/>
    </defs>
    <g clip-path="url(#pb934a86084)">
     <use style="fill:#1f77b4;stroke:#1f77b4;" x="93.383612" xlink:href="#m296a0bdf70" y="226.782201"/>
     <use style="fill:#1f77b4;stroke:#1f77b4;" x="269.453843" xlink:href="#m296a0bdf70" y="229.508719"/>
     <use style="fill:#1f77b4;stroke:#1f77b4;" x="73.622847" xlink:href="#m296a0bdf70" y="68.158501"/>
     <use style="fill:#1f77b4;stroke:#1f77b4;" x="233.667083" xlink:href="#m296a0bdf70" y="206.084809"/>
     <use style="fill:#1f77b4;stroke:#1f77b4;" x="140.131641" xlink:href="#m296a0bdf70" y="213.142493"/>
     <use style="fill:#1f77b4;stroke:#1f77b4;" x="274.539797" xlink:href="#m296a0bdf70" y="235.294506"/>
     <use style="fill:#1f77b4;stroke:#1f77b4;" x="173.910901" xlink:href="#m296a0bdf70" y="179.553611"/>
     <use style="fill:#1f77b4;stroke:#1f77b4;" x="167.495532" xlink:href="#m296a0bdf70" y="214.059192"/>
     <use style="fill:#1f77b4;stroke:#1f77b4;" x="187.983103" xlink:href="#m296a0bdf70" y="226.431037"/>
     <use style="fill:#1f77b4;stroke:#1f77b4;" x="93.383612" xlink:href="#m296a0bdf70" y="227.161028"/>
     <use style="fill:#1f77b4;stroke:#1f77b4;" x="127.931133" xlink:href="#m296a0bdf70" y="211.079871"/>
     <use style="fill:#1f77b4;stroke:#1f77b4;" x="80.454944" xlink:href="#m296a0bdf70" y="231.764465"/>
     <use style="fill:#1f77b4;stroke:#1f77b4;" x="250.086679" xlink:href="#m296a0bdf70" y="236.625189"/>
     <use style="fill:#1f77b4;stroke:#1f77b4;" x="223.977124" xlink:href="#m296a0bdf70" y="240.234936"/>
     <use style="fill:#1f77b4;stroke:#1f77b4;" x="150.671674" xlink:href="#m296a0bdf70" y="63.641903"/>
     <use style="fill:#1f77b4;stroke:#1f77b4;" x="123.840316" xlink:href="#m296a0bdf70" y="162.839433"/>
     <use style="fill:#1f77b4;stroke:#1f77b4;" x="162.516445" xlink:href="#m296a0bdf70" y="203.400943"/>
     <use style="fill:#1f77b4;stroke:#1f77b4;" x="168.97326" xlink:href="#m296a0bdf70" y="207.634335"/>
     <use style="fill:#1f77b4;stroke:#1f77b4;" x="214.10417" xlink:href="#m296a0bdf70" y="219.253105"/>
     <use style="fill:#1f77b4;stroke:#1f77b4;" x="123.840316" xlink:href="#m296a0bdf70" y="150.110216"/>
     <use style="fill:#1f77b4;stroke:#1f77b4;" x="174.387974" xlink:href="#m296a0bdf70" y="230.98134"/>
     <use style="fill:#1f77b4;stroke:#1f77b4;" x="203.030206" xlink:href="#m296a0bdf70" y="232.094251"/>
     <use style="fill:#1f77b4;stroke:#1f77b4;" x="316.057948" xlink:href="#m296a0bdf70" y="221.006771"/>
     <use style="fill:#1f77b4;stroke:#1f77b4;" x="73.654837" xlink:href="#m296a0bdf70" y="67.822799"/>
     <use style="fill:#1f77b4;stroke:#1f77b4;" x="222.468851" xlink:href="#m296a0bdf70" y="206.205992"/>
     <use style="fill:#1f77b4;stroke:#1f77b4;" x="175.289276" xlink:href="#m296a0bdf70" y="198.386112"/>
     <use style="fill:#1f77b4;stroke:#1f77b4;" x="139.605454" xlink:href="#m296a0bdf70" y="205.382252"/>
     <use style="fill:#1f77b4;stroke:#1f77b4;" x="173.845291" xlink:href="#m296a0bdf70" y="220.408143"/>
     <use style="fill:#1f77b4;stroke:#1f77b4;" x="257.358385" xlink:href="#m296a0bdf70" y="225.823492"/>
     <use style="fill:#1f77b4;stroke:#1f77b4;" x="86.816306" xlink:href="#m296a0bdf70" y="102.510179"/>
     <use style="fill:#1f77b4;stroke:#1f77b4;" x="143.397177" xlink:href="#m296a0bdf70" y="223.641949"/>
     <use style="fill:#1f77b4;stroke:#1f77b4;" x="174.387974" xlink:href="#m296a0bdf70" y="201.811126"/>
     <use style="fill:#1f77b4;stroke:#1f77b4;" x="140.878405" xlink:href="#m296a0bdf70" y="238.688326"/>
     <use style="fill:#1f77b4;stroke:#1f77b4;" x="203.030206" xlink:href="#m296a0bdf70" y="217.743216"/>
     <use style="fill:#1f77b4;stroke:#1f77b4;" x="232.598731" xlink:href="#m296a0bdf70" y="234.347795"/>
     <use style="fill:#1f77b4;stroke:#1f77b4;" x="139.605454" xlink:href="#m296a0bdf70" y="209.233644"/>
     <use style="fill:#1f77b4;stroke:#1f77b4;" x="169.118839" xlink:href="#m296a0bdf70" y="170.679885"/>
     <use style="fill:#1f77b4;stroke:#1f77b4;" x="191.426486" xlink:href="#m296a0bdf70" y="189.610651"/>
     <use style="fill:#1f77b4;stroke:#1f77b4;" x="147.202388" xlink:href="#m296a0bdf70" y="209.815357"/>
     <use style="fill:#1f77b4;stroke:#1f77b4;" x="69.218182" xlink:href="#m296a0bdf70" y="231.216004"/>
     <use style="fill:#1f77b4;stroke:#1f77b4;" x="250.086679" xlink:href="#m296a0bdf70" y="231.485753"/>
     <use style="fill:#1f77b4;stroke:#1f77b4;" x="145.895753" xlink:href="#m296a0bdf70" y="231.622349"/>
     <use style="fill:#1f77b4;stroke:#1f77b4;" x="148.970412" xlink:href="#m296a0bdf70" y="161.331827"/>
     <use style="fill:#1f77b4;stroke:#1f77b4;" x="223.977124" xlink:href="#m296a0bdf70" y="225.430154"/>
     <use style="fill:#1f77b4;stroke:#1f77b4;" x="119.023041" xlink:href="#m296a0bdf70" y="224.221269"/>
     <use style="fill:#1f77b4;stroke:#1f77b4;" x="230.991095" xlink:href="#m296a0bdf70" y="228.170351"/>
     <use style="fill:#1f77b4;stroke:#1f77b4;" x="274.539797" xlink:href="#m296a0bdf70" y="236.877949"/>
     <use style="fill:#1f77b4;stroke:#1f77b4;" x="173.910901" xlink:href="#m296a0bdf70" y="149.807382"/>
     <use style="fill:#1f77b4;stroke:#1f77b4;" x="269.453843" xlink:href="#m296a0bdf70" y="238.126631"/>
     <use style="fill:#1f77b4;stroke:#1f77b4;" x="204.114279" xlink:href="#m296a0bdf70" y="226.772115"/>
     <use style="fill:#1f77b4;stroke:#1f77b4;" x="255.936031" xlink:href="#m296a0bdf70" y="228.898419"/>
     <use style="fill:#1f77b4;stroke:#1f77b4;" x="145.895753" xlink:href="#m296a0bdf70" y="194.767405"/>
     <use style="fill:#1f77b4;stroke:#1f77b4;" x="119.023041" xlink:href="#m296a0bdf70" y="220.749089"/>
     <use style="fill:#1f77b4;stroke:#1f77b4;" x="141.007023" xlink:href="#m296a0bdf70" y="112.928995"/>
     <use style="fill:#1f77b4;stroke:#1f77b4;" x="137.783487" xlink:href="#m296a0bdf70" y="177.982528"/>
     <use style="fill:#1f77b4;stroke:#1f77b4;" x="108.788982" xlink:href="#m296a0bdf70" y="192.401529"/>
     <use style="fill:#1f77b4;stroke:#1f77b4;" x="127.32426" xlink:href="#m296a0bdf70" y="45.47961"/>
     <use style="fill:#1f77b4;stroke:#1f77b4;" x="344.718982" xlink:href="#m296a0bdf70" y="227.341815"/>
     <use style="fill:#1f77b4;stroke:#1f77b4;" x="175.289276" xlink:href="#m296a0bdf70" y="195.360088"/>
     <use style="fill:#1f77b4;stroke:#1f77b4;" x="167.495532" xlink:href="#m296a0bdf70" y="207.395203"/>
     <use style="fill:#1f77b4;stroke:#1f77b4;" x="187.983103" xlink:href="#m296a0bdf70" y="238.859489"/>
     <use style="fill:#1f77b4;stroke:#1f77b4;" x="245.103809" xlink:href="#m296a0bdf70" y="227.858304"/>
     <use style="fill:#1f77b4;stroke:#1f77b4;" x="141.007023" xlink:href="#m296a0bdf70" y="107.684095"/>
     <use style="fill:#1f77b4;stroke:#1f77b4;" x="248.239734" xlink:href="#m296a0bdf70" y="222.702002"/>
     <use style="fill:#1f77b4;stroke:#1f77b4;" x="119.306615" xlink:href="#m296a0bdf70" y="180.505383"/>
     <use style="fill:#1f77b4;stroke:#1f77b4;" x="200.822264" xlink:href="#m296a0bdf70" y="181.119391"/>
     <use style="fill:#1f77b4;stroke:#1f77b4;" x="167.126961" xlink:href="#m296a0bdf70" y="182.341834"/>
     <use style="fill:#1f77b4;stroke:#1f77b4;" x="162.516445" xlink:href="#m296a0bdf70" y="207.578166"/>
     <use style="fill:#1f77b4;stroke:#1f77b4;" x="316.057948" xlink:href="#m296a0bdf70" y="226.008881"/>
     <use style="fill:#1f77b4;stroke:#1f77b4;" x="232.598731" xlink:href="#m296a0bdf70" y="240.069142"/>
     <use style="fill:#1f77b4;stroke:#1f77b4;" x="373.581818" xlink:href="#m296a0bdf70" y="235.759068"/>
     <use style="fill:#1f77b4;stroke:#1f77b4;" x="157.293742" xlink:href="#m296a0bdf70" y="150.976699"/>
     <use style="fill:#1f77b4;stroke:#1f77b4;" x="159.605797" xlink:href="#m296a0bdf70" y="159.906049"/>
     <use style="fill:#1f77b4;stroke:#1f77b4;" x="133.178694" xlink:href="#m296a0bdf70" y="84.695028"/>
     <use style="fill:#1f77b4;stroke:#1f77b4;" x="227.687965" xlink:href="#m296a0bdf70" y="149.683888"/>
     <use style="fill:#1f77b4;stroke:#1f77b4;" x="326.075213" xlink:href="#m296a0bdf70" y="242.101551"/>
     <use style="fill:#1f77b4;stroke:#1f77b4;" x="168.97326" xlink:href="#m296a0bdf70" y="209.16766"/>
     <use style="fill:#1f77b4;stroke:#1f77b4;" x="73.654837" xlink:href="#m296a0bdf70" y="98.40665"/>
     <use style="fill:#1f77b4;stroke:#1f77b4;" x="373.581818" xlink:href="#m296a0bdf70" y="235.261379"/>
     <use style="fill:#1f77b4;stroke:#1f77b4;" x="157.293742" xlink:href="#m296a0bdf70" y="174.048529"/>
     <use style="fill:#1f77b4;stroke:#1f77b4;" x="159.605797" xlink:href="#m296a0bdf70" y="192.799132"/>
     <use style="fill:#1f77b4;stroke:#1f77b4;" x="140.878405" xlink:href="#m296a0bdf70" y="232.538841"/>
     <use style="fill:#1f77b4;stroke:#1f77b4;" x="127.931133" xlink:href="#m296a0bdf70" y="230.307034"/>
     <use style="fill:#1f77b4;stroke:#1f77b4;" x="221.834963" xlink:href="#m296a0bdf70" y="239.99394"/>
     <use style="fill:#1f77b4;stroke:#1f77b4;" x="173.845291" xlink:href="#m296a0bdf70" y="219.741543"/>
     <use style="fill:#1f77b4;stroke:#1f77b4;" x="86.816306" xlink:href="#m296a0bdf70" y="62.198288"/>
     <use style="fill:#1f77b4;stroke:#1f77b4;" x="257.358385" xlink:href="#m296a0bdf70" y="235.495666"/>
     <use style="fill:#1f77b4;stroke:#1f77b4;" x="169.118839" xlink:href="#m296a0bdf70" y="207.989077"/>
     <use style="fill:#1f77b4;stroke:#1f77b4;" x="245.103809" xlink:href="#m296a0bdf70" y="233.748846"/>
     <use style="fill:#1f77b4;stroke:#1f77b4;" x="134.23547" xlink:href="#m296a0bdf70" y="110.48569"/>
     <use style="fill:#1f77b4;stroke:#1f77b4;" x="233.667083" xlink:href="#m296a0bdf70" y="240.615169"/>
     <use style="fill:#1f77b4;stroke:#1f77b4;" x="227.687965" xlink:href="#m296a0bdf70" y="149.952837"/>
     <use style="fill:#1f77b4;stroke:#1f77b4;" x="140.131641" xlink:href="#m296a0bdf70" y="214.281506"/>
     <use style="fill:#1f77b4;stroke:#1f77b4;" x="326.075213" xlink:href="#m296a0bdf70" y="230.498144"/>
     <use style="fill:#1f77b4;stroke:#1f77b4;" x="214.10417" xlink:href="#m296a0bdf70" y="219.494799"/>
     <use style="fill:#1f77b4;stroke:#1f77b4;" x="222.468851" xlink:href="#m296a0bdf70" y="211.56394"/>
     <use style="fill:#1f77b4;stroke:#1f77b4;" x="191.426486" xlink:href="#m296a0bdf70" y="236.753292"/>
     <use style="fill:#1f77b4;stroke:#1f77b4;" x="133.178694" xlink:href="#m296a0bdf70" y="67.796015"/>
     <use style="fill:#1f77b4;stroke:#1f77b4;" x="335.795521" xlink:href="#m296a0bdf70" y="240.805481"/>
     <use style="fill:#1f77b4;stroke:#1f77b4;" x="224.179159" xlink:href="#m296a0bdf70" y="242.014712"/>
     <use style="fill:#1f77b4;stroke:#1f77b4;" x="137.783487" xlink:href="#m296a0bdf70" y="214.794416"/>
     <use style="fill:#1f77b4;stroke:#1f77b4;" x="248.239734" xlink:href="#m296a0bdf70" y="234.497448"/>
     <use style="fill:#1f77b4;stroke:#1f77b4;" x="302.36792" xlink:href="#m296a0bdf70" y="237.866591"/>
     <use style="fill:#1f77b4;stroke:#1f77b4;" x="108.788982" xlink:href="#m296a0bdf70" y="161.671694"/>
     <use style="fill:#1f77b4;stroke:#1f77b4;" x="119.306615" xlink:href="#m296a0bdf70" y="146.430417"/>
     <use style="fill:#1f77b4;stroke:#1f77b4;" x="194.17899" xlink:href="#m296a0bdf70" y="213.332108"/>
     <use style="fill:#1f77b4;stroke:#1f77b4;" x="143.397177" xlink:href="#m296a0bdf70" y="211.293662"/>
     <use style="fill:#1f77b4;stroke:#1f77b4;" x="80.454944" xlink:href="#m296a0bdf70" y="226.185415"/>
     <use style="fill:#1f77b4;stroke:#1f77b4;" x="221.834963" xlink:href="#m296a0bdf70" y="231.864602"/>
     <use style="fill:#1f77b4;stroke:#1f77b4;" x="142.739303" xlink:href="#m296a0bdf70" y="203.387789"/>
     <use style="fill:#1f77b4;stroke:#1f77b4;" x="156.874281" xlink:href="#m296a0bdf70" y="198.660561"/>
     <use style="fill:#1f77b4;stroke:#1f77b4;" x="127.32426" xlink:href="#m296a0bdf70" y="85.734609"/>
     <use style="fill:#1f77b4;stroke:#1f77b4;" x="200.822264" xlink:href="#m296a0bdf70" y="195.625636"/>
     <use style="fill:#1f77b4;stroke:#1f77b4;" x="134.23547" xlink:href="#m296a0bdf70" y="70.443349"/>
     <use style="fill:#1f77b4;stroke:#1f77b4;" x="147.202388" xlink:href="#m296a0bdf70" y="236.809627"/>
     <use style="fill:#1f77b4;stroke:#1f77b4;" x="335.795521" xlink:href="#m296a0bdf70" y="239.553402"/>
     <use style="fill:#1f77b4;stroke:#1f77b4;" x="69.218182" xlink:href="#m296a0bdf70" y="212.41164"/>
     <use style="fill:#1f77b4;stroke:#1f77b4;" x="224.179159" xlink:href="#m296a0bdf70" y="222.750743"/>
     <use style="fill:#1f77b4;stroke:#1f77b4;" x="344.718982" xlink:href="#m296a0bdf70" y="228.356994"/>
     <use style="fill:#1f77b4;stroke:#1f77b4;" x="167.126961" xlink:href="#m296a0bdf70" y="188.487911"/>
     <use style="fill:#1f77b4;stroke:#1f77b4;" x="302.36792" xlink:href="#m296a0bdf70" y="232.025761"/>
     <use style="fill:#1f77b4;stroke:#1f77b4;" x="194.17899" xlink:href="#m296a0bdf70" y="225.718967"/>
     <use style="fill:#1f77b4;stroke:#1f77b4;" x="142.739303" xlink:href="#m296a0bdf70" y="238.60881"/>
     <use style="fill:#1f77b4;stroke:#1f77b4;" x="156.874281" xlink:href="#m296a0bdf70" y="216.092192"/>
     <use style="fill:#1f77b4;stroke:#1f77b4;" x="150.671674" xlink:href="#m296a0bdf70" y="113.856051"/>
     <use style="fill:#1f77b4;stroke:#1f77b4;" x="148.970412" xlink:href="#m296a0bdf70" y="210.607754"/>
     <use style="fill:#1f77b4;stroke:#1f77b4;" x="230.991095" xlink:href="#m296a0bdf70" y="241.284973"/>
     <use style="fill:#1f77b4;stroke:#1f77b4;" x="73.622847" xlink:href="#m296a0bdf70" y="173.043985"/>
     <use style="fill:#1f77b4;stroke:#1f77b4;" x="204.114279" xlink:href="#m296a0bdf70" y="224.827243"/>
     <use style="fill:#1f77b4;stroke:#1f77b4;" x="255.936031" xlink:href="#m296a0bdf70" y="236.55099"/>
    </g>
   </g>
   <g id="patch_3">
    <path d="M 54 252 
L 54 34.56 
" style="fill:none;stroke:#000000;stroke-linecap:square;stroke-linejoin:miter;stroke-width:0.8;"/>
   </g>
   <g id="patch_4">
    <path d="M 388.8 252 
L 388.8 34.56 
" style="fill:none;stroke:#000000;stroke-linecap:square;stroke-linejoin:miter;stroke-width:0.8;"/>
   </g>
   <g id="patch_5">
    <path d="M 54 252 
L 388.8 252 
" style="fill:none;stroke:#000000;stroke-linecap:square;stroke-linejoin:miter;stroke-width:0.8;"/>
   </g>
   <g id="patch_6">
    <path d="M 54 34.56 
L 388.8 34.56 
" style="fill:none;stroke:#000000;stroke-linecap:square;stroke-linejoin:miter;stroke-width:0.8;"/>
   </g>
   <g id="text_16">
    <!-- Simulated cross-peak intensities as a function of C-C separation -->
    <defs>
     <path d="M 37.109375 75.984375 
L 37.109375 68.5 
L 28.515625 68.5 
Q 23.6875 68.5 21.796875 66.546875 
Q 19.921875 64.59375 19.921875 59.515625 
L 19.921875 54.6875 
L 34.71875 54.6875 
L 34.71875 47.703125 
L 19.921875 47.703125 
L 19.921875 0 
L 10.890625 0 
L 10.890625 47.703125 
L 2.296875 47.703125 
L 2.296875 54.6875 
L 10.890625 54.6875 
L 10.890625 58.5 
Q 10.890625 67.625 15.140625 71.796875 
Q 19.390625 75.984375 28.609375 75.984375 
z
" id="DejaVuSans-66"/>
     <path d="M 64.40625 67.28125 
L 64.40625 56.890625 
Q 59.421875 61.53125 53.78125 63.8125 
Q 48.140625 66.109375 41.796875 66.109375 
Q 29.296875 66.109375 22.65625 58.46875 
Q 16.015625 50.828125 16.015625 36.375 
Q 16.015625 21.96875 22.65625 14.328125 
Q 29.296875 6.6875 41.796875 6.6875 
Q 48.140625 6.6875 53.78125 8.984375 
Q 59.421875 11.28125 64.40625 15.921875 
L 64.40625 5.609375 
Q 59.234375 2.09375 53.4375 0.328125 
Q 47.65625 -1.421875 41.21875 -1.421875 
Q 24.65625 -1.421875 15.125 8.703125 
Q 5.609375 18.84375 5.609375 36.375 
Q 5.609375 53.953125 15.125 64.078125 
Q 24.65625 74.21875 41.21875 74.21875 
Q 47.75 74.21875 53.53125 72.484375 
Q 59.328125 70.75 64.40625 67.28125 
z
" id="DejaVuSans-43"/>
    </defs>
    <g transform="translate(29.121563 15.122625)scale(0.12 -0.12)">
     <use xlink:href="#DejaVuSans-53"/>
     <use x="63.476562" xlink:href="#DejaVuSans-69"/>
     <use x="91.259766" xlink:href="#DejaVuSans-6d"/>
     <use x="188.671875" xlink:href="#DejaVuSans-75"/>
     <use x="252.050781" xlink:href="#DejaVuSans-6c"/>
     <use x="279.833984" xlink:href="#DejaVuSans-61"/>
     <use x="341.113281" xlink:href="#DejaVuSans-74"/>
     <use x="380.322266" xlink:href="#DejaVuSans-65"/>
     <use x="441.845703" xlink:href="#DejaVuSans-64"/>
     <use x="505.322266" xlink:href="#DejaVuSans-20"/>
     <use x="537.109375" xlink:href="#DejaVuSans-63"/>
     <use x="592.089844" xlink:href="#DejaVuSans-72"/>
     <use x="633.171875" xlink:href="#DejaVuSans-6f"/>
     <use x="694.353516" xlink:href="#DejaVuSans-73"/>
     <use x="746.453125" xlink:href="#DejaVuSans-73"/>
     <use x="798.552734" xlink:href="#DejaVuSans-2d"/>
     <use x="834.636719" xlink:href="#DejaVuSans-70"/>
     <use x="898.113281" xlink:href="#DejaVuSans-65"/>
     <use x="959.636719" xlink:href="#DejaVuSans-61"/>
     <use x="1020.916016" xlink:href="#DejaVuSans-6b"/>
     <use x="1078.826172" xlink:href="#DejaVuSans-20"/>
     <use x="1110.613281" xlink:href="#DejaVuSans-69"/>
     <use x="1138.396484" xlink:href="#DejaVuSans-6e"/>
     <use x="1201.775391" xlink:href="#DejaVuSans-74"/>
     <use x="1240.984375" xlink:href="#DejaVuSans-65"/>
     <use x="1302.507812" xlink:href="#DejaVuSans-6e"/>
     <use x="1365.886719" xlink:href="#DejaVuSans-73"/>
     <use x="1417.986328" xlink:href="#DejaVuSans-69"/>
     <use x="1445.769531" xlink:href="#DejaVuSans-74"/>
     <use x="1484.978516" xlink:href="#DejaVuSans-69"/>
     <use x="1512.761719" xlink:href="#DejaVuSans-65"/>
     <use x="1574.285156" xlink:href="#DejaVuSans-73"/>
     <use x="1626.384766" xlink:href="#DejaVuSans-20"/>
     <use x="1658.171875" xlink:href="#DejaVuSans-61"/>
     <use x="1719.451172" xlink:href="#DejaVuSans-73"/>
     <use x="1771.550781" xlink:href="#DejaVuSans-20"/>
     <use x="1803.337891" xlink:href="#DejaVuSans-61"/>
     <use x="1864.617188" xlink:href="#DejaVuSans-20"/>
     <use x="1896.404297" xlink:href="#DejaVuSans-66"/>
     <use x="1931.609375" xlink:href="#DejaVuSans-75"/>
     <use x="1994.988281" xlink:href="#DejaVuSans-6e"/>
     <use x="2058.367188" xlink:href="#DejaVuSans-63"/>
     <use x="2113.347656" xlink:href="#DejaVuSans-74"/>
     <use x="2152.556641" xlink:href="#DejaVuSans-69"/>
     <use x="2180.339844" xlink:href="#DejaVuSans-6f"/>
     <use x="2241.521484" xlink:href="#DejaVuSans-6e"/>
     <use x="2304.900391" xlink:href="#DejaVuSans-20"/>
     <use x="2336.6875" xlink:href="#DejaVuSans-6f"/>
     <use x="2397.869141" xlink:href="#DejaVuSans-66"/>
     <use x="2433.074219" xlink:href="#DejaVuSans-20"/>
     <use x="2464.861328" xlink:href="#DejaVuSans-43"/>
     <use x="2534.685547" xlink:href="#DejaVuSans-2d"/>
     <use x="2570.769531" xlink:href="#DejaVuSans-43"/>
     <use x="2640.59375" xlink:href="#DejaVuSans-20"/>
     <use x="2672.380859" xlink:href="#DejaVuSans-73"/>
     <use x="2724.480469" xlink:href="#DejaVuSans-65"/>
     <use x="2786.003906" xlink:href="#DejaVuSans-70"/>
     <use x="2849.480469" xlink:href="#DejaVuSans-61"/>
     <use x="2910.759766" xlink:href="#DejaVuSans-72"/>
     <use x="2951.873047" xlink:href="#DejaVuSans-61"/>
     <use x="3013.152344" xlink:href="#DejaVuSans-74"/>
     <use x="3052.361328" xlink:href="#DejaVuSans-69"/>
     <use x="3080.144531" xlink:href="#DejaVuSans-6f"/>
     <use x="3141.326172" xlink:href="#DejaVuSans-6e"/>
    </g>
    <!-- Sampling rate = 1000 -->
    <defs>
     <path d="M 10.59375 45.40625 
L 73.1875 45.40625 
L 73.1875 37.203125 
L 10.59375 37.203125 
z
M 10.59375 25.484375 
L 73.1875 25.484375 
L 73.1875 17.1875 
L 10.59375 17.1875 
z
" id="DejaVuSans-3d"/>
    </defs>
    <g transform="translate(155.109375 28.56)scale(0.12 -0.12)">
     <use xlink:href="#DejaVuSans-53"/>
     <use x="63.476562" xlink:href="#DejaVuSans-61"/>
     <use x="124.755859" xlink:href="#DejaVuSans-6d"/>
     <use x="222.167969" xlink:href="#DejaVuSans-70"/>
     <use x="285.644531" xlink:href="#DejaVuSans-6c"/>
     <use x="313.427734" xlink:href="#DejaVuSans-69"/>
     <use x="341.210938" xlink:href="#DejaVuSans-6e"/>
     <use x="404.589844" xlink:href="#DejaVuSans-67"/>
     <use x="468.066406" xlink:href="#DejaVuSans-20"/>
     <use x="499.853516" xlink:href="#DejaVuSans-72"/>
     <use x="540.966797" xlink:href="#DejaVuSans-61"/>
     <use x="602.246094" xlink:href="#DejaVuSans-74"/>
     <use x="641.455078" xlink:href="#DejaVuSans-65"/>
     <use x="702.978516" xlink:href="#DejaVuSans-20"/>
     <use x="734.765625" xlink:href="#DejaVuSans-3d"/>
     <use x="818.554688" xlink:href="#DejaVuSans-20"/>
     <use x="850.341797" xlink:href="#DejaVuSans-31"/>
     <use x="913.964844" xlink:href="#DejaVuSans-30"/>
     <use x="977.587891" xlink:href="#DejaVuSans-30"/>
     <use x="1041.210938" xlink:href="#DejaVuSans-30"/>
    </g>
   </g>
  </g>
 </g>
 <defs>
  <clipPath id="pb934a86084">
   <rect height="217.44" width="334.8" x="54" y="34.56"/>
  </clipPath>
 </defs>
</svg>
