<?xml version="1.0" encoding="utf-8" standalone="no"?>
<!DOCTYPE svg PUBLIC "-//W3C//DTD SVG 1.1//EN"
  "http://www.w3.org/Graphics/SVG/1.1/DTD/svg11.dtd">
<!-- Created with matplotlib (http://matplotlib.org/) -->
<svg height="288pt" version="1.1" viewBox="0 0 432 288" width="432pt" xmlns="http://www.w3.org/2000/svg" xmlns:xlink="http://www.w3.org/1999/xlink">
 <defs>
  <style type="text/css">
*{stroke-linecap:butt;stroke-linejoin:round;}
  </style>
 </defs>
 <g id="figure_1">
  <g id="patch_1">
   <path d="M 0 288 
L 432 288 
L 432 0 
L 0 0 
z
" style="fill:#ffffff;"/>
  </g>
  <g id="axes_1">
   <g id="patch_2">
    <path d="M 54 252 
L 388.8 252 
L 388.8 34.56 
L 54 34.56 
z
" style="fill:#ffffff;"/>
   </g>
   <g id="patch_3">
    <path clip-path="url(#p63b433b8be)" d="M 69.218182 210.575159 
L 71.024494 210.575159 
L 71.024494 241.771093 
L 69.218182 241.771093 
z
" style="fill:#1f77b4;"/>
   </g>
   <g id="patch_4">
    <path clip-path="url(#p63b433b8be)" d="M 71.476072 210.575159 
L 73.282385 210.575159 
L 73.282385 44.541058 
L 71.476072 44.541058 
z
" style="fill:#1f77b4;"/>
   </g>
   <g id="patch_5">
    <path clip-path="url(#p63b433b8be)" d="M 73.733963 210.575159 
L 75.540275 210.575159 
L 75.540275 186.333774 
L 73.733963 186.333774 
z
" style="fill:#1f77b4;"/>
   </g>
   <g id="patch_6">
    <path clip-path="url(#p63b433b8be)" d="M 75.991853 210.575159 
L 77.798166 210.575159 
L 77.798166 176.556361 
L 75.991853 176.556361 
z
" style="fill:#1f77b4;"/>
   </g>
   <g id="patch_7">
    <path clip-path="url(#p63b433b8be)" d="M 78.249744 210.575159 
L 80.056056 210.575159 
L 80.056056 224.23152 
L 78.249744 224.23152 
z
" style="fill:#1f77b4;"/>
   </g>
   <g id="patch_8">
    <path clip-path="url(#p63b433b8be)" d="M 80.507634 210.575159 
L 82.313947 210.575159 
L 82.313947 230.748212 
L 80.507634 230.748212 
z
" style="fill:#1f77b4;"/>
   </g>
   <g id="patch_9">
    <path clip-path="url(#p63b433b8be)" d="z
" style="fill:#1f77b4;"/>
   </g>
   <g id="patch_10">
    <path clip-path="url(#p63b433b8be)" d="M 85.023415 210.575159 
L 86.829728 210.575159 
L 86.829728 212.395749 
L 85.023415 212.395749 
z
" style="fill:#1f77b4;"/>
   </g>
   <g id="patch_11">
    <path clip-path="url(#p63b433b8be)" d="M 87.281306 210.575159 
L 89.087618 210.575159 
L 89.087618 200.938131 
L 87.281306 200.938131 
z
" style="fill:#1f77b4;"/>
   </g>
   <g id="patch_12">
    <path clip-path="url(#p63b433b8be)" d="M 89.539196 210.575159 
L 91.345508 210.575159 
L 91.345508 224.854398 
L 89.539196 224.854398 
z
" style="fill:#1f77b4;"/>
   </g>
   <g id="patch_13">
    <path clip-path="url(#p63b433b8be)" d="M 91.797087 210.575159 
L 93.603399 210.575159 
L 93.603399 210.311489 
L 91.797087 210.311489 
z
" style="fill:#1f77b4;"/>
   </g>
   <g id="patch_14">
    <path clip-path="url(#p63b433b8be)" d="M 94.054977 210.575159 
L 95.861289 210.575159 
L 95.861289 160.713182 
L 94.054977 160.713182 
z
" style="fill:#1f77b4;"/>
   </g>
   <g id="patch_15">
    <path clip-path="url(#p63b433b8be)" d="M 96.312868 210.575159 
L 98.11918 210.575159 
L 98.11918 240.593458 
L 96.312868 240.593458 
z
" style="fill:#1f77b4;"/>
   </g>
   <g id="patch_16">
    <path clip-path="url(#p63b433b8be)" d="M 98.570758 210.575159 
L 100.37707 210.575159 
L 100.37707 237.400402 
L 98.570758 237.400402 
z
" style="fill:#1f77b4;"/>
   </g>
   <g id="patch_17">
    <path clip-path="url(#p63b433b8be)" d="M 100.828649 210.575159 
L 102.634961 210.575159 
L 102.634961 227.777383 
L 100.828649 227.777383 
z
" style="fill:#1f77b4;"/>
   </g>
   <g id="patch_18">
    <path clip-path="url(#p63b433b8be)" d="M 103.086539 210.575159 
L 104.892851 210.575159 
L 104.892851 217.323088 
L 103.086539 217.323088 
z
" style="fill:#1f77b4;"/>
   </g>
   <g id="patch_19">
    <path clip-path="url(#p63b433b8be)" d="M 105.344429 210.575159 
L 107.150742 210.575159 
L 107.150742 206.770981 
L 105.344429 206.770981 
z
" style="fill:#1f77b4;"/>
   </g>
   <g id="patch_20">
    <path clip-path="url(#p63b433b8be)" d="M 107.60232 210.575159 
L 109.408632 210.575159 
L 109.408632 225.798238 
L 107.60232 225.798238 
z
" style="fill:#1f77b4;"/>
   </g>
   <g id="patch_21">
    <path clip-path="url(#p63b433b8be)" d="M 109.86021 210.575159 
L 111.666523 210.575159 
L 111.666523 211.925344 
L 109.86021 211.925344 
z
" style="fill:#1f77b4;"/>
   </g>
   <g id="patch_22">
    <path clip-path="url(#p63b433b8be)" d="M 112.118101 210.575159 
L 113.924413 210.575159 
L 113.924413 212.21902 
L 112.118101 212.21902 
z
" style="fill:#1f77b4;"/>
   </g>
   <g id="patch_23">
    <path clip-path="url(#p63b433b8be)" d="M 114.375991 210.575159 
L 116.182304 210.575159 
L 116.182304 240.874289 
L 114.375991 240.874289 
z
" style="fill:#1f77b4;"/>
   </g>
   <g id="patch_24">
    <path clip-path="url(#p63b433b8be)" d="M 116.633882 210.575159 
L 118.440194 210.575159 
L 118.440194 241.735615 
L 116.633882 241.735615 
z
" style="fill:#1f77b4;"/>
   </g>
   <g id="patch_25">
    <path clip-path="url(#p63b433b8be)" d="M 118.891772 210.575159 
L 120.698085 210.575159 
L 120.698085 192.130492 
L 118.891772 192.130492 
z
" style="fill:#1f77b4;"/>
   </g>
   <g id="patch_26">
    <path clip-path="url(#p63b433b8be)" d="M 121.149663 210.575159 
L 122.955975 210.575159 
L 122.955975 240.925669 
L 121.149663 240.925669 
z
" style="fill:#1f77b4;"/>
   </g>
   <g id="patch_27">
    <path clip-path="url(#p63b433b8be)" d="M 123.407553 210.575159 
L 125.213866 210.575159 
L 125.213866 233.270962 
L 123.407553 233.270962 
z
" style="fill:#1f77b4;"/>
   </g>
   <g id="patch_28">
    <path clip-path="url(#p63b433b8be)" d="z
" style="fill:#1f77b4;"/>
   </g>
   <g id="patch_29">
    <path clip-path="url(#p63b433b8be)" d="M 127.923334 210.575159 
L 129.729647 210.575159 
L 129.729647 232.643102 
L 127.923334 232.643102 
z
" style="fill:#1f77b4;"/>
   </g>
   <g id="patch_30">
    <path clip-path="url(#p63b433b8be)" d="M 130.181225 210.575159 
L 131.987537 210.575159 
L 131.987537 229.71367 
L 130.181225 229.71367 
z
" style="fill:#1f77b4;"/>
   </g>
   <g id="patch_31">
    <path clip-path="url(#p63b433b8be)" d="M 132.439115 210.575159 
L 134.245428 210.575159 
L 134.245428 196.831906 
L 132.439115 196.831906 
z
" style="fill:#1f77b4;"/>
   </g>
   <g id="patch_32">
    <path clip-path="url(#p63b433b8be)" d="M 134.697006 210.575159 
L 136.503318 210.575159 
L 136.503318 237.036489 
L 134.697006 237.036489 
z
" style="fill:#1f77b4;"/>
   </g>
   <g id="patch_33">
    <path clip-path="url(#p63b433b8be)" d="M 136.954896 210.575159 
L 138.761209 210.575159 
L 138.761209 233.402974 
L 136.954896 233.402974 
z
" style="fill:#1f77b4;"/>
   </g>
   <g id="patch_34">
    <path clip-path="url(#p63b433b8be)" d="M 139.212787 210.575159 
L 141.019099 210.575159 
L 141.019099 238.125939 
L 139.212787 238.125939 
z
" style="fill:#1f77b4;"/>
   </g>
   <g id="patch_35">
    <path clip-path="url(#p63b433b8be)" d="M 141.470677 210.575159 
L 143.276989 210.575159 
L 143.276989 238.189583 
L 141.470677 238.189583 
z
" style="fill:#1f77b4;"/>
   </g>
   <g id="patch_36">
    <path clip-path="url(#p63b433b8be)" d="M 143.728568 210.575159 
L 145.53488 210.575159 
L 145.53488 186.332875 
L 143.728568 186.332875 
z
" style="fill:#1f77b4;"/>
   </g>
   <g id="patch_37">
    <path clip-path="url(#p63b433b8be)" d="M 145.986458 210.575159 
L 147.79277 210.575159 
L 147.79277 196.796739 
L 145.986458 196.796739 
z
" style="fill:#1f77b4;"/>
   </g>
   <g id="patch_38">
    <path clip-path="url(#p63b433b8be)" d="M 148.244349 210.575159 
L 150.050661 210.575159 
L 150.050661 217.231168 
L 148.244349 217.231168 
z
" style="fill:#1f77b4;"/>
   </g>
   <g id="patch_39">
    <path clip-path="url(#p63b433b8be)" d="M 150.502239 210.575159 
L 152.308551 210.575159 
L 152.308551 240.609344 
L 150.502239 240.609344 
z
" style="fill:#1f77b4;"/>
   </g>
   <g id="patch_40">
    <path clip-path="url(#p63b433b8be)" d="M 152.760129 210.575159 
L 154.566442 210.575159 
L 154.566442 239.751179 
L 152.760129 239.751179 
z
" style="fill:#1f77b4;"/>
   </g>
   <g id="patch_41">
    <path clip-path="url(#p63b433b8be)" d="M 155.01802 210.575159 
L 156.824332 210.575159 
L 156.824332 236.165291 
L 155.01802 236.165291 
z
" style="fill:#1f77b4;"/>
   </g>
   <g id="patch_42">
    <path clip-path="url(#p63b433b8be)" d="M 157.27591 210.575159 
L 159.082223 210.575159 
L 159.082223 184.848827 
L 157.27591 184.848827 
z
" style="fill:#1f77b4;"/>
   </g>
   <g id="patch_43">
    <path clip-path="url(#p63b433b8be)" d="M 159.533801 210.575159 
L 161.340113 210.575159 
L 161.340113 236.367918 
L 159.533801 236.367918 
z
" style="fill:#1f77b4;"/>
   </g>
   <g id="patch_44">
    <path clip-path="url(#p63b433b8be)" d="M 161.791691 210.575159 
L 163.598004 210.575159 
L 163.598004 217.464354 
L 161.791691 217.464354 
z
" style="fill:#1f77b4;"/>
   </g>
   <g id="patch_45">
    <path clip-path="url(#p63b433b8be)" d="M 164.049582 210.575159 
L 165.855894 210.575159 
L 165.855894 231.946311 
L 164.049582 231.946311 
z
" style="fill:#1f77b4;"/>
   </g>
   <g id="patch_46">
    <path clip-path="url(#p63b433b8be)" d="M 166.307472 210.575159 
L 168.113785 210.575159 
L 168.113785 209.482025 
L 166.307472 209.482025 
z
" style="fill:#1f77b4;"/>
   </g>
   <g id="patch_47">
    <path clip-path="url(#p63b433b8be)" d="M 168.565363 210.575159 
L 170.371675 210.575159 
L 170.371675 240.002846 
L 168.565363 240.002846 
z
" style="fill:#1f77b4;"/>
   </g>
   <g id="patch_48">
    <path clip-path="url(#p63b433b8be)" d="M 170.823253 210.575159 
L 172.629566 210.575159 
L 172.629566 240.556618 
L 170.823253 240.556618 
z
" style="fill:#1f77b4;"/>
   </g>
   <g id="patch_49">
    <path clip-path="url(#p63b433b8be)" d="M 173.081144 210.575159 
L 174.887456 210.575159 
L 174.887456 240.917156 
L 173.081144 240.917156 
z
" style="fill:#1f77b4;"/>
   </g>
   <g id="patch_50">
    <path clip-path="url(#p63b433b8be)" d="M 175.339034 210.575159 
L 177.145347 210.575159 
L 177.145347 170.297663 
L 175.339034 170.297663 
z
" style="fill:#1f77b4;"/>
   </g>
   <g id="patch_51">
    <path clip-path="url(#p63b433b8be)" d="M 177.596925 210.575159 
L 179.403237 210.575159 
L 179.403237 210.116467 
L 177.596925 210.116467 
z
" style="fill:#1f77b4;"/>
   </g>
   <g id="patch_52">
    <path clip-path="url(#p63b433b8be)" d="M 179.854815 210.575159 
L 181.661128 210.575159 
L 181.661128 229.360913 
L 179.854815 229.360913 
z
" style="fill:#1f77b4;"/>
   </g>
   <g id="patch_53">
    <path clip-path="url(#p63b433b8be)" d="M 182.112706 210.575159 
L 183.919018 210.575159 
L 183.919018 234.160574 
L 182.112706 234.160574 
z
" style="fill:#1f77b4;"/>
   </g>
   <g id="patch_54">
    <path clip-path="url(#p63b433b8be)" d="M 184.370596 210.575159 
L 186.176909 210.575159 
L 186.176909 242.116364 
L 184.370596 242.116364 
z
" style="fill:#1f77b4;"/>
   </g>
   <g id="patch_55">
    <path clip-path="url(#p63b433b8be)" d="z
" style="fill:#1f77b4;"/>
   </g>
   <g id="patch_56">
    <path clip-path="url(#p63b433b8be)" d="M 188.886377 210.575159 
L 190.69269 210.575159 
L 190.69269 174.950176 
L 188.886377 174.950176 
z
" style="fill:#1f77b4;"/>
   </g>
   <g id="patch_57">
    <path clip-path="url(#p63b433b8be)" d="M 191.144268 210.575159 
L 192.95058 210.575159 
L 192.95058 230.331662 
L 191.144268 230.331662 
z
" style="fill:#1f77b4;"/>
   </g>
   <g id="patch_58">
    <path clip-path="url(#p63b433b8be)" d="M 193.402158 210.575159 
L 195.20847 210.575159 
L 195.20847 224.52205 
L 193.402158 224.52205 
z
" style="fill:#1f77b4;"/>
   </g>
   <g id="patch_59">
    <path clip-path="url(#p63b433b8be)" d="M 195.660049 210.575159 
L 197.466361 210.575159 
L 197.466361 127.496687 
L 195.660049 127.496687 
z
" style="fill:#1f77b4;"/>
   </g>
   <g id="patch_60">
    <path clip-path="url(#p63b433b8be)" d="M 197.917939 210.575159 
L 199.724251 210.575159 
L 199.724251 228.502 
L 197.917939 228.502 
z
" style="fill:#1f77b4;"/>
   </g>
   <g id="patch_61">
    <path clip-path="url(#p63b433b8be)" d="M 200.17583 210.575159 
L 201.982142 210.575159 
L 201.982142 239.194698 
L 200.17583 239.194698 
z
" style="fill:#1f77b4;"/>
   </g>
   <g id="patch_62">
    <path clip-path="url(#p63b433b8be)" d="M 202.43372 210.575159 
L 204.240032 210.575159 
L 204.240032 240.845584 
L 202.43372 240.845584 
z
" style="fill:#1f77b4;"/>
   </g>
   <g id="patch_63">
    <path clip-path="url(#p63b433b8be)" d="M 204.69161 210.575159 
L 206.497923 210.575159 
L 206.497923 134.224582 
L 204.69161 134.224582 
z
" style="fill:#1f77b4;"/>
   </g>
   <g id="patch_64">
    <path clip-path="url(#p63b433b8be)" d="M 206.949501 210.575159 
L 208.755813 210.575159 
L 208.755813 242.116364 
L 206.949501 242.116364 
z
" style="fill:#1f77b4;"/>
   </g>
   <g id="patch_65">
    <path clip-path="url(#p63b433b8be)" d="M 209.207391 210.575159 
L 211.013704 210.575159 
L 211.013704 241.386471 
L 209.207391 241.386471 
z
" style="fill:#1f77b4;"/>
   </g>
   <g id="patch_66">
    <path clip-path="url(#p63b433b8be)" d="z
" style="fill:#1f77b4;"/>
   </g>
   <g id="patch_67">
    <path clip-path="url(#p63b433b8be)" d="z
" style="fill:#1f77b4;"/>
   </g>
   <g id="patch_68">
    <path clip-path="url(#p63b433b8be)" d="M 215.981063 210.575159 
L 217.787375 210.575159 
L 217.787375 199.930375 
L 215.981063 199.930375 
z
" style="fill:#1f77b4;"/>
   </g>
   <g id="patch_69">
    <path clip-path="url(#p63b433b8be)" d="M 218.238953 210.575159 
L 220.045266 210.575159 
L 220.045266 236.963042 
L 218.238953 236.963042 
z
" style="fill:#1f77b4;"/>
   </g>
   <g id="patch_70">
    <path clip-path="url(#p63b433b8be)" d="M 220.496844 210.575159 
L 222.303156 210.575159 
L 222.303156 145.078606 
L 220.496844 145.078606 
z
" style="fill:#1f77b4;"/>
   </g>
   <g id="patch_71">
    <path clip-path="url(#p63b433b8be)" d="M 222.754734 210.575159 
L 224.561047 210.575159 
L 224.561047 130.372322 
L 222.754734 130.372322 
z
" style="fill:#1f77b4;"/>
   </g>
   <g id="patch_72">
    <path clip-path="url(#p63b433b8be)" d="M 225.012625 210.575159 
L 226.818937 210.575159 
L 226.818937 223.109808 
L 225.012625 223.109808 
z
" style="fill:#1f77b4;"/>
   </g>
   <g id="patch_73">
    <path clip-path="url(#p63b433b8be)" d="M 227.270515 210.575159 
L 229.076828 210.575159 
L 229.076828 230.365867 
L 227.270515 230.365867 
z
" style="fill:#1f77b4;"/>
   </g>
   <g id="patch_74">
    <path clip-path="url(#p63b433b8be)" d="M 229.528406 210.575159 
L 231.334718 210.575159 
L 231.334718 225.420911 
L 229.528406 225.420911 
z
" style="fill:#1f77b4;"/>
   </g>
   <g id="patch_75">
    <path clip-path="url(#p63b433b8be)" d="z
" style="fill:#1f77b4;"/>
   </g>
   <g id="patch_76">
    <path clip-path="url(#p63b433b8be)" d="M 234.044187 210.575159 
L 235.850499 210.575159 
L 235.850499 235.665976 
L 234.044187 235.665976 
z
" style="fill:#1f77b4;"/>
   </g>
   <g id="patch_77">
    <path clip-path="url(#p63b433b8be)" d="M 236.302077 210.575159 
L 238.10839 210.575159 
L 238.10839 229.352072 
L 236.302077 229.352072 
z
" style="fill:#1f77b4;"/>
   </g>
   <g id="patch_78">
    <path clip-path="url(#p63b433b8be)" d="M 238.559968 210.575159 
L 240.36628 210.575159 
L 240.36628 235.315471 
L 238.559968 235.315471 
z
" style="fill:#1f77b4;"/>
   </g>
   <g id="patch_79">
    <path clip-path="url(#p63b433b8be)" d="M 240.817858 210.575159 
L 242.62417 210.575159 
L 242.62417 221.336779 
L 240.817858 221.336779 
z
" style="fill:#1f77b4;"/>
   </g>
   <g id="patch_80">
    <path clip-path="url(#p63b433b8be)" d="M 243.075749 210.575159 
L 244.882061 210.575159 
L 244.882061 240.43322 
L 243.075749 240.43322 
z
" style="fill:#1f77b4;"/>
   </g>
   <g id="patch_81">
    <path clip-path="url(#p63b433b8be)" d="M 245.333639 210.575159 
L 247.139951 210.575159 
L 247.139951 219.206952 
L 245.333639 219.206952 
z
" style="fill:#1f77b4;"/>
   </g>
   <g id="patch_82">
    <path clip-path="url(#p63b433b8be)" d="M 247.59153 210.575159 
L 249.397842 210.575159 
L 249.397842 225.658459 
L 247.59153 225.658459 
z
" style="fill:#1f77b4;"/>
   </g>
   <g id="patch_83">
    <path clip-path="url(#p63b433b8be)" d="z
" style="fill:#1f77b4;"/>
   </g>
   <g id="patch_84">
    <path clip-path="url(#p63b433b8be)" d="M 252.10731 210.575159 
L 253.913623 210.575159 
L 253.913623 223.271468 
L 252.10731 223.271468 
z
" style="fill:#1f77b4;"/>
   </g>
   <g id="patch_85">
    <path clip-path="url(#p63b433b8be)" d="M 254.365201 210.575159 
L 256.171513 210.575159 
L 256.171513 225.346185 
L 254.365201 225.346185 
z
" style="fill:#1f77b4;"/>
   </g>
   <g id="patch_86">
    <path clip-path="url(#p63b433b8be)" d="M 256.623091 210.575159 
L 258.429404 210.575159 
L 258.429404 242.116364 
L 256.623091 242.116364 
z
" style="fill:#1f77b4;"/>
   </g>
   <g id="patch_87">
    <path clip-path="url(#p63b433b8be)" d="M 258.880982 210.575159 
L 260.687294 210.575159 
L 260.687294 242.116364 
L 258.880982 242.116364 
z
" style="fill:#1f77b4;"/>
   </g>
   <g id="patch_88">
    <path clip-path="url(#p63b433b8be)" d="z
" style="fill:#1f77b4;"/>
   </g>
   <g id="patch_89">
    <path clip-path="url(#p63b433b8be)" d="z
" style="fill:#1f77b4;"/>
   </g>
   <g id="patch_90">
    <path clip-path="url(#p63b433b8be)" d="M 265.654653 210.575159 
L 267.460966 210.575159 
L 267.460966 241.49276 
L 265.654653 241.49276 
z
" style="fill:#1f77b4;"/>
   </g>
   <g id="patch_91">
    <path clip-path="url(#p63b433b8be)" d="M 267.912544 210.575159 
L 269.718856 210.575159 
L 269.718856 234.25829 
L 267.912544 234.25829 
z
" style="fill:#1f77b4;"/>
   </g>
   <g id="patch_92">
    <path clip-path="url(#p63b433b8be)" d="M 270.170434 210.575159 
L 271.976747 210.575159 
L 271.976747 186.069498 
L 270.170434 186.069498 
z
" style="fill:#1f77b4;"/>
   </g>
   <g id="patch_93">
    <path clip-path="url(#p63b433b8be)" d="M 272.428325 210.575159 
L 274.234637 210.575159 
L 274.234637 237.132698 
L 272.428325 237.132698 
z
" style="fill:#1f77b4;"/>
   </g>
   <g id="patch_94">
    <path clip-path="url(#p63b433b8be)" d="M 274.686215 210.575159 
L 276.492528 210.575159 
L 276.492528 237.551011 
L 274.686215 237.551011 
z
" style="fill:#1f77b4;"/>
   </g>
   <g id="patch_95">
    <path clip-path="url(#p63b433b8be)" d="M 276.944106 210.575159 
L 278.750418 210.575159 
L 278.750418 226.134867 
L 276.944106 226.134867 
z
" style="fill:#1f77b4;"/>
   </g>
   <g id="patch_96">
    <path clip-path="url(#p63b433b8be)" d="M 279.201996 210.575159 
L 281.008309 210.575159 
L 281.008309 202.860939 
L 279.201996 202.860939 
z
" style="fill:#1f77b4;"/>
   </g>
   <g id="patch_97">
    <path clip-path="url(#p63b433b8be)" d="M 281.459887 210.575159 
L 283.266199 210.575159 
L 283.266199 219.345734 
L 281.459887 219.345734 
z
" style="fill:#1f77b4;"/>
   </g>
   <g id="patch_98">
    <path clip-path="url(#p63b433b8be)" d="M 283.717777 210.575159 
L 285.52409 210.575159 
L 285.52409 132.377787 
L 283.717777 132.377787 
z
" style="fill:#1f77b4;"/>
   </g>
   <g id="patch_99">
    <path clip-path="url(#p63b433b8be)" d="M 285.975668 210.575159 
L 287.78198 210.575159 
L 287.78198 242.116364 
L 285.975668 242.116364 
z
" style="fill:#1f77b4;"/>
   </g>
   <g id="patch_100">
    <path clip-path="url(#p63b433b8be)" d="M 288.233558 210.575159 
L 290.039871 210.575159 
L 290.039871 167.510983 
L 288.233558 167.510983 
z
" style="fill:#1f77b4;"/>
   </g>
   <g id="patch_101">
    <path clip-path="url(#p63b433b8be)" d="z
" style="fill:#1f77b4;"/>
   </g>
   <g id="patch_102">
    <path clip-path="url(#p63b433b8be)" d="M 292.749339 210.575159 
L 294.555651 210.575159 
L 294.555651 242.116364 
L 292.749339 242.116364 
z
" style="fill:#1f77b4;"/>
   </g>
   <g id="patch_103">
    <path clip-path="url(#p63b433b8be)" d="M 295.00723 210.575159 
L 296.813542 210.575159 
L 296.813542 230.485215 
L 295.00723 230.485215 
z
" style="fill:#1f77b4;"/>
   </g>
   <g id="patch_104">
    <path clip-path="url(#p63b433b8be)" d="z
" style="fill:#1f77b4;"/>
   </g>
   <g id="patch_105">
    <path clip-path="url(#p63b433b8be)" d="M 299.523011 210.575159 
L 301.329323 210.575159 
L 301.329323 242.116364 
L 299.523011 242.116364 
z
" style="fill:#1f77b4;"/>
   </g>
   <g id="patch_106">
    <path clip-path="url(#p63b433b8be)" d="M 301.780901 210.575159 
L 303.587213 210.575159 
L 303.587213 224.536752 
L 301.780901 224.536752 
z
" style="fill:#1f77b4;"/>
   </g>
   <g id="patch_107">
    <path clip-path="url(#p63b433b8be)" d="z
" style="fill:#1f77b4;"/>
   </g>
   <g id="patch_108">
    <path clip-path="url(#p63b433b8be)" d="M 306.296682 210.575159 
L 308.102994 210.575159 
L 308.102994 221.807587 
L 306.296682 221.807587 
z
" style="fill:#1f77b4;"/>
   </g>
   <g id="patch_109">
    <path clip-path="url(#p63b433b8be)" d="M 308.554572 210.575159 
L 310.360885 210.575159 
L 310.360885 241.324333 
L 308.554572 241.324333 
z
" style="fill:#1f77b4;"/>
   </g>
   <g id="patch_110">
    <path clip-path="url(#p63b433b8be)" d="M 310.812463 210.575159 
L 312.618775 210.575159 
L 312.618775 173.440155 
L 310.812463 173.440155 
z
" style="fill:#1f77b4;"/>
   </g>
   <g id="patch_111">
    <path clip-path="url(#p63b433b8be)" d="M 313.070353 210.575159 
L 314.876666 210.575159 
L 314.876666 122.335893 
L 313.070353 122.335893 
z
" style="fill:#1f77b4;"/>
   </g>
   <g id="patch_112">
    <path clip-path="url(#p63b433b8be)" d="M 315.328244 210.575159 
L 317.134556 210.575159 
L 317.134556 236.464763 
L 315.328244 236.464763 
z
" style="fill:#1f77b4;"/>
   </g>
   <g id="patch_113">
    <path clip-path="url(#p63b433b8be)" d="M 317.586134 210.575159 
L 319.392447 210.575159 
L 319.392447 205.66316 
L 317.586134 205.66316 
z
" style="fill:#1f77b4;"/>
   </g>
   <g id="patch_114">
    <path clip-path="url(#p63b433b8be)" d="M 319.844025 210.575159 
L 321.650337 210.575159 
L 321.650337 212.333391 
L 319.844025 212.333391 
z
" style="fill:#1f77b4;"/>
   </g>
   <g id="patch_115">
    <path clip-path="url(#p63b433b8be)" d="M 322.101915 210.575159 
L 323.908228 210.575159 
L 323.908228 241.291073 
L 322.101915 241.291073 
z
" style="fill:#1f77b4;"/>
   </g>
   <g id="patch_116">
    <path clip-path="url(#p63b433b8be)" d="M 324.359806 210.575159 
L 326.166118 210.575159 
L 326.166118 231.05926 
L 324.359806 231.05926 
z
" style="fill:#1f77b4;"/>
   </g>
   <g id="patch_117">
    <path clip-path="url(#p63b433b8be)" d="M 326.617696 210.575159 
L 328.424009 210.575159 
L 328.424009 189.700614 
L 326.617696 189.700614 
z
" style="fill:#1f77b4;"/>
   </g>
   <g id="patch_118">
    <path clip-path="url(#p63b433b8be)" d="M 328.875587 210.575159 
L 330.681899 210.575159 
L 330.681899 237.273822 
L 328.875587 237.273822 
z
" style="fill:#1f77b4;"/>
   </g>
   <g id="patch_119">
    <path clip-path="url(#p63b433b8be)" d="M 331.133477 210.575159 
L 332.93979 210.575159 
L 332.93979 241.92621 
L 331.133477 241.92621 
z
" style="fill:#1f77b4;"/>
   </g>
   <g id="patch_120">
    <path clip-path="url(#p63b433b8be)" d="M 333.391368 210.575159 
L 335.19768 210.575159 
L 335.19768 231.928184 
L 333.391368 231.928184 
z
" style="fill:#1f77b4;"/>
   </g>
   <g id="patch_121">
    <path clip-path="url(#p63b433b8be)" d="z
" style="fill:#1f77b4;"/>
   </g>
   <g id="patch_122">
    <path clip-path="url(#p63b433b8be)" d="M 337.907149 210.575159 
L 339.713461 210.575159 
L 339.713461 217.926558 
L 337.907149 217.926558 
z
" style="fill:#1f77b4;"/>
   </g>
   <g id="patch_123">
    <path clip-path="url(#p63b433b8be)" d="M 340.165039 210.575159 
L 341.971351 210.575159 
L 341.971351 224.445024 
L 340.165039 224.445024 
z
" style="fill:#1f77b4;"/>
   </g>
   <g id="patch_124">
    <path clip-path="url(#p63b433b8be)" d="M 342.42293 210.575159 
L 344.229242 210.575159 
L 344.229242 238.154986 
L 342.42293 238.154986 
z
" style="fill:#1f77b4;"/>
   </g>
   <g id="patch_125">
    <path clip-path="url(#p63b433b8be)" d="M 344.68082 210.575159 
L 346.487132 210.575159 
L 346.487132 242.019222 
L 344.68082 242.019222 
z
" style="fill:#1f77b4;"/>
   </g>
   <g id="patch_126">
    <path clip-path="url(#p63b433b8be)" d="M 346.938711 210.575159 
L 348.745023 210.575159 
L 348.745023 228.619759 
L 346.938711 228.619759 
z
" style="fill:#1f77b4;"/>
   </g>
   <g id="patch_127">
    <path clip-path="url(#p63b433b8be)" d="M 349.196601 210.575159 
L 351.002913 210.575159 
L 351.002913 230.864282 
L 349.196601 230.864282 
z
" style="fill:#1f77b4;"/>
   </g>
   <g id="patch_128">
    <path clip-path="url(#p63b433b8be)" d="M 351.454492 210.575159 
L 353.260804 210.575159 
L 353.260804 218.701068 
L 351.454492 218.701068 
z
" style="fill:#1f77b4;"/>
   </g>
   <g id="patch_129">
    <path clip-path="url(#p63b433b8be)" d="M 353.712382 210.575159 
L 355.518694 210.575159 
L 355.518694 213.531897 
L 353.712382 213.531897 
z
" style="fill:#1f77b4;"/>
   </g>
   <g id="patch_130">
    <path clip-path="url(#p63b433b8be)" d="M 355.970272 210.575159 
L 357.776585 210.575159 
L 357.776585 183.679967 
L 355.970272 183.679967 
z
" style="fill:#1f77b4;"/>
   </g>
   <g id="patch_131">
    <path clip-path="url(#p63b433b8be)" d="z
" style="fill:#1f77b4;"/>
   </g>
   <g id="patch_132">
    <path clip-path="url(#p63b433b8be)" d="M 360.486053 210.575159 
L 362.292366 210.575159 
L 362.292366 224.284589 
L 360.486053 224.284589 
z
" style="fill:#1f77b4;"/>
   </g>
   <g id="patch_133">
    <path clip-path="url(#p63b433b8be)" d="M 362.743944 210.575159 
L 364.550256 210.575159 
L 364.550256 218.778533 
L 362.743944 218.778533 
z
" style="fill:#1f77b4;"/>
   </g>
   <g id="patch_134">
    <path clip-path="url(#p63b433b8be)" d="M 365.001834 210.575159 
L 366.808147 210.575159 
L 366.808147 215.038223 
L 365.001834 215.038223 
z
" style="fill:#1f77b4;"/>
   </g>
   <g id="patch_135">
    <path clip-path="url(#p63b433b8be)" d="M 367.259725 210.575159 
L 369.066037 210.575159 
L 369.066037 217.651369 
L 367.259725 217.651369 
z
" style="fill:#1f77b4;"/>
   </g>
   <g id="patch_136">
    <path clip-path="url(#p63b433b8be)" d="M 369.517615 210.575159 
L 371.323928 210.575159 
L 371.323928 218.482173 
L 369.517615 218.482173 
z
" style="fill:#1f77b4;"/>
   </g>
   <g id="patch_137">
    <path clip-path="url(#p63b433b8be)" d="M 371.775506 210.575159 
L 373.581818 210.575159 
L 373.581818 167.498603 
L 371.775506 167.498603 
z
" style="fill:#1f77b4;"/>
   </g>
   <g id="matplotlib.axis_1">
    <g id="xtick_1">
     <g id="line2d_1">
      <defs>
       <path d="M 0 0 
L 0 3.5 
" id="m26a5fb93d7" style="stroke:#000000;stroke-width:0.8;"/>
      </defs>
      <g>
       <use style="stroke:#000000;stroke-width:0.8;" x="70.121338" xlink:href="#m26a5fb93d7" y="252"/>
      </g>
     </g>
     <g id="text_1">
      <!-- 0 -->
      <defs>
       <path d="M 31.78125 66.40625 
Q 24.171875 66.40625 20.328125 58.90625 
Q 16.5 51.421875 16.5 36.375 
Q 16.5 21.390625 20.328125 13.890625 
Q 24.171875 6.390625 31.78125 6.390625 
Q 39.453125 6.390625 43.28125 13.890625 
Q 47.125 21.390625 47.125 36.375 
Q 47.125 51.421875 43.28125 58.90625 
Q 39.453125 66.40625 31.78125 66.40625 
z
M 31.78125 74.21875 
Q 44.046875 74.21875 50.515625 64.515625 
Q 56.984375 54.828125 56.984375 36.375 
Q 56.984375 17.96875 50.515625 8.265625 
Q 44.046875 -1.421875 31.78125 -1.421875 
Q 19.53125 -1.421875 13.0625 8.265625 
Q 6.59375 17.96875 6.59375 36.375 
Q 6.59375 54.828125 13.0625 64.515625 
Q 19.53125 74.21875 31.78125 74.21875 
z
" id="DejaVuSans-30"/>
      </defs>
      <g transform="translate(66.940088 266.598437)scale(0.1 -0.1)">
       <use xlink:href="#DejaVuSans-30"/>
      </g>
     </g>
    </g>
    <g id="xtick_2">
     <g id="line2d_2">
      <g>
       <use style="stroke:#000000;stroke-width:0.8;" x="115.279148" xlink:href="#m26a5fb93d7" y="252"/>
      </g>
     </g>
     <g id="text_2">
      <!-- 20 -->
      <defs>
       <path d="M 19.1875 8.296875 
L 53.609375 8.296875 
L 53.609375 0 
L 7.328125 0 
L 7.328125 8.296875 
Q 12.9375 14.109375 22.625 23.890625 
Q 32.328125 33.6875 34.8125 36.53125 
Q 39.546875 41.84375 41.421875 45.53125 
Q 43.3125 49.21875 43.3125 52.78125 
Q 43.3125 58.59375 39.234375 62.25 
Q 35.15625 65.921875 28.609375 65.921875 
Q 23.96875 65.921875 18.8125 64.3125 
Q 13.671875 62.703125 7.8125 59.421875 
L 7.8125 69.390625 
Q 13.765625 71.78125 18.9375 73 
Q 24.125 74.21875 28.421875 74.21875 
Q 39.75 74.21875 46.484375 68.546875 
Q 53.21875 62.890625 53.21875 53.421875 
Q 53.21875 48.921875 51.53125 44.890625 
Q 49.859375 40.875 45.40625 35.40625 
Q 44.1875 33.984375 37.640625 27.21875 
Q 31.109375 20.453125 19.1875 8.296875 
z
" id="DejaVuSans-32"/>
      </defs>
      <g transform="translate(108.916648 266.598437)scale(0.1 -0.1)">
       <use xlink:href="#DejaVuSans-32"/>
       <use x="63.623047" xlink:href="#DejaVuSans-30"/>
      </g>
     </g>
    </g>
    <g id="xtick_3">
     <g id="line2d_3">
      <g>
       <use style="stroke:#000000;stroke-width:0.8;" x="160.436957" xlink:href="#m26a5fb93d7" y="252"/>
      </g>
     </g>
     <g id="text_3">
      <!-- 40 -->
      <defs>
       <path d="M 37.796875 64.3125 
L 12.890625 25.390625 
L 37.796875 25.390625 
z
M 35.203125 72.90625 
L 47.609375 72.90625 
L 47.609375 25.390625 
L 58.015625 25.390625 
L 58.015625 17.1875 
L 47.609375 17.1875 
L 47.609375 0 
L 37.796875 0 
L 37.796875 17.1875 
L 4.890625 17.1875 
L 4.890625 26.703125 
z
" id="DejaVuSans-34"/>
      </defs>
      <g transform="translate(154.074457 266.598437)scale(0.1 -0.1)">
       <use xlink:href="#DejaVuSans-34"/>
       <use x="63.623047" xlink:href="#DejaVuSans-30"/>
      </g>
     </g>
    </g>
    <g id="xtick_4">
     <g id="line2d_4">
      <g>
       <use style="stroke:#000000;stroke-width:0.8;" x="205.594767" xlink:href="#m26a5fb93d7" y="252"/>
      </g>
     </g>
     <g id="text_4">
      <!-- 60 -->
      <defs>
       <path d="M 33.015625 40.375 
Q 26.375 40.375 22.484375 35.828125 
Q 18.609375 31.296875 18.609375 23.390625 
Q 18.609375 15.53125 22.484375 10.953125 
Q 26.375 6.390625 33.015625 6.390625 
Q 39.65625 6.390625 43.53125 10.953125 
Q 47.40625 15.53125 47.40625 23.390625 
Q 47.40625 31.296875 43.53125 35.828125 
Q 39.65625 40.375 33.015625 40.375 
z
M 52.59375 71.296875 
L 52.59375 62.3125 
Q 48.875 64.0625 45.09375 64.984375 
Q 41.3125 65.921875 37.59375 65.921875 
Q 27.828125 65.921875 22.671875 59.328125 
Q 17.53125 52.734375 16.796875 39.40625 
Q 19.671875 43.65625 24.015625 45.921875 
Q 28.375 48.1875 33.59375 48.1875 
Q 44.578125 48.1875 50.953125 41.515625 
Q 57.328125 34.859375 57.328125 23.390625 
Q 57.328125 12.15625 50.6875 5.359375 
Q 44.046875 -1.421875 33.015625 -1.421875 
Q 20.359375 -1.421875 13.671875 8.265625 
Q 6.984375 17.96875 6.984375 36.375 
Q 6.984375 53.65625 15.1875 63.9375 
Q 23.390625 74.21875 37.203125 74.21875 
Q 40.921875 74.21875 44.703125 73.484375 
Q 48.484375 72.75 52.59375 71.296875 
z
" id="DejaVuSans-36"/>
      </defs>
      <g transform="translate(199.232267 266.598437)scale(0.1 -0.1)">
       <use xlink:href="#DejaVuSans-36"/>
       <use x="63.623047" xlink:href="#DejaVuSans-30"/>
      </g>
     </g>
    </g>
    <g id="xtick_5">
     <g id="line2d_5">
      <g>
       <use style="stroke:#000000;stroke-width:0.8;" x="250.752576" xlink:href="#m26a5fb93d7" y="252"/>
      </g>
     </g>
     <g id="text_5">
      <!-- 80 -->
      <defs>
       <path d="M 31.78125 34.625 
Q 24.75 34.625 20.71875 30.859375 
Q 16.703125 27.09375 16.703125 20.515625 
Q 16.703125 13.921875 20.71875 10.15625 
Q 24.75 6.390625 31.78125 6.390625 
Q 38.8125 6.390625 42.859375 10.171875 
Q 46.921875 13.96875 46.921875 20.515625 
Q 46.921875 27.09375 42.890625 30.859375 
Q 38.875 34.625 31.78125 34.625 
z
M 21.921875 38.8125 
Q 15.578125 40.375 12.03125 44.71875 
Q 8.5 49.078125 8.5 55.328125 
Q 8.5 64.0625 14.71875 69.140625 
Q 20.953125 74.21875 31.78125 74.21875 
Q 42.671875 74.21875 48.875 69.140625 
Q 55.078125 64.0625 55.078125 55.328125 
Q 55.078125 49.078125 51.53125 44.71875 
Q 48 40.375 41.703125 38.8125 
Q 48.828125 37.15625 52.796875 32.3125 
Q 56.78125 27.484375 56.78125 20.515625 
Q 56.78125 9.90625 50.3125 4.234375 
Q 43.84375 -1.421875 31.78125 -1.421875 
Q 19.734375 -1.421875 13.25 4.234375 
Q 6.78125 9.90625 6.78125 20.515625 
Q 6.78125 27.484375 10.78125 32.3125 
Q 14.796875 37.15625 21.921875 38.8125 
z
M 18.3125 54.390625 
Q 18.3125 48.734375 21.84375 45.5625 
Q 25.390625 42.390625 31.78125 42.390625 
Q 38.140625 42.390625 41.71875 45.5625 
Q 45.3125 48.734375 45.3125 54.390625 
Q 45.3125 60.0625 41.71875 63.234375 
Q 38.140625 66.40625 31.78125 66.40625 
Q 25.390625 66.40625 21.84375 63.234375 
Q 18.3125 60.0625 18.3125 54.390625 
z
" id="DejaVuSans-38"/>
      </defs>
      <g transform="translate(244.390076 266.598437)scale(0.1 -0.1)">
       <use xlink:href="#DejaVuSans-38"/>
       <use x="63.623047" xlink:href="#DejaVuSans-30"/>
      </g>
     </g>
    </g>
    <g id="xtick_6">
     <g id="line2d_6">
      <g>
       <use style="stroke:#000000;stroke-width:0.8;" x="295.910386" xlink:href="#m26a5fb93d7" y="252"/>
      </g>
     </g>
     <g id="text_6">
      <!-- 100 -->
      <defs>
       <path d="M 12.40625 8.296875 
L 28.515625 8.296875 
L 28.515625 63.921875 
L 10.984375 60.40625 
L 10.984375 69.390625 
L 28.421875 72.90625 
L 38.28125 72.90625 
L 38.28125 8.296875 
L 54.390625 8.296875 
L 54.390625 0 
L 12.40625 0 
z
" id="DejaVuSans-31"/>
      </defs>
      <g transform="translate(286.366636 266.598437)scale(0.1 -0.1)">
       <use xlink:href="#DejaVuSans-31"/>
       <use x="63.623047" xlink:href="#DejaVuSans-30"/>
       <use x="127.246094" xlink:href="#DejaVuSans-30"/>
      </g>
     </g>
    </g>
    <g id="xtick_7">
     <g id="line2d_7">
      <g>
       <use style="stroke:#000000;stroke-width:0.8;" x="341.068195" xlink:href="#m26a5fb93d7" y="252"/>
      </g>
     </g>
     <g id="text_7">
      <!-- 120 -->
      <g transform="translate(331.524445 266.598437)scale(0.1 -0.1)">
       <use xlink:href="#DejaVuSans-31"/>
       <use x="63.623047" xlink:href="#DejaVuSans-32"/>
       <use x="127.246094" xlink:href="#DejaVuSans-30"/>
      </g>
     </g>
    </g>
    <g id="xtick_8">
     <g id="line2d_8">
      <g>
       <use style="stroke:#000000;stroke-width:0.8;" x="386.226005" xlink:href="#m26a5fb93d7" y="252"/>
      </g>
     </g>
     <g id="text_8">
      <!-- 140 -->
      <g transform="translate(376.682255 266.598437)scale(0.1 -0.1)">
       <use xlink:href="#DejaVuSans-31"/>
       <use x="63.623047" xlink:href="#DejaVuSans-34"/>
       <use x="127.246094" xlink:href="#DejaVuSans-30"/>
      </g>
     </g>
    </g>
    <g id="text_9">
     <!-- Residue number -->
     <defs>
      <path d="M 44.390625 34.1875 
Q 47.5625 33.109375 50.5625 29.59375 
Q 53.5625 26.078125 56.59375 19.921875 
L 66.609375 0 
L 56 0 
L 46.6875 18.703125 
Q 43.0625 26.03125 39.671875 28.421875 
Q 36.28125 30.8125 30.421875 30.8125 
L 19.671875 30.8125 
L 19.671875 0 
L 9.8125 0 
L 9.8125 72.90625 
L 32.078125 72.90625 
Q 44.578125 72.90625 50.734375 67.671875 
Q 56.890625 62.453125 56.890625 51.90625 
Q 56.890625 45.015625 53.6875 40.46875 
Q 50.484375 35.9375 44.390625 34.1875 
z
M 19.671875 64.796875 
L 19.671875 38.921875 
L 32.078125 38.921875 
Q 39.203125 38.921875 42.84375 42.21875 
Q 46.484375 45.515625 46.484375 51.90625 
Q 46.484375 58.296875 42.84375 61.546875 
Q 39.203125 64.796875 32.078125 64.796875 
z
" id="DejaVuSans-52"/>
      <path d="M 56.203125 29.59375 
L 56.203125 25.203125 
L 14.890625 25.203125 
Q 15.484375 15.921875 20.484375 11.0625 
Q 25.484375 6.203125 34.421875 6.203125 
Q 39.59375 6.203125 44.453125 7.46875 
Q 49.3125 8.734375 54.109375 11.28125 
L 54.109375 2.78125 
Q 49.265625 0.734375 44.1875 -0.34375 
Q 39.109375 -1.421875 33.890625 -1.421875 
Q 20.796875 -1.421875 13.15625 6.1875 
Q 5.515625 13.8125 5.515625 26.8125 
Q 5.515625 40.234375 12.765625 48.109375 
Q 20.015625 56 32.328125 56 
Q 43.359375 56 49.78125 48.890625 
Q 56.203125 41.796875 56.203125 29.59375 
z
M 47.21875 32.234375 
Q 47.125 39.59375 43.09375 43.984375 
Q 39.0625 48.390625 32.421875 48.390625 
Q 24.90625 48.390625 20.390625 44.140625 
Q 15.875 39.890625 15.1875 32.171875 
z
" id="DejaVuSans-65"/>
      <path d="M 44.28125 53.078125 
L 44.28125 44.578125 
Q 40.484375 46.53125 36.375 47.5 
Q 32.28125 48.484375 27.875 48.484375 
Q 21.1875 48.484375 17.84375 46.4375 
Q 14.5 44.390625 14.5 40.28125 
Q 14.5 37.15625 16.890625 35.375 
Q 19.28125 33.59375 26.515625 31.984375 
L 29.59375 31.296875 
Q 39.15625 29.25 43.1875 25.515625 
Q 47.21875 21.78125 47.21875 15.09375 
Q 47.21875 7.46875 41.1875 3.015625 
Q 35.15625 -1.421875 24.609375 -1.421875 
Q 20.21875 -1.421875 15.453125 -0.5625 
Q 10.6875 0.296875 5.421875 2 
L 5.421875 11.28125 
Q 10.40625 8.6875 15.234375 7.390625 
Q 20.0625 6.109375 24.8125 6.109375 
Q 31.15625 6.109375 34.5625 8.28125 
Q 37.984375 10.453125 37.984375 14.40625 
Q 37.984375 18.0625 35.515625 20.015625 
Q 33.0625 21.96875 24.703125 23.78125 
L 21.578125 24.515625 
Q 13.234375 26.265625 9.515625 29.90625 
Q 5.8125 33.546875 5.8125 39.890625 
Q 5.8125 47.609375 11.28125 51.796875 
Q 16.75 56 26.8125 56 
Q 31.78125 56 36.171875 55.265625 
Q 40.578125 54.546875 44.28125 53.078125 
z
" id="DejaVuSans-73"/>
      <path d="M 9.421875 54.6875 
L 18.40625 54.6875 
L 18.40625 0 
L 9.421875 0 
z
M 9.421875 75.984375 
L 18.40625 75.984375 
L 18.40625 64.59375 
L 9.421875 64.59375 
z
" id="DejaVuSans-69"/>
      <path d="M 45.40625 46.390625 
L 45.40625 75.984375 
L 54.390625 75.984375 
L 54.390625 0 
L 45.40625 0 
L 45.40625 8.203125 
Q 42.578125 3.328125 38.25 0.953125 
Q 33.9375 -1.421875 27.875 -1.421875 
Q 17.96875 -1.421875 11.734375 6.484375 
Q 5.515625 14.40625 5.515625 27.296875 
Q 5.515625 40.1875 11.734375 48.09375 
Q 17.96875 56 27.875 56 
Q 33.9375 56 38.25 53.625 
Q 42.578125 51.265625 45.40625 46.390625 
z
M 14.796875 27.296875 
Q 14.796875 17.390625 18.875 11.75 
Q 22.953125 6.109375 30.078125 6.109375 
Q 37.203125 6.109375 41.296875 11.75 
Q 45.40625 17.390625 45.40625 27.296875 
Q 45.40625 37.203125 41.296875 42.84375 
Q 37.203125 48.484375 30.078125 48.484375 
Q 22.953125 48.484375 18.875 42.84375 
Q 14.796875 37.203125 14.796875 27.296875 
z
" id="DejaVuSans-64"/>
      <path d="M 8.5 21.578125 
L 8.5 54.6875 
L 17.484375 54.6875 
L 17.484375 21.921875 
Q 17.484375 14.15625 20.5 10.265625 
Q 23.53125 6.390625 29.59375 6.390625 
Q 36.859375 6.390625 41.078125 11.03125 
Q 45.3125 15.671875 45.3125 23.6875 
L 45.3125 54.6875 
L 54.296875 54.6875 
L 54.296875 0 
L 45.3125 0 
L 45.3125 8.40625 
Q 42.046875 3.421875 37.71875 1 
Q 33.40625 -1.421875 27.6875 -1.421875 
Q 18.265625 -1.421875 13.375 4.4375 
Q 8.5 10.296875 8.5 21.578125 
z
M 31.109375 56 
z
" id="DejaVuSans-75"/>
      <path id="DejaVuSans-20"/>
      <path d="M 54.890625 33.015625 
L 54.890625 0 
L 45.90625 0 
L 45.90625 32.71875 
Q 45.90625 40.484375 42.875 44.328125 
Q 39.84375 48.1875 33.796875 48.1875 
Q 26.515625 48.1875 22.3125 43.546875 
Q 18.109375 38.921875 18.109375 30.90625 
L 18.109375 0 
L 9.078125 0 
L 9.078125 54.6875 
L 18.109375 54.6875 
L 18.109375 46.1875 
Q 21.34375 51.125 25.703125 53.5625 
Q 30.078125 56 35.796875 56 
Q 45.21875 56 50.046875 50.171875 
Q 54.890625 44.34375 54.890625 33.015625 
z
" id="DejaVuSans-6e"/>
      <path d="M 52 44.1875 
Q 55.375 50.25 60.0625 53.125 
Q 64.75 56 71.09375 56 
Q 79.640625 56 84.28125 50.015625 
Q 88.921875 44.046875 88.921875 33.015625 
L 88.921875 0 
L 79.890625 0 
L 79.890625 32.71875 
Q 79.890625 40.578125 77.09375 44.375 
Q 74.3125 48.1875 68.609375 48.1875 
Q 61.625 48.1875 57.5625 43.546875 
Q 53.515625 38.921875 53.515625 30.90625 
L 53.515625 0 
L 44.484375 0 
L 44.484375 32.71875 
Q 44.484375 40.625 41.703125 44.40625 
Q 38.921875 48.1875 33.109375 48.1875 
Q 26.21875 48.1875 22.15625 43.53125 
Q 18.109375 38.875 18.109375 30.90625 
L 18.109375 0 
L 9.078125 0 
L 9.078125 54.6875 
L 18.109375 54.6875 
L 18.109375 46.1875 
Q 21.1875 51.21875 25.484375 53.609375 
Q 29.78125 56 35.6875 56 
Q 41.65625 56 45.828125 52.96875 
Q 50 49.953125 52 44.1875 
z
" id="DejaVuSans-6d"/>
      <path d="M 48.6875 27.296875 
Q 48.6875 37.203125 44.609375 42.84375 
Q 40.53125 48.484375 33.40625 48.484375 
Q 26.265625 48.484375 22.1875 42.84375 
Q 18.109375 37.203125 18.109375 27.296875 
Q 18.109375 17.390625 22.1875 11.75 
Q 26.265625 6.109375 33.40625 6.109375 
Q 40.53125 6.109375 44.609375 11.75 
Q 48.6875 17.390625 48.6875 27.296875 
z
M 18.109375 46.390625 
Q 20.953125 51.265625 25.265625 53.625 
Q 29.59375 56 35.59375 56 
Q 45.5625 56 51.78125 48.09375 
Q 58.015625 40.1875 58.015625 27.296875 
Q 58.015625 14.40625 51.78125 6.484375 
Q 45.5625 -1.421875 35.59375 -1.421875 
Q 29.59375 -1.421875 25.265625 0.953125 
Q 20.953125 3.328125 18.109375 8.203125 
L 18.109375 0 
L 9.078125 0 
L 9.078125 75.984375 
L 18.109375 75.984375 
z
" id="DejaVuSans-62"/>
      <path d="M 41.109375 46.296875 
Q 39.59375 47.171875 37.8125 47.578125 
Q 36.03125 48 33.890625 48 
Q 26.265625 48 22.1875 43.046875 
Q 18.109375 38.09375 18.109375 28.8125 
L 18.109375 0 
L 9.078125 0 
L 9.078125 54.6875 
L 18.109375 54.6875 
L 18.109375 46.1875 
Q 20.953125 51.171875 25.484375 53.578125 
Q 30.03125 56 36.53125 56 
Q 37.453125 56 38.578125 55.875 
Q 39.703125 55.765625 41.0625 55.515625 
z
" id="DejaVuSans-72"/>
     </defs>
     <g transform="translate(180.335938 280.276563)scale(0.1 -0.1)">
      <use xlink:href="#DejaVuSans-52"/>
      <use x="69.419922" xlink:href="#DejaVuSans-65"/>
      <use x="130.943359" xlink:href="#DejaVuSans-73"/>
      <use x="183.042969" xlink:href="#DejaVuSans-69"/>
      <use x="210.826172" xlink:href="#DejaVuSans-64"/>
      <use x="274.302734" xlink:href="#DejaVuSans-75"/>
      <use x="337.681641" xlink:href="#DejaVuSans-65"/>
      <use x="399.205078" xlink:href="#DejaVuSans-20"/>
      <use x="430.992188" xlink:href="#DejaVuSans-6e"/>
      <use x="494.371094" xlink:href="#DejaVuSans-75"/>
      <use x="557.75" xlink:href="#DejaVuSans-6d"/>
      <use x="655.162109" xlink:href="#DejaVuSans-62"/>
      <use x="718.638672" xlink:href="#DejaVuSans-65"/>
      <use x="780.162109" xlink:href="#DejaVuSans-72"/>
     </g>
    </g>
   </g>
   <g id="matplotlib.axis_2">
    <g id="ytick_1">
     <g id="line2d_9">
      <defs>
       <path d="M 0 0 
L -3.5 0 
" id="maf7758240d" style="stroke:#000000;stroke-width:0.8;"/>
      </defs>
      <g>
       <use style="stroke:#000000;stroke-width:0.8;" x="54" xlink:href="#maf7758240d" y="242.116364"/>
      </g>
     </g>
     <g id="text_10">
      <!-- −1 -->
      <defs>
       <path d="M 10.59375 35.5 
L 73.1875 35.5 
L 73.1875 27.203125 
L 10.59375 27.203125 
z
" id="DejaVuSans-2212"/>
      </defs>
      <g transform="translate(32.257812 245.915582)scale(0.1 -0.1)">
       <use xlink:href="#DejaVuSans-2212"/>
       <use x="83.789062" xlink:href="#DejaVuSans-31"/>
      </g>
     </g>
    </g>
    <g id="ytick_2">
     <g id="line2d_10">
      <g>
       <use style="stroke:#000000;stroke-width:0.8;" x="54" xlink:href="#maf7758240d" y="210.575159"/>
      </g>
     </g>
     <g id="text_11">
      <!-- 0 -->
      <g transform="translate(40.6375 214.374378)scale(0.1 -0.1)">
       <use xlink:href="#DejaVuSans-30"/>
      </g>
     </g>
    </g>
    <g id="ytick_3">
     <g id="line2d_11">
      <g>
       <use style="stroke:#000000;stroke-width:0.8;" x="54" xlink:href="#maf7758240d" y="179.033955"/>
      </g>
     </g>
     <g id="text_12">
      <!-- 1 -->
      <g transform="translate(40.6375 182.833173)scale(0.1 -0.1)">
       <use xlink:href="#DejaVuSans-31"/>
      </g>
     </g>
    </g>
    <g id="ytick_4">
     <g id="line2d_12">
      <g>
       <use style="stroke:#000000;stroke-width:0.8;" x="54" xlink:href="#maf7758240d" y="147.49275"/>
      </g>
     </g>
     <g id="text_13">
      <!-- 2 -->
      <g transform="translate(40.6375 151.291969)scale(0.1 -0.1)">
       <use xlink:href="#DejaVuSans-32"/>
      </g>
     </g>
    </g>
    <g id="ytick_5">
     <g id="line2d_13">
      <g>
       <use style="stroke:#000000;stroke-width:0.8;" x="54" xlink:href="#maf7758240d" y="115.951546"/>
      </g>
     </g>
     <g id="text_14">
      <!-- 3 -->
      <defs>
       <path d="M 40.578125 39.3125 
Q 47.65625 37.796875 51.625 33 
Q 55.609375 28.21875 55.609375 21.1875 
Q 55.609375 10.40625 48.1875 4.484375 
Q 40.765625 -1.421875 27.09375 -1.421875 
Q 22.515625 -1.421875 17.65625 -0.515625 
Q 12.796875 0.390625 7.625 2.203125 
L 7.625 11.71875 
Q 11.71875 9.328125 16.59375 8.109375 
Q 21.484375 6.890625 26.8125 6.890625 
Q 36.078125 6.890625 40.9375 10.546875 
Q 45.796875 14.203125 45.796875 21.1875 
Q 45.796875 27.640625 41.28125 31.265625 
Q 36.765625 34.90625 28.71875 34.90625 
L 20.21875 34.90625 
L 20.21875 43.015625 
L 29.109375 43.015625 
Q 36.375 43.015625 40.234375 45.921875 
Q 44.09375 48.828125 44.09375 54.296875 
Q 44.09375 59.90625 40.109375 62.90625 
Q 36.140625 65.921875 28.71875 65.921875 
Q 24.65625 65.921875 20.015625 65.03125 
Q 15.375 64.15625 9.8125 62.3125 
L 9.8125 71.09375 
Q 15.4375 72.65625 20.34375 73.4375 
Q 25.25 74.21875 29.59375 74.21875 
Q 40.828125 74.21875 47.359375 69.109375 
Q 53.90625 64.015625 53.90625 55.328125 
Q 53.90625 49.265625 50.4375 45.09375 
Q 46.96875 40.921875 40.578125 39.3125 
z
" id="DejaVuSans-33"/>
      </defs>
      <g transform="translate(40.6375 119.750765)scale(0.1 -0.1)">
       <use xlink:href="#DejaVuSans-33"/>
      </g>
     </g>
    </g>
    <g id="ytick_6">
     <g id="line2d_14">
      <g>
       <use style="stroke:#000000;stroke-width:0.8;" x="54" xlink:href="#maf7758240d" y="84.410341"/>
      </g>
     </g>
     <g id="text_15">
      <!-- 4 -->
      <g transform="translate(40.6375 88.20956)scale(0.1 -0.1)">
       <use xlink:href="#DejaVuSans-34"/>
      </g>
     </g>
    </g>
    <g id="ytick_7">
     <g id="line2d_15">
      <g>
       <use style="stroke:#000000;stroke-width:0.8;" x="54" xlink:href="#maf7758240d" y="52.869137"/>
      </g>
     </g>
     <g id="text_16">
      <!-- 5 -->
      <defs>
       <path d="M 10.796875 72.90625 
L 49.515625 72.90625 
L 49.515625 64.59375 
L 19.828125 64.59375 
L 19.828125 46.734375 
Q 21.96875 47.46875 24.109375 47.828125 
Q 26.265625 48.1875 28.421875 48.1875 
Q 40.625 48.1875 47.75 41.5 
Q 54.890625 34.8125 54.890625 23.390625 
Q 54.890625 11.625 47.5625 5.09375 
Q 40.234375 -1.421875 26.90625 -1.421875 
Q 22.3125 -1.421875 17.546875 -0.640625 
Q 12.796875 0.140625 7.71875 1.703125 
L 7.71875 11.625 
Q 12.109375 9.234375 16.796875 8.0625 
Q 21.484375 6.890625 26.703125 6.890625 
Q 35.15625 6.890625 40.078125 11.328125 
Q 45.015625 15.765625 45.015625 23.390625 
Q 45.015625 31 40.078125 35.4375 
Q 35.15625 39.890625 26.703125 39.890625 
Q 22.75 39.890625 18.8125 39.015625 
Q 14.890625 38.140625 10.796875 36.28125 
z
" id="DejaVuSans-35"/>
      </defs>
      <g transform="translate(40.6375 56.668356)scale(0.1 -0.1)">
       <use xlink:href="#DejaVuSans-35"/>
      </g>
     </g>
    </g>
    <g id="text_17">
     <!-- Order parameter from diagonal intensities -->
     <defs>
      <path d="M 39.40625 66.21875 
Q 28.65625 66.21875 22.328125 58.203125 
Q 16.015625 50.203125 16.015625 36.375 
Q 16.015625 22.609375 22.328125 14.59375 
Q 28.65625 6.59375 39.40625 6.59375 
Q 50.140625 6.59375 56.421875 14.59375 
Q 62.703125 22.609375 62.703125 36.375 
Q 62.703125 50.203125 56.421875 58.203125 
Q 50.140625 66.21875 39.40625 66.21875 
z
M 39.40625 74.21875 
Q 54.734375 74.21875 63.90625 63.9375 
Q 73.09375 53.65625 73.09375 36.375 
Q 73.09375 19.140625 63.90625 8.859375 
Q 54.734375 -1.421875 39.40625 -1.421875 
Q 24.03125 -1.421875 14.8125 8.828125 
Q 5.609375 19.09375 5.609375 36.375 
Q 5.609375 53.65625 14.8125 63.9375 
Q 24.03125 74.21875 39.40625 74.21875 
z
" id="DejaVuSans-4f"/>
      <path d="M 18.109375 8.203125 
L 18.109375 -20.796875 
L 9.078125 -20.796875 
L 9.078125 54.6875 
L 18.109375 54.6875 
L 18.109375 46.390625 
Q 20.953125 51.265625 25.265625 53.625 
Q 29.59375 56 35.59375 56 
Q 45.5625 56 51.78125 48.09375 
Q 58.015625 40.1875 58.015625 27.296875 
Q 58.015625 14.40625 51.78125 6.484375 
Q 45.5625 -1.421875 35.59375 -1.421875 
Q 29.59375 -1.421875 25.265625 0.953125 
Q 20.953125 3.328125 18.109375 8.203125 
z
M 48.6875 27.296875 
Q 48.6875 37.203125 44.609375 42.84375 
Q 40.53125 48.484375 33.40625 48.484375 
Q 26.265625 48.484375 22.1875 42.84375 
Q 18.109375 37.203125 18.109375 27.296875 
Q 18.109375 17.390625 22.1875 11.75 
Q 26.265625 6.109375 33.40625 6.109375 
Q 40.53125 6.109375 44.609375 11.75 
Q 48.6875 17.390625 48.6875 27.296875 
z
" id="DejaVuSans-70"/>
      <path d="M 34.28125 27.484375 
Q 23.390625 27.484375 19.1875 25 
Q 14.984375 22.515625 14.984375 16.5 
Q 14.984375 11.71875 18.140625 8.90625 
Q 21.296875 6.109375 26.703125 6.109375 
Q 34.1875 6.109375 38.703125 11.40625 
Q 43.21875 16.703125 43.21875 25.484375 
L 43.21875 27.484375 
z
M 52.203125 31.203125 
L 52.203125 0 
L 43.21875 0 
L 43.21875 8.296875 
Q 40.140625 3.328125 35.546875 0.953125 
Q 30.953125 -1.421875 24.3125 -1.421875 
Q 15.921875 -1.421875 10.953125 3.296875 
Q 6 8.015625 6 15.921875 
Q 6 25.140625 12.171875 29.828125 
Q 18.359375 34.515625 30.609375 34.515625 
L 43.21875 34.515625 
L 43.21875 35.40625 
Q 43.21875 41.609375 39.140625 45 
Q 35.0625 48.390625 27.6875 48.390625 
Q 23 48.390625 18.546875 47.265625 
Q 14.109375 46.140625 10.015625 43.890625 
L 10.015625 52.203125 
Q 14.9375 54.109375 19.578125 55.046875 
Q 24.21875 56 28.609375 56 
Q 40.484375 56 46.34375 49.84375 
Q 52.203125 43.703125 52.203125 31.203125 
z
" id="DejaVuSans-61"/>
      <path d="M 18.3125 70.21875 
L 18.3125 54.6875 
L 36.8125 54.6875 
L 36.8125 47.703125 
L 18.3125 47.703125 
L 18.3125 18.015625 
Q 18.3125 11.328125 20.140625 9.421875 
Q 21.96875 7.515625 27.59375 7.515625 
L 36.8125 7.515625 
L 36.8125 0 
L 27.59375 0 
Q 17.1875 0 13.234375 3.875 
Q 9.28125 7.765625 9.28125 18.015625 
L 9.28125 47.703125 
L 2.6875 47.703125 
L 2.6875 54.6875 
L 9.28125 54.6875 
L 9.28125 70.21875 
z
" id="DejaVuSans-74"/>
      <path d="M 37.109375 75.984375 
L 37.109375 68.5 
L 28.515625 68.5 
Q 23.6875 68.5 21.796875 66.546875 
Q 19.921875 64.59375 19.921875 59.515625 
L 19.921875 54.6875 
L 34.71875 54.6875 
L 34.71875 47.703125 
L 19.921875 47.703125 
L 19.921875 0 
L 10.890625 0 
L 10.890625 47.703125 
L 2.296875 47.703125 
L 2.296875 54.6875 
L 10.890625 54.6875 
L 10.890625 58.5 
Q 10.890625 67.625 15.140625 71.796875 
Q 19.390625 75.984375 28.609375 75.984375 
z
" id="DejaVuSans-66"/>
      <path d="M 30.609375 48.390625 
Q 23.390625 48.390625 19.1875 42.75 
Q 14.984375 37.109375 14.984375 27.296875 
Q 14.984375 17.484375 19.15625 11.84375 
Q 23.34375 6.203125 30.609375 6.203125 
Q 37.796875 6.203125 41.984375 11.859375 
Q 46.1875 17.53125 46.1875 27.296875 
Q 46.1875 37.015625 41.984375 42.703125 
Q 37.796875 48.390625 30.609375 48.390625 
z
M 30.609375 56 
Q 42.328125 56 49.015625 48.375 
Q 55.71875 40.765625 55.71875 27.296875 
Q 55.71875 13.875 49.015625 6.21875 
Q 42.328125 -1.421875 30.609375 -1.421875 
Q 18.84375 -1.421875 12.171875 6.21875 
Q 5.515625 13.875 5.515625 27.296875 
Q 5.515625 40.765625 12.171875 48.375 
Q 18.84375 56 30.609375 56 
z
" id="DejaVuSans-6f"/>
      <path d="M 45.40625 27.984375 
Q 45.40625 37.75 41.375 43.109375 
Q 37.359375 48.484375 30.078125 48.484375 
Q 22.859375 48.484375 18.828125 43.109375 
Q 14.796875 37.75 14.796875 27.984375 
Q 14.796875 18.265625 18.828125 12.890625 
Q 22.859375 7.515625 30.078125 7.515625 
Q 37.359375 7.515625 41.375 12.890625 
Q 45.40625 18.265625 45.40625 27.984375 
z
M 54.390625 6.78125 
Q 54.390625 -7.171875 48.1875 -13.984375 
Q 42 -20.796875 29.203125 -20.796875 
Q 24.46875 -20.796875 20.265625 -20.09375 
Q 16.0625 -19.390625 12.109375 -17.921875 
L 12.109375 -9.1875 
Q 16.0625 -11.328125 19.921875 -12.34375 
Q 23.78125 -13.375 27.78125 -13.375 
Q 36.625 -13.375 41.015625 -8.765625 
Q 45.40625 -4.15625 45.40625 5.171875 
L 45.40625 9.625 
Q 42.625 4.78125 38.28125 2.390625 
Q 33.9375 0 27.875 0 
Q 17.828125 0 11.671875 7.65625 
Q 5.515625 15.328125 5.515625 27.984375 
Q 5.515625 40.671875 11.671875 48.328125 
Q 17.828125 56 27.875 56 
Q 33.9375 56 38.28125 53.609375 
Q 42.625 51.21875 45.40625 46.390625 
L 45.40625 54.6875 
L 54.390625 54.6875 
z
" id="DejaVuSans-67"/>
      <path d="M 9.421875 75.984375 
L 18.40625 75.984375 
L 18.40625 0 
L 9.421875 0 
z
" id="DejaVuSans-6c"/>
     </defs>
     <g transform="translate(26.178125 249.344063)rotate(-90)scale(0.1 -0.1)">
      <use xlink:href="#DejaVuSans-4f"/>
      <use x="78.710938" xlink:href="#DejaVuSans-72"/>
      <use x="119.808594" xlink:href="#DejaVuSans-64"/>
      <use x="183.285156" xlink:href="#DejaVuSans-65"/>
      <use x="244.808594" xlink:href="#DejaVuSans-72"/>
      <use x="285.921875" xlink:href="#DejaVuSans-20"/>
      <use x="317.708984" xlink:href="#DejaVuSans-70"/>
      <use x="381.185547" xlink:href="#DejaVuSans-61"/>
      <use x="442.464844" xlink:href="#DejaVuSans-72"/>
      <use x="483.578125" xlink:href="#DejaVuSans-61"/>
      <use x="544.857422" xlink:href="#DejaVuSans-6d"/>
      <use x="642.269531" xlink:href="#DejaVuSans-65"/>
      <use x="703.792969" xlink:href="#DejaVuSans-74"/>
      <use x="743.001953" xlink:href="#DejaVuSans-65"/>
      <use x="804.525391" xlink:href="#DejaVuSans-72"/>
      <use x="845.638672" xlink:href="#DejaVuSans-20"/>
      <use x="877.425781" xlink:href="#DejaVuSans-66"/>
      <use x="912.630859" xlink:href="#DejaVuSans-72"/>
      <use x="953.712891" xlink:href="#DejaVuSans-6f"/>
      <use x="1014.894531" xlink:href="#DejaVuSans-6d"/>
      <use x="1112.306641" xlink:href="#DejaVuSans-20"/>
      <use x="1144.09375" xlink:href="#DejaVuSans-64"/>
      <use x="1207.570312" xlink:href="#DejaVuSans-69"/>
      <use x="1235.353516" xlink:href="#DejaVuSans-61"/>
      <use x="1296.632812" xlink:href="#DejaVuSans-67"/>
      <use x="1360.109375" xlink:href="#DejaVuSans-6f"/>
      <use x="1421.291016" xlink:href="#DejaVuSans-6e"/>
      <use x="1484.669922" xlink:href="#DejaVuSans-61"/>
      <use x="1545.949219" xlink:href="#DejaVuSans-6c"/>
      <use x="1573.732422" xlink:href="#DejaVuSans-20"/>
      <use x="1605.519531" xlink:href="#DejaVuSans-69"/>
      <use x="1633.302734" xlink:href="#DejaVuSans-6e"/>
      <use x="1696.681641" xlink:href="#DejaVuSans-74"/>
      <use x="1735.890625" xlink:href="#DejaVuSans-65"/>
      <use x="1797.414062" xlink:href="#DejaVuSans-6e"/>
      <use x="1860.792969" xlink:href="#DejaVuSans-73"/>
      <use x="1912.892578" xlink:href="#DejaVuSans-69"/>
      <use x="1940.675781" xlink:href="#DejaVuSans-74"/>
      <use x="1979.884766" xlink:href="#DejaVuSans-69"/>
      <use x="2007.667969" xlink:href="#DejaVuSans-65"/>
      <use x="2069.191406" xlink:href="#DejaVuSans-73"/>
     </g>
    </g>
   </g>
   <g id="LineCollection_1">
    <path clip-path="url(#p63b433b8be)" d="M 70.121338 241.771121 
L 70.121338 241.771065 
" style="fill:none;stroke:#000000;stroke-width:1.5;"/>
    <path clip-path="url(#p63b433b8be)" d="M 72.379228 44.63848 
L 72.379228 44.443636 
" style="fill:none;stroke:#000000;stroke-width:1.5;"/>
    <path clip-path="url(#p63b433b8be)" d="M 74.637119 186.822726 
L 74.637119 185.844822 
" style="fill:none;stroke:#000000;stroke-width:1.5;"/>
    <path clip-path="url(#p63b433b8be)" d="M 76.895009 176.77485 
L 76.895009 176.337871 
" style="fill:none;stroke:#000000;stroke-width:1.5;"/>
    <path clip-path="url(#p63b433b8be)" d="M 79.1529 225.348711 
L 79.1529 223.11433 
" style="fill:none;stroke:#000000;stroke-width:1.5;"/>
    <path clip-path="url(#p63b433b8be)" d="M 81.41079 231.524107 
L 81.41079 229.972317 
" style="fill:none;stroke:#000000;stroke-width:1.5;"/>
    <path clip-path="url(#p63b433b8be)" d="M 85.926571 214.195742 
L 85.926571 210.595757 
" style="fill:none;stroke:#000000;stroke-width:1.5;"/>
    <path clip-path="url(#p63b433b8be)" d="M 88.184462 203.454726 
L 88.184462 198.421535 
" style="fill:none;stroke:#000000;stroke-width:1.5;"/>
    <path clip-path="url(#p63b433b8be)" d="M 90.442352 226.327877 
L 90.442352 223.380919 
" style="fill:none;stroke:#000000;stroke-width:1.5;"/>
    <path clip-path="url(#p63b433b8be)" d="M 92.700243 212.93408 
L 92.700243 207.688898 
" style="fill:none;stroke:#000000;stroke-width:1.5;"/>
    <path clip-path="url(#p63b433b8be)" d="M 94.958133 160.878548 
L 94.958133 160.547815 
" style="fill:none;stroke:#000000;stroke-width:1.5;"/>
    <path clip-path="url(#p63b433b8be)" d="M 97.216024 240.602423 
L 97.216024 240.584494 
" style="fill:none;stroke:#000000;stroke-width:1.5;"/>
    <path clip-path="url(#p63b433b8be)" d="M 99.473914 237.681338 
L 99.473914 237.119465 
" style="fill:none;stroke:#000000;stroke-width:1.5;"/>
    <path clip-path="url(#p63b433b8be)" d="M 101.731805 228.677667 
L 101.731805 226.877099 
" style="fill:none;stroke:#000000;stroke-width:1.5;"/>
    <path clip-path="url(#p63b433b8be)" d="M 103.989695 218.660769 
L 103.989695 215.985406 
" style="fill:none;stroke:#000000;stroke-width:1.5;"/>
    <path clip-path="url(#p63b433b8be)" d="M 106.247586 209.23521 
L 106.247586 204.306753 
" style="fill:none;stroke:#000000;stroke-width:1.5;"/>
    <path clip-path="url(#p63b433b8be)" d="M 108.505476 226.65939 
L 108.505476 224.937086 
" style="fill:none;stroke:#000000;stroke-width:1.5;"/>
    <path clip-path="url(#p63b433b8be)" d="M 110.763367 213.538612 
L 110.763367 210.312075 
" style="fill:none;stroke:#000000;stroke-width:1.5;"/>
    <path clip-path="url(#p63b433b8be)" d="M 113.021257 213.934952 
L 113.021257 210.503087 
" style="fill:none;stroke:#000000;stroke-width:1.5;"/>
    <path clip-path="url(#p63b433b8be)" d="M 115.279148 240.95189 
L 115.279148 240.796687 
" style="fill:none;stroke:#000000;stroke-width:1.5;"/>
    <path clip-path="url(#p63b433b8be)" d="M 117.537038 241.735628 
L 117.537038 241.735602 
" style="fill:none;stroke:#000000;stroke-width:1.5;"/>
    <path clip-path="url(#p63b433b8be)" d="M 119.794929 195.028194 
L 119.794929 189.23279 
" style="fill:none;stroke:#000000;stroke-width:1.5;"/>
    <path clip-path="url(#p63b433b8be)" d="M 122.052819 240.990605 
L 122.052819 240.860732 
" style="fill:none;stroke:#000000;stroke-width:1.5;"/>
    <path clip-path="url(#p63b433b8be)" d="M 124.310709 233.292921 
L 124.310709 233.249002 
" style="fill:none;stroke:#000000;stroke-width:1.5;"/>
    <path clip-path="url(#p63b433b8be)" d="M 128.82649 233.069417 
L 128.82649 232.216787 
" style="fill:none;stroke:#000000;stroke-width:1.5;"/>
    <path clip-path="url(#p63b433b8be)" d="M 131.084381 230.706462 
L 131.084381 228.720878 
" style="fill:none;stroke:#000000;stroke-width:1.5;"/>
    <path clip-path="url(#p63b433b8be)" d="M 133.342271 200.518882 
L 133.342271 193.144931 
" style="fill:none;stroke:#000000;stroke-width:1.5;"/>
    <path clip-path="url(#p63b433b8be)" d="M 135.600162 237.18972 
L 135.600162 236.883258 
" style="fill:none;stroke:#000000;stroke-width:1.5;"/>
    <path clip-path="url(#p63b433b8be)" d="M 137.858052 233.518362 
L 137.858052 233.287587 
" style="fill:none;stroke:#000000;stroke-width:1.5;"/>
    <path clip-path="url(#p63b433b8be)" d="M 140.115943 238.351955 
L 140.115943 237.899924 
" style="fill:none;stroke:#000000;stroke-width:1.5;"/>
    <path clip-path="url(#p63b433b8be)" d="M 142.373833 238.437309 
L 142.373833 237.941858 
" style="fill:none;stroke:#000000;stroke-width:1.5;"/>
    <path clip-path="url(#p63b433b8be)" d="M 144.631724 188.513999 
L 144.631724 184.151751 
" style="fill:none;stroke:#000000;stroke-width:1.5;"/>
    <path clip-path="url(#p63b433b8be)" d="M 146.889614 196.797296 
L 146.889614 196.796182 
" style="fill:none;stroke:#000000;stroke-width:1.5;"/>
    <path clip-path="url(#p63b433b8be)" d="M 149.147505 218.090397 
L 149.147505 216.371938 
" style="fill:none;stroke:#000000;stroke-width:1.5;"/>
    <path clip-path="url(#p63b433b8be)" d="M 151.405395 240.716896 
L 151.405395 240.501792 
" style="fill:none;stroke:#000000;stroke-width:1.5;"/>
    <path clip-path="url(#p63b433b8be)" d="M 153.663286 239.855943 
L 153.663286 239.646415 
" style="fill:none;stroke:#000000;stroke-width:1.5;"/>
    <path clip-path="url(#p63b433b8be)" d="M 155.921176 236.528083 
L 155.921176 235.802499 
" style="fill:none;stroke:#000000;stroke-width:1.5;"/>
    <path clip-path="url(#p63b433b8be)" d="M 158.179067 188.896504 
L 158.179067 180.801151 
" style="fill:none;stroke:#000000;stroke-width:1.5;"/>
    <path clip-path="url(#p63b433b8be)" d="M 160.436957 236.637714 
L 160.436957 236.098122 
" style="fill:none;stroke:#000000;stroke-width:1.5;"/>
    <path clip-path="url(#p63b433b8be)" d="M 162.694848 217.481956 
L 162.694848 217.446752 
" style="fill:none;stroke:#000000;stroke-width:1.5;"/>
    <path clip-path="url(#p63b433b8be)" d="M 164.952738 232.654497 
L 164.952738 231.238126 
" style="fill:none;stroke:#000000;stroke-width:1.5;"/>
    <path clip-path="url(#p63b433b8be)" d="M 167.210629 211.778283 
L 167.210629 207.185766 
" style="fill:none;stroke:#000000;stroke-width:1.5;"/>
    <path clip-path="url(#p63b433b8be)" d="M 169.468519 240.029926 
L 169.468519 239.975767 
" style="fill:none;stroke:#000000;stroke-width:1.5;"/>
    <path clip-path="url(#p63b433b8be)" d="M 171.726409 240.644233 
L 171.726409 240.469002 
" style="fill:none;stroke:#000000;stroke-width:1.5;"/>
    <path clip-path="url(#p63b433b8be)" d="M 173.9843 240.976955 
L 173.9843 240.857358 
" style="fill:none;stroke:#000000;stroke-width:1.5;"/>
    <path clip-path="url(#p63b433b8be)" d="M 176.24219 170.319881 
L 176.24219 170.275444 
" style="fill:none;stroke:#000000;stroke-width:1.5;"/>
    <path clip-path="url(#p63b433b8be)" d="M 178.500081 211.903814 
L 178.500081 208.329121 
" style="fill:none;stroke:#000000;stroke-width:1.5;"/>
    <path clip-path="url(#p63b433b8be)" d="M 180.757971 229.863857 
L 180.757971 228.85797 
" style="fill:none;stroke:#000000;stroke-width:1.5;"/>
    <path clip-path="url(#p63b433b8be)" d="M 183.015862 234.489482 
L 183.015862 233.831667 
" style="fill:none;stroke:#000000;stroke-width:1.5;"/>
    <path clip-path="url(#p63b433b8be)" d="M 185.273752 242.116364 
L 185.273752 242.116364 
" style="fill:none;stroke:#000000;stroke-width:1.5;"/>
    <path clip-path="url(#p63b433b8be)" d="M 189.789533 175.455613 
L 189.789533 174.444739 
" style="fill:none;stroke:#000000;stroke-width:1.5;"/>
    <path clip-path="url(#p63b433b8be)" d="M 192.047424 230.939575 
L 192.047424 229.723749 
" style="fill:none;stroke:#000000;stroke-width:1.5;"/>
    <path clip-path="url(#p63b433b8be)" d="M 194.305314 224.53065 
L 194.305314 224.513451 
" style="fill:none;stroke:#000000;stroke-width:1.5;"/>
    <path clip-path="url(#p63b433b8be)" d="M 196.563205 127.519899 
L 196.563205 127.473476 
" style="fill:none;stroke:#000000;stroke-width:1.5;"/>
    <path clip-path="url(#p63b433b8be)" d="M 198.821095 228.537557 
L 198.821095 228.466443 
" style="fill:none;stroke:#000000;stroke-width:1.5;"/>
    <path clip-path="url(#p63b433b8be)" d="M 201.078986 239.396602 
L 201.078986 238.992793 
" style="fill:none;stroke:#000000;stroke-width:1.5;"/>
    <path clip-path="url(#p63b433b8be)" d="M 203.336876 240.935886 
L 203.336876 240.755282 
" style="fill:none;stroke:#000000;stroke-width:1.5;"/>
    <path clip-path="url(#p63b433b8be)" d="M 205.594767 143.292586 
L 205.594767 125.156578 
" style="fill:none;stroke:#000000;stroke-width:1.5;"/>
    <path clip-path="url(#p63b433b8be)" d="M 207.852657 242.116364 
L 207.852657 242.116364 
" style="fill:none;stroke:#000000;stroke-width:1.5;"/>
    <path clip-path="url(#p63b433b8be)" d="M 210.110548 241.394187 
L 210.110548 241.378755 
" style="fill:none;stroke:#000000;stroke-width:1.5;"/>
    <path clip-path="url(#p63b433b8be)" d="M 216.884219 200.012397 
L 216.884219 199.848353 
" style="fill:none;stroke:#000000;stroke-width:1.5;"/>
    <path clip-path="url(#p63b433b8be)" d="M 219.14211 237.022356 
L 219.14211 236.903729 
" style="fill:none;stroke:#000000;stroke-width:1.5;"/>
    <path clip-path="url(#p63b433b8be)" d="M 221.4 152.914207 
L 221.4 137.243005 
" style="fill:none;stroke:#000000;stroke-width:1.5;"/>
    <path clip-path="url(#p63b433b8be)" d="M 223.65789 139.743796 
L 223.65789 121.000848 
" style="fill:none;stroke:#000000;stroke-width:1.5;"/>
    <path clip-path="url(#p63b433b8be)" d="M 225.915781 224.117179 
L 225.915781 222.102437 
" style="fill:none;stroke:#000000;stroke-width:1.5;"/>
    <path clip-path="url(#p63b433b8be)" d="M 228.173671 230.942514 
L 228.173671 229.789221 
" style="fill:none;stroke:#000000;stroke-width:1.5;"/>
    <path clip-path="url(#p63b433b8be)" d="M 230.431562 225.425186 
L 230.431562 225.416635 
" style="fill:none;stroke:#000000;stroke-width:1.5;"/>
    <path clip-path="url(#p63b433b8be)" d="M 234.947343 235.972004 
L 234.947343 235.359948 
" style="fill:none;stroke:#000000;stroke-width:1.5;"/>
    <path clip-path="url(#p63b433b8be)" d="M 237.205233 229.480246 
L 237.205233 229.223898 
" style="fill:none;stroke:#000000;stroke-width:1.5;"/>
    <path clip-path="url(#p63b433b8be)" d="M 239.463124 235.357191 
L 239.463124 235.273751 
" style="fill:none;stroke:#000000;stroke-width:1.5;"/>
    <path clip-path="url(#p63b433b8be)" d="M 241.721014 221.664922 
L 241.721014 221.008635 
" style="fill:none;stroke:#000000;stroke-width:1.5;"/>
    <path clip-path="url(#p63b433b8be)" d="M 243.978905 240.546371 
L 243.978905 240.320069 
" style="fill:none;stroke:#000000;stroke-width:1.5;"/>
    <path clip-path="url(#p63b433b8be)" d="M 246.236795 221.006807 
L 246.236795 217.407096 
" style="fill:none;stroke:#000000;stroke-width:1.5;"/>
    <path clip-path="url(#p63b433b8be)" d="M 248.494686 226.88419 
L 248.494686 224.432727 
" style="fill:none;stroke:#000000;stroke-width:1.5;"/>
    <path clip-path="url(#p63b433b8be)" d="M 253.010467 223.720209 
L 253.010467 222.822727 
" style="fill:none;stroke:#000000;stroke-width:1.5;"/>
    <path clip-path="url(#p63b433b8be)" d="M 255.268357 226.527885 
L 255.268357 224.164485 
" style="fill:none;stroke:#000000;stroke-width:1.5;"/>
    <path clip-path="url(#p63b433b8be)" d="M 257.526248 242.116364 
L 257.526248 242.116364 
" style="fill:none;stroke:#000000;stroke-width:1.5;"/>
    <path clip-path="url(#p63b433b8be)" d="M 259.784138 242.116364 
L 259.784138 242.116364 
" style="fill:none;stroke:#000000;stroke-width:1.5;"/>
    <path clip-path="url(#p63b433b8be)" d="M 266.55781 241.536382 
L 266.55781 241.449138 
" style="fill:none;stroke:#000000;stroke-width:1.5;"/>
    <path clip-path="url(#p63b433b8be)" d="M 268.8157 234.299629 
L 268.8157 234.216952 
" style="fill:none;stroke:#000000;stroke-width:1.5;"/>
    <path clip-path="url(#p63b433b8be)" d="M 271.073591 190.138382 
L 271.073591 182.000614 
" style="fill:none;stroke:#000000;stroke-width:1.5;"/>
    <path clip-path="url(#p63b433b8be)" d="M 273.331481 237.508362 
L 273.331481 236.757034 
" style="fill:none;stroke:#000000;stroke-width:1.5;"/>
    <path clip-path="url(#p63b433b8be)" d="M 275.589371 237.61243 
L 275.589371 237.489592 
" style="fill:none;stroke:#000000;stroke-width:1.5;"/>
    <path clip-path="url(#p63b433b8be)" d="M 277.847262 227.241169 
L 277.847262 225.028565 
" style="fill:none;stroke:#000000;stroke-width:1.5;"/>
    <path clip-path="url(#p63b433b8be)" d="M 280.105152 205.490023 
L 280.105152 200.231855 
" style="fill:none;stroke:#000000;stroke-width:1.5;"/>
    <path clip-path="url(#p63b433b8be)" d="M 282.363043 220.870572 
L 282.363043 217.820897 
" style="fill:none;stroke:#000000;stroke-width:1.5;"/>
    <path clip-path="url(#p63b433b8be)" d="M 284.620933 132.383492 
L 284.620933 132.372081 
" style="fill:none;stroke:#000000;stroke-width:1.5;"/>
    <path clip-path="url(#p63b433b8be)" d="M 286.878824 242.116364 
L 286.878824 242.116364 
" style="fill:none;stroke:#000000;stroke-width:1.5;"/>
    <path clip-path="url(#p63b433b8be)" d="M 289.136714 172.226432 
L 289.136714 162.795534 
" style="fill:none;stroke:#000000;stroke-width:1.5;"/>
    <path clip-path="url(#p63b433b8be)" d="M 293.652495 242.116364 
L 293.652495 242.116364 
" style="fill:none;stroke:#000000;stroke-width:1.5;"/>
    <path clip-path="url(#p63b433b8be)" d="M 295.910386 230.51535 
L 295.910386 230.455081 
" style="fill:none;stroke:#000000;stroke-width:1.5;"/>
    <path clip-path="url(#p63b433b8be)" d="M 300.426167 242.116364 
L 300.426167 242.116364 
" style="fill:none;stroke:#000000;stroke-width:1.5;"/>
    <path clip-path="url(#p63b433b8be)" d="M 302.684057 225.448788 
L 302.684057 223.624716 
" style="fill:none;stroke:#000000;stroke-width:1.5;"/>
    <path clip-path="url(#p63b433b8be)" d="M 307.199838 223.147346 
L 307.199838 220.467828 
" style="fill:none;stroke:#000000;stroke-width:1.5;"/>
    <path clip-path="url(#p63b433b8be)" d="M 309.457729 241.37724 
L 309.457729 241.271425 
" style="fill:none;stroke:#000000;stroke-width:1.5;"/>
    <path clip-path="url(#p63b433b8be)" d="M 311.715619 178.401072 
L 311.715619 168.479239 
" style="fill:none;stroke:#000000;stroke-width:1.5;"/>
    <path clip-path="url(#p63b433b8be)" d="M 313.97351 131.251856 
L 313.97351 113.419931 
" style="fill:none;stroke:#000000;stroke-width:1.5;"/>
    <path clip-path="url(#p63b433b8be)" d="M 316.2314 236.483642 
L 316.2314 236.445883 
" style="fill:none;stroke:#000000;stroke-width:1.5;"/>
    <path clip-path="url(#p63b433b8be)" d="M 318.489291 205.669767 
L 318.489291 205.656553 
" style="fill:none;stroke:#000000;stroke-width:1.5;"/>
    <path clip-path="url(#p63b433b8be)" d="M 320.747181 213.601529 
L 320.747181 211.065252 
" style="fill:none;stroke:#000000;stroke-width:1.5;"/>
    <path clip-path="url(#p63b433b8be)" d="M 323.005071 241.325028 
L 323.005071 241.257119 
" style="fill:none;stroke:#000000;stroke-width:1.5;"/>
    <path clip-path="url(#p63b433b8be)" d="M 325.262962 231.800908 
L 325.262962 230.317611 
" style="fill:none;stroke:#000000;stroke-width:1.5;"/>
    <path clip-path="url(#p63b433b8be)" d="M 327.520852 193.184181 
L 327.520852 186.217046 
" style="fill:none;stroke:#000000;stroke-width:1.5;"/>
    <path clip-path="url(#p63b433b8be)" d="M 329.778743 237.283458 
L 329.778743 237.264186 
" style="fill:none;stroke:#000000;stroke-width:1.5;"/>
    <path clip-path="url(#p63b433b8be)" d="M 332.036633 241.936682 
L 332.036633 241.915738 
" style="fill:none;stroke:#000000;stroke-width:1.5;"/>
    <path clip-path="url(#p63b433b8be)" d="M 334.294524 232.481591 
L 334.294524 231.374777 
" style="fill:none;stroke:#000000;stroke-width:1.5;"/>
    <path clip-path="url(#p63b433b8be)" d="M 338.810305 219.491416 
L 338.810305 216.361701 
" style="fill:none;stroke:#000000;stroke-width:1.5;"/>
    <path clip-path="url(#p63b433b8be)" d="M 341.068195 224.455299 
L 341.068195 224.43475 
" style="fill:none;stroke:#000000;stroke-width:1.5;"/>
    <path clip-path="url(#p63b433b8be)" d="M 343.326086 238.301864 
L 343.326086 238.008108 
" style="fill:none;stroke:#000000;stroke-width:1.5;"/>
    <path clip-path="url(#p63b433b8be)" d="M 345.583976 242.02295 
L 345.583976 242.015495 
" style="fill:none;stroke:#000000;stroke-width:1.5;"/>
    <path clip-path="url(#p63b433b8be)" d="M 347.841867 228.651916 
L 347.841867 228.587602 
" style="fill:none;stroke:#000000;stroke-width:1.5;"/>
    <path clip-path="url(#p63b433b8be)" d="M 350.099757 231.477314 
L 350.099757 230.25125 
" style="fill:none;stroke:#000000;stroke-width:1.5;"/>
    <path clip-path="url(#p63b433b8be)" d="M 352.357648 218.720909 
L 352.357648 218.681227 
" style="fill:none;stroke:#000000;stroke-width:1.5;"/>
    <path clip-path="url(#p63b433b8be)" d="M 354.615538 214.102654 
L 354.615538 212.961139 
" style="fill:none;stroke:#000000;stroke-width:1.5;"/>
    <path clip-path="url(#p63b433b8be)" d="M 356.873429 184.359263 
L 356.873429 183.00067 
" style="fill:none;stroke:#000000;stroke-width:1.5;"/>
    <path clip-path="url(#p63b433b8be)" d="M 361.38921 224.333246 
L 361.38921 224.235932 
" style="fill:none;stroke:#000000;stroke-width:1.5;"/>
    <path clip-path="url(#p63b433b8be)" d="M 363.6471 218.790364 
L 363.6471 218.766702 
" style="fill:none;stroke:#000000;stroke-width:1.5;"/>
    <path clip-path="url(#p63b433b8be)" d="M 365.904991 216.498749 
L 365.904991 213.577697 
" style="fill:none;stroke:#000000;stroke-width:1.5;"/>
    <path clip-path="url(#p63b433b8be)" d="M 368.162881 218.690669 
L 368.162881 216.612068 
" style="fill:none;stroke:#000000;stroke-width:1.5;"/>
    <path clip-path="url(#p63b433b8be)" d="M 370.420772 219.660059 
L 370.420772 217.304288 
" style="fill:none;stroke:#000000;stroke-width:1.5;"/>
    <path clip-path="url(#p63b433b8be)" d="M 372.678662 168.023077 
L 372.678662 166.974128 
" style="fill:none;stroke:#000000;stroke-width:1.5;"/>
   </g>
   <g id="patch_138">
    <path d="M 54 252 
L 54 34.56 
" style="fill:none;stroke:#000000;stroke-linecap:square;stroke-linejoin:miter;stroke-width:0.8;"/>
   </g>
   <g id="patch_139">
    <path d="M 388.8 252 
L 388.8 34.56 
" style="fill:none;stroke:#000000;stroke-linecap:square;stroke-linejoin:miter;stroke-width:0.8;"/>
   </g>
   <g id="patch_140">
    <path d="M 54 252 
L 388.8 252 
" style="fill:none;stroke:#000000;stroke-linecap:square;stroke-linejoin:miter;stroke-width:0.8;"/>
   </g>
   <g id="patch_141">
    <path d="M 54 34.56 
L 388.8 34.56 
" style="fill:none;stroke:#000000;stroke-linecap:square;stroke-linejoin:miter;stroke-width:0.8;"/>
   </g>
   <g id="text_18">
    <!-- Order parameter from diagonal intensities -->
    <g transform="translate(94.123125 15.122625)scale(0.12 -0.12)">
     <use xlink:href="#DejaVuSans-4f"/>
     <use x="78.710938" xlink:href="#DejaVuSans-72"/>
     <use x="119.808594" xlink:href="#DejaVuSans-64"/>
     <use x="183.285156" xlink:href="#DejaVuSans-65"/>
     <use x="244.808594" xlink:href="#DejaVuSans-72"/>
     <use x="285.921875" xlink:href="#DejaVuSans-20"/>
     <use x="317.708984" xlink:href="#DejaVuSans-70"/>
     <use x="381.185547" xlink:href="#DejaVuSans-61"/>
     <use x="442.464844" xlink:href="#DejaVuSans-72"/>
     <use x="483.578125" xlink:href="#DejaVuSans-61"/>
     <use x="544.857422" xlink:href="#DejaVuSans-6d"/>
     <use x="642.269531" xlink:href="#DejaVuSans-65"/>
     <use x="703.792969" xlink:href="#DejaVuSans-74"/>
     <use x="743.001953" xlink:href="#DejaVuSans-65"/>
     <use x="804.525391" xlink:href="#DejaVuSans-72"/>
     <use x="845.638672" xlink:href="#DejaVuSans-20"/>
     <use x="877.425781" xlink:href="#DejaVuSans-66"/>
     <use x="912.630859" xlink:href="#DejaVuSans-72"/>
     <use x="953.712891" xlink:href="#DejaVuSans-6f"/>
     <use x="1014.894531" xlink:href="#DejaVuSans-6d"/>
     <use x="1112.306641" xlink:href="#DejaVuSans-20"/>
     <use x="1144.09375" xlink:href="#DejaVuSans-64"/>
     <use x="1207.570312" xlink:href="#DejaVuSans-69"/>
     <use x="1235.353516" xlink:href="#DejaVuSans-61"/>
     <use x="1296.632812" xlink:href="#DejaVuSans-67"/>
     <use x="1360.109375" xlink:href="#DejaVuSans-6f"/>
     <use x="1421.291016" xlink:href="#DejaVuSans-6e"/>
     <use x="1484.669922" xlink:href="#DejaVuSans-61"/>
     <use x="1545.949219" xlink:href="#DejaVuSans-6c"/>
     <use x="1573.732422" xlink:href="#DejaVuSans-20"/>
     <use x="1605.519531" xlink:href="#DejaVuSans-69"/>
     <use x="1633.302734" xlink:href="#DejaVuSans-6e"/>
     <use x="1696.681641" xlink:href="#DejaVuSans-74"/>
     <use x="1735.890625" xlink:href="#DejaVuSans-65"/>
     <use x="1797.414062" xlink:href="#DejaVuSans-6e"/>
     <use x="1860.792969" xlink:href="#DejaVuSans-73"/>
     <use x="1912.892578" xlink:href="#DejaVuSans-69"/>
     <use x="1940.675781" xlink:href="#DejaVuSans-74"/>
     <use x="1979.884766" xlink:href="#DejaVuSans-69"/>
     <use x="2007.667969" xlink:href="#DejaVuSans-65"/>
     <use x="2069.191406" xlink:href="#DejaVuSans-73"/>
    </g>
    <!-- Sampling rate = 250 -->
    <defs>
     <path d="M 53.515625 70.515625 
L 53.515625 60.890625 
Q 47.90625 63.578125 42.921875 64.890625 
Q 37.9375 66.21875 33.296875 66.21875 
Q 25.25 66.21875 20.875 63.09375 
Q 16.5 59.96875 16.5 54.203125 
Q 16.5 49.359375 19.40625 46.890625 
Q 22.3125 44.4375 30.421875 42.921875 
L 36.375 41.703125 
Q 47.40625 39.59375 52.65625 34.296875 
Q 57.90625 29 57.90625 20.125 
Q 57.90625 9.515625 50.796875 4.046875 
Q 43.703125 -1.421875 29.984375 -1.421875 
Q 24.8125 -1.421875 18.96875 -0.25 
Q 13.140625 0.921875 6.890625 3.21875 
L 6.890625 13.375 
Q 12.890625 10.015625 18.65625 8.296875 
Q 24.421875 6.59375 29.984375 6.59375 
Q 38.421875 6.59375 43.015625 9.90625 
Q 47.609375 13.234375 47.609375 19.390625 
Q 47.609375 24.75 44.3125 27.78125 
Q 41.015625 30.8125 33.5 32.328125 
L 27.484375 33.5 
Q 16.453125 35.6875 11.515625 40.375 
Q 6.59375 45.0625 6.59375 53.421875 
Q 6.59375 63.09375 13.40625 68.65625 
Q 20.21875 74.21875 32.171875 74.21875 
Q 37.3125 74.21875 42.625 73.28125 
Q 47.953125 72.359375 53.515625 70.515625 
z
" id="DejaVuSans-53"/>
     <path d="M 10.59375 45.40625 
L 73.1875 45.40625 
L 73.1875 37.203125 
L 10.59375 37.203125 
z
M 10.59375 25.484375 
L 73.1875 25.484375 
L 73.1875 17.1875 
L 10.59375 17.1875 
z
" id="DejaVuSans-3d"/>
    </defs>
    <g transform="translate(158.926875 28.56)scale(0.12 -0.12)">
     <use xlink:href="#DejaVuSans-53"/>
     <use x="63.476562" xlink:href="#DejaVuSans-61"/>
     <use x="124.755859" xlink:href="#DejaVuSans-6d"/>
     <use x="222.167969" xlink:href="#DejaVuSans-70"/>
     <use x="285.644531" xlink:href="#DejaVuSans-6c"/>
     <use x="313.427734" xlink:href="#DejaVuSans-69"/>
     <use x="341.210938" xlink:href="#DejaVuSans-6e"/>
     <use x="404.589844" xlink:href="#DejaVuSans-67"/>
     <use x="468.066406" xlink:href="#DejaVuSans-20"/>
     <use x="499.853516" xlink:href="#DejaVuSans-72"/>
     <use x="540.966797" xlink:href="#DejaVuSans-61"/>
     <use x="602.246094" xlink:href="#DejaVuSans-74"/>
     <use x="641.455078" xlink:href="#DejaVuSans-65"/>
     <use x="702.978516" xlink:href="#DejaVuSans-20"/>
     <use x="734.765625" xlink:href="#DejaVuSans-3d"/>
     <use x="818.554688" xlink:href="#DejaVuSans-20"/>
     <use x="850.341797" xlink:href="#DejaVuSans-32"/>
     <use x="913.964844" xlink:href="#DejaVuSans-35"/>
     <use x="977.587891" xlink:href="#DejaVuSans-30"/>
    </g>
   </g>
  </g>
 </g>
 <defs>
  <clipPath id="p63b433b8be">
   <rect height="217.44" width="334.8" x="54" y="34.56"/>
  </clipPath>
 </defs>
</svg>
